<svg width="32" height="32" viewBox="0 0 32 32" fill="none" xmlns="http://www.w3.org/2000/svg">
<path d="M16.3517 30.2984C19.6998 30.2997 22.9447 29.1402 25.5335 27.017C28.1223 24.894 29.8949 21.9389 30.549 18.6554C31.2032 15.3719 30.6984 11.9631 29.121 9.0101C27.5434 6.05703 24.9906 3.74236 21.8976 2.46058C18.8047 1.1788 15.363 1.0092 12.1589 1.98072C8.955 2.95223 6.18705 5.00472 4.32682 7.78841C2.46659 10.5721 1.62922 13.9147 1.9574 17.2466C2.28559 20.5785 3.75902 23.6936 6.1266 26.0608C8.83964 28.7711 12.5168 30.2951 16.3517 30.2984Z" fill="#F0F2FF"/>
<path d="M5.97026 24.7427L3.87012 24.3181C4.55527 24.4596 5.25532 24.6012 5.97026 24.7352V24.7427Z" fill="#F0F2FF"/>
<path d="M6.03778 24.8767H5.92607L4.06424 24.4597L3.84082 24.2809C4.50363 24.4225 5.18879 24.5565 5.93351 24.698H6.03033L6.03778 24.8767Z" fill="#3350B9"/>
<path d="M10.7743 17.4294C12.5915 18.8295 14.4533 20.2519 16.2927 21.6222C14.4458 20.2445 12.5691 18.8221 10.752 17.4145L10.7743 17.4294Z" fill="#F0F2FF"/>
<path d="M16.233 23.5287V21.6968C14.4456 20.3636 12.5987 18.9636 10.7443 17.5263L10.5879 17.4294L10.8262 17.3401H10.8709C12.5466 18.6434 14.4084 20.0584 16.4043 21.5552H16.4416V23.4767L16.233 23.5287Z" fill="#3350B9"/>
<path d="M26.7112 24.7427C26.8601 23.0373 26.9868 21.2946 27.106 19.5296C26.9818 21.2872 26.8403 23.0249 26.6814 24.7427C24.8643 26.1502 22.9578 27.5057 21.0885 28.7493C20.7981 29.2781 20.5151 29.7919 20.2246 30.2984C20.5077 29.7994 20.7981 29.2855 21.081 28.7568C23.0025 27.5057 24.9016 26.1502 26.7112 24.7427Z" fill="#F0F2FF"/>
<path d="M19.7031 30.4622L20.1872 30.2537C20.4553 29.7771 20.7234 29.3078 20.9766 28.8462H20.8202L21.066 28.6748C22.9874 27.394 24.8567 26.0534 26.6143 24.698C26.7632 23.0894 26.9047 21.3542 27.0313 19.5371H27.2175C27.0834 21.5627 26.9568 23.216 26.8302 24.7502V24.7874C25.0578 26.1577 23.1736 27.5057 21.2522 28.7792C20.9692 29.293 20.6787 29.8068 20.3958 30.2686L19.7031 30.4622Z" fill="#3350B9"/>
<path d="M16.293 27.1109H16.3526C16.3526 25.9566 16.3153 24.7501 16.293 23.5213C16.293 24.7575 16.2558 25.9566 16.2334 27.1109H16.293Z" fill="#F0F2FF"/>
<path d="M16.292 27.2301L16.1729 27.1854L16.2325 23.5213H16.4112L16.4707 27.1854H16.3516L16.292 27.2301Z" fill="#3350B9"/>
<path d="M28.0441 8.65653C26.495 8.06819 24.8641 7.48729 23.2108 6.92874L19.5244 11.0471C20.3287 13.1547 21.1256 15.3144 21.8851 17.4369L27.0982 19.5445C28.1185 17.9507 29.0792 16.3794 29.9952 14.8528C29.3921 12.8047 28.7441 10.7269 28.0441 8.65653Z" fill="#F0F2FF"/>
<path d="M27.1352 19.6637H27.0682L22.4359 17.7944L21.8179 17.5412C21.0731 15.4336 20.2688 13.2813 19.457 11.1513V11.0992L23.1807 6.98087L23.2254 6.93619H23.2775C25.0723 7.53942 26.6586 8.10541 28.1108 8.65651V8.70119C28.7364 10.5482 29.3768 12.5738 30.0694 14.9048C29.0119 16.6848 28.0661 18.1742 27.1724 19.5892L27.1352 19.6637ZM21.9593 17.3774L22.503 17.5933L27.0607 19.4328C27.9395 18.0699 28.8406 16.6103 29.8981 14.8453C29.2204 12.5589 28.5874 10.5555 27.9693 8.73098C26.5394 8.18733 24.9904 7.63623 23.2403 7.04045L19.6357 11.0695C20.4326 13.1695 21.2146 15.2921 21.9593 17.3699V17.3774Z" fill="#3350B9"/>
<path d="M10.7744 17.4294H10.8116C11.5563 15.2996 12.3755 13.1472 13.1724 11.0321L9.44878 6.92126C7.80293 7.47981 6.17198 8.05325 4.63038 8.64158C3.96757 10.7269 3.31966 12.8121 2.70898 14.86C3.6101 16.3496 4.57825 17.9434 5.59109 19.5221L10.7521 17.4294H10.7744Z" fill="#F0F2FF"/>
<path d="M5.55361 19.6636V19.5966C4.59291 18.1071 3.61731 16.5209 2.66406 14.927V14.89C3.40879 12.4471 4.01947 10.4736 4.6227 8.68629V8.64158C6.05258 8.09793 7.60161 7.53939 9.44856 6.92126H9.50814V7.00318L13.2318 11.1141V11.2109C12.4423 13.2962 11.653 15.4485 10.8784 17.6008V17.638L10.7444 17.6901L5.82172 19.5296L5.55361 19.6636ZM2.80556 14.8453C3.73647 16.4017 4.68227 17.9434 5.62809 19.4104L5.75469 19.3657L10.7221 17.3549C11.4668 15.2474 12.2636 13.1323 13.0381 11.0843C11.8019 9.69909 10.5954 8.35114 9.42622 7.05532C7.65374 7.6511 6.11216 8.20964 4.70462 8.73842C4.13862 10.4885 3.5205 12.4397 2.80556 14.8453Z" fill="#3350B9"/>
<path d="M5.56838 19.6636L5.44922 19.4849L5.55348 19.4477L10.7219 17.3549H10.7666L10.9602 17.4965L10.8039 17.5561L5.6354 19.6636H5.56838Z" fill="#3350B9"/>
<path d="M21.0887 28.7493C19.5322 28.2354 17.9384 27.6992 16.3522 27.1109C14.7361 27.6694 13.1499 28.1982 11.5859 28.7195C11.8764 29.2483 12.1593 29.7547 12.4424 30.2537C15.0117 30.8554 17.6852 30.8554 20.2545 30.2537C20.5376 29.7547 20.828 29.2408 21.1184 28.712L21.0887 28.7493Z" fill="#3350B9"/>
<path d="M16.3524 30.8345C15.0236 30.8361 13.6991 30.6834 12.4053 30.3802C12.1149 29.8813 11.8244 29.3675 11.5414 28.8462L11.4893 28.7493L12.234 28.4961C13.5671 28.0493 14.9449 27.5875 16.3301 27.1034C17.9685 27.6769 19.5771 28.2131 21.0814 28.7121H21.208L21.1484 28.8238C20.8357 29.3898 20.5526 29.8962 20.2771 30.3729H20.2399C18.9654 30.6716 17.6614 30.8265 16.3524 30.8345ZM12.4798 30.2164C15.0113 30.7974 17.6414 30.7974 20.1729 30.2164C20.4261 29.7771 20.6793 29.3153 20.9622 28.8089C19.4728 28.3174 17.9312 27.7886 16.3301 27.2375C14.9523 27.7141 13.582 28.1684 12.2639 28.6153L11.6978 28.8015C11.956 29.2979 12.2166 29.7671 12.4798 30.209V30.2164Z" fill="#3350B9"/>
<path d="M16.3525 27.1109C17.9685 27.6694 19.5549 28.1982 21.1188 28.727C19.5399 28.228 17.9612 27.6918 16.3525 27.1109Z" fill="#F0F2FF"/>
<path d="M21.0588 28.8387L20.2544 28.6003C18.9661 28.1684 17.633 27.7216 16.2925 27.2598L16.0244 27.1109L16.3521 27.0364C18.0129 27.6248 19.6586 28.1834 21.0811 28.66L21.0588 28.8387Z" fill="#3350B9"/>
<path d="M11.5635 28.7568C13.1199 28.2355 14.7137 27.6993 16.3224 27.1407L11.5635 28.7568Z" fill="#F0F2FF"/>
<path d="M11.5928 28.8387L11.5332 28.6674C13.0227 28.161 14.6314 27.6174 16.2623 27.0439L16.575 27.1482L16.3219 27.2375C14.676 27.8035 13.0674 28.3472 11.5631 28.8462L11.5928 28.8387Z" fill="#3350B9"/>
<path d="M16.3523 27.2375L16.0098 27.1109L16.3523 27.0141L16.6502 27.1109L16.3523 27.2375Z" fill="#3350B9"/>
<path d="M12.4196 30.2834C12.1366 29.7919 11.8462 29.2781 11.5632 28.794C9.68647 27.5429 7.77995 26.18 5.97026 24.7799C5.22553 24.6458 4.55527 24.5043 3.87012 24.3629C5.82829 27.3932 8.8987 29.5329 12.4196 30.3207V30.2834Z" fill="#F0F2FF"/>
<path d="M12.6282 30.4249L12.4494 30.3877C8.8892 29.5901 5.78282 27.4301 3.79567 24.3703L3.69141 24.1916L3.89993 24.2363L5.99262 24.6533C7.71294 25.9864 9.58967 27.3343 11.5856 28.6674C11.876 29.1888 12.1664 29.7026 12.4494 30.1569L12.6282 30.4249ZM4.08611 24.4671C6.00534 27.3267 8.92941 29.3602 12.2781 30.1643C12.025 29.7324 11.7791 29.2855 11.5334 28.8312C9.50775 27.5007 7.63847 26.1651 5.9256 24.8246C5.29258 24.7055 4.667 24.5788 4.06377 24.4523L4.08611 24.4671Z" fill="#3350B9"/>
<path d="M28.841 24.3181C28.1484 24.4671 27.4409 24.6012 26.7185 24.7427C24.9014 26.1502 22.9949 27.5056 21.1256 28.7567L20.2617 30.2984C23.7943 29.5054 26.8748 27.3581 28.841 24.3181Z" fill="#F0F2FF"/>
<path d="M19.7031 30.4622L20.1798 30.2537C20.4628 29.7547 20.7457 29.2334 21.0363 28.7121C22.9726 27.4162 24.8567 26.0683 26.6217 24.698H26.6663C27.3664 24.564 28.0813 24.4224 28.7814 24.2735L28.9899 24.2289L28.8782 24.415C26.8945 27.4402 23.813 29.5764 20.2841 30.3729L19.7031 30.4622ZM21.1926 28.8163L20.4479 30.1643C23.7968 29.3518 26.7198 27.3137 28.6399 24.4523L26.7483 24.8246C24.9982 26.1874 23.1289 27.5354 21.2 28.8163H21.1926Z" fill="#3350B9"/>
<path d="M27.1056 19.5445C26.9865 21.302 26.8599 23.0373 26.7109 24.7576C27.4358 24.6235 28.1433 24.482 28.8334 24.3331C30.0933 22.3267 30.8591 20.05 31.0676 17.6901L30.0027 14.8751C29.0866 16.3794 28.1185 17.9582 27.1056 19.5445Z" fill="#F0F2FF"/>
<path d="M26.6143 24.8767V24.7576C26.7557 23.0893 26.8897 21.3392 27.0015 19.5445V19.4998C27.9026 18.0997 28.8187 16.6102 29.8985 14.8155L29.9953 14.6591L30.0623 14.8303C30.4273 15.7836 30.807 16.7219 31.1347 17.6528V17.6901C30.9287 20.0691 30.1633 22.3658 28.9006 24.3926H28.8633C28.1633 24.5416 27.4484 24.6831 26.7409 24.8171L26.6143 24.8767ZM27.1951 19.5966C27.0834 21.3319 26.9569 23.0298 26.8153 24.6533L28.7814 24.2586C30.0253 22.28 30.7904 20.0386 31.0156 17.7125C30.688 16.8486 30.3602 15.9698 30.0176 15.0835C28.9452 16.7816 28.059 18.2188 27.1951 19.5519V19.5966Z" fill="#3350B9"/>
<path d="M5.54656 19.5444H5.59124C4.57839 17.9657 3.61769 16.4017 2.70913 14.8823C2.34421 15.8282 1.9644 16.7741 1.63672 17.6975C1.84527 20.0574 2.61098 22.3341 3.8709 24.3405L5.97105 24.765C5.81218 23.0372 5.67068 21.2971 5.54656 19.5444Z" fill="#F0F2FF"/>
<path d="M6.06775 24.8767H5.92626L3.87824 24.5043C2.58328 22.4668 1.78721 20.1525 1.55469 17.7497V17.7125C1.87492 16.6847 2.2026 15.7762 2.58986 14.8229L2.65688 14.6516L2.7537 14.8081C3.79632 16.5432 4.74212 18.0699 5.63581 19.4774L5.69539 19.5668L5.61347 19.6041C5.74007 21.3765 5.88157 23.1043 6.03052 24.7352L6.06775 24.8767ZM3.93037 24.2586L5.86668 24.6533C5.71773 23.0373 5.58368 21.3244 5.45708 19.5743V19.5073C4.60062 18.1742 3.69205 16.6847 2.72391 15.0612L1.72597 17.6901C1.94077 20.021 2.69551 22.27 3.93037 24.2586Z" fill="#3350B9"/>
<path d="M5.60621 19.5445H5.56152C5.68813 21.2946 5.82963 23.0373 5.98602 24.7576C5.847 23.0398 5.7204 21.3021 5.60621 19.5445Z" fill="#F0F2FF"/>
<path d="M6.08931 24.832H5.92547V24.7501C5.76908 23.1191 5.62758 21.369 5.50098 19.5371V19.4699L5.67226 19.3955L5.73929 19.4998C5.85845 21.3244 5.98505 23.0745 6.12655 24.7129L6.08931 24.832Z" fill="#3350B9"/>
<path d="M4.72706 6.37015C2.61055 9.10612 1.48898 12.4814 1.54707 15.94C1.54693 16.5195 1.57676 17.0987 1.63644 17.6752C1.98646 16.7517 2.38116 15.806 2.70885 14.8601C3.31952 12.812 3.96743 10.7268 4.66748 8.65648C4.68237 7.88939 4.70471 7.12232 4.72706 6.37015Z" fill="#F0F2FF"/>
<path d="M1.72512 18.9189L1.54638 17.7273C1.4868 17.1315 1.45701 16.5357 1.45701 15.94C1.38893 12.4591 2.51662 9.06032 4.6519 6.31059L5.18067 5.7446L4.82319 6.37017C4.82319 7.11492 4.77851 7.85964 4.76361 8.6565C4.13804 10.496 3.51992 12.462 2.81243 14.8527L1.72512 17.7125V18.9189ZM4.62211 6.63829C2.6248 9.32255 1.57685 12.5948 1.6432 15.94C1.63454 16.3875 1.65195 16.8351 1.69533 17.2805C2.00067 16.4687 2.30601 15.6495 2.62625 14.8229C3.32629 12.4472 3.95186 10.4811 4.56998 8.64161C4.58488 7.97135 4.60722 7.3011 4.62211 6.63829Z" fill="#3350B9"/>
<path d="M30.0036 14.8601L31.0685 17.6752C31.1282 17.0987 31.158 16.5195 31.1579 15.94C31.2259 12.4811 30.1062 9.10338 27.9854 6.37015C27.9854 7.11488 28.0226 7.8596 28.0449 8.65648C28.7449 10.7268 29.3929 12.812 30.0036 14.8601Z" fill="#F0F2FF"/>
<path d="M31.0681 18.1221L30.9861 17.7125C30.6361 16.7816 30.2786 15.8431 29.9137 14.8898C29.2136 12.544 28.5732 10.5183 27.955 8.69373C27.955 7.949 27.955 7.20427 27.8955 6.40741V6.13931L28.0668 6.34784C30.1897 9.08895 31.3118 12.4735 31.2468 15.9399C31.2631 16.5226 31.2306 17.1053 31.1499 17.6827L31.0681 18.1221ZM30.085 14.8302L31.0159 17.2731C31.0159 16.8336 31.0681 16.3868 31.0681 15.9399C31.1344 12.5948 30.0864 9.32254 28.0892 6.63828C28.0892 7.30109 28.0892 7.97134 28.1412 8.6416C28.7519 10.4662 29.385 12.4918 30.085 14.8302Z" fill="#3350B9"/>
<path d="M19.3833 2.69118L21.7962 2.03582C18.2659 0.836776 14.4385 0.836776 10.9082 2.03582L13.3211 2.69118H19.3833Z" fill="#3350B9"/>
<path d="M19.3984 2.78804H13.3734L10.3945 2.16248L10.9233 1.94651C12.6692 1.34217 14.5049 1.03749 16.3524 1.04538H16.4269C18.2648 1.04423 20.0899 1.35134 21.8262 1.95395L22.1091 2.05077L19.3984 2.78804ZM11.2064 2.04332L13.3139 2.61675H19.3314L21.4389 2.04332C19.821 1.51141 18.13 1.23502 16.4269 1.22412H16.278C14.5606 1.22555 12.8543 1.49696 11.2212 2.02843L11.2064 2.04332Z" fill="#3350B9"/>
<path d="M13.1792 11.0471C12.3749 13.1622 11.578 15.3144 10.8184 17.4444C12.6356 18.8519 14.5421 20.2743 16.3517 21.6521C18.1987 20.2743 20.0754 18.8519 21.8925 17.4444C21.1478 15.3144 20.3286 13.1622 19.5318 11.0471H13.1792Z" fill="#3350B9"/>
<path d="M16.3521 21.7712L16.3 21.7265C14.3934 20.3041 12.5316 18.8816 10.7592 17.5114L10.707 17.4741V17.4294C11.4518 15.292 12.271 13.1472 13.0679 11.0396V10.9801H19.5544V11.0396C20.3662 13.177 21.1631 15.3292 21.9152 17.4294V17.4965L21.8631 17.5338C20.0758 18.9189 18.2362 20.3041 16.3521 21.7265V21.7712ZM10.923 17.4294C12.6284 18.7551 14.4828 20.1403 16.3521 21.5404C18.2214 20.1403 20.0758 18.7551 21.7812 17.407C21.0364 15.3441 20.2917 13.2366 19.4725 11.1365H13.2391C12.4571 13.2068 11.6752 15.3143 10.923 17.4294Z" fill="#3350B9"/>
<path d="M16.3525 21.6521V23.5287C16.3525 24.765 16.3898 25.964 16.4121 27.1184C18.0132 27.6844 19.5921 28.2205 21.1411 28.7418C23.0178 27.4982 24.9244 26.1427 26.734 24.7352C26.8904 23.0373 27.0319 21.2945 27.1586 19.5221L21.9455 17.422C20.0762 18.8519 18.1994 20.2743 16.3525 21.6521Z" fill="#3350B9"/>
<path d="M21.1034 28.8536H21.0588C19.6811 28.3844 18.0352 27.8557 16.3521 27.2302L16.084 27.111L16.2926 27.0439L16.2329 23.5139V21.5925H16.2702C18.1692 20.1701 20.031 18.7551 21.8035 17.3773H21.8929L27.1059 19.485H27.1656V19.552C27.0315 21.3839 26.89 23.1341 26.7411 24.7651H26.7038C24.9612 26.1131 23.077 27.4684 21.1109 28.7791L21.1034 28.8536ZM16.4713 27.111C18.132 27.6918 19.7257 28.2354 21.0737 28.6897C23.0174 27.4014 24.8718 26.0684 26.5921 24.7353C26.7411 23.1415 26.8825 21.4361 27.0092 19.6413L21.9078 17.5858C20.1502 18.9413 18.3182 20.3413 16.4415 21.734V23.5661L16.4713 27.111Z" fill="#3350B9"/>
<path d="M16.2628 27.111C16.2628 25.9567 16.3 24.7502 16.3224 23.5214V21.6446C14.4829 20.2743 12.5987 18.8519 10.8039 17.4518L5.59082 19.5371C5.70254 21.2947 5.83659 23.0298 5.97809 24.7502C7.79521 26.1577 9.70173 27.5131 11.571 28.7642C13.12 28.2355 14.6989 27.6993 16.3 27.1408L16.2628 27.111Z" fill="#3350B9"/>
<path d="M11.541 28.8536C9.60467 27.5578 7.7205 26.2099 5.92571 24.8768L5.70974 24.7129H5.92571C5.78421 23.1118 5.65761 21.3989 5.5459 19.6116V19.5445H5.60548L10.8186 17.4518H10.908C12.7326 18.8668 14.5869 20.2743 16.4264 21.6521V23.5661L16.352 27.0663L16.5382 27.1408L16.3147 27.2152C14.7284 27.7738 13.1719 28.3026 11.5856 28.8387L11.541 28.8536ZM6.07465 24.7129C7.81732 26.0609 9.66425 27.3865 11.5708 28.6525C13.1123 28.1312 14.6316 27.6174 16.1733 27.0738L16.2328 23.5214V21.6968C14.4157 20.3488 12.5836 18.9562 10.7888 17.5636L5.72463 19.6041C5.80655 21.3914 5.92571 23.1118 6.07465 24.7129Z" fill="#3350B9"/>
<path d="M9.49316 6.93618L13.2168 11.0471H19.5693L23.2557 6.93618C21.9822 5.44671 20.6864 4.01684 19.4279 2.69122H13.3286C12.0625 4.02428 10.7666 5.44671 9.49316 6.93618Z" fill="#F0F2FF"/>
<path d="M19.5694 11.1439H13.1349V11.1066L9.42615 7.00321L9.37402 6.94363L9.42615 6.88405C10.6848 5.3946 11.9731 3.98706 13.2615 2.6391H19.4055C20.8205 4.02429 22.0791 5.46163 23.2856 6.87661L23.3377 6.93618L23.2856 7.00321L19.5992 11.1141L19.5694 11.1439ZM9.64957 6.92874L13.2541 10.9577H19.5321L23.0994 6.92874C21.9153 5.55099 20.6567 4.15834 19.3758 2.78804H13.4179C12.1072 4.10621 10.8486 5.51376 9.64957 6.92874Z" fill="#3350B9"/>
<path d="M9.49247 6.93618C10.7585 5.44671 12.0618 4.01683 13.3203 2.69122L10.9074 2.03586C8.48 2.86974 6.33737 4.37217 4.72621 6.37019C4.72621 7.11492 4.68152 7.85964 4.65918 8.65649C6.20822 8.06816 7.83917 7.49473 9.49247 6.93618Z" fill="#3350B9"/>
<path d="M4.57031 8.79053V8.64903C4.57031 7.9043 4.60755 7.12234 4.62989 6.3627C6.25273 4.35229 8.41112 2.84193 10.8558 2.00604H10.908L13.4698 2.70609L13.373 2.75822C12.0399 4.1732 10.7516 5.59563 9.56001 7.00318C7.75776 7.61386 6.17893 8.1724 4.73415 8.7235L4.57031 8.79053ZM4.81607 6.39993C4.81607 7.1 4.77139 7.80749 4.75649 8.52243C6.16404 7.98622 7.73541 7.44257 9.44084 6.85424C10.5952 5.51371 11.8836 4.11362 13.1496 2.74332L10.9154 2.13265C8.52224 2.95473 6.40863 4.43349 4.81607 6.39993Z" fill="#3350B9"/>
<path d="M21.7957 2.03586L19.3828 2.69122C20.6488 4.01683 21.9372 5.44671 23.2107 6.93618C24.864 7.48728 26.4875 8.06816 28.0365 8.65649C28.0365 7.91178 28.0365 7.12981 27.9769 6.37019C26.3659 4.37217 24.2232 2.86974 21.7957 2.03586Z" fill="#3350B9"/>
<path d="M28.1335 8.79058L28.007 8.74589C26.5175 8.17989 24.9164 7.599 23.1811 7.01812C21.915 5.5659 20.6342 4.13602 19.3309 2.75826L19.2266 2.64655L21.8183 1.9465C24.2668 2.77854 26.4269 4.29264 28.0442 6.31062C28.0442 7.05535 28.0442 7.80008 28.1038 8.59695L28.1335 8.79058ZM23.263 6.85428C24.9387 7.42027 26.5175 7.97881 27.9473 8.52247C27.9473 7.81497 27.9473 7.10748 27.8878 6.39999C26.2959 4.43615 24.1855 2.95781 21.7959 2.13268L19.5617 2.74336C20.8204 4.08387 22.0789 5.46908 23.263 6.85428Z" fill="#3350B9"/>
<path d="M23.665 12.0227C23.665 12.0227 29.6229 16.7444 29.5632 23.0149C30.1317 21.8453 30.5519 20.6095 30.8144 19.336C30.8144 19.336 29.8835 15.1953 23.665 12.0227Z" fill="#3350B9"/>
<path d="M29.4671 23.3873V23.0149C29.5639 16.8561 23.6583 12.1419 23.5986 12.0897L23.6955 11.9408C29.9661 15.1432 30.9044 19.321 30.897 19.3881C30.6353 20.6771 30.2125 21.9283 29.6384 23.1118L29.4671 23.3873ZM24.3211 12.477C25.8105 13.8473 29.5341 17.7497 29.6533 22.6053C30.1446 21.5647 30.5024 20.4662 30.7182 19.336C30.6662 19.0976 29.6831 15.4634 24.3211 12.477Z" fill="#3350B9"/>
<path d="M9.1201 12.0227C9.1201 12.0227 3.16228 16.7444 3.22185 23.0149C2.65348 21.8453 2.23319 20.6095 1.9707 19.336C1.9707 19.336 2.90162 15.1953 9.1201 12.0227Z" fill="#3350B9"/>
<path d="M3.31916 23.3873L3.14043 23.0224C2.56963 21.8375 2.14692 20.5869 1.88184 19.2987C1.88184 19.2987 2.81275 15.091 9.08336 11.8513L9.18017 12.0003C9.12059 12.0525 3.22234 16.7666 3.31171 22.9256L3.31916 23.3873ZM2.06802 19.336C2.29175 20.4761 2.64921 21.586 3.13298 22.6425C3.25958 17.787 6.97578 13.8845 8.46524 12.5142C3.12553 15.4559 2.1276 19.0753 2.06802 19.336Z" fill="#3350B9"/>
</svg>
