<svg width="32" height="32" viewBox="0 0 32 32" fill="none" xmlns="http://www.w3.org/2000/svg">
<path d="M23.3413 22.4082H8.65848C8.00623 22.4082 7.47754 21.8794 7.47754 21.2272V10.7727C7.47754 10.1205 8.00629 9.5918 8.65848 9.5918H23.3413C23.9936 9.5918 24.5222 10.1206 24.5222 10.7727V21.2272C24.5222 21.8794 23.9935 22.4082 23.3413 22.4082Z" fill="#DF73C1"/>
<path d="M23.3417 9.5918H21.5615C22.2137 9.5918 22.7424 10.1206 22.7424 10.7727V21.2272C22.7424 21.8794 22.2137 22.4082 21.5615 22.4082H23.3417C23.9939 22.4082 24.5226 21.8794 24.5226 21.2272V10.7727C24.5226 10.1206 23.9939 9.5918 23.3417 9.5918Z" fill="#DD4FB1"/>
<path d="M27.9766 22.2719C27.8061 22.2719 27.6417 22.1785 27.5587 22.0161C27.441 21.7856 27.5326 21.5032 27.7632 21.3855C29.7984 20.3466 31.0627 18.2828 31.0627 15.9997C31.0627 13.7166 29.7984 11.6528 27.7632 10.6138C27.5327 10.4961 27.4411 10.2138 27.5587 9.98324C27.6764 9.75274 27.959 9.66118 28.1895 9.77887C30.54 10.9788 32.0002 13.3625 32.0002 15.9997C32.0002 18.6369 30.54 21.0206 28.1895 22.2205C28.1213 22.2554 28.0483 22.2719 27.9766 22.2719Z" fill="#DF73C1"/>
<path d="M27.9766 22.2719C27.8061 22.2719 27.6417 22.1785 27.5587 22.0161C27.441 21.7856 27.5326 21.5032 27.7632 21.3855C29.7984 20.3466 31.0627 18.2828 31.0627 15.9997C31.0627 13.7166 29.7984 11.6528 27.7632 10.6138C27.5327 10.4961 27.4411 10.2138 27.5587 9.98324C27.6764 9.75274 27.959 9.66118 28.1895 9.77887C30.54 10.9788 32.0002 13.3625 32.0002 15.9997C32.0002 18.6369 30.54 21.0206 28.1895 22.2205C28.1213 22.2554 28.0483 22.2719 27.9766 22.2719Z" fill="#DF73C1"/>
<path d="M27.8369 18.3286C27.6664 18.3286 27.502 18.2352 27.419 18.0729C27.3013 17.8423 27.3928 17.56 27.6234 17.4422C28.1683 17.164 28.5069 16.6114 28.5069 16.0002C28.5069 15.389 28.1683 14.8365 27.6234 14.5582C27.3929 14.4405 27.3014 14.1581 27.419 13.9275C27.5368 13.697 27.819 13.6055 28.0497 13.7232C28.91 14.1625 29.4443 15.035 29.4443 16.0002C29.4443 16.9655 28.9099 17.8379 28.0497 18.2772C27.9814 18.312 27.9086 18.3286 27.8369 18.3286Z" fill="#DF73C1"/>
<path d="M4.0235 22.2719C3.95181 22.2719 3.879 22.2553 3.81075 22.2205C1.46019 21.0206 0 18.6368 0 15.9997C0 13.3626 1.46019 10.9788 3.81075 9.77892C4.04125 9.66117 4.32362 9.75267 4.44137 9.98329C4.55912 10.2139 4.46763 10.4962 4.237 10.6139C2.20181 11.6528 0.9375 13.7166 0.9375 15.9997C0.9375 18.2828 2.20181 20.3466 4.237 21.3856C4.46756 21.5033 4.55906 21.7856 4.44137 22.0162C4.3585 22.1784 4.194 22.2719 4.0235 22.2719Z" fill="#DF73C1"/>
<path d="M4.0235 22.2719C3.95181 22.2719 3.879 22.2553 3.81075 22.2205C1.46019 21.0206 0 18.6368 0 15.9997C0 13.3626 1.46019 10.9788 3.81075 9.77892C4.04125 9.66117 4.32362 9.75267 4.44137 9.98329C4.55912 10.2139 4.46763 10.4962 4.237 10.6139C2.20181 11.6528 0.9375 13.7166 0.9375 15.9997C0.9375 18.2828 2.20181 20.3466 4.237 21.3856C4.46756 21.5033 4.55906 21.7856 4.44137 22.0162C4.3585 22.1784 4.194 22.2719 4.0235 22.2719Z" fill="#DF73C1"/>
<path d="M4.1631 18.3286C4.09141 18.3286 4.0186 18.312 3.95035 18.2772C3.09004 17.838 2.55566 16.9655 2.55566 16.0002C2.55566 15.035 3.0901 14.1625 3.95035 13.7232C4.18085 13.6055 4.46322 13.697 4.58097 13.9276C4.69872 14.1581 4.60722 14.4405 4.3766 14.5582C3.83172 14.8365 3.49316 15.389 3.49316 16.0002C3.49316 16.6114 3.83172 17.164 4.37666 17.4422C4.60722 17.56 4.69872 17.8423 4.58104 18.0728C4.4981 18.2352 4.33366 18.3286 4.1631 18.3286Z" fill="#DF73C1"/>
<path d="M18.5141 15.608L13.983 12.7369C13.674 12.5411 13.2705 12.7631 13.2705 13.1289V18.871C13.2705 19.2369 13.674 19.4589 13.983 19.263L18.5141 16.3919C18.8016 16.2098 18.8016 15.7902 18.5141 15.608Z" fill="#26457D"/>
<path d="M18.5141 15.608L13.983 12.7369C13.674 12.5411 13.2705 12.7631 13.2705 13.1289V13.6234L16.4025 15.608C16.6901 15.7902 16.6901 16.2098 16.4025 16.3921L13.2705 18.3766V18.8711C13.2705 19.2369 13.674 19.4589 13.983 19.2631L18.5141 16.392C18.8016 16.2098 18.8016 15.7902 18.5141 15.608Z" fill="#21386B"/>
</svg>
