<svg width="24" height="24" viewBox="0 0 24 24" fill="none" xmlns="http://www.w3.org/2000/svg">
<path d="M8.55615 18.7419L18.9769 10.0072C18.9769 10.0072 23.0308 10.6432 23.2837 10.701C23.5366 10.7586 23.7208 11.1975 23.444 11.5257C23.1673 11.8537 22.3747 12.9423 21.7277 13.5343C21.0808 14.1262 10.3348 20.2392 10.3348 20.2392L8.55615 18.7419Z" fill="#E0DDE1"/>
<path d="M9.12727 21.5074C8.89635 21.3104 5.03025 18.0482 4.84148 17.897C4.70036 17.7824 3.99662 17.1785 3.79502 17.032C3.631 16.8753 3.45047 16.7369 3.27637 16.5921C3.25896 16.5674 2.71739 16.122 2.64409 16.0634C2.42783 16.3117 1.25674 17.6844 1.10279 18.0344C0.749083 18.7427 0.75 19.0745 0.75 20.0247C0.75 20.975 1.23566 21.7539 1.5628 22.2185C1.88994 22.6831 2.77604 23.3502 3.17007 23.5454C3.52838 23.7224 3.90909 23.8501 4.30176 23.9247C4.51781 23.96 4.73562 23.9836 4.95421 23.9953C5.25263 24.0086 5.55155 23.9867 5.8449 23.9302C6.134 23.8886 6.41746 23.8142 6.68977 23.7085C6.89587 23.6282 7.0964 23.5342 7.28996 23.4272C7.58445 23.2613 7.85895 23.0624 8.10825 22.8343C8.4537 22.5182 8.7351 22.1452 9.05115 21.8024C9.10987 21.7392 9.19688 21.6842 9.20145 21.5816C9.1758 21.5569 9.15382 21.5294 9.12727 21.5074Z" fill="#F2F0F3"/>
<path d="M9.0813 21.5077C9.02723 21.461 8.77335 21.2465 8.41418 20.9432C8.40413 21.0349 8.32253 21.0926 8.26575 21.1531C7.94955 21.4958 7.66733 21.8687 7.32189 22.1858C7.07312 22.4141 6.79881 22.6131 6.50452 22.7787C6.31091 22.8854 6.11042 22.9791 5.90429 23.0591C5.63193 23.1646 5.34851 23.239 5.05941 23.2808C4.76631 23.3364 4.46764 23.357 4.16966 23.3422C3.95108 23.3298 3.73331 23.306 3.51722 23.2708C3.12477 23.1953 2.74417 23.0677 2.38553 22.8914C2.15796 22.7549 1.94081 22.6017 1.73584 22.4332C2.13812 22.8602 2.7933 23.3807 3.12503 23.5457C3.48326 23.723 3.86399 23.8505 4.25671 23.925C4.47245 23.9603 4.68994 23.9838 4.90824 23.9956C5.20621 24.01 5.50484 23.9894 5.79803 23.9342C6.08713 23.8925 6.37058 23.8181 6.64286 23.7125C6.849 23.6321 7.04953 23.5382 7.24309 23.4311C7.53758 23.2652 7.81208 23.0663 8.06138 22.8383C8.4105 22.5184 8.68545 22.1455 9.00428 21.8046C9.06293 21.7414 9.15 21.6864 9.15458 21.5837C9.13163 21.557 9.10718 21.5316 9.0813 21.5077Z" fill="#E0DEE2"/>
<path d="M3.85913 14.8402C3.85913 14.8402 8.2686 2.76823 8.55637 2.2789C8.84407 1.78957 10.1517 0.411379 10.356 0.163049C10.4001 0.111892 10.4547 0.0708466 10.516 0.0427073C10.5774 0.0145669 10.6441 0 10.7116 0C10.7791 0 10.8457 0.0145669 10.9072 0.0427073C10.9685 0.0708466 11.023 0.111892 11.0671 0.163049C11.2064 0.346317 12.5818 4.16657 12.5818 4.16657L5.40865 16.069L3.85913 14.8402Z" fill="#C9C3CA"/>
<path d="M23.2866 10.701C23.2509 10.6928 22.6315 10.5902 22.4619 10.5618C22.7093 10.7157 22.6351 11.3443 22.5049 11.4964C22.2301 11.8208 21.4603 12.6446 20.8125 13.2375C20.1976 13.7992 10.532 19.0343 9.58627 19.6143L10.3524 20.2136C10.3524 20.2136 21.0838 14.1218 21.7306 13.5298C22.3776 12.9378 23.1703 11.8455 23.447 11.5212C23.7237 11.1968 23.5432 10.7597 23.2866 10.701Z" fill="#C9C3CA"/>
<path d="M12.5818 4.16641C12.5818 4.16641 14.8854 3.24365 15.2492 3.11078C15.5956 3.03014 15.9136 3.26563 15.9301 3.54329C15.9466 3.82093 16.1353 6.712 16.1353 6.712L6.64197 17.1079L5.40857 16.0688L12.5818 4.16641Z" fill="#E0DDE1"/>
<path d="M18.9769 10.0074C18.9769 10.0074 19.7219 7.51951 19.7769 7.2538C19.8319 6.98804 19.6531 6.60319 19.283 6.61234L16.1298 6.71865L6.64197 17.1219L8.55622 18.743L18.9769 10.0074Z" fill="#C9C3CA"/>
<path d="M10.5491 20.0488L4.0027 14.4675L2.42249 16.321L8.96888 21.9023L10.5491 20.0488Z" fill="#E96D72"/>
</svg>
