<svg width="9" height="8" viewBox="0 0 9 8" fill="none" xmlns="http://www.w3.org/2000/svg">
<path d="M3.99995 6.28543C3.93107 6.2853 3.8629 6.2715 3.79938 6.24485C3.73588 6.21818 3.67828 6.17918 3.62995 6.1301L0.142619 2.6041C0.050537 2.50345 0.000531151 2.37132 0.00288725 2.23491C0.00524335 2.09851 0.0597823 1.96819 0.155286 1.87077C0.25068 1.77402 0.380188 1.71851 0.516035 1.71614C0.65188 1.71378 0.783245 1.76474 0.881953 1.8581L4.00195 5.01078L7.12195 1.8581C7.22065 1.76474 7.35203 1.71378 7.48787 1.71614C7.62372 1.71851 7.75323 1.77402 7.84863 1.87077C7.94413 1.96819 7.99865 2.09851 8.00103 2.23491C8.00338 2.37132 7.95338 2.50345 7.86128 2.6041L4.37195 6.13078C4.32333 6.17998 4.2654 6.21898 4.20153 6.24555C4.13765 6.2721 4.06912 6.28565 3.99995 6.28543Z" fill="#D9D9D9"/>
</svg>
