<svg width="24" height="24" viewBox="0 0 24 24" fill="none" xmlns="http://www.w3.org/2000/svg">
<path d="M12.1474 22.4054C18.1574 22.4054 23.0295 17.5852 23.0295 11.6392C23.0295 5.69314 18.1574 0.872925 12.1474 0.872925C6.13749 0.872925 1.26544 5.69314 1.26544 11.6392C1.26544 17.5852 6.13749 22.4054 12.1474 22.4054Z" fill="#E6E7E8"/>
<path fill-rule="evenodd" clip-rule="evenodd" d="M0.901794 11.6392C0.901794 5.48864 5.94032 0.509277 12.1474 0.509277C18.3545 0.509277 23.3931 5.48864 23.3931 11.6392C23.3931 17.7897 18.3545 22.769 12.1474 22.769C5.94032 22.769 0.901794 17.7897 0.901794 11.6392ZM12.1474 1.23655C6.33463 1.23655 1.62907 5.89761 1.62907 11.6392C1.62907 17.3808 6.33462 22.0418 12.1474 22.0418C17.9603 22.0418 22.6659 17.3808 22.6659 11.6392C22.6659 5.89761 17.9603 1.23655 12.1474 1.23655Z" fill="#ECF0F1"/>
<path d="M14.9103 14.9806H9.88358L8.15594 10.5255L12.2836 7.55554L16.4112 10.5255L14.9103 14.9806Z" fill="#38454F"/>
<path d="M10.1999 14.6481C10.0145 14.556 9.78896 14.6306 9.69631 14.8141L9.52853 15.1464C9.43587 15.3297 9.51093 15.5529 9.69631 15.6446C9.75035 15.6713 9.80736 15.6835 9.86365 15.6835C10.0014 15.6835 10.1338 15.6086 10.1999 15.4783L10.3676 15.146C10.4607 14.963 10.3856 14.7402 10.1999 14.6481Z" fill="#38454F"/>
<path d="M9.52841 15.9765C9.3431 15.8844 9.11794 15.9591 9.02492 16.1424L8.85714 16.4747C8.76449 16.6581 8.83954 16.8812 9.02492 16.9729C9.07896 16.9997 9.13598 17.0119 9.19227 17.0119C9.32994 17.0119 9.46245 16.9369 9.52841 16.8066L9.69619 16.4743C9.78929 16.2913 9.71423 16.0682 9.52841 15.9765Z" fill="#38454F"/>
<path d="M15.4139 15.1464L15.2462 14.8142C15.1531 14.6303 14.9284 14.5561 14.7426 14.6482C14.5573 14.7399 14.4822 14.9631 14.5749 15.1464L14.7426 15.4786C14.8087 15.609 14.9407 15.684 15.0789 15.684C15.1351 15.684 15.1926 15.6714 15.2462 15.645C15.4316 15.553 15.5066 15.3298 15.4139 15.1464Z" fill="#38454F"/>
<path d="M15.9174 16.1425C15.8246 15.9587 15.5991 15.8844 15.4137 15.9766C15.2284 16.0682 15.1533 16.2913 15.246 16.4747L15.4137 16.807C15.4798 16.9373 15.6119 17.0123 15.75 17.0123C15.8062 17.0123 15.8637 16.9996 15.9174 16.9733C16.1027 16.8817 16.1777 16.6585 16.085 16.4751L15.9174 16.1425Z" fill="#38454F"/>
<path d="M7.40163 9.80185L7.05676 9.6556C6.86575 9.57465 6.64511 9.66185 6.56406 9.85043C6.48226 10.0387 6.57082 10.2573 6.76068 10.3379L7.10553 10.4842C7.15394 10.5046 7.20422 10.5146 7.25378 10.5146C7.39937 10.5146 7.53784 10.43 7.59863 10.2897C7.68044 10.1007 7.59185 9.88272 7.40163 9.80185Z" fill="#38454F"/>
<path d="M6.02233 9.21676L5.67748 9.07051C5.48648 8.99029 5.26584 9.0772 5.18479 9.26542C5.10299 9.45356 5.19154 9.67196 5.38142 9.75284L5.72626 9.89909C5.77467 9.91953 5.82494 9.92956 5.87449 9.92956C6.02007 9.92956 6.15854 9.84491 6.21933 9.70462C6.30075 9.51604 6.21219 9.29734 6.02233 9.21676Z" fill="#38454F"/>
<path d="M12.2834 4.58545C12.0759 4.58545 11.9082 4.75177 11.9082 4.9567V5.32794C11.9082 5.53288 12.0759 5.69919 12.2834 5.69919C12.4909 5.69919 12.6587 5.53288 12.6587 5.32794V4.9567C12.6587 4.75177 12.4909 4.58545 12.2834 4.58545Z" fill="#38454F"/>
<path d="M12.2834 6.07043C12.0759 6.07043 11.9082 6.23675 11.9082 6.44169V6.81294C11.9082 7.01784 12.0759 7.18417 12.2834 7.18417C12.4909 7.18417 12.6587 7.01784 12.6587 6.81294V6.44169C12.6587 6.23675 12.4909 6.07043 12.2834 6.07043Z" fill="#38454F"/>
<path d="M17.5104 9.65568L17.1656 9.80193C16.9752 9.8828 16.8871 10.1012 16.9689 10.2893C17.0297 10.4301 17.1682 10.5144 17.3137 10.5144C17.3633 10.5144 17.4136 10.5047 17.462 10.4839L17.8069 10.3376C17.9971 10.2571 18.0852 10.0384 18.0035 9.85022C17.9216 9.66164 17.7011 9.57437 17.5104 9.65568Z" fill="#38454F"/>
<path d="M19.3827 9.26547C19.3009 9.07645 19.0803 8.98998 18.89 9.07049L18.5452 9.21682C18.3549 9.2974 18.2667 9.51609 18.3486 9.70431C18.4094 9.84496 18.5478 9.92918 18.6935 9.92918C18.7429 9.92918 18.7932 9.91958 18.8416 9.89885L19.1865 9.75253C19.3764 9.67202 19.4645 9.45369 19.3827 9.26547Z" fill="#38454F"/>
<path d="M9.46245 1.24044L8.52557 2.57323L12.2835 4.95665L15.6608 2.40171L14.8104 1.19886C13.9793 0.992077 13.1102 0.879953 12.2156 0.87439C11.2637 0.880324 10.3413 1.00767 9.46245 1.24044Z" fill="#435159"/>
<path d="M19.6497 5.328L19.038 9.41176L22.793 11.6678L23.0193 11.2406C22.9409 9.11736 22.2422 7.15158 21.0958 5.51512L19.6497 5.328Z" fill="#435159"/>
<path d="M20.0897 18.9952L20.1635 17.2094L16.0359 17.2079L14.2374 21.145L15.7931 21.7843C17.4464 21.2026 18.9144 20.2366 20.0897 18.9952Z" fill="#435159"/>
<path d="M8.9063 17.2079L4.40338 17.2094L4.48368 19.1429C5.65218 20.3316 7.09536 21.2534 8.71263 21.8092L10.3296 21.145L8.9063 17.2079Z" fill="#435159"/>
<path d="M5.52908 9.41176L4.91743 5.328L3.32116 5.53442C2.22545 7.10593 1.54139 8.97889 1.42206 11.0025L1.77441 11.6678L5.52908 9.41176Z" fill="#435159"/>
</svg>
