<svg width="16" height="12" viewBox="0 0 16 12" fill="none" xmlns="http://www.w3.org/2000/svg">
<path d="M8.46689 12V8.26095C8.99462 8.16251 9.47131 7.88258 9.81435 7.46967C10.1573 7.05671 10.3451 6.5368 10.3451 5.99999C10.3451 5.46313 10.1573 4.94322 9.81435 4.53031C9.47131 4.11735 8.99462 3.83742 8.46689 3.73898V1.78923e-05L14.5929 1.78923e-05C14.9628 -0.0018511 15.3184 0.14277 15.5821 0.402282C15.8457 0.661793 15.9959 1.0151 15.9999 1.385V2.769H13.6559C13.286 2.76711 12.9303 2.91174 12.6667 3.17125C12.403 3.43076 12.2528 3.78408 12.2489 4.15399V7.84599C12.2528 8.2159 12.403 8.56917 12.6667 8.82868C12.9303 9.08819 13.286 9.23282 13.6559 9.23093H15.9999V10.6149C15.9959 10.9849 15.8457 11.3382 15.5821 11.5977C15.3184 11.8572 14.9628 12.0018 14.5929 12H8.46689ZM1.39995 12C1.03119 12 0.677444 11.8545 0.415207 11.5952C0.153128 11.3359 0.00387123 10.9837 -6.60894e-05 10.6149V9.23093L2.341 9.23093C2.71081 9.23282 3.0665 9.08819 3.33015 8.82868C3.59375 8.56917 3.74401 8.2159 3.748 7.84599V4.15399C3.74401 3.78408 3.59375 3.43076 3.33015 3.17125C3.0665 2.91174 2.71081 2.76711 2.341 2.769H-6.60894e-05V1.38401C0.00413359 1.01549 0.153496 0.6635 0.415575 0.404392C0.677654 0.14529 1.03145 -3.10757e-06 1.39995 1.78923e-05L7.52893 1.78923e-05V3.73898C7.0012 3.83742 6.5245 4.11735 6.18147 4.53031C5.83843 4.94322 5.6507 5.46313 5.6507 5.99999C5.6507 6.5368 5.83843 7.05671 6.18147 7.46967C6.5245 7.88258 7.0012 8.16251 7.52893 8.26095V12L1.39995 12ZM13.6559 8.30799C13.5325 8.30877 13.4138 8.26058 13.3258 8.17396C13.2379 8.08733 13.1879 7.96936 13.1869 7.84599V4.15399C13.1879 4.03057 13.2379 3.9126 13.3258 3.82598C13.4138 3.7394 13.5325 3.69121 13.6559 3.692H15.9999V8.30799H13.6559ZM-6.60894e-05 8.30799V3.692H2.341C2.46433 3.69121 2.58303 3.7394 2.67097 3.82598C2.75896 3.9126 2.80888 4.03057 2.80993 4.15399V7.84599C2.80888 7.96936 2.75896 8.08733 2.67097 8.17396C2.58303 8.26058 2.46433 8.30877 2.341 8.30799L-6.60894e-05 8.30799ZM7.9999 7.38499C7.72664 7.382 7.46036 7.29826 7.23456 7.14428C7.00881 6.99035 6.83362 6.773 6.73109 6.51969C6.62856 6.26638 6.60325 5.98839 6.65838 5.72069C6.7135 5.45305 6.84659 5.20767 7.04084 5.01546C7.23514 4.82326 7.48194 4.69285 7.75016 4.64062C8.01843 4.58838 8.29611 4.61668 8.54832 4.72194C8.80052 4.82715 9.01593 5.0047 9.1675 5.23213C9.31901 5.45951 9.39986 5.72668 9.39991 5.99999C9.39592 6.36865 9.24672 6.72092 8.98459 6.98022C8.72246 7.23956 8.36861 7.38499 7.9999 7.38499Z" fill="#D9D9D9"/>
</svg>
