<svg width="32" height="32" viewBox="0 0 32 32" fill="none" xmlns="http://www.w3.org/2000/svg">
<path d="M16.4788 9.63204H15.5185V8.75901C15.5185 8.61437 15.4012 8.49717 15.2566 8.49717H13.038C12.3629 8.49717 11.8157 7.94997 11.8157 7.27498V7.2313C11.8157 6.55631 12.3629 6.00913 13.038 6.00913H19.3177C19.4444 6.00913 19.5607 5.92382 19.5848 5.79944C19.6172 5.63226 19.4895 5.48539 19.328 5.48539H16.7407C16.0656 5.48539 15.5185 4.93821 15.5185 4.26322V4.13228C15.5185 3.8671 15.7334 3.65217 15.9986 3.65217C16.2638 3.65217 16.4788 3.8671 16.4788 4.13228V4.26322C16.4788 4.4079 16.596 4.52509 16.7406 4.52509H19.2925C19.9499 4.52509 20.5163 5.0292 20.5486 5.68569C20.5832 6.38743 20.0223 6.96943 19.3279 6.96943H13.0378C12.8931 6.96943 12.776 7.08667 12.776 7.2313V7.27498C12.776 7.41967 12.8932 7.53686 13.0378 7.53686H15.2565C15.9315 7.53686 16.4787 8.08406 16.4787 8.75901L16.4788 9.63204Z" fill="url(#paint0_linear_1_2230)"/>
<path d="M17.7281 11.1833H14.2703L14.7322 9.51122C14.8131 9.21851 15.0794 9.01579 15.3831 9.01579H16.6153C16.9189 9.01579 17.1852 9.21859 17.2661 9.51122L17.7281 11.1833Z" fill="url(#paint1_linear_1_2230)"/>
<path d="M31.7961 21.9203C31.9288 22.369 31.9995 22.8447 31.9995 23.3371C31.9995 25.1371 31.0497 26.7154 29.6241 27.5981C29.4443 27.7107 29.2558 27.8111 29.0612 27.8993C29.0123 27.922 28.9625 27.9438 28.9119 27.9647C28.32 28.2109 27.6706 28.3471 26.9887 28.3471C25.6094 28.3471 24.3602 27.7901 23.4549 26.8883C23.4522 26.8857 23.4488 26.8822 23.4461 26.8796C23.4452 26.8787 23.4443 26.8778 23.4434 26.8769C23.4313 26.8648 23.419 26.8525 23.4068 26.8402C23.3736 26.8071 23.3405 26.7748 23.3072 26.7425C23.2741 26.7102 23.2409 26.6778 23.2069 26.6465C23.1772 26.6177 23.1466 26.5897 23.1169 26.5626C23.0978 26.5443 23.0777 26.526 23.0585 26.5085C23.0506 26.5015 23.0418 26.4945 23.034 26.4876C23.0314 26.4849 23.0297 26.4823 23.027 26.4805C23 26.4561 22.9729 26.4325 22.9458 26.4081C22.8962 26.3645 22.8464 26.3209 22.7959 26.2781C22.7382 26.2283 22.6788 26.1794 22.6204 26.1322C22.6125 26.1253 22.603 26.1183 22.5942 26.1105C22.5924 26.1087 22.5907 26.1078 22.5899 26.107C22.5899 26.107 22.589 26.1061 22.5881 26.1053C22.5872 26.1053 22.5863 26.1044 22.5847 26.1026C22.5672 26.0886 22.5506 26.0756 22.534 26.0625C22.5297 26.0591 22.5253 26.0555 22.521 26.0521C22.4851 26.0233 22.4493 25.9953 22.4135 25.9682C22.4092 25.9649 22.4048 25.9613 22.4005 25.9586C22.3909 25.9499 22.3804 25.942 22.3699 25.9342C22.363 25.9289 22.356 25.9237 22.349 25.9185C22.3438 25.9141 22.3394 25.9105 22.3341 25.9071C22.3044 25.8835 22.2739 25.8617 22.2433 25.8391C22.2303 25.8286 22.2163 25.819 22.2023 25.8094C22.1787 25.7911 22.1543 25.7736 22.1299 25.7561C22.1229 25.7509 22.1159 25.7457 22.109 25.7413C22.0758 25.7168 22.0435 25.6941 22.0094 25.6705C21.9927 25.6592 21.9771 25.6478 21.9605 25.6373C21.9571 25.6339 21.9535 25.6312 21.9492 25.6294C21.9431 25.6251 21.9379 25.6207 21.9318 25.6164C21.8506 25.5605 21.7676 25.5064 21.6855 25.4531C21.6647 25.4391 21.6436 25.4261 21.6219 25.4121C21.6044 25.4008 21.586 25.3894 21.5677 25.3789C21.5607 25.3737 21.5547 25.3693 21.5476 25.3667C21.5476 25.3667 21.5476 25.3658 21.5467 25.3658C21.538 25.3597 21.5284 25.3537 21.5188 25.3475C21.4987 25.3353 21.4787 25.3231 21.4586 25.3109C21.428 25.2917 21.3975 25.2733 21.366 25.2558C21.3363 25.2366 21.3067 25.2191 21.2761 25.2017C21.2735 25.2 21.2708 25.1991 21.2682 25.1974C21.263 25.1948 21.2569 25.1904 21.2499 25.1869C21.2395 25.1808 21.2281 25.1748 21.2176 25.1686C21.1513 25.1302 21.085 25.0936 21.0177 25.0569C21.0168 25.056 21.0151 25.056 21.0143 25.0542C20.9462 25.0176 20.8763 24.9809 20.8074 24.946C20.7673 24.9251 20.7271 24.905 20.687 24.8849C20.6529 24.8674 20.6189 24.8509 20.5839 24.8342C20.5813 24.8325 20.5787 24.8309 20.5761 24.83C20.5499 24.8169 20.5236 24.8046 20.4975 24.7924C20.4958 24.7915 20.4941 24.7906 20.4923 24.7906C20.4731 24.781 20.453 24.7714 20.433 24.7618C20.3901 24.7426 20.3483 24.7234 20.3055 24.7042C20.2863 24.6945 20.2663 24.6859 20.2471 24.678C20.2304 24.671 20.213 24.6631 20.1964 24.6562C20.1939 24.6545 20.1921 24.6536 20.1895 24.6536C20.1886 24.6518 20.1868 24.6518 20.186 24.6518C20.1764 24.6474 20.1659 24.6431 20.1563 24.6378C20.1389 24.6309 20.1205 24.6229 20.1022 24.6151C20.0935 24.6117 20.0847 24.6081 20.0769 24.6047C20.0726 24.6029 20.0673 24.6004 20.0639 24.5985C20.0438 24.5898 20.0228 24.582 20.0027 24.5741C19.9914 24.5689 19.9809 24.5645 19.9695 24.5601C19.9547 24.554 19.9399 24.548 19.925 24.5427C19.8953 24.5305 19.8656 24.5182 19.8359 24.5069C19.8175 24.4999 19.7983 24.492 19.78 24.4851C19.7747 24.4833 19.7695 24.4817 19.7643 24.4789C19.7101 24.4589 19.656 24.438 19.601 24.4187C19.5923 24.4153 19.5827 24.4117 19.5731 24.4082C19.5032 24.3829 19.4325 24.3585 19.3619 24.3341C19.333 24.3245 19.3042 24.3149 19.2755 24.3053C19.2239 24.2886 19.1733 24.273 19.1218 24.2573L19.0196 24.2259C18.9664 24.2101 18.914 24.1953 18.8607 24.1797C18.8486 24.1762 18.8371 24.1726 18.8259 24.17C18.7751 24.156 18.7246 24.1421 18.6739 24.1299C18.6721 24.1281 18.6696 24.1281 18.6679 24.1281C18.667 24.1273 18.6661 24.1273 18.6652 24.1273C18.6119 24.1133 18.5587 24.0993 18.5046 24.0862C18.4714 24.0783 18.4374 24.0705 18.4042 24.0626C18.3571 24.0513 18.3091 24.0409 18.2619 24.0304C18.2166 24.02 18.1711 24.0103 18.1258 24.0016C18.0926 23.9945 18.0586 23.9876 18.0254 23.9806C17.9678 23.9693 17.9101 23.9589 17.8516 23.9484C17.8237 23.944 17.7958 23.9388 17.7679 23.9335C17.6962 23.9213 17.6238 23.9099 17.5522 23.8994C17.423 23.8802 17.293 23.8637 17.1638 23.8497C17.1149 23.8436 17.0659 23.8393 17.0179 23.834C16.9438 23.8269 16.8695 23.8209 16.7945 23.8157C16.7719 23.813 16.7491 23.8113 16.7264 23.8104C16.6575 23.8051 16.5885 23.8008 16.5187 23.7982C16.4419 23.7939 16.3651 23.7912 16.2891 23.7894C16.2734 23.7885 16.2585 23.7885 16.2437 23.7885C16.1634 23.786 16.0831 23.7851 16.0028 23.7851H15.9967C15.9434 23.7851 15.8911 23.786 15.8387 23.7869H15.8151C15.7906 23.7869 15.7671 23.7877 15.7426 23.7886H15.726C15.7181 23.7886 15.7094 23.7895 15.7016 23.7895C15.6963 23.7895 15.6911 23.7895 15.6867 23.7904C15.664 23.7904 15.6404 23.7913 15.6177 23.7921C15.5907 23.793 15.5645 23.7939 15.5374 23.7956C15.5165 23.7965 15.4964 23.7973 15.4763 23.7982C15.4659 23.7982 15.4554 23.7991 15.4449 23.8C15.4388 23.8 15.4319 23.8 15.4257 23.8017C15.4144 23.8017 15.4031 23.8017 15.3916 23.8034C15.3847 23.8034 15.3768 23.8034 15.3699 23.8043C15.3332 23.8061 15.2965 23.8086 15.2599 23.8113C15.2555 23.8113 15.2502 23.8122 15.2459 23.8122C15.238 23.8131 15.2301 23.8131 15.2222 23.814C15.2004 23.8157 15.1785 23.8174 15.1576 23.8192C15.114 23.8226 15.0712 23.8262 15.0276 23.8297C15.0223 23.8305 15.0171 23.8305 15.0118 23.8314C14.9917 23.8331 14.9725 23.8349 14.9534 23.8375C14.9132 23.8409 14.874 23.8454 14.8346 23.8497C14.8337 23.8489 14.8337 23.8505 14.8337 23.8505C14.8277 23.8505 14.8207 23.8514 14.8145 23.8523C14.7909 23.8541 14.7674 23.8566 14.7447 23.8602C14.6775 23.8681 14.6102 23.8769 14.5439 23.8864C14.5368 23.8873 14.5299 23.8881 14.5229 23.889C14.5176 23.889 14.5133 23.8899 14.508 23.8908C14.4968 23.8925 14.4844 23.8942 14.4731 23.896C14.4722 23.896 14.4705 23.896 14.4696 23.8969C14.4417 23.9003 14.4147 23.9039 14.3868 23.9091C14.3859 23.9091 14.3859 23.9091 14.385 23.9091C14.364 23.9125 14.3422 23.9161 14.3212 23.9195C14.296 23.9229 14.2705 23.9274 14.2453 23.9317C14.1799 23.9421 14.1152 23.9544 14.0497 23.9666C14.0156 23.9728 13.9816 23.9797 13.9485 23.9858C13.9214 23.9911 13.8952 23.9962 13.8691 24.0025C13.8648 24.0025 13.8612 24.0033 13.8577 24.0051C13.8447 24.0069 13.8324 24.0094 13.8194 24.0129C13.8045 24.0156 13.7896 24.0191 13.7756 24.0217C13.7626 24.0243 13.7495 24.0278 13.7373 24.0305C13.7243 24.0331 13.7094 24.0365 13.6972 24.0392C13.6911 24.0401 13.6859 24.0409 13.6797 24.0426C13.658 24.0479 13.6369 24.0522 13.616 24.0575C13.6002 24.0609 13.5854 24.0645 13.5706 24.068C13.5636 24.0697 13.5567 24.0714 13.5496 24.0732C13.5244 24.0793 13.499 24.0854 13.4737 24.0915C13.4676 24.0933 13.4616 24.0941 13.4554 24.0959C13.424 24.1037 13.3925 24.1117 13.3612 24.1203C13.3533 24.1221 13.3445 24.1237 13.3368 24.1265C13.3333 24.1273 13.3288 24.1282 13.3254 24.1299C13.2355 24.1525 13.1456 24.1779 13.0565 24.2032C13.0461 24.2066 13.0356 24.2093 13.0252 24.2129C13.0217 24.2137 13.0182 24.2145 13.0148 24.2154C13.006 24.2181 12.9973 24.2207 12.9885 24.2242C12.9789 24.2269 12.9676 24.2294 12.958 24.2329C12.91 24.2469 12.8628 24.2617 12.8148 24.2775C12.7896 24.2845 12.7642 24.2933 12.7389 24.302C12.6856 24.3185 12.6333 24.336 12.5809 24.3543C12.5652 24.3596 12.5504 24.3648 12.5364 24.3692C12.5242 24.3735 12.5111 24.378 12.4988 24.3822C12.4866 24.3865 12.4744 24.391 12.4621 24.3962C12.428 24.4076 12.3932 24.4199 12.36 24.4329C12.3478 24.4373 12.3356 24.4417 12.3242 24.446C12.3137 24.4494 12.3024 24.4539 12.292 24.4582C12.2692 24.4661 12.2465 24.4749 12.2239 24.4835C12.209 24.4888 12.1942 24.4949 12.1793 24.5001C12.154 24.5105 12.1296 24.5202 12.1051 24.5307C12.0876 24.5369 12.0711 24.5437 12.0544 24.5508C12.0456 24.5534 12.037 24.5569 12.0291 24.5604C12.0221 24.563 12.016 24.5657 12.01 24.5691C11.996 24.5744 11.982 24.5796 11.968 24.5857C11.9348 24.5989 11.9025 24.6129 11.8711 24.6268C11.8598 24.632 11.8475 24.6364 11.8362 24.6417C11.8274 24.646 11.8179 24.6495 11.8091 24.6538C11.8039 24.6556 11.7986 24.6582 11.7934 24.6608C11.782 24.6651 11.7707 24.6705 11.7593 24.6748C11.7471 24.6801 11.7356 24.6853 11.7235 24.6914C11.7034 24.7002 11.6834 24.7089 11.6642 24.7177C11.6065 24.7438 11.5499 24.77 11.4931 24.7971C11.4773 24.8041 11.4625 24.812 11.4476 24.8189C11.4398 24.8215 11.432 24.8259 11.4232 24.8302C11.404 24.8389 11.3848 24.8485 11.3656 24.859C11.3508 24.866 11.3368 24.873 11.3228 24.88C11.3124 24.8842 11.3019 24.8896 11.2922 24.8957C11.2888 24.8965 11.2852 24.8983 11.2826 24.9009C11.2687 24.9062 11.2556 24.9131 11.2416 24.9201C11.218 24.9323 11.1945 24.9445 11.1708 24.9569C11.0512 25.018 10.9334 25.0825 10.8165 25.1489C10.7755 25.1716 10.7336 25.196 10.6925 25.2205C10.6804 25.2275 10.6672 25.2354 10.655 25.2423C10.6323 25.2554 10.6096 25.2694 10.5869 25.2825C10.5773 25.2885 10.5668 25.2955 10.5572 25.3017C10.5546 25.3025 10.5529 25.3034 10.5511 25.3051C10.5398 25.3112 10.5293 25.3181 10.5188 25.3242C10.5092 25.3295 10.5005 25.3356 10.4917 25.3409C10.4778 25.3488 10.4647 25.3575 10.4508 25.3671C10.4097 25.3915 10.3696 25.4169 10.3294 25.443C10.2325 25.5041 10.1374 25.5679 10.0431 25.6342C9.99161 25.6691 9.94017 25.7049 9.88945 25.7416C9.88249 25.7468 9.87545 25.7512 9.86857 25.7565C9.84409 25.7739 9.81969 25.7914 9.79609 25.8097C9.74025 25.8498 9.68521 25.8909 9.63025 25.9328C9.62937 25.9337 9.62849 25.9337 9.62849 25.9345C9.56129 25.9861 9.49482 26.0375 9.42858 26.0917C9.41722 26.0995 9.40674 26.1091 9.39538 26.1178C9.33074 26.1702 9.26618 26.2235 9.20242 26.2785C9.1517 26.3213 9.10202 26.364 9.05226 26.4085C9.02522 26.4321 8.99818 26.4565 8.97114 26.4809C8.91082 26.5351 8.85066 26.5901 8.79123 26.6468C8.75899 26.6765 8.72659 26.708 8.69523 26.7385C8.66387 26.7691 8.63235 26.8005 8.60099 26.8319C8.59835 26.8345 8.59491 26.838 8.59139 26.8406C8.57915 26.8529 8.56691 26.8651 8.55555 26.8765C8.54771 26.8852 8.53979 26.8931 8.53291 26.9009C8.51371 26.9201 8.49451 26.9393 8.47523 26.9593C8.48315 26.9497 8.49267 26.9401 8.50147 26.9314C7.59963 27.8078 6.36877 28.3473 5.0113 28.3473C2.24353 28.3471 0 26.1034 0 23.337C0 22.823 0.0776863 22.327 0.221747 21.8601C0.234809 21.8164 0.248809 21.7728 0.263683 21.73L2.81278 13.8401C2.8294 13.7868 2.84596 13.7335 2.86346 13.6803C2.87046 13.6576 2.87834 13.635 2.88614 13.6123C2.90278 13.5625 2.92021 13.5136 2.93852 13.4639C2.94196 13.4543 2.94552 13.4439 2.94983 13.4334C2.97251 13.3722 2.99608 13.3111 3.02145 13.25C3.02145 13.2491 3.02145 13.2483 3.02233 13.2474C3.04326 13.1942 3.06601 13.1408 3.08951 13.0876C3.09477 13.0746 3.09995 13.0615 3.10613 13.0484C3.13233 12.9882 3.16026 12.9279 3.1882 12.8695C3.24664 12.7446 3.30951 12.6215 3.37677 12.5011C3.40995 12.4408 3.44395 12.3815 3.47889 12.3222C4.70106 10.2392 6.96464 8.84081 9.55561 8.84081C10.8424 8.84081 12.0479 9.1856 13.0859 9.78799C13.5328 10.0471 14.006 10.2419 14.494 10.3719C15.4788 10.6356 16.5192 10.6356 17.5039 10.3719C17.9919 10.2419 18.4651 10.0471 18.9121 9.78799C19.9501 9.18568 21.1556 8.84081 22.4424 8.84081C25.0333 8.84081 27.297 10.2393 28.5191 12.3222C28.554 12.3815 28.5881 12.4409 28.6212 12.5011C28.6884 12.6215 28.7513 12.7447 28.8098 12.8695C28.8378 12.9279 28.8657 12.9882 28.8918 13.0484C28.9006 13.0667 28.9085 13.0859 28.9154 13.1043C28.9355 13.1479 28.9538 13.1925 28.9714 13.237C28.9774 13.25 28.9826 13.2631 28.9871 13.2771C29.0089 13.3287 29.029 13.381 29.0482 13.4334C29.098 13.5669 29.1434 13.7031 29.1853 13.8402L29.5379 14.9331L31.7081 21.649C31.7107 21.6568 31.7133 21.6638 31.7159 21.6716C31.7168 21.6742 31.7177 21.6759 31.7185 21.6786L31.791 21.9038C31.7925 21.909 31.7944 21.9142 31.7961 21.9203Z" fill="url(#paint2_linear_1_2230)"/>
<path d="M12.2957 24.4553C12.2713 24.4641 12.2468 24.4736 12.2233 24.4833C12.2102 24.4876 12.1971 24.4929 12.184 24.499C12.1823 24.499 12.1806 24.4999 12.1788 24.4999C12.1535 24.5103 12.1291 24.5199 12.1046 24.5305C12.0872 24.5365 12.0705 24.5435 12.054 24.5505C12.0452 24.5531 12.0365 24.5566 12.0286 24.5601C12.0076 24.568 11.9876 24.5767 11.9675 24.5854C11.9343 24.5985 11.902 24.6125 11.8706 24.6265C11.8593 24.6317 11.848 24.6361 11.8356 24.6413C11.8252 24.6448 11.8156 24.6492 11.806 24.6535C11.7588 24.6745 11.7108 24.6954 11.6637 24.7173C11.607 24.7425 11.5494 24.7688 11.4926 24.7967C11.49 24.7976 11.4874 24.7993 11.4848 24.8001C11.4725 24.8053 11.4594 24.8114 11.4472 24.8185C11.4393 24.821 11.4314 24.8254 11.4228 24.8297C11.3896 24.8455 11.3556 24.862 11.3223 24.8795C11.3119 24.8838 11.3014 24.8891 11.2909 24.8944C11.2743 24.9022 11.2577 24.911 11.2412 24.9197C11.2176 24.9319 11.194 24.9441 11.1704 24.9564C11.1652 24.959 11.1591 24.9625 11.1538 24.9651C11.0404 25.0236 10.9276 25.0847 10.816 25.1485C10.7749 25.1711 10.733 25.1956 10.692 25.2201C10.6798 25.227 10.6667 25.2349 10.6544 25.2419C10.6091 25.2681 10.5636 25.296 10.5182 25.3239C10.5086 25.3292 10.5 25.3353 10.4912 25.3405C10.4868 25.3432 10.4824 25.3458 10.479 25.3476C10.4694 25.3537 10.4598 25.3597 10.4493 25.3659C10.4092 25.3912 10.369 25.4165 10.3288 25.4427C10.232 25.5038 10.1368 25.5676 10.0425 25.6339C9.99105 25.6688 9.93961 25.7046 9.88889 25.7413C9.88193 25.7465 9.87489 25.7509 9.86801 25.7561C9.84353 25.7736 9.81913 25.791 9.79553 25.8093C9.73969 25.8495 9.68465 25.8905 9.62969 25.9325C9.62881 25.9333 9.62793 25.9333 9.62793 25.9341C9.56073 25.9857 9.49426 26.0372 9.42802 26.0913C9.41666 26.0992 9.40618 26.1087 9.39482 26.1175C9.33018 26.1699 9.26562 26.2232 9.20186 26.2781C9.15114 26.3209 9.10146 26.3637 9.0517 26.4081C9.02466 26.4318 8.99762 26.4561 8.97058 26.4806C8.91026 26.5347 8.8501 26.5897 8.79067 26.6465C8.73915 26.6945 8.68771 26.7443 8.63699 26.7932C8.63355 26.7975 8.62915 26.8019 8.62483 26.8062L8.59075 26.8403C8.56195 26.8682 8.53403 26.897 8.50603 26.9259C8.50427 26.9276 8.50259 26.9293 8.50083 26.9311C7.59901 27.8076 6.36815 28.3471 5.01067 28.3471C2.24353 28.347 0 26.1034 0 23.337C0 22.8229 0.0776863 22.327 0.221747 21.86C0.234809 21.8163 0.248809 21.7728 0.263683 21.73L2.81278 13.8401C2.8294 13.7868 2.84596 13.7335 2.86346 13.6803C2.87046 13.6576 2.87834 13.635 2.88614 13.6123C2.90278 13.5625 2.92021 13.5135 2.93852 13.4639C2.94196 13.4543 2.94552 13.4439 2.94983 13.4333C2.97251 13.3722 2.99608 13.3111 3.02145 13.25C3.02145 13.2491 3.02145 13.2483 3.02233 13.2474C3.04326 13.1942 3.06601 13.1408 3.08951 13.0876C3.09477 13.0746 3.09995 13.0615 3.10613 13.0484C3.13233 12.9882 3.16026 12.9279 3.1882 12.8695C3.24751 12.7446 3.31039 12.6215 3.37677 12.5011C3.40995 12.4408 3.44395 12.3815 3.47889 12.3222C3.11833 13.121 2.91758 14.007 2.91758 14.9402C2.91758 16.2322 3.30257 17.4334 3.96432 18.4363C5.01623 20.033 6.76915 21.1269 8.78483 21.2814C8.85474 21.2866 8.92458 21.2902 8.99522 21.2936C9.08858 21.2979 9.1829 21.2997 9.27722 21.2997C9.38026 21.2997 9.48321 21.2971 9.58537 21.2918C9.71369 21.2857 9.84025 21.2761 9.96681 21.2613C10.0715 21.2509 10.1754 21.2369 10.2784 21.2194C10.5072 21.1835 10.7315 21.1346 10.9506 21.0753L12.2957 24.4553Z" fill="url(#paint3_linear_1_2230)"/>
<path d="M29.6244 27.5981C29.4444 27.7107 29.256 27.8111 29.0613 27.8993C29.0124 27.922 28.9626 27.9439 28.912 27.9647C28.3202 28.2109 27.6707 28.3471 26.9888 28.3471C25.6096 28.3471 24.3604 27.7902 23.4551 26.8883C23.4525 26.8857 23.449 26.8823 23.4463 26.8796C23.4454 26.8787 23.4445 26.8779 23.4437 26.877C23.4315 26.8648 23.4193 26.8526 23.407 26.8403C23.3738 26.8071 23.3407 26.7748 23.3074 26.7425C23.2743 26.7093 23.2403 26.6779 23.2071 26.6465C23.1774 26.6177 23.1469 26.5897 23.1171 26.5627C23.098 26.5443 23.0779 26.526 23.0587 26.5086C23.0483 26.4989 23.0377 26.4894 23.0273 26.4806C23.0003 26.4562 22.9732 26.4326 22.9461 26.4082C22.8964 26.3636 22.8465 26.3209 22.796 26.2781C22.7384 26.2283 22.679 26.1795 22.6205 26.1323C22.6127 26.1253 22.6031 26.1183 22.5944 26.1105C22.5926 26.1087 22.5909 26.1079 22.59 26.1071C22.59 26.1071 22.5891 26.1062 22.5883 26.1053C22.5865 26.1044 22.5857 26.1035 22.5849 26.1027C22.5674 26.0887 22.5508 26.0756 22.5342 26.0626C22.5299 26.0591 22.5254 26.0555 22.5211 26.0521C22.4853 26.0233 22.4495 25.9954 22.4137 25.9683C22.3998 25.9561 22.3849 25.9456 22.3709 25.9343C22.3639 25.929 22.3561 25.9238 22.3491 25.9185C22.3439 25.9141 22.3395 25.9106 22.3343 25.9071C22.3045 25.8835 22.274 25.8618 22.2434 25.8391C22.2304 25.8287 22.2164 25.8191 22.2025 25.8095C22.1789 25.7911 22.1545 25.7736 22.13 25.7562C22.123 25.7509 22.1161 25.7457 22.1091 25.7413C22.0759 25.7177 22.0428 25.6942 22.0095 25.6706C21.9929 25.6592 21.9773 25.6479 21.9606 25.6374C21.9572 25.6339 21.9537 25.6312 21.9493 25.6295C21.9433 25.6251 21.9371 25.6207 21.931 25.6164C21.8498 25.5606 21.7677 25.5064 21.6857 25.4531C21.6648 25.4391 21.6437 25.4261 21.622 25.4121C21.5975 25.3963 21.5731 25.3815 21.5486 25.3659L21.5477 25.365C21.5381 25.3597 21.5285 25.3537 21.5189 25.3475C21.4989 25.3354 21.4789 25.3231 21.4587 25.3108C21.3976 25.2733 21.3374 25.2375 21.2763 25.2017C21.2737 25.2 21.271 25.1991 21.2684 25.1975C21.2631 25.1948 21.2571 25.1904 21.2501 25.187C21.2397 25.1808 21.2283 25.1748 21.2178 25.1687C21.1497 25.1295 21.0825 25.0919 21.0145 25.0543C20.9464 25.0168 20.8765 24.9811 20.8076 24.9461C20.7674 24.9251 20.7273 24.9051 20.6871 24.885C20.6531 24.8675 20.6181 24.8509 20.5841 24.8343C20.5815 24.8326 20.5789 24.8309 20.5763 24.83C20.5501 24.817 20.5238 24.8047 20.4977 24.7925C20.4759 24.782 20.454 24.7724 20.4331 24.7619C20.3903 24.7427 20.3484 24.7235 20.3057 24.7043C20.2865 24.6947 20.2664 24.686 20.2472 24.6781C20.2289 24.6694 20.2105 24.6615 20.1922 24.6537C20.18 24.6484 20.1685 24.6432 20.1564 24.6379C20.1389 24.6309 20.1205 24.6231 20.1023 24.6152C20.0935 24.6118 20.0849 24.6083 20.0769 24.6048C20.0725 24.6022 20.0673 24.6005 20.063 24.5987C20.0429 24.5899 20.0229 24.582 20.0028 24.5743C19.9914 24.569 19.9809 24.5646 19.9696 24.5603C19.9547 24.5541 19.9399 24.548 19.925 24.5428C19.8953 24.5306 19.8657 24.5183 19.836 24.507C19.8177 24.5 19.7993 24.4921 19.7801 24.4851C19.7749 24.4835 19.7697 24.4817 19.7643 24.4791C19.7443 24.4711 19.7233 24.4633 19.7023 24.4555L21.0476 21.0753C21.2667 21.1347 21.491 21.1836 21.7197 21.2194C21.7259 21.2212 21.732 21.222 21.7381 21.222C21.8349 21.2387 21.9328 21.2508 22.0314 21.2612C22.0969 21.2692 22.1623 21.2752 22.2277 21.2804C22.2897 21.2848 22.3517 21.2892 22.4145 21.2918C22.4285 21.2927 22.4417 21.2936 22.4556 21.2936C22.5437 21.2978 22.6319 21.2996 22.7209 21.2996C22.8152 21.2996 22.9095 21.2979 23.0029 21.2936C23.1025 21.2892 23.2011 21.2822 23.2997 21.2735C25.2789 21.0954 26.9968 20.0094 28.0339 18.4363C28.6956 17.4332 29.0806 16.232 29.0806 14.9401C29.0806 14.7777 29.0744 14.6162 29.0623 14.4573C29.0056 13.7005 28.817 12.9821 28.5193 12.3221C28.5542 12.3813 28.5883 12.4408 28.6214 12.501C28.6877 12.6214 28.7506 12.7445 28.81 12.8693C28.8379 12.9278 28.8659 12.9881 28.892 13.0483C28.9008 13.0666 28.9087 13.0859 28.9156 13.1042C28.9357 13.1479 28.954 13.1924 28.9716 13.2369C28.9776 13.2499 28.9828 13.2631 28.9873 13.277C29.0091 13.3285 29.0292 13.3809 29.0484 13.4333C29.0982 13.5668 29.1436 13.703 29.1855 13.8401L29.5382 14.9331L31.7084 21.6488C31.711 21.6567 31.7136 21.6637 31.7162 21.6716L31.7913 21.9037C31.793 21.9089 31.7948 21.9141 31.7964 21.9204C31.9291 22.3691 31.9998 22.8447 31.9998 23.3371C31.9996 25.1371 31.0499 26.7155 29.6244 27.5981Z" fill="url(#paint4_linear_1_2230)"/>
<path d="M31.7961 21.9203C31.9287 22.369 31.9994 22.8446 31.9994 23.3371C31.9994 25.1372 31.0496 26.7154 29.6241 27.5981C29.4442 27.7107 29.2557 27.8111 29.061 27.8993C29.0122 27.922 28.9623 27.9438 28.9118 27.9647L22.3609 21.414L22.2273 21.2804L20.313 19.366L20.3121 19.3651L19.5264 18.5794C19.5247 18.5777 19.5221 18.576 19.5203 18.5733C19.4574 18.5174 19.3954 18.4607 19.3361 18.4022C19.3056 18.3725 19.2759 18.3429 19.2471 18.3131C19.1588 18.2232 19.0751 18.1298 18.9948 18.033C18.9153 17.9378 18.8402 17.8409 18.7687 17.7405C18.7669 17.7387 18.7652 17.7362 18.7644 17.7335C18.6805 17.6147 18.602 17.4934 18.5296 17.3677C18.4955 17.311 18.4641 17.2534 18.4327 17.1948C18.4135 17.1573 18.3943 17.1198 18.3751 17.0814C18.3576 17.0473 18.341 17.0115 18.3244 16.9766C18.3131 16.9522 18.3017 16.9278 18.2912 16.9033C18.2791 16.8762 18.2676 16.8501 18.2563 16.823C18.2432 16.7933 18.231 16.7627 18.2188 16.7322C18.1725 16.617 18.1305 16.4982 18.093 16.3786C18.0791 16.3341 18.0659 16.2895 18.0537 16.245C18.0424 16.203 18.0311 16.1613 18.0205 16.1194C18.004 16.0513 17.9883 15.9831 17.9743 15.9142C17.9656 15.875 17.9585 15.8356 17.9516 15.7955C17.9428 15.7501 17.9359 15.7038 17.9289 15.6575C17.9236 15.6253 17.9193 15.5929 17.9159 15.5597C17.8888 15.3563 17.8757 15.1494 17.8757 14.9391C17.8757 12.2659 20.0424 10.0992 22.7155 10.0992C22.7731 10.0992 22.8298 10.1001 22.8866 10.1027C22.9198 10.1035 22.9529 10.1044 22.9852 10.107C23.0272 10.1087 23.0691 10.1114 23.111 10.1148C23.1852 10.121 23.2603 10.1288 23.3336 10.1385C23.3677 10.1428 23.4008 10.1472 23.434 10.1524C23.448 10.1542 23.4619 10.1559 23.4751 10.1585C23.4995 10.1619 23.5239 10.1664 23.5475 10.1707C23.6287 10.1847 23.7091 10.2004 23.7884 10.2187C23.8243 10.2266 23.8609 10.2354 23.8967 10.2449C23.9805 10.2659 24.0635 10.2886 24.1455 10.3139C24.1481 10.3148 24.1516 10.3156 24.1551 10.3165C24.2311 10.341 24.3061 10.3663 24.3795 10.3934C24.3882 10.3959 24.3969 10.3995 24.4047 10.403C24.4397 10.416 24.4746 10.4291 24.5086 10.4431C24.5487 10.4588 24.588 10.4745 24.6274 10.4919C24.664 10.5077 24.7007 10.5242 24.7374 10.5408C24.7426 10.5426 24.7478 10.5451 24.7531 10.5479C24.788 10.5645 24.8239 10.5811 24.8579 10.5985C24.8989 10.6176 24.9391 10.6386 24.9792 10.6605C25.0141 10.6788 25.0481 10.698 25.0822 10.7172C25.1197 10.7382 25.1555 10.7591 25.1922 10.781C25.228 10.8019 25.2646 10.8247 25.2995 10.8473C25.4418 10.9372 25.5798 11.0341 25.7116 11.1389C25.942 11.3205 26.1559 11.5239 26.3497 11.7439L26.3628 11.757L29.0619 14.4571L29.5378 14.9329L31.7079 21.6487C31.7106 21.6566 31.7132 21.6635 31.7158 21.6714L31.7909 21.9035C31.7925 21.909 31.7943 21.9142 31.7961 21.9203Z" fill="url(#paint5_linear_1_2230)"/>
<path d="M22.7151 19.7796C25.3883 19.7796 27.5551 17.6126 27.5551 14.9397C27.5551 12.2665 25.3883 10.0997 22.7151 10.0997C20.0422 10.0997 17.8752 12.2665 17.8752 14.9397C17.8752 17.6126 20.0422 19.7796 22.7151 19.7796Z" fill="url(#paint6_linear_1_2230)"/>
<path d="M23.2199 22.0582L29.0611 27.8992C29.0122 27.9219 28.9623 27.9438 28.9118 27.9647C28.3199 28.2108 27.6704 28.3471 26.9886 28.3471C25.6093 28.3471 24.36 27.7901 23.4547 26.8883C23.4766 26.9101 23.4984 26.9328 23.5202 26.9555C23.4957 26.9302 23.4704 26.9048 23.4459 26.8795C23.4451 26.8787 23.4443 26.8778 23.4434 26.8769C23.4311 26.8647 23.4189 26.8525 23.4067 26.8403C23.3412 26.7748 23.2739 26.7102 23.2067 26.6464C23.1771 26.6185 23.1474 26.5906 23.1168 26.5626C23.0888 26.5373 23.0618 26.512 23.0339 26.4875C23.0312 26.4849 23.0295 26.4823 23.0268 26.4806C22.9998 26.4561 22.9727 26.4326 22.9457 26.4081C22.8959 26.3644 22.8461 26.3208 22.7956 26.278C22.738 26.2283 22.6787 26.1794 22.6202 26.1323C22.6124 26.1252 22.6028 26.1183 22.594 26.1104C22.5923 26.1087 22.5906 26.1078 22.5896 26.107C22.5896 26.107 22.5888 26.1061 22.5879 26.1052C22.587 26.1052 22.5861 26.1043 22.5844 26.1026C22.567 26.0886 22.5504 26.0755 22.5338 26.0625C22.5295 26.0591 22.5251 26.0555 22.5208 26.052C22.4849 26.0232 22.4492 25.9953 22.4134 25.9683C22.3995 25.956 22.3846 25.9455 22.3706 25.9342C22.3636 25.9289 22.3558 25.9237 22.3488 25.9184C22.3435 25.914 22.3392 25.9106 22.3339 25.9071C22.3042 25.8835 22.2736 25.8617 22.2431 25.8391C22.23 25.8286 22.216 25.819 22.202 25.8094C22.1784 25.7911 22.154 25.7735 22.1296 25.7561C22.1227 25.7508 22.1157 25.7457 22.1087 25.7412C22.0755 25.7176 22.0424 25.6941 22.0092 25.6705C21.9925 25.6591 21.9769 25.6478 21.9603 25.6373C21.9507 25.6295 21.9411 25.6234 21.9315 25.6163C21.8503 25.5605 21.7673 25.5063 21.6852 25.4531C21.646 25.4278 21.6067 25.4024 21.5674 25.3789C21.5604 25.3737 21.5544 25.3693 21.5473 25.3667C21.5473 25.3667 21.5473 25.3659 21.5464 25.3659C21.5377 25.3597 21.5281 25.3537 21.5185 25.3475C21.4984 25.3354 21.4784 25.3231 21.4583 25.3108C21.4277 25.2917 21.3972 25.2733 21.3657 25.2559C21.336 25.2367 21.3064 25.2191 21.2758 25.2017C21.2732 25.2 21.2705 25.1991 21.2679 25.1975C21.2627 25.1948 21.2566 25.1904 21.2496 25.187C21.2392 25.1808 21.2278 25.1748 21.2173 25.1687C21.151 25.1303 21.0847 25.0936 21.0174 25.0569C21.0156 25.056 21.0148 25.0551 21.0131 25.0543C20.945 25.0176 20.876 24.981 20.8071 24.946C20.7669 24.9251 20.7268 24.9051 20.6867 24.8849C20.6526 24.8675 20.6176 24.8508 20.5836 24.8343C20.581 24.8326 20.5784 24.8308 20.5758 24.83C20.5496 24.8169 20.5233 24.8047 20.4972 24.7924C20.4955 24.7915 20.4938 24.7907 20.492 24.7907C20.43 24.761 20.3671 24.7323 20.3052 24.7043C20.2684 24.6877 20.2327 24.672 20.196 24.6563C20.1934 24.6546 20.1917 24.6537 20.189 24.6537C20.1881 24.6519 20.1864 24.6519 20.1856 24.6519C20.1576 24.6388 20.1297 24.6275 20.1018 24.6152C20.093 24.6118 20.0844 24.6083 20.0764 24.6048C20.072 24.6031 20.0677 24.6005 20.0634 24.5987C20.0433 24.5899 20.0224 24.582 20.0023 24.5743C19.9909 24.569 19.9804 24.5646 19.9691 24.5603C19.9542 24.5541 19.9394 24.548 19.9245 24.5428C19.8948 24.5306 19.8652 24.5183 19.8355 24.507C19.8172 24.5 19.7988 24.4921 19.7796 24.4851C19.7744 24.4835 19.7692 24.4817 19.7638 24.4791C19.7097 24.459 19.6556 24.438 19.6006 24.4188C19.5918 24.4154 19.5823 24.4118 19.5727 24.4083C19.5028 24.3831 19.432 24.3586 19.3614 24.3342C19.3326 24.3246 19.3038 24.315 19.275 24.3054C19.2235 24.2887 19.1729 24.2731 19.1213 24.2574L19.0192 24.226C18.966 24.2103 18.9136 24.1946 18.8604 24.1797C18.8481 24.1763 18.8367 24.1727 18.8254 24.1701C18.7747 24.1561 18.7241 24.1422 18.6735 24.13C18.6717 24.1283 18.6692 24.1283 18.6674 24.1283C18.6665 24.1274 18.6656 24.1274 18.6648 24.1274C18.6115 24.1125 18.5583 24.0995 18.5041 24.0863C18.4709 24.0775 18.4369 24.0697 18.4038 24.0627C18.3567 24.0515 18.3087 24.04 18.2615 24.0305C18.2161 24.02 18.1707 24.0104 18.1253 24.0017C18.0921 23.9938 18.0581 23.9877 18.0249 23.9807C17.9673 23.9695 17.9088 23.9589 17.8512 23.9485C17.8232 23.9441 17.7953 23.9388 17.7674 23.9336C17.6958 23.9215 17.6233 23.91 17.5518 23.8995C17.4226 23.8803 17.2925 23.8637 17.1633 23.8498C17.1144 23.8437 17.0655 23.8394 17.0175 23.834C16.9433 23.8271 16.8683 23.821 16.794 23.8157C16.7714 23.8131 16.7487 23.8115 16.726 23.8105C16.657 23.8052 16.5872 23.8008 16.5182 23.7983C16.4423 23.794 16.3655 23.7913 16.2887 23.7895C16.2729 23.7887 16.2581 23.7887 16.2433 23.7887C16.163 23.786 16.0827 23.7852 16.0024 23.7852H15.9962C15.9439 23.7852 15.8906 23.7852 15.8382 23.787H15.8007C15.7753 23.7879 15.7509 23.7879 15.7256 23.7887C15.7177 23.7887 15.709 23.7896 15.7012 23.7896C15.6959 23.7896 15.6908 23.7896 15.6863 23.7905C15.6365 23.7914 15.5868 23.7931 15.537 23.7957C15.5161 23.7966 15.4961 23.7975 15.4759 23.7983C15.4585 23.7992 15.4419 23.8001 15.4253 23.8018C15.4139 23.8018 15.4025 23.8018 15.3912 23.8035C15.3475 23.8053 15.303 23.8079 15.2593 23.8115C15.255 23.8115 15.2497 23.8123 15.2453 23.8123C15.2375 23.8131 15.2296 23.8131 15.2217 23.814C15.2007 23.8158 15.1781 23.8175 15.1571 23.8193C15.1082 23.8227 15.0593 23.8271 15.0113 23.8315C14.9913 23.8332 14.9721 23.8349 14.9529 23.8376C14.9128 23.8411 14.8734 23.8455 14.8341 23.8507H14.8324C14.8262 23.8507 14.8202 23.8515 14.8141 23.8524C14.7905 23.8542 14.7669 23.8577 14.7442 23.8603C14.677 23.8682 14.6097 23.8769 14.5433 23.8865C14.5364 23.8874 14.5293 23.8883 14.5225 23.8891C14.5172 23.8891 14.5128 23.89 14.5076 23.8908C14.4962 23.8926 14.4839 23.8943 14.4726 23.8961C14.4717 23.8961 14.47 23.8961 14.4692 23.897C14.4413 23.9004 14.4133 23.9048 14.3862 23.9091C14.3645 23.9126 14.3425 23.9153 14.3208 23.9196C14.2955 23.9231 14.2701 23.9275 14.2449 23.9318C14.1794 23.9423 14.1148 23.9545 14.0493 23.9667C14.0153 23.9728 13.9813 23.9798 13.9481 23.9859C13.921 23.9911 13.8948 23.9963 13.8686 24.0026C13.8643 24.0026 13.8608 24.0035 13.8573 24.0051C13.8442 24.0069 13.832 24.0095 13.8189 24.0131C13.8041 24.0157 13.7893 24.0191 13.7753 24.0218C13.7622 24.0244 13.749 24.0271 13.7369 24.0306C13.7238 24.0331 13.7089 24.0367 13.6968 24.0393C13.6906 24.0402 13.6845 24.0419 13.6793 24.0427C13.6575 24.048 13.6365 24.0523 13.6156 24.0576C13.6007 24.0611 13.585 24.0646 13.5702 24.068C13.5632 24.0698 13.5562 24.0715 13.5493 24.0733C13.5239 24.0795 13.4985 24.0855 13.4733 24.0916C13.4672 24.0934 13.4611 24.0943 13.455 24.096C13.4236 24.1039 13.3921 24.1117 13.3608 24.1204C13.3529 24.1222 13.3441 24.1239 13.3363 24.1266C13.3329 24.1275 13.3285 24.1283 13.325 24.1291C13.325 24.1291 13.325 24.13 13.3241 24.13C13.2342 24.1527 13.1452 24.178 13.0561 24.2034C13.0457 24.2068 13.0352 24.2095 13.0248 24.213C13.0213 24.2139 13.0177 24.2147 13.0143 24.2156C13.0056 24.2183 12.996 24.2209 12.9873 24.2243C12.9776 24.227 12.9672 24.2296 12.9576 24.2331C12.9096 24.2471 12.8625 24.2619 12.8145 24.2777C12.7891 24.2847 12.7637 24.2935 12.7385 24.3021C12.6861 24.3187 12.6329 24.3362 12.5805 24.3545C12.5648 24.3597 12.5499 24.3649 12.5359 24.3694C12.5229 24.3737 12.5106 24.3781 12.4984 24.3824C12.4862 24.3867 12.4739 24.3911 12.4617 24.3964C12.4276 24.4077 12.3936 24.42 12.3596 24.4331C12.3473 24.4375 12.3359 24.4419 12.3237 24.4462C12.3133 24.4496 12.3019 24.454 12.2915 24.4583C12.2793 24.4627 12.267 24.4671 12.2548 24.4732C12.2042 24.4915 12.1545 24.5108 12.1047 24.5308C12.0873 24.537 12.0706 24.5439 12.054 24.5509L9.82443 22.3214L9.62363 22.1206L8.93836 21.4353L8.78468 21.2816L6.08285 18.5798C6.0811 18.578 6.07853 18.5764 6.07673 18.5736C6.01473 18.5187 5.95366 18.4628 5.8951 18.4044C5.89423 18.4035 5.89248 18.4035 5.89248 18.4026C5.86191 18.3729 5.83222 18.3432 5.80341 18.3136C5.71522 18.2236 5.63142 18.1302 5.55117 18.0333C5.47174 17.9382 5.39661 17.8412 5.32505 17.7409C5.3233 17.7392 5.32161 17.7366 5.32074 17.7339C5.19854 17.5619 5.08854 17.3821 4.98898 17.1952C4.9698 17.1577 4.95061 17.1202 4.93136 17.0819C4.91392 17.0478 4.8973 17.012 4.88074 16.9771C4.86943 16.9527 4.85805 16.9282 4.84755 16.9038C4.83537 16.8767 4.82393 16.8505 4.81262 16.8235C4.79955 16.7938 4.78731 16.7632 4.77506 16.7327C4.72881 16.6174 4.68687 16.4987 4.64931 16.3791C4.63537 16.3346 4.62224 16.2901 4.61006 16.2456C4.59875 16.2037 4.58737 16.1617 4.57687 16.1198C4.56024 16.0517 4.54462 15.9837 4.53062 15.9147C4.52187 15.8754 4.51487 15.8361 4.50793 15.796C4.49919 15.7505 4.49219 15.7042 4.48524 15.658C4.48 15.6257 4.47562 15.5934 4.47219 15.5602C4.44512 15.3568 4.43206 15.1499 4.43206 14.9395C4.43206 12.2665 6.59878 10.0997 9.2718 10.0997C9.3294 10.0997 9.38612 10.1005 9.44291 10.1031C9.47611 10.104 9.50923 10.1049 9.54163 10.1074C9.58355 10.1092 9.62539 10.1118 9.66739 10.1153C9.74155 10.1214 9.81659 10.1293 9.88995 10.1389C9.92403 10.1433 9.95715 10.1477 9.99035 10.1529C10.0043 10.1546 10.0182 10.1563 10.0313 10.159C10.0557 10.1625 10.0802 10.1669 10.1037 10.1712C10.1849 10.1851 10.2653 10.2009 10.3447 10.2192C10.3805 10.2271 10.4171 10.2358 10.4529 10.2454C10.5368 10.2663 10.6197 10.2891 10.7017 10.3144C10.7044 10.3153 10.7079 10.3161 10.7113 10.317C10.7873 10.3414 10.8624 10.3668 10.9357 10.3938C10.9445 10.3965 10.9531 10.4 10.961 10.4034C10.9959 10.4165 11.0309 10.4297 11.0649 10.4436C11.105 10.4593 11.1443 10.4749 11.1836 10.4925C11.2203 10.5082 11.2569 10.5247 11.2936 10.5413C11.2989 10.5431 11.3041 10.5457 11.3093 10.5483C11.3443 10.5649 11.3801 10.5815 11.4141 10.5989C11.4551 10.6181 11.4953 10.6391 11.5354 10.6609C11.5704 10.6793 11.6044 10.6985 11.6385 10.7177C11.676 10.7386 11.7117 10.7597 11.7485 10.7814C11.7842 10.8024 11.8209 10.8251 11.8558 10.8477C11.9981 10.9377 12.136 11.0345 12.2679 11.1394C12.4983 11.321 12.7122 11.5244 12.906 11.7444L12.919 11.7574L18.5296 17.368L20.2887 19.1271L20.5549 19.3933L22.4267 21.265L22.4555 21.2938L23.2199 22.0582Z" fill="url(#paint7_linear_1_2230)"/>
<path d="M9.27196 19.7796C11.945 19.7796 14.1119 17.6126 14.1119 14.9397C14.1119 12.2665 11.945 10.0997 9.27196 10.0997C6.59897 10.0997 4.43206 12.2665 4.43206 14.9397C4.43206 17.6126 6.59897 19.7796 9.27196 19.7796Z" fill="url(#paint8_linear_1_2230)"/>
<path d="M13.937 16.0875L9.87214 12.0243C9.73782 11.8606 9.53382 11.7562 9.30551 11.7562C8.90063 11.7562 8.57256 12.0843 8.57256 12.4891V14.24H6.8217C6.41689 14.24 6.08877 14.5681 6.08877 14.9729C6.08877 15.2012 6.1932 15.4051 6.35689 15.5396L10.419 19.6047C12.155 19.1887 13.5208 17.8232 13.937 16.0875Z" fill="url(#paint9_linear_1_2230)"/>
<path d="M11.7892 14.24H10.0384V12.4891C10.0384 12.0843 9.7103 11.7562 9.30551 11.7562C8.90063 11.7562 8.57256 12.0843 8.57256 12.4891V14.24H6.8217C6.41689 14.24 6.08877 14.5681 6.08877 14.9729C6.08877 15.3777 6.41689 15.7059 6.8217 15.7059H8.57256V17.4567C8.57256 17.8615 8.90063 18.1895 9.30551 18.1895C9.7103 18.1895 10.0384 17.8615 10.0384 17.4567V15.7059H11.7892C12.194 15.7059 12.5222 15.3777 12.5222 14.9729C12.5222 14.5681 12.194 14.24 11.7892 14.24Z" fill="url(#paint10_linear_1_2230)"/>
<path d="M29.6245 27.5981C29.4446 27.7107 29.2561 27.8111 29.0614 27.8993C29.0125 27.922 28.9627 27.9438 28.9121 27.9647C28.3203 28.2109 27.6708 28.3471 26.9889 28.3471C25.6097 28.3471 24.3605 27.7901 23.4552 26.8883C23.477 26.9101 23.4989 26.9329 23.5206 26.9555C23.4962 26.9302 23.4709 26.9049 23.4465 26.8796C23.4456 26.8787 23.4447 26.8778 23.4438 26.8769C23.4316 26.8648 23.4194 26.8525 23.4071 26.8403C23.3417 26.7749 23.2745 26.7102 23.2072 26.6465C23.1775 26.6185 23.1478 26.5905 23.1173 26.5626C23.0894 26.5373 23.0622 26.512 23.0343 26.4876C23.0317 26.4849 23.0299 26.4823 23.0274 26.4805C23.0002 26.4561 22.9732 26.4325 22.9462 26.4081C22.8964 26.3645 22.8466 26.3209 22.796 26.2781C22.7384 26.2283 22.679 26.1794 22.6206 26.1323C22.6127 26.1253 22.6031 26.1183 22.5944 26.1105C22.5926 26.1087 22.591 26.1078 22.59 26.107C22.59 26.107 22.5891 26.1061 22.5882 26.1053C22.5874 26.1053 22.5865 26.1044 22.5848 26.1026C22.5674 26.0886 22.5508 26.0756 22.5342 26.0625C22.5299 26.0591 22.5254 26.0555 22.5211 26.0521C22.4854 26.0233 22.4495 25.9953 22.4138 25.9683C22.4094 25.9649 22.405 25.9613 22.4007 25.9586C22.391 25.9499 22.3815 25.9429 22.371 25.9342C22.3639 25.9289 22.3562 25.9237 22.3492 25.9185C22.3439 25.9141 22.3396 25.9105 22.3343 25.9071C22.3038 25.8845 22.2741 25.8617 22.2435 25.8391C22.2305 25.8286 22.2165 25.819 22.2025 25.8094C22.1789 25.7911 22.1545 25.7736 22.1301 25.7561C22.123 25.7509 22.1162 25.7457 22.1091 25.7413C22.0759 25.7177 22.0428 25.6941 22.0096 25.6705C21.993 25.6592 21.9774 25.6478 21.9607 25.6373C21.951 25.6294 21.9415 25.6234 21.9319 25.6164C21.8507 25.5605 21.7678 25.5064 21.6857 25.4531C21.6465 25.4278 21.607 25.4025 21.5678 25.3789C21.5608 25.3737 21.5548 25.3693 21.5478 25.3668C21.5478 25.3668 21.5478 25.3659 21.5469 25.3659C21.5382 25.3597 21.5286 25.3537 21.519 25.3476C21.4989 25.3354 21.4788 25.3231 21.4587 25.3109C21.4282 25.2917 21.3976 25.2733 21.3662 25.2559C21.3339 25.2358 21.3015 25.2166 21.2683 25.1974C21.263 25.1949 21.257 25.1905 21.25 25.187C21.2396 25.1809 21.2282 25.1749 21.2178 25.1687C21.1514 25.1303 21.085 25.0937 21.0178 25.0569C21.0161 25.0561 21.0152 25.0552 21.0135 25.0543C20.9454 25.0177 20.8765 24.981 20.8075 24.9461C20.7674 24.9251 20.7272 24.9051 20.687 24.8849C20.653 24.8675 20.6181 24.8509 20.5841 24.8343C20.5814 24.8325 20.5788 24.8309 20.5762 24.83C20.5499 24.8169 20.5238 24.8047 20.4976 24.7925C20.4959 24.7916 20.4942 24.7907 20.4924 24.7907C20.4304 24.761 20.3675 24.7323 20.3056 24.7043C20.2689 24.6877 20.2331 24.6721 20.1965 24.6563C20.1938 24.6545 20.1922 24.6537 20.1894 24.6537C20.1886 24.652 20.1868 24.652 20.186 24.652C20.1581 24.6389 20.1302 24.6275 20.1022 24.6153C20.0934 24.6118 20.0848 24.6083 20.0769 24.6049C20.0725 24.6031 20.0682 24.6005 20.0638 24.5987C20.0437 24.59 20.0228 24.5821 20.0027 24.5743C19.9914 24.569 19.9809 24.5646 19.9695 24.5603C19.9546 24.5541 19.9398 24.5481 19.925 24.5429C19.8953 24.5306 19.8656 24.5184 19.8359 24.507C19.8176 24.5 19.7992 24.4921 19.78 24.4852C19.7748 24.4834 19.7696 24.4817 19.7642 24.4791C19.7102 24.459 19.656 24.4381 19.601 24.4189C19.5922 24.4154 19.5827 24.4118 19.573 24.4084C19.5032 24.3831 19.4325 24.3586 19.3618 24.3342C19.333 24.3245 19.3042 24.315 19.2754 24.3054C19.2239 24.2888 19.1734 24.2731 19.1218 24.2574L19.0196 24.226C18.955 24.2069 18.8906 24.1885 18.8259 24.1701C18.7752 24.1561 18.7247 24.1422 18.674 24.13C18.6724 24.1283 18.6697 24.1283 18.6679 24.1283C18.6671 24.1274 18.6662 24.1274 18.6653 24.1274C18.612 24.1125 18.5588 24.0994 18.5047 24.0863C18.4715 24.0776 18.4375 24.0697 18.4043 24.0628C18.3571 24.0514 18.3091 24.0401 18.262 24.0305C18.2167 24.0201 18.1712 24.0105 18.1259 24.0017C18.0927 23.9938 18.0587 23.9877 18.0255 23.9808C17.9679 23.9694 17.9094 23.9589 17.8517 23.9485C17.8238 23.9441 17.7959 23.9389 17.7679 23.9337C17.6963 23.9214 17.6239 23.91 17.5523 23.8996C17.4231 23.8804 17.2931 23.8637 17.1639 23.8498C17.115 23.8437 17.066 23.8394 17.018 23.8341C16.9439 23.8271 16.8688 23.821 16.7946 23.8157C16.7719 23.8131 16.7492 23.8114 16.7266 23.8105C16.6575 23.8053 16.5877 23.8009 16.5187 23.7983C16.4428 23.794 16.3659 23.7913 16.2891 23.7896C16.2734 23.7887 16.2586 23.7887 16.2437 23.7887C16.1635 23.7861 16.0831 23.7853 16.0028 23.7853H15.9967C15.9435 23.7853 15.8911 23.7861 15.8387 23.787H15.8011C15.7819 23.7879 15.7619 23.7879 15.7427 23.7888H15.726C15.7182 23.7888 15.7095 23.7897 15.7016 23.7897C15.6737 23.7905 15.6457 23.7914 15.6178 23.7923C15.5907 23.7931 15.5646 23.794 15.5375 23.7957C15.5166 23.7965 15.4965 23.7974 15.4763 23.7983C15.4659 23.7983 15.4555 23.7992 15.445 23.8001C15.4275 23.8009 15.4091 23.8018 15.3917 23.8035C15.3847 23.8035 15.3769 23.8035 15.3699 23.8044C15.3332 23.8061 15.2966 23.8087 15.2599 23.8114C15.2555 23.8114 15.2503 23.8123 15.2459 23.8123C15.238 23.8123 15.2302 23.8131 15.2223 23.814C15.2004 23.8157 15.1786 23.8174 15.1577 23.8193C15.114 23.8219 15.0704 23.8263 15.0276 23.8297C15.0223 23.8305 15.0171 23.8305 15.0119 23.8314C14.9918 23.8332 14.9726 23.8349 14.9535 23.8376C14.9133 23.841 14.874 23.8454 14.8347 23.8497C14.8338 23.8497 14.8338 23.8506 14.8338 23.8506C14.8277 23.8506 14.8207 23.8515 14.8146 23.8524C14.791 23.8541 14.7675 23.8577 14.7447 23.8603C14.6775 23.8681 14.6103 23.8769 14.5439 23.8865C14.5369 23.8865 14.5299 23.8882 14.523 23.8891C14.5177 23.8891 14.5134 23.89 14.5081 23.8909C14.4968 23.8925 14.4845 23.8943 14.4731 23.8961C14.4723 23.8961 14.4706 23.8961 14.4697 23.8969C14.4418 23.9004 14.4139 23.9049 14.3868 23.9091C14.3859 23.9091 14.3859 23.9091 14.3851 23.9091C14.3641 23.9125 14.3423 23.9161 14.3213 23.9196C14.296 23.923 14.2706 23.9274 14.2454 23.9317C14.1799 23.9422 14.1153 23.9545 14.0498 23.9667C14.0157 23.9729 13.9817 23.9797 13.9486 23.9859C13.9215 23.9911 13.8953 23.9963 13.8691 24.0025C13.8648 24.0025 13.8612 24.0034 13.8578 24.0051C13.8447 24.0069 13.8316 24.0094 13.8195 24.013C13.8046 24.0157 13.7897 24.0191 13.7757 24.0217C13.7627 24.0244 13.7495 24.0279 13.7374 24.0305C13.7244 24.0331 13.7095 24.0366 13.6972 24.0393C13.6911 24.0401 13.6851 24.0419 13.6798 24.0427C13.658 24.048 13.637 24.0523 13.616 24.0576C13.6003 24.061 13.5855 24.0645 13.5707 24.068C13.5637 24.0697 13.5567 24.0714 13.5497 24.0733C13.5244 24.0794 13.4991 24.0854 13.4738 24.0916C13.4677 24.0933 13.4616 24.0942 13.4555 24.096C13.4241 24.1038 13.3926 24.1117 13.3612 24.1204C13.3534 24.1221 13.3446 24.1238 13.3368 24.1265C13.3334 24.1274 13.3289 24.1283 13.3255 24.1291L13.3246 24.13C13.2347 24.1527 13.1457 24.178 13.0566 24.2033C13.0462 24.2068 13.0357 24.2094 13.0252 24.2129C13.0131 24.2164 13.0008 24.22 12.9886 24.2243C12.9789 24.2269 12.9676 24.2295 12.958 24.233C12.91 24.247 12.8629 24.2618 12.8149 24.2776C12.7895 24.2845 12.7642 24.2933 12.7389 24.302C12.6857 24.3186 12.6333 24.3361 12.5809 24.3544C12.5651 24.3597 12.5503 24.3649 12.5363 24.3693C12.5233 24.3736 12.5111 24.378 12.4988 24.3823C12.4866 24.3866 12.4743 24.3911 12.4621 24.3963C12.428 24.4077 12.3931 24.42 12.3601 24.433C12.3479 24.4373 12.3364 24.4417 12.3243 24.4461C12.3138 24.4495 12.3024 24.454 12.292 24.4583C12.2798 24.4625 12.2676 24.467 12.2553 24.4731C12.2317 24.481 12.2082 24.4897 12.1846 24.4993C12.1576 24.5097 12.1313 24.5203 12.1052 24.5307C12.0877 24.5369 12.0711 24.5437 12.0544 24.5508C12.0396 24.5569 12.0248 24.5629 12.0099 24.5691C11.9636 24.5874 11.9173 24.6066 11.8711 24.6267C11.8598 24.632 11.8475 24.6363 11.8361 24.6416C11.8274 24.6459 11.8178 24.6494 11.8091 24.6537C11.8039 24.6555 11.7986 24.6581 11.7933 24.6608C11.7697 24.6704 11.7471 24.6809 11.7235 24.6913C11.7034 24.7001 11.6833 24.7088 11.6641 24.7175C11.6065 24.7437 11.5498 24.7699 11.493 24.7969C11.4772 24.804 11.4624 24.8118 11.4476 24.8188C11.4398 24.8222 11.4319 24.8266 11.424 24.8309C11.404 24.8397 11.3848 24.8493 11.3656 24.8589C11.3507 24.8659 11.3368 24.8729 11.3228 24.8798C11.3124 24.8841 11.3018 24.8894 11.2922 24.8956C11.2888 24.8965 11.2852 24.8982 11.2826 24.9009C11.245 24.9183 11.2076 24.9375 11.1708 24.9567C11.0512 25.0178 10.9334 25.0825 10.8164 25.1488C10.7755 25.1723 10.7336 25.1959 10.6925 25.2204C10.6804 25.2274 10.6672 25.2353 10.655 25.2422C10.6227 25.2614 10.5896 25.2814 10.5572 25.3015C10.5545 25.3024 10.5528 25.3033 10.551 25.3049C10.5397 25.3111 10.5292 25.318 10.5187 25.3241C10.5091 25.3294 10.5004 25.3354 10.4916 25.3408C10.4873 25.3434 10.4829 25.346 10.4795 25.3477C10.4698 25.3548 10.4603 25.36 10.4507 25.3669C10.4096 25.3914 10.3695 25.4167 10.3293 25.4429L9.80994 24.9235C9.80818 24.9217 9.80651 24.9201 9.80467 24.9183C9.79507 24.9095 9.78555 24.9009 9.77587 24.8912C9.76547 24.8825 9.75499 24.8729 9.74451 24.8624C9.72443 24.8441 9.70442 24.8249 9.68522 24.8057C9.66602 24.7865 9.64683 24.7673 9.62755 24.7472C9.60755 24.7271 9.58835 24.7062 9.56915 24.6852C9.51499 24.6249 9.46259 24.563 9.41292 24.4993C9.3622 24.4346 9.3142 24.3674 9.26884 24.2993C9.25396 24.2757 9.23916 24.2531 9.22428 24.2294C9.1806 24.1596 9.13956 24.0881 9.10124 24.0147C9.0506 23.9169 9.00436 23.8157 8.96324 23.7126C8.96244 23.7117 8.96244 23.7117 8.96244 23.7117C8.94324 23.6602 8.92404 23.6079 8.90652 23.5555C8.89692 23.5293 8.88908 23.5023 8.88036 23.4752C8.87244 23.449 8.8646 23.422 8.85668 23.3949C8.84972 23.3678 8.84179 23.3399 8.83579 23.3129C8.82875 23.2857 8.82181 23.2578 8.81573 23.23C8.80957 23.203 8.80444 23.175 8.79908 23.147C8.79468 23.1287 8.79212 23.1104 8.78868 23.0912C8.78524 23.0738 8.78253 23.0562 8.77989 23.0388C8.77645 23.0187 8.77381 22.9978 8.77117 22.9777C8.76685 22.9498 8.76325 22.921 8.76069 22.8921C8.75901 22.879 8.75725 22.8659 8.75645 22.852C8.75469 22.831 8.75205 22.8092 8.75117 22.7882C8.74685 22.7358 8.74413 22.6835 8.74245 22.6311C8.74157 22.6023 8.74157 22.5726 8.74157 22.543C8.74157 22.1536 8.8114 21.7799 8.93876 21.4351C8.95708 21.3871 8.97548 21.34 8.99556 21.2938C9.07844 21.099 9.17972 20.9149 9.29756 20.7429C9.87195 19.9057 10.8358 19.3566 11.9278 19.3566C11.9576 19.3566 11.9872 19.3566 12.016 19.3575C12.0684 19.3592 12.1216 19.3618 12.1732 19.3662C12.1941 19.368 12.216 19.3697 12.2369 19.3715C12.2508 19.3724 12.264 19.3741 12.277 19.3758C12.3058 19.3784 12.3347 19.3819 12.3626 19.3862C12.3827 19.3889 12.4036 19.3915 12.4236 19.395C12.4411 19.3976 12.4586 19.4002 12.476 19.4038C12.4951 19.4072 12.5135 19.4098 12.5319 19.4142C12.5519 19.4176 12.5711 19.4221 12.5911 19.4255C12.6095 19.4298 12.6287 19.4342 12.6471 19.4386C12.6645 19.442 12.6811 19.4464 12.6977 19.4507C12.716 19.455 12.7344 19.4595 12.7519 19.4646C12.7685 19.4681 12.7841 19.4726 12.7999 19.4778C12.847 19.4908 12.8941 19.5048 12.9404 19.5214C12.9571 19.5266 12.9736 19.5318 12.9893 19.5381C13.1046 19.5782 13.2171 19.6253 13.3263 19.6794C13.3507 19.6916 13.3751 19.7038 13.3996 19.7161C13.4729 19.7545 13.5446 19.7955 13.6143 19.8401C13.638 19.8541 13.6615 19.869 13.6843 19.8846C13.7139 19.9038 13.7435 19.9239 13.7724 19.945C13.81 19.972 13.8475 19.9999 13.8842 20.0287C13.9086 20.0462 13.9313 20.0654 13.9549 20.0846C13.9942 20.1169 14.0326 20.151 14.0702 20.1842L14.0728 20.1868C14.1129 20.2243 14.1523 20.2618 14.1907 20.3002C14.2099 20.3203 14.2291 20.3395 14.2475 20.3595C14.2666 20.3796 14.285 20.3997 14.3033 20.4198C14.3059 20.4215 14.3067 20.4232 14.3086 20.425L16.8279 22.9444C16.8602 22.9732 16.8908 23.0021 16.9222 23.0326C16.9222 23.0309 16.9213 23.03 16.9213 23.0283C16.916 22.9942 16.9117 22.9602 16.9074 22.9253C16.9012 22.8755 16.8969 22.8258 16.8934 22.7752C16.8907 22.7411 16.8891 22.7071 16.8872 22.673V22.6643C16.8855 22.6242 16.8846 22.5831 16.8846 22.543C16.8846 20.783 18.3111 19.3566 20.0709 19.3566C20.1259 19.3566 20.1809 19.3584 20.235 19.361C20.2612 19.3618 20.2866 19.3635 20.3127 19.3653C20.3136 19.3662 20.3154 19.3662 20.3162 19.3662C20.337 19.3679 20.359 19.3696 20.3799 19.3714C20.3939 19.3723 20.407 19.3741 20.42 19.3758C20.4488 19.3784 20.4768 19.3818 20.5056 19.3862C20.5222 19.3879 20.5388 19.3905 20.5554 19.3932C20.5954 19.3993 20.6356 19.4062 20.675 19.4141C20.6959 19.4175 20.7178 19.422 20.7387 19.4272C20.7728 19.4342 20.8068 19.4421 20.8408 19.4508C20.8618 19.4561 20.8828 19.4612 20.9037 19.4674C20.9648 19.4832 21.0242 19.5006 21.0836 19.5215C21.1045 19.5286 21.1264 19.5355 21.1474 19.5434C21.1787 19.5538 21.2102 19.5661 21.2407 19.5783C21.2878 19.5975 21.3358 19.6175 21.3821 19.6386C21.3865 19.6403 21.3908 19.642 21.3942 19.6438C21.4196 19.656 21.444 19.6674 21.4685 19.6796C21.4929 19.6918 21.5182 19.7041 21.5426 19.7163C21.5934 19.7425 21.6422 19.7695 21.691 19.7992C21.7137 19.8132 21.7356 19.8263 21.7574 19.8403C21.781 19.8542 21.8036 19.8691 21.8272 19.8849C21.8569 19.9041 21.8865 19.9241 21.9154 19.9451C21.953 19.9722 21.9905 20.0001 22.0271 20.029C22.0516 20.0464 22.0742 20.0656 22.0979 20.0848C22.1371 20.118 22.1756 20.1511 22.213 20.1844C22.2139 20.1852 22.2148 20.1861 22.2157 20.187C22.2558 20.2246 22.2951 20.2621 22.3336 20.3004C22.3528 20.3205 22.3719 20.3397 22.3903 20.3598C22.4095 20.3798 22.4279 20.3998 22.4462 20.42C22.4488 20.4218 22.4496 20.4234 22.4514 20.4252L29.6245 27.5981Z" fill="url(#paint11_linear_1_2230)"/>
<path d="M11.9274 25.7291C13.6871 25.7291 15.1137 24.3026 15.1137 22.5429C15.1137 20.7831 13.6871 19.3565 11.9274 19.3565C10.1676 19.3565 8.74108 20.7831 8.74108 22.5429C8.74108 24.3026 10.1676 25.7291 11.9274 25.7291Z" fill="url(#paint12_linear_1_2230)"/>
<path d="M11.9275 24.8855C13.2212 24.8855 14.2701 23.8367 14.2701 22.5429C14.2701 21.2491 13.2212 20.2002 11.9275 20.2002C10.6336 20.2002 9.58481 21.2491 9.58481 22.5429C9.58481 23.8367 10.6336 24.8855 11.9275 24.8855Z" fill="url(#paint13_linear_1_2230)"/>
<path d="M15.1075 22.7343L13.4641 21.0908C13.0787 20.683 12.533 20.428 11.9275 20.428C10.7596 20.428 9.81284 21.3748 9.81284 22.5427C9.81284 23.1481 10.0678 23.6938 10.4757 24.0793L12.1191 25.7227C13.726 25.6272 15.012 24.3412 15.1075 22.7343Z" fill="url(#paint14_linear_1_2230)"/>
<path d="M11.9269 24.6575C13.0948 24.6575 14.0416 23.7107 14.0416 22.5429C14.0416 21.375 13.0948 20.4283 11.9269 20.4283C10.7591 20.4283 9.81235 21.375 9.81235 22.5429C9.81235 23.7107 10.7591 24.6575 11.9269 24.6575Z" fill="url(#paint15_linear_1_2230)"/>
<path d="M20.0703 25.7291C21.83 25.7291 23.2566 24.3026 23.2566 22.5429C23.2566 20.7831 21.83 19.3565 20.0703 19.3565C18.3105 19.3565 16.884 20.7831 16.884 22.5429C16.884 24.3026 18.3105 25.7291 20.0703 25.7291Z" fill="url(#paint16_linear_1_2230)"/>
<path d="M20.0708 24.8855C21.3647 24.8855 22.4135 23.8367 22.4135 22.5429C22.4135 21.2491 21.3647 20.2002 20.0708 20.2002C18.777 20.2002 17.7282 21.2491 17.7282 22.5429C17.7282 23.8367 18.777 24.8855 20.0708 24.8855Z" fill="url(#paint17_linear_1_2230)"/>
<path d="M23.25 22.7343L21.6066 21.0908C21.2211 20.683 20.6756 20.428 20.07 20.428C18.9021 20.428 17.9553 21.3748 17.9553 22.5427C17.9553 23.1481 18.2103 23.6938 18.6182 24.0793L20.2616 25.7227C21.8686 25.6272 23.1546 24.3412 23.25 22.7343Z" fill="url(#paint18_linear_1_2230)"/>
<path d="M20.0708 24.6575C21.2387 24.6575 22.1855 23.7107 22.1855 22.5429C22.1855 21.375 21.2387 20.4283 20.0708 20.4283C18.9031 20.4283 17.9563 21.375 17.9563 22.5429C17.9563 23.7107 18.9031 24.6575 20.0708 24.6575Z" fill="url(#paint19_linear_1_2230)"/>
<path d="M22.7606 10.8804C22.718 10.8804 22.6741 10.8827 22.6301 10.8873C22.6224 10.8882 22.615 10.8893 22.6077 10.8906L22.5986 10.892C22.5662 10.8962 22.5338 10.9008 22.5023 10.9075C22.4956 10.9088 22.4891 10.9106 22.4826 10.9124L22.4736 10.9147C22.4414 10.9223 22.4095 10.9305 22.3784 10.9406C22.3732 10.9423 22.3681 10.9442 22.3569 10.9484C22.3238 10.9598 22.291 10.9721 22.259 10.9862L22.2455 10.9927C22.2114 11.0082 22.1778 11.0251 22.139 11.0475C22.1043 11.0675 22.0706 11.0891 22.045 11.1079L22.0373 11.1129C21.9703 11.1607 21.9075 11.2159 21.8526 11.2749C21.3806 11.7467 19.0426 14.0837 18.9761 14.1531C18.7595 14.3853 18.6403 14.6863 18.6403 15.0007C18.6403 15.6879 19.1994 16.247 19.8866 16.247C20.2346 16.247 20.5578 16.1061 20.7946 15.8523L23.6104 13.0366C23.8661 12.7976 24.007 12.4744 24.007 12.1265C24.007 11.4395 23.4478 10.8804 22.7606 10.8804Z" fill="url(#paint20_linear_1_2230)"/>
<path d="M25.4993 18.8984C24.8289 19.3715 24.0344 19.6771 23.1737 19.7574C22.5373 19.121 21.9472 18.5309 21.9472 18.5309C21.8922 18.4793 21.8424 18.4226 21.7988 18.3615L21.7979 18.3606C21.777 18.331 21.7578 18.3014 21.7395 18.2698L21.736 18.2638C21.7194 18.2349 21.7038 18.2044 21.6898 18.1738C21.688 18.1695 21.6864 18.165 21.6836 18.1607C21.6715 18.1319 21.6601 18.1031 21.6496 18.0726C21.6479 18.0664 21.6452 18.0595 21.6426 18.0534C21.6339 18.0254 21.626 17.9958 21.6199 17.967C21.6173 17.9582 21.6147 17.9495 21.6129 17.9408C21.6068 17.9129 21.6024 17.8832 21.599 17.8544C21.5972 17.8448 21.5956 17.8352 21.5947 17.8256C21.5903 17.7863 21.5885 17.747 21.5885 17.7078C21.5885 17.0844 22.0932 16.5798 22.7156 16.5798C23.0412 16.5798 23.3336 16.7186 23.5396 16.9386L25.4993 18.8984Z" fill="url(#paint21_linear_1_2230)"/>
<path d="M25.5326 13.6525C25.4899 13.6525 25.446 13.6548 25.402 13.6595C25.3944 13.6603 25.387 13.6615 25.3796 13.6627L25.3704 13.6642C25.3381 13.6683 25.3058 13.673 25.2742 13.6796C25.2676 13.681 25.261 13.6827 25.2544 13.6845L25.2456 13.6868C25.2133 13.6945 25.1815 13.7027 25.1504 13.7127C25.1451 13.7144 25.14 13.7163 25.1288 13.7205C25.0956 13.7319 25.0629 13.7443 25.0308 13.7583L25.0175 13.7648C24.9833 13.7803 24.9498 13.7971 24.9108 13.8196C24.8762 13.8396 24.8424 13.8613 24.8169 13.8799L24.8092 13.8851C24.7422 13.9329 24.6794 13.9881 24.6244 14.0471C24.1525 14.5188 21.8147 16.8558 21.7481 16.9252C21.5315 17.1574 21.4123 17.4583 21.4123 17.7727C21.4123 18.4599 21.9714 19.019 22.6585 19.019C23.0064 19.019 23.3297 18.8782 23.5666 18.6244L26.3824 15.8087C26.638 15.5698 26.7789 15.2466 26.7789 14.8987C26.7788 14.2117 26.2198 13.6525 25.5326 13.6525Z" fill="url(#paint22_linear_1_2230)"/>
<path d="M27.5362 15.3822C27.4585 16.2448 27.154 17.0417 26.6834 17.713C25.862 16.8933 24.7322 15.7628 24.7322 15.7628C24.6773 15.7113 24.6275 15.6555 24.5839 15.5936L24.583 15.5927C24.5621 15.5639 24.5429 15.5333 24.5245 15.5019C24.5245 15.5019 24.522 15.4984 24.5211 15.4957C24.5045 15.4669 24.4889 15.4364 24.4749 15.4058C24.4731 15.4015 24.4714 15.3971 24.4688 15.3936C24.4565 15.3648 24.4452 15.3352 24.4348 15.3045C24.433 15.2984 24.4305 15.2924 24.4278 15.2854C24.419 15.2574 24.4111 15.2286 24.405 15.199C24.4024 15.1902 24.3997 15.1824 24.398 15.1736C24.392 15.1448 24.3877 15.116 24.3841 15.0864C24.3823 15.0768 24.3806 15.0672 24.3798 15.0576C24.3755 15.0192 24.3737 14.98 24.3737 14.9397C24.3737 14.3164 24.8782 13.8119 25.5005 13.8119C25.8262 13.8119 26.1186 13.9507 26.3246 14.1707L27.5362 15.3822Z" fill="url(#paint23_linear_1_2230)"/>
<path d="M26.7397 14.5858L26.3249 14.1722C26.1193 13.9513 25.8273 13.813 25.5017 13.813C24.8794 13.813 24.3746 14.3178 24.3746 14.941C24.3746 14.981 24.3762 15.0202 24.3809 15.0586C24.3817 15.069 24.3833 15.0778 24.3849 15.0874C24.3889 15.1171 24.3929 15.1458 24.3986 15.1746C24.4009 15.1834 24.4034 15.1914 24.4057 15.2002C24.4121 15.2299 24.4201 15.2586 24.4289 15.2866C24.4313 15.293 24.4337 15.2994 24.4361 15.3058C24.4465 15.3362 24.4577 15.3658 24.4697 15.3946C24.4721 15.3986 24.4737 15.4026 24.4761 15.4066C24.4897 15.4378 24.5049 15.4682 24.5217 15.497C24.5234 15.4993 24.5241 15.501 24.5257 15.5033C24.5434 15.5345 24.5634 15.565 24.5841 15.5937L24.5849 15.5953C24.6289 15.6562 24.6786 15.713 24.7329 15.7642C24.7329 15.7642 25.117 16.1479 25.5802 16.611L26.3471 15.8445C26.6035 15.6144 26.7788 15.284 26.7788 14.9472C26.7745 14.7494 26.7824 14.7942 26.7397 14.5858Z" fill="url(#paint24_linear_1_2230)"/>
<path d="M22.7201 16.5837C22.0977 16.5837 21.5929 17.0885 21.5929 17.7117C21.5929 17.7517 21.5945 17.7909 21.5985 17.8301C21.6001 17.8397 21.6017 17.8484 21.6033 17.8581C21.6073 17.8877 21.6113 17.9164 21.6169 17.9453C21.6193 17.9541 21.6217 17.9621 21.6241 17.9709C21.6305 18.0005 21.6377 18.0293 21.6473 18.0573C21.6489 18.0636 21.6521 18.0701 21.6545 18.0764C21.6649 18.1068 21.6753 18.1364 21.6881 18.1653C21.6905 18.1693 21.6921 18.1733 21.6945 18.1773C21.7081 18.2084 21.7233 18.2389 21.7401 18.2676C21.7417 18.27 21.7425 18.2716 21.7441 18.274C21.7617 18.3052 21.7817 18.3356 21.8025 18.3644L21.8033 18.366C21.8465 18.4268 21.8969 18.4836 21.9513 18.5348C21.9513 18.5348 22.215 18.7984 22.411 18.9944C22.5927 19.0276 22.5413 19.0178 22.6998 19.0184C23.0438 19.0052 23.3477 18.865 23.6085 18.5829L24.3962 17.7952L23.5433 16.9427C23.3377 16.7222 23.0457 16.5837 22.7201 16.5837Z" fill="url(#paint25_linear_1_2230)"/>
<path d="M24.7337 15.7798C24.935 15.9675 25.2035 16.0837 25.5004 16.0837C26.1231 16.0837 26.628 15.5789 26.628 14.9561C26.628 14.6309 26.4895 14.3385 26.2691 14.1329L23.539 11.4026C23.3331 11.1823 23.0409 11.0437 22.7157 11.0437C22.0929 11.0437 21.588 11.5486 21.588 12.1714C21.588 12.2113 21.5903 12.2507 21.5943 12.2896C21.5953 12.2993 21.5975 12.3086 21.5987 12.3183C21.6025 12.3475 21.6066 12.3766 21.6126 12.4052C21.6145 12.414 21.6172 12.4224 21.6193 12.4311C21.6262 12.4601 21.6335 12.4891 21.6426 12.5172C21.6447 12.5238 21.6475 12.5301 21.6497 12.5366C21.66 12.5666 21.6711 12.5963 21.6838 12.625C21.6857 12.6292 21.6878 12.6331 21.6898 12.6373C21.7038 12.6683 21.7191 12.6985 21.7357 12.7279C21.7369 12.7299 21.7381 12.7317 21.7393 12.7337C21.7574 12.765 21.7767 12.7953 21.7976 12.8245L21.7985 12.8257C21.8423 12.8869 21.892 12.9434 21.9469 12.9946C21.9469 12.9946 24.7083 15.7571 24.7337 15.7798Z" fill="url(#paint26_linear_1_2230)"/>
<path d="M22.7156 18.8351C23.3383 18.8351 23.8432 18.3302 23.8432 17.7075C23.8432 17.0847 23.3383 16.5798 22.7156 16.5798C22.0928 16.5798 21.588 17.0847 21.588 17.7075C21.588 18.3302 22.0928 18.8351 22.7156 18.8351Z" fill="url(#paint27_linear_1_2230)"/>
<path d="M21.9662 18.5479C22.1674 18.7355 22.436 18.8518 22.7328 18.8518C23.3555 18.8518 23.8604 18.3469 23.8604 17.7241C23.8604 17.3989 23.7218 17.1066 23.5015 16.9008L20.7714 14.1708C20.5656 13.9504 20.2734 13.8119 19.9481 13.8119C19.3254 13.8119 18.8205 14.3168 18.8205 14.9395C18.8205 14.9794 18.8227 15.0188 18.8267 15.0576C18.8277 15.0674 18.8299 15.0768 18.8311 15.0864C18.8349 15.1156 18.8391 15.1448 18.8451 15.1732C18.8469 15.182 18.8497 15.1905 18.8517 15.1992C18.8586 15.2282 18.8659 15.2572 18.875 15.2853C18.8771 15.292 18.8799 15.2982 18.8821 15.3048C18.8923 15.3348 18.9035 15.3644 18.9162 15.3931C18.918 15.3973 18.9202 15.4012 18.9221 15.4054C18.9362 15.4364 18.9515 15.4665 18.9681 15.496C18.9692 15.498 18.9705 15.4999 18.9717 15.5019C18.9897 15.5331 19.0091 15.5634 19.03 15.5926L19.0308 15.5938C19.0747 15.6551 19.1244 15.7115 19.1792 15.7628C19.1792 15.7628 21.9407 18.525 21.9662 18.5479Z" fill="url(#paint28_linear_1_2230)"/>
<path d="M23.9731 11.8369L23.5384 11.4028C23.3328 11.182 23.0408 11.0436 22.7152 11.0436C22.0929 11.0436 21.588 11.5485 21.588 12.1716C21.588 12.2116 21.5897 12.2508 21.5944 12.2893C21.5952 12.2996 21.5969 12.3085 21.5985 12.3181C21.6025 12.3477 21.6064 12.3765 21.612 12.4053C21.6144 12.4141 21.6169 12.4221 21.6192 12.4309C21.6256 12.4605 21.6336 12.4893 21.6424 12.5173C21.6448 12.5236 21.6472 12.5301 21.6496 12.5365C21.66 12.5668 21.6712 12.5965 21.6832 12.6253C21.6856 12.6293 21.6872 12.6333 21.6896 12.6373C21.7032 12.6685 21.7184 12.6989 21.7352 12.7276C21.7369 12.73 21.7376 12.7316 21.7392 12.734C21.7569 12.7652 21.7769 12.7956 21.7976 12.8244L21.7984 12.826C21.8424 12.8868 21.892 12.9436 21.9464 12.9948C21.9464 12.9948 22.3362 13.3846 22.7994 13.8478L23.57 13.0747C23.8603 12.8275 23.9979 12.4635 24.0063 12.1844C24.0115 12.0107 23.9999 11.9996 23.9731 11.8369Z" fill="url(#paint29_linear_1_2230)"/>
<path d="M19.9477 13.8116C19.3253 13.8116 18.8205 14.3164 18.8205 14.9396C18.8205 14.9796 18.8221 15.0188 18.8261 15.0579C18.8277 15.0676 18.8293 15.0763 18.8309 15.0859C18.8349 15.1156 18.8389 15.1443 18.8445 15.1731C18.8469 15.1819 18.8494 15.1899 18.8517 15.1988C18.8581 15.2284 18.8654 15.2571 18.8749 15.2851C18.8765 15.2915 18.8797 15.2979 18.8821 15.3043C18.8925 15.3347 18.9029 15.3643 18.9157 15.3931C18.9181 15.3971 18.9197 15.4011 18.9221 15.4051C18.9357 15.4363 18.9509 15.4668 18.9677 15.4955C18.9694 15.4979 18.9701 15.4995 18.9717 15.5019C18.9894 15.5331 19.0094 15.5635 19.0301 15.5923L19.0309 15.5939C19.0741 15.6547 19.1245 15.7115 19.1789 15.7627C19.1789 15.7627 19.4413 16.0271 19.6373 16.2231C19.7859 16.2564 19.9205 16.2469 20.0738 16.233C20.4137 16.1689 20.6068 16.0529 20.8364 15.8065L21.622 15.0217L20.771 14.1707C20.5653 13.95 20.2733 13.8116 19.9477 13.8116Z" fill="url(#paint30_linear_1_2230)"/>
<path d="M22.7156 13.2993C23.3383 13.2993 23.8432 12.7944 23.8432 12.1717C23.8432 11.5489 23.3383 11.044 22.7156 11.044C22.0928 11.044 21.588 11.5489 21.588 12.1717C21.588 12.7944 22.0928 13.2993 22.7156 13.2993Z" fill="url(#paint31_linear_1_2230)"/>
<path d="M19.9476 16.0672C20.5704 16.0672 21.0753 15.5623 21.0753 14.9396C21.0753 14.3168 20.5704 13.8119 19.9476 13.8119C19.3249 13.8119 18.82 14.3168 18.82 14.9396C18.82 15.5623 19.3249 16.0672 19.9476 16.0672Z" fill="url(#paint32_linear_1_2230)"/>
<path d="M25.5007 16.0672C26.1235 16.0672 26.6284 15.5623 26.6284 14.9396C26.6284 14.3168 26.1235 13.8119 25.5007 13.8119C24.8781 13.8119 24.3732 14.3168 24.3732 14.9396C24.3732 15.5623 24.8781 16.0672 25.5007 16.0672Z" fill="url(#paint33_linear_1_2230)"/>
<path d="M15.1333 18.4182V18.4752C15.1333 18.706 14.9461 18.8932 14.7152 18.8932H14.1952C13.9643 18.8932 13.7771 18.706 13.7771 18.4752V18.4182C13.7771 18.1873 13.9643 18.0001 14.1952 18.0001H14.7152C14.9461 18.0001 15.1333 18.1872 15.1333 18.4182Z" fill="url(#paint34_linear_1_2230)"/>
<path d="M18.2212 18.4182V18.4752C18.2212 18.706 18.0339 18.8932 17.8031 18.8932H17.283C17.0521 18.8932 16.865 18.706 16.865 18.4752V18.4182C16.865 18.1873 17.0521 18.0001 17.283 18.0001H17.8031C18.0339 18.0001 18.2212 18.1872 18.2212 18.4182Z" fill="url(#paint35_linear_1_2230)"/>
<defs>
<linearGradient id="paint0_linear_1_2230" x1="16.1835" y1="13.1229" x2="16.1835" y2="2.32674" gradientUnits="userSpaceOnUse">
<stop stop-color="#97AAAA"/>
<stop offset="1" stop-color="#E8EFEE"/>
</linearGradient>
<linearGradient id="paint1_linear_1_2230" x1="15.9997" y1="11.4302" x2="15.9997" y2="9.32755" gradientUnits="userSpaceOnUse">
<stop stop-color="#97AAAA"/>
<stop offset="1" stop-color="#E8EFEE"/>
</linearGradient>
<linearGradient id="paint2_linear_1_2230" x1="16.0003" y1="1.57123" x2="16.0003" y2="22.2811" gradientUnits="userSpaceOnUse">
<stop stop-color="white"/>
<stop offset="1" stop-color="#E8EFEE"/>
</linearGradient>
<linearGradient id="paint3_linear_1_2230" x1="3.40001" y1="20.527" x2="14.7916" y2="31.9185" gradientUnits="userSpaceOnUse">
<stop stop-color="#C2CECE" stop-opacity="0"/>
<stop offset="0.179" stop-color="#AFBCBC" stop-opacity="0.179"/>
<stop offset="1" stop-color="#5B6A6A"/>
</linearGradient>
<linearGradient id="paint4_linear_1_2230" x1="27.936" y1="20.847" x2="19.5372" y2="15.8809" gradientUnits="userSpaceOnUse">
<stop stop-color="#C2CECE" stop-opacity="0"/>
<stop offset="0.179" stop-color="#AFBCBC" stop-opacity="0.179"/>
<stop offset="1" stop-color="#5B6A6A"/>
</linearGradient>
<linearGradient id="paint5_linear_1_2230" x1="26.6299" y1="18.8522" x2="15.3876" y2="7.60938" gradientUnits="userSpaceOnUse">
<stop stop-color="#C2CECE" stop-opacity="0"/>
<stop offset="0.179" stop-color="#AFBCBC" stop-opacity="0.179"/>
<stop offset="1" stop-color="#5B6A6A"/>
</linearGradient>
<linearGradient id="paint6_linear_1_2230" x1="22.7159" y1="7.81221" x2="22.7159" y2="20.6771" gradientUnits="userSpaceOnUse">
<stop stop-color="white"/>
<stop offset="1" stop-color="#E8EFEE"/>
</linearGradient>
<linearGradient id="paint7_linear_1_2230" x1="14.8193" y1="20.486" x2="0.687572" y2="6.35436" gradientUnits="userSpaceOnUse">
<stop stop-color="#C2CECE" stop-opacity="0"/>
<stop offset="0.179" stop-color="#AFBCBC" stop-opacity="0.179"/>
<stop offset="1" stop-color="#5B6A6A"/>
</linearGradient>
<linearGradient id="paint8_linear_1_2230" x1="9.27228" y1="6.37219" x2="9.27228" y2="21.1598" gradientUnits="userSpaceOnUse">
<stop stop-color="white"/>
<stop offset="1" stop-color="#E8EFEE"/>
</linearGradient>
<linearGradient id="paint9_linear_1_2230" x1="11.8779" y1="17.5443" x2="6.33108" y2="11.9976" gradientUnits="userSpaceOnUse">
<stop stop-color="#C2CECE" stop-opacity="0"/>
<stop offset="0.179" stop-color="#AFBCBC" stop-opacity="0.179"/>
<stop offset="1" stop-color="#5B6A6A"/>
</linearGradient>
<linearGradient id="paint10_linear_1_2230" x1="9.30575" y1="12.6776" x2="9.30575" y2="16.763" gradientUnits="userSpaceOnUse">
<stop stop-color="#5B6A6A"/>
<stop offset="1" stop-color="#303033"/>
</linearGradient>
<linearGradient id="paint11_linear_1_2230" x1="24.8099" y1="31.3527" x2="3.98267" y2="10.5256" gradientUnits="userSpaceOnUse">
<stop stop-color="#C2CECE" stop-opacity="0"/>
<stop offset="0.179" stop-color="#AFBCBC" stop-opacity="0.179"/>
<stop offset="1" stop-color="#5B6A6A"/>
</linearGradient>
<linearGradient id="paint12_linear_1_2230" x1="11.9278" y1="19.9544" x2="11.9278" y2="25.4338" gradientUnits="userSpaceOnUse">
<stop stop-color="white"/>
<stop offset="1" stop-color="#E8EFEE"/>
</linearGradient>
<linearGradient id="paint13_linear_1_2230" x1="11.9279" y1="24.0118" x2="11.9279" y2="19.6904" gradientUnits="userSpaceOnUse">
<stop stop-color="#97AAAA"/>
<stop offset="1" stop-color="#E8EFEE"/>
</linearGradient>
<linearGradient id="paint14_linear_1_2230" x1="14.1516" y1="24.7656" x2="10.8443" y2="21.4589" gradientUnits="userSpaceOnUse">
<stop stop-color="#C2CECE" stop-opacity="0"/>
<stop offset="0.179" stop-color="#AFBCBC" stop-opacity="0.179"/>
<stop offset="1" stop-color="#5B6A6A"/>
</linearGradient>
<linearGradient id="paint15_linear_1_2230" x1="11.9273" y1="20.9832" x2="11.9273" y2="24.8838" gradientUnits="userSpaceOnUse">
<stop stop-color="#5B6A6A"/>
<stop offset="1" stop-color="#303033"/>
</linearGradient>
<linearGradient id="paint16_linear_1_2230" x1="20.0709" y1="19.9544" x2="20.0709" y2="25.4338" gradientUnits="userSpaceOnUse">
<stop stop-color="white"/>
<stop offset="1" stop-color="#E8EFEE"/>
</linearGradient>
<linearGradient id="paint17_linear_1_2230" x1="20.0715" y1="24.0118" x2="20.0715" y2="19.6904" gradientUnits="userSpaceOnUse">
<stop stop-color="#97AAAA"/>
<stop offset="1" stop-color="#E8EFEE"/>
</linearGradient>
<linearGradient id="paint18_linear_1_2230" x1="22.2941" y1="24.7657" x2="18.9874" y2="21.459" gradientUnits="userSpaceOnUse">
<stop stop-color="#C2CECE" stop-opacity="0"/>
<stop offset="0.179" stop-color="#AFBCBC" stop-opacity="0.179"/>
<stop offset="1" stop-color="#5B6A6A"/>
</linearGradient>
<linearGradient id="paint19_linear_1_2230" x1="20.0714" y1="20.9832" x2="20.0714" y2="24.8838" gradientUnits="userSpaceOnUse">
<stop stop-color="#5B6A6A"/>
<stop offset="1" stop-color="#303033"/>
</linearGradient>
<linearGradient id="paint20_linear_1_2230" x1="21.3243" y1="11.9869" x2="21.3243" y2="16.8302" gradientUnits="userSpaceOnUse">
<stop stop-color="#5B6A6A"/>
<stop offset="1" stop-color="#303033"/>
</linearGradient>
<linearGradient id="paint21_linear_1_2230" x1="24.1544" y1="19.1449" x2="21.4156" y2="16.4054" gradientUnits="userSpaceOnUse">
<stop stop-color="#C2CECE" stop-opacity="0"/>
<stop offset="0.179" stop-color="#AFBCBC" stop-opacity="0.179"/>
<stop offset="1" stop-color="#5B6A6A"/>
</linearGradient>
<linearGradient id="paint22_linear_1_2230" x1="24.0964" y1="14.759" x2="24.0964" y2="19.6024" gradientUnits="userSpaceOnUse">
<stop stop-color="#5B6A6A"/>
<stop offset="1" stop-color="#303033"/>
</linearGradient>
<linearGradient id="paint23_linear_1_2230" x1="27.0214" y1="16.4583" x2="24.2914" y2="13.7282" gradientUnits="userSpaceOnUse">
<stop stop-color="#C2CECE" stop-opacity="0"/>
<stop offset="0.179" stop-color="#AFBCBC" stop-opacity="0.179"/>
<stop offset="1" stop-color="#5B6A6A"/>
</linearGradient>
<linearGradient id="paint24_linear_1_2230" x1="27.1476" y1="16.5858" x2="25.9475" y2="15.3853" gradientUnits="userSpaceOnUse">
<stop stop-color="#5B6A6A"/>
<stop offset="1" stop-color="#303033"/>
</linearGradient>
<linearGradient id="paint25_linear_1_2230" x1="24.3733" y1="19.3636" x2="23.1693" y2="18.1596" gradientUnits="userSpaceOnUse">
<stop stop-color="#5B6A6A"/>
<stop offset="1" stop-color="#303033"/>
</linearGradient>
<linearGradient id="paint26_linear_1_2230" x1="24.5191" y1="13.9734" x2="20.2117" y2="9.66539" gradientUnits="userSpaceOnUse">
<stop stop-color="#C2CECE" stop-opacity="0"/>
<stop offset="0.179" stop-color="#AFBCBC" stop-opacity="0.179"/>
<stop offset="1" stop-color="#5B6A6A"/>
</linearGradient>
<linearGradient id="paint27_linear_1_2230" x1="22.1706" y1="17.1613" x2="24.034" y2="19.0246" gradientUnits="userSpaceOnUse">
<stop stop-color="#00A6F9"/>
<stop offset="1" stop-color="#0071E2"/>
</linearGradient>
<linearGradient id="paint28_linear_1_2230" x1="21.7514" y1="16.7415" x2="17.4439" y2="12.4335" gradientUnits="userSpaceOnUse">
<stop stop-color="#C2CECE" stop-opacity="0"/>
<stop offset="0.179" stop-color="#AFBCBC" stop-opacity="0.179"/>
<stop offset="1" stop-color="#5B6A6A"/>
</linearGradient>
<linearGradient id="paint29_linear_1_2230" x1="24.3694" y1="13.8242" x2="23.1654" y2="12.6202" gradientUnits="userSpaceOnUse">
<stop stop-color="#5B6A6A"/>
<stop offset="1" stop-color="#303033"/>
</linearGradient>
<linearGradient id="paint30_linear_1_2230" x1="21.5978" y1="16.5889" x2="20.3951" y2="15.3863" gradientUnits="userSpaceOnUse">
<stop stop-color="#5B6A6A"/>
<stop offset="1" stop-color="#303033"/>
</linearGradient>
<linearGradient id="paint31_linear_1_2230" x1="22.1706" y1="11.6253" x2="24.034" y2="13.4886" gradientUnits="userSpaceOnUse">
<stop stop-color="#7BD101"/>
<stop offset="0.262" stop-color="#5CCD0B"/>
<stop offset="1" stop-color="#08C126"/>
</linearGradient>
<linearGradient id="paint32_linear_1_2230" x1="19.4026" y1="14.3933" x2="21.2659" y2="16.2567" gradientUnits="userSpaceOnUse">
<stop stop-color="#FFCF95"/>
<stop offset="0.427" stop-color="#FFC954"/>
<stop offset="1" stop-color="#FFC200"/>
</linearGradient>
<linearGradient id="paint33_linear_1_2230" x1="24.956" y1="14.3933" x2="26.8192" y2="16.2567" gradientUnits="userSpaceOnUse">
<stop stop-color="#D63305"/>
<stop offset="1" stop-color="#960000"/>
</linearGradient>
<linearGradient id="paint34_linear_1_2230" x1="14.4556" y1="18.0824" x2="14.4556" y2="19.6837" gradientUnits="userSpaceOnUse">
<stop stop-color="#5B6A6A"/>
<stop offset="1" stop-color="#303033"/>
</linearGradient>
<linearGradient id="paint35_linear_1_2230" x1="17.5436" y1="18.0824" x2="17.5436" y2="19.6837" gradientUnits="userSpaceOnUse">
<stop stop-color="#5B6A6A"/>
<stop offset="1" stop-color="#303033"/>
</linearGradient>
</defs>
</svg>
