<svg width="10" height="10" viewBox="0 0 10 10" fill="none" xmlns="http://www.w3.org/2000/svg">
<path d="M5.57807 4.99999L8.50775 1.50781C8.55686 1.44977 8.51556 1.3616 8.43967 1.3616H7.54905C7.49659 1.3616 7.44637 1.38504 7.41177 1.42522L4.99548 4.30579L2.57919 1.42522C2.54571 1.38504 2.49548 1.3616 2.44191 1.3616H1.55129C1.47539 1.3616 1.4341 1.44977 1.48321 1.50781L4.41289 4.99999L1.48321 8.49217C1.47221 8.50511 1.46515 8.52093 1.46287 8.53775C1.4606 8.55458 1.4632 8.57171 1.47036 8.5871C1.47753 8.6025 1.48897 8.61551 1.50331 8.6246C1.51766 8.63369 1.53431 8.63847 1.55129 8.63838H2.44191C2.49437 8.63838 2.54459 8.61494 2.57919 8.57476L4.99548 5.69418L7.41177 8.57476C7.44525 8.61494 7.49547 8.63838 7.54905 8.63838H8.43967C8.51556 8.63838 8.55686 8.55021 8.50775 8.49217L5.57807 4.99999Z" fill="#D9D9D9"/>
</svg>
