<svg width="40" height="40" viewBox="0 0 40 40" fill="none" xmlns="http://www.w3.org/2000/svg">
<path d="M15.9594 5.32984L0.736635 29.6011C-1.25569 32.7778 1.02769 36.905 4.77727 36.905H35.2228C38.9723 36.905 41.2558 32.7776 39.2634 29.6011L24.0406 5.32984C22.1713 2.34936 17.8288 2.34936 15.9594 5.32984Z" fill="url(#paint0_linear_1_1774)"/>
<path d="M17.3353 11.1923L7.29539 27.2C5.98144 29.295 7.4873 32.017 9.96034 32.017H30.04C32.513 32.017 34.0189 29.295 32.705 27.2L22.6651 11.1923C21.4321 9.22659 18.5681 9.22659 17.3353 11.1923Z" fill="url(#paint1_linear_1_1774)"/>
<path d="M4.77659 36.9049H35.2221C38.0584 36.9049 40.0551 34.5431 39.9974 32.0178H0.0012166C-0.0564304 34.5431 1.94028 36.9049 4.77659 36.9049Z" fill="url(#paint2_linear_1_1774)"/>
<path d="M39.2633 29.6001L24.9719 6.81421C23.1241 5.74252 20.9781 5.12817 18.6881 5.12817C17.7251 5.12817 16.7879 5.23821 15.8871 5.44362L7.66162 18.5585L10.0241 29.5075C10.1283 29.9901 10.4259 30.389 10.8241 30.6332L17.0949 36.9041H35.2225C38.9721 36.9041 41.2555 32.7767 39.2633 29.6001Z" fill="url(#paint3_linear_1_1774)"/>
<path d="M32.5714 24.5369L29.5031 27.6051C29.4688 27.5005 29.4311 27.3969 29.3901 27.2931L25.5724 17.5486C24.3678 14.2126 21.1706 11.8286 17.4173 11.8344C14.8249 11.8386 12.5821 13.0784 11.2777 15.2612L7.17334 12.6852C9.10315 8.2383 13.5325 5.12817 18.6886 5.12817C24.285 5.12817 29.0246 8.7921 30.6425 13.8521C30.6441 13.8564 30.6458 13.8606 30.6475 13.8656L33.337 20.9791C33.8034 22.2122 33.5036 23.6045 32.5714 24.5369Z" fill="url(#paint4_linear_1_1774)"/>
<path d="M32.571 24.5369L29.5028 27.6052C29.4684 27.5007 29.4308 27.3969 29.3898 27.2932L25.5719 17.5487C24.3674 14.2127 21.1701 11.8286 17.4167 11.8345C16.1754 11.8362 15.0142 12.1223 13.998 12.6594L9.96094 8.66159C12.2186 6.47415 15.2962 5.12817 18.6882 5.12817C24.2844 5.12817 29.0241 8.7921 30.642 13.8521C30.6436 13.8564 30.6452 13.8606 30.647 13.8656L33.3364 20.9792C33.8031 22.2122 33.5029 23.6041 32.571 24.5369Z" fill="url(#paint5_linear_1_1774)"/>
<path d="M30.6478 13.8656C30.6461 13.8606 30.6444 13.8564 30.6427 13.8521C29.0249 8.7921 24.2852 5.12817 18.689 5.12817C15.9732 5.12817 13.4597 5.99179 11.4062 7.45821L14.948 12.2458C15.7171 11.9771 16.5476 11.8359 17.4176 11.8345C21.171 11.8287 24.3681 14.2126 25.5728 17.5486L29.3904 27.2931C29.4316 27.3969 29.4691 27.5005 29.5034 27.6051L32.5718 24.5369C33.504 23.6045 33.8037 22.2122 33.3372 20.9789L30.6478 13.8656Z" fill="url(#paint6_linear_1_1774)"/>
<path d="M25.5722 17.5489L29.3899 27.2932C29.4309 27.3971 29.4686 27.5007 29.5029 27.6052L32.5712 24.5371C33.5035 23.6047 33.8032 22.2124 33.3367 20.979L30.6474 13.8656C30.6456 13.8606 30.6439 13.8564 30.6422 13.8522C29.0245 8.7921 24.2847 5.12817 18.6885 5.12817V11.9267C21.8796 12.3916 24.5062 14.5969 25.5722 17.5489Z" fill="url(#paint7_linear_1_1774)"/>
<path d="M24.4282 15.398C24.9046 16.0519 25.2927 16.774 25.5723 17.5484L29.3902 27.2929C29.4312 27.3966 29.469 27.5002 29.5032 27.6049L32.5713 24.5366C33.5037 23.6042 33.8033 22.212 33.3371 20.9786L30.6475 13.8651C30.646 13.8601 30.6442 13.856 30.6425 13.8517C30.3477 12.9302 29.9492 12.0554 29.4612 11.2402L24.4282 15.398Z" fill="url(#paint8_linear_1_1774)"/>
<path d="M25.9053 18.3992L29.3901 27.2939C29.4311 27.3977 29.4689 27.5014 29.5031 27.6059L32.5713 24.5377C33.5038 23.6052 33.8033 22.2129 33.337 20.9797L30.9865 14.7632L25.9053 18.3992Z" fill="url(#paint9_linear_1_1774)"/>
<path d="M28.1978 14.7878C26.7111 10.6716 22.7666 7.73061 18.1363 7.73805C13.9991 7.74473 10.4007 10.141 8.63574 13.602L11.2784 15.2606C12.583 13.0778 14.8256 11.8381 17.418 11.8339C21.1713 11.8281 24.3686 14.2121 25.5731 17.548L29.3909 27.2926C29.4319 27.3964 29.4696 27.5 29.5039 27.6046L32.1733 24.9353L28.1978 14.7878Z" fill="url(#paint10_linear_1_1774)"/>
<path d="M27.2246 34.8698C30.5326 34.8698 32.8038 31.5409 31.5971 28.4608L26.8295 16.2918C25.6245 12.9553 22.4273 10.5714 18.6741 10.5774C13.8638 10.5852 9.95087 14.5778 10.036 19.3874C10.0635 20.9361 10.4979 22.3859 11.237 23.6339C12.6521 26.0234 16.2168 25.652 17.0973 23.0181C19.2693 25.1901 19.2695 28.7119 17.0975 30.8839L14.7826 33.1985C14.166 33.8153 14.6028 34.8698 15.4748 34.8698H27.2246Z" fill="url(#paint11_linear_1_1774)"/>
<path d="M31.5971 28.4604L27.9255 19.0891C25.5143 16.8153 22.2643 15.4211 18.6884 15.4211C15.4064 15.4211 12.399 16.5956 10.0624 18.5466C10.0403 18.8236 10.031 19.1039 10.036 19.3871C10.0635 20.9359 10.4979 22.3856 11.2369 23.6338C12.6521 26.0231 16.2166 25.6518 17.0973 23.0179C19.2693 25.1899 19.2695 28.7116 17.0975 30.8836L14.7826 33.1983C14.166 33.815 14.6028 34.8694 15.4748 34.8694H27.2246C30.5326 34.8694 32.8038 31.5404 31.5971 28.4604Z" fill="url(#paint12_linear_1_1774)"/>
<path d="M21.9495 17.286C21.8767 14.314 19.4657 11.8816 16.4946 11.7841C14.3795 11.7147 12.5149 12.8094 11.4909 14.476L7.70726 12.1393C7.08811 11.757 6.31297 12.3045 6.46647 13.0159L10.0247 29.5067C10.1992 30.3152 10.9141 30.8924 11.7412 30.8924C13.4842 30.8924 15.0235 29.7556 15.5364 28.0896L17.0981 23.0172C19.8859 22.6252 22.0206 20.1984 21.9495 17.286Z" fill="url(#paint13_linear_1_1774)"/>
<path d="M13.3756 26.5613C11.9698 26.5613 10.6804 27.06 9.6748 27.8902L10.0239 29.5079C10.1983 30.3163 10.9133 30.8934 11.7404 30.8934C13.4834 30.8934 15.0227 29.7568 15.5356 28.0909C15.7181 27.4982 15.3629 26.8753 14.7606 26.7278C14.3167 26.619 13.8529 26.5613 13.3756 26.5613Z" fill="url(#paint14_linear_1_1774)"/>
<path d="M10.4526 19.5425C10.4411 19.542 10.4297 19.5418 10.4183 19.5414C9.74032 19.523 9.22676 20.1502 9.36973 20.8132L10.2658 24.9662C10.3544 25.3764 10.7725 25.6212 11.1759 25.5052C12.4885 25.1279 13.4372 23.8912 13.3724 22.4428C13.3025 20.874 12.0217 19.6023 10.4526 19.5425Z" fill="url(#paint15_linear_1_1774)"/>
<path d="M9.68837 22.2991L10.1725 24.5418C10.2273 24.7959 10.558 24.8635 10.7081 24.6513C11.342 23.7551 11.5842 22.6399 11.379 21.5616L11.3186 21.2445C11.1925 20.5823 10.3289 20.4029 9.94956 20.96C9.68282 21.3518 9.58837 21.8359 9.68837 22.2991Z" fill="url(#paint16_linear_1_1774)"/>
<path d="M6.59758 13.6138L7.52801 17.6164C7.55829 17.7465 7.74472 17.7485 7.77538 17.6185C7.90967 17.0495 8.25829 16.2868 9.15931 15.9274C9.46354 15.806 9.54567 15.4151 9.30818 15.1895L7.25468 13.2379C6.97052 12.9678 6.50879 13.2318 6.59758 13.6138Z" fill="url(#paint17_linear_1_1774)"/>
<defs>
<linearGradient id="paint0_linear_1_1774" x1="7.87224" y1="15.4834" x2="33.49" y2="41.1011" gradientUnits="userSpaceOnUse">
<stop stop-color="#FF637B"/>
<stop offset="1" stop-color="#E63950"/>
</linearGradient>
<linearGradient id="paint1_linear_1_1774" x1="32.9411" y1="38.8285" x2="5.37955" y2="11.2668" gradientUnits="userSpaceOnUse">
<stop stop-color="#FF637B"/>
<stop offset="1" stop-color="#E63950"/>
</linearGradient>
<linearGradient id="paint2_linear_1_1774" x1="19.9992" y1="33.2544" x2="19.9992" y2="36.7769" gradientUnits="userSpaceOnUse">
<stop stop-color="#E63950" stop-opacity="0"/>
<stop offset="0.0467" stop-color="#E4354B" stop-opacity="0.047"/>
<stop offset="0.4669" stop-color="#D31822" stop-opacity="0.467"/>
<stop offset="0.7991" stop-color="#C90709" stop-opacity="0.799"/>
<stop offset="1" stop-color="#C50000"/>
</linearGradient>
<linearGradient id="paint3_linear_1_1774" x1="30.6809" y1="38.7208" x2="19.3084" y2="21.0735" gradientUnits="userSpaceOnUse">
<stop stop-color="#E63950" stop-opacity="0"/>
<stop offset="0.0467" stop-color="#E4354B" stop-opacity="0.047"/>
<stop offset="0.4669" stop-color="#D31822" stop-opacity="0.467"/>
<stop offset="0.7991" stop-color="#C90709" stop-opacity="0.799"/>
<stop offset="1" stop-color="#C50000"/>
</linearGradient>
<linearGradient id="paint4_linear_1_1774" x1="19.4851" y1="5.35775" x2="19.9869" y2="12.2171" gradientUnits="userSpaceOnUse">
<stop stop-color="#EDF5FF"/>
<stop offset="1" stop-color="#D5E8FE"/>
</linearGradient>
<linearGradient id="paint5_linear_1_1774" x1="13.6168" y1="16.8124" x2="7.39434" y2="17.0807" gradientUnits="userSpaceOnUse">
<stop stop-color="#B5DBFF" stop-opacity="0"/>
<stop offset="0.2428" stop-color="#93CEF6" stop-opacity="0.243"/>
<stop offset="0.5763" stop-color="#6ABFEC" stop-opacity="0.576"/>
<stop offset="0.8403" stop-color="#51B5E5" stop-opacity="0.84"/>
<stop offset="1" stop-color="#48B2E3"/>
</linearGradient>
<linearGradient id="paint6_linear_1_1774" x1="23.8528" y1="12.1868" x2="18.9591" y2="22.8524" gradientUnits="userSpaceOnUse">
<stop stop-color="#B5DBFF" stop-opacity="0"/>
<stop offset="0.2428" stop-color="#93CEF6" stop-opacity="0.243"/>
<stop offset="0.5763" stop-color="#6ABFEC" stop-opacity="0.576"/>
<stop offset="0.8403" stop-color="#51B5E5" stop-opacity="0.84"/>
<stop offset="1" stop-color="#48B2E3"/>
</linearGradient>
<linearGradient id="paint7_linear_1_1774" x1="19.4606" y1="10.8551" x2="12.8104" y2="5.50142" gradientUnits="userSpaceOnUse">
<stop stop-color="#B5DBFF" stop-opacity="0"/>
<stop offset="0.2428" stop-color="#93CEF6" stop-opacity="0.243"/>
<stop offset="0.5763" stop-color="#6ABFEC" stop-opacity="0.576"/>
<stop offset="0.8403" stop-color="#51B5E5" stop-opacity="0.84"/>
<stop offset="1" stop-color="#48B2E3"/>
</linearGradient>
<linearGradient id="paint8_linear_1_1774" x1="28.0993" y1="19.4002" x2="24.6417" y2="19.3446" gradientUnits="userSpaceOnUse">
<stop stop-color="#B5DBFF" stop-opacity="0"/>
<stop offset="0.2428" stop-color="#93CEF6" stop-opacity="0.243"/>
<stop offset="0.5763" stop-color="#6ABFEC" stop-opacity="0.576"/>
<stop offset="0.8403" stop-color="#51B5E5" stop-opacity="0.84"/>
<stop offset="1" stop-color="#48B2E3"/>
</linearGradient>
<linearGradient id="paint9_linear_1_1774" x1="31.6639" y1="21.6141" x2="23.1873" y2="19.0488" gradientUnits="userSpaceOnUse">
<stop stop-color="#B5DBFF" stop-opacity="0"/>
<stop offset="0.2428" stop-color="#93CEF6" stop-opacity="0.243"/>
<stop offset="0.5763" stop-color="#6ABFEC" stop-opacity="0.576"/>
<stop offset="0.8403" stop-color="#51B5E5" stop-opacity="0.84"/>
<stop offset="1" stop-color="#48B2E3"/>
</linearGradient>
<linearGradient id="paint10_linear_1_1774" x1="18.8528" y1="6.37978" x2="20.8603" y2="23.0543" gradientUnits="userSpaceOnUse">
<stop stop-color="#B5DBFF" stop-opacity="0"/>
<stop offset="0.2428" stop-color="#93CEF6" stop-opacity="0.243"/>
<stop offset="0.5763" stop-color="#6ABFEC" stop-opacity="0.576"/>
<stop offset="0.8403" stop-color="#51B5E5" stop-opacity="0.84"/>
<stop offset="1" stop-color="#48B2E3"/>
</linearGradient>
<linearGradient id="paint11_linear_1_1774" x1="15.1106" y1="13.7395" x2="22.7229" y2="29.3823" gradientUnits="userSpaceOnUse">
<stop stop-color="#0B799D"/>
<stop offset="1" stop-color="#07485E"/>
</linearGradient>
<linearGradient id="paint12_linear_1_1774" x1="23.9028" y1="24.9644" x2="12.2474" y2="26.6374" gradientUnits="userSpaceOnUse">
<stop stop-color="#07485E" stop-opacity="0"/>
<stop offset="1" stop-color="#03232E"/>
</linearGradient>
<linearGradient id="paint13_linear_1_1774" x1="12.2238" y1="15.1436" x2="19.8361" y2="30.7864" gradientUnits="userSpaceOnUse">
<stop stop-color="#0B799D"/>
<stop offset="1" stop-color="#07485E"/>
</linearGradient>
<linearGradient id="paint14_linear_1_1774" x1="10.488" y1="29.5637" x2="17.3814" y2="26.4837" gradientUnits="userSpaceOnUse">
<stop stop-color="#07485E" stop-opacity="0"/>
<stop offset="1" stop-color="#03232E"/>
</linearGradient>
<linearGradient id="paint15_linear_1_1774" x1="11.0611" y1="22.5642" x2="8.27083" y2="22.3564" gradientUnits="userSpaceOnUse">
<stop stop-color="#07485E" stop-opacity="0"/>
<stop offset="1" stop-color="#03232E"/>
</linearGradient>
<linearGradient id="paint16_linear_1_1774" x1="9.65569" y1="22.3158" x2="11.4699" y2="23.071" gradientUnits="userSpaceOnUse">
<stop stop-color="#FF9100"/>
<stop offset="1" stop-color="#E63950"/>
</linearGradient>
<linearGradient id="paint17_linear_1_1774" x1="7.69241" y1="15.9004" x2="8.46362" y2="12.605" gradientUnits="userSpaceOnUse">
<stop stop-color="#07485E" stop-opacity="0"/>
<stop offset="1" stop-color="#03232E"/>
</linearGradient>
</defs>
</svg>
