<svg width="14" height="14" viewBox="0 0 14 14" fill="none" xmlns="http://www.w3.org/2000/svg">
<path d="M4.41529 2.93023C4.15035 2.93023 3.93066 2.70884 3.93066 2.44186V0.488372C3.93066 0.221395 4.15035 0 4.41529 0C4.6802 0 4.89991 0.221395 4.89991 0.488372V2.44186C4.89991 2.70884 4.6802 2.93023 4.41529 2.93023Z" fill="#737373"/>
<path d="M9.58472 2.93023C9.31977 2.93023 9.1001 2.70884 9.1001 2.44186V0.488372C9.1001 0.221395 9.31977 0 9.58472 0C9.84967 0 10.0693 0.221395 10.0693 0.488372V2.44186C10.0693 2.70884 9.84967 2.93023 9.58472 2.93023Z" fill="#737373"/>
<path d="M4.73843 8.62849C4.65443 8.62849 4.57043 8.60898 4.4929 8.57643C4.4089 8.54388 4.34428 8.49829 4.27967 8.43962C4.16337 8.31594 4.09229 8.15315 4.09229 7.97736C4.09229 7.89266 4.11168 7.80805 4.14398 7.72991C4.17629 7.65177 4.22152 7.58011 4.27967 7.51501C4.34428 7.45643 4.4089 7.41084 4.4929 7.37825C4.72552 7.2806 5.01629 7.33275 5.19719 7.51501C5.31352 7.63878 5.38462 7.80805 5.38462 7.97736C5.38462 8.01643 5.37814 8.06197 5.37167 8.10756C5.36519 8.14663 5.35229 8.18574 5.3329 8.22481C5.32 8.26388 5.30062 8.30295 5.27476 8.34197C5.25538 8.37452 5.22305 8.40707 5.19719 8.43962C5.07443 8.55687 4.90643 8.62849 4.73843 8.62849Z" fill="#737373"/>
<path d="M7.00019 8.62718C6.91619 8.62718 6.83215 8.60763 6.75462 8.57508C6.67062 8.54248 6.606 8.49689 6.54139 8.43831C6.4251 8.31454 6.354 8.15179 6.354 7.97596C6.354 7.89131 6.37338 7.80669 6.40572 7.72851C6.438 7.65037 6.48324 7.57876 6.54139 7.51366C6.606 7.45503 6.67062 7.40944 6.75462 7.37689C6.98724 7.27272 7.278 7.33131 7.45895 7.51366C7.57524 7.63738 7.64634 7.80669 7.64634 7.97596C7.64634 8.01503 7.63986 8.06066 7.63339 8.10621C7.62695 8.14527 7.614 8.18434 7.59462 8.22341C7.58172 8.26248 7.56234 8.30151 7.53648 8.34066C7.5171 8.37321 7.48477 8.40576 7.45895 8.43831C7.33615 8.55547 7.16819 8.62718 7.00019 8.62718Z" fill="#737373"/>
<path d="M9.26138 8.62718C9.17738 8.62718 9.09338 8.60763 9.01585 8.57508C8.93185 8.54248 8.86723 8.49689 8.80262 8.43831C8.7768 8.40576 8.75095 8.37321 8.72505 8.34066C8.69923 8.30151 8.67985 8.26248 8.66695 8.22341C8.64757 8.18434 8.63462 8.14527 8.62818 8.10621C8.62167 8.06066 8.61523 8.01503 8.61523 7.97596C8.61523 7.80669 8.68633 7.63738 8.80262 7.51366C8.86723 7.45503 8.93185 7.40944 9.01585 7.37689C9.25495 7.27272 9.53923 7.33131 9.72018 7.51366C9.83643 7.63738 9.90757 7.80669 9.90757 7.97596C9.90757 8.01503 9.90105 8.06066 9.89462 8.10621C9.88818 8.14527 9.87523 8.18434 9.85585 8.22341C9.84295 8.26248 9.82357 8.30151 9.79767 8.34066C9.77833 8.37321 9.746 8.40576 9.72018 8.43831C9.59738 8.55547 9.42938 8.62718 9.26138 8.62718Z" fill="#737373"/>
<path d="M4.73843 10.9064C4.65443 10.9064 4.57043 10.8869 4.4929 10.8542C4.41538 10.8217 4.34428 10.7761 4.27967 10.7175C4.16337 10.5938 4.09229 10.4245 4.09229 10.2552C4.09229 10.1705 4.11168 10.0859 4.14398 10.0077C4.17629 9.92308 4.22152 9.85146 4.27967 9.79288C4.51876 9.55195 4.95814 9.55195 5.19719 9.79288C5.31352 9.91656 5.38462 10.0859 5.38462 10.2552C5.38462 10.4245 5.31352 10.5938 5.19719 10.7175C5.07443 10.8347 4.90643 10.9064 4.73843 10.9064Z" fill="#737373"/>
<path d="M7.00019 10.9064C6.83219 10.9064 6.66419 10.8347 6.54139 10.7175C6.4251 10.5938 6.354 10.4245 6.354 10.2552C6.354 10.1705 6.37338 10.0859 6.40572 10.0077C6.438 9.92308 6.48324 9.85146 6.54139 9.79288C6.78048 9.55195 7.21986 9.55195 7.45895 9.79288C7.5171 9.85146 7.56234 9.92308 7.59462 10.0077C7.62695 10.0859 7.64634 10.1705 7.64634 10.2552C7.64634 10.4245 7.57524 10.5938 7.45895 10.7175C7.33615 10.8347 7.16819 10.9064 7.00019 10.9064Z" fill="#737373"/>
<path d="M9.26138 10.9066C9.09338 10.9066 8.92538 10.835 8.80262 10.7177C8.74443 10.6591 8.69923 10.5875 8.66695 10.5028C8.63462 10.4248 8.61523 10.3401 8.61523 10.2554C8.61523 10.1708 8.63462 10.0861 8.66695 10.0079C8.69923 9.92333 8.74443 9.85171 8.80262 9.79304C8.95123 9.64333 9.17738 9.57167 9.38418 9.61721C9.42938 9.62382 9.46818 9.63681 9.50695 9.65637C9.54567 9.66936 9.58443 9.68892 9.62323 9.71495C9.65557 9.73446 9.68785 9.76701 9.72018 9.79304C9.83643 9.91681 9.90757 10.0861 9.90757 10.2554C9.90757 10.4247 9.83643 10.594 9.72018 10.7177C9.59738 10.835 9.42938 10.9066 9.26138 10.9066Z" fill="#737373"/>
<path d="M12.4922 5.59351H1.50756C1.24264 5.59351 1.02295 5.37213 1.02295 5.10513C1.02295 4.83817 1.24264 4.61679 1.50756 4.61679H12.4922C12.7571 4.61679 12.9768 4.83817 12.9768 5.10513C12.9768 5.37213 12.7571 5.59351 12.4922 5.59351Z" fill="#737373"/>
<path d="M9.58481 14H4.41558C2.05711 14 0.700195 12.6325 0.700195 10.2557V4.72089C0.700195 2.34413 2.05711 0.976685 4.41558 0.976685H9.58481C11.9432 0.976685 13.3002 2.34413 13.3002 4.72089V10.2557C13.3002 12.6325 11.9432 14 9.58481 14ZM4.41558 1.95343C2.56758 1.95343 1.66943 2.85854 1.66943 4.72089V10.2557C1.66943 12.1181 2.56758 13.0232 4.41558 13.0232H9.58481C11.4328 13.0232 12.331 12.1181 12.331 10.2557V4.72089C12.331 2.85854 11.4328 1.95343 9.58481 1.95343H4.41558Z" fill="#737373"/>
</svg>
