<svg width="24" height="24" viewBox="0 0 24 24" fill="none" xmlns="http://www.w3.org/2000/svg">
<path d="M23.4416 4.98485L18.8384 0.381114C18.3536 -0.103601 17.5676 -0.103601 17.0829 0.381114L4.92303 12.541C4.28575 13.1783 4.57375 14.3907 5.78703 14.5085C6.25932 14.5544 6.46247 15.1325 6.12689 15.4682L0.259759 21.3357C-0.0860979 21.6815 -0.0860979 22.2425 0.259759 22.5889L1.19962 23.5287C1.54547 23.8745 2.10647 23.8745 2.45276 23.5287L8.07772 17.9037C8.508 17.4734 9.20918 17.707 9.36 18.2971C9.61372 19.288 10.6933 19.4894 11.2822 18.9005L15.1307 15.052C14.286 14.3294 13.7944 13.2057 13.9594 11.9735C14.1609 10.471 15.3806 9.2517 16.8832 9.04988C18.1149 8.88443 19.239 9.37597 19.9616 10.2211L23.4424 6.74027C23.9263 6.25513 23.9264 5.46913 23.4416 4.98485Z" fill="#FAC176"/>
<path d="M4.21485 21.7656L5.42703 20.5534L3.23421 18.3606L2.02203 19.5727L4.21485 21.7656Z" fill="#38454F"/>
<path d="M17.356 15.8748C19.2494 15.8748 20.7845 14.3397 20.7845 12.4462C20.7845 10.5526 19.2494 9.01758 17.356 9.01758C15.4624 9.01758 13.9273 10.5526 13.9273 12.4462C13.9273 14.3397 15.4624 15.8748 17.356 15.8748Z" fill="#C2615F"/>
</svg>
