<svg width="73" height="36" viewBox="0 0 73 36" fill="none" xmlns="http://www.w3.org/2000/svg">
<rect width="73" height="36" rx="4" fill="#1A1A1A"/>
<g clip-path="url(#clip0_1_3553)">
<g clip-path="url(#clip1_1_3553)">
<path fill-rule="evenodd" clip-rule="evenodd" d="M14 9H48.2V10.3852H14V9ZM14 11.7703H48.2V13.1555H14V11.7703ZM14 14.5371H48.2V15.9258H14V14.5371ZM14 17.3074H48.2V18.6926H14V17.3074ZM14 20.0777H48.2V21.4629H14V20.0777ZM14 22.8445H48.2V24.2297H14V22.8445ZM14 25.6148H48.2V27H14V25.6148Z" fill="#BD3D44"/>
<path fill-rule="evenodd" clip-rule="evenodd" d="M14 10.3852H48.2V11.7703H14V10.3852ZM14 13.1555H48.2V14.5371H14V13.1555ZM14 15.9223H48.2V17.3074H14V15.9223ZM14 18.6926H48.2V20.0777H14V18.6926ZM14 21.4629H48.2V22.8481H14V21.4629ZM14 24.2297H48.2V25.6149H14V24.2297Z" fill="white"/>
<path fill-rule="evenodd" clip-rule="evenodd" d="M14 9H27.6793V18.6926H14V9Z" fill="#192F5D"/>
<path fill-rule="evenodd" clip-rule="evenodd" d="M15.1387 9.41484L15.2652 9.79804H15.666L15.3426 10.0336L15.4656 10.4203L15.1387 10.1812L14.8152 10.4168L14.9383 10.0336L14.6113 9.79804H15.0191L15.1387 9.41484ZM17.4203 9.41484L17.5434 9.79804H17.9477L17.6207 10.0336L17.7437 10.4203L17.4203 10.1812L17.0934 10.4168L17.2164 10.0336L16.893 9.79804H17.2937L17.4203 9.41484ZM19.6984 9.41484L19.825 9.79804H20.2223L19.8988 10.0336L20.0219 10.4203L19.6949 10.1812L19.3715 10.4168L19.4945 10.0336L19.1676 9.79804H19.5719L19.6984 9.41484ZM21.9801 9.41484L22.1031 9.79804H22.5074L22.1805 10.0336L22.307 10.4203L21.9801 10.1812L21.6531 10.4168L21.7797 10.0336L21.4527 9.79804H21.8535L21.9801 9.41484ZM24.2582 9.41484L24.3848 9.79804H24.7855L24.4621 10.0336L24.5852 10.4203L24.2582 10.1812L23.9348 10.4168L24.0578 10.0336L23.7344 9.79804H24.1352L24.2582 9.41484ZM26.5398 9.41484L26.6629 9.79804H27.0672L26.7402 10.0336L26.8668 10.4203L26.5398 10.1812L26.2129 10.4168L26.3395 10.0336L26.0125 9.79804H26.4168L26.5398 9.41484ZM16.2812 10.3852L16.4043 10.7684H16.8086L16.4816 11.0039L16.6012 11.3871L16.2848 11.1516L15.9578 11.3871L16.0738 11.0039L15.7574 10.7684H16.1582L16.2812 10.3852ZM18.5594 10.3852L18.6859 10.7684H19.0867L18.7598 11.0039L18.8863 11.3871L18.5594 11.1516L18.2324 11.3871L18.359 11.0039L18.032 10.7684H18.4363L18.5594 10.3852ZM20.841 10.3852L20.9641 10.7684H21.3684L21.0414 11.0039L21.1645 11.3871L20.841 11.1516L20.5141 11.3871L20.6371 11.0039L20.3137 10.7684H20.7145L20.841 10.3852ZM23.1191 10.3852L23.2457 10.7684H23.6465L23.3195 11.0039L23.4461 11.3871L23.1191 11.1516L22.7957 11.3871L22.9187 11.0039L22.5918 10.7684H22.9996L23.1191 10.3852ZM25.4008 10.3852L25.5238 10.7684H25.9281L25.6012 11.0039L25.7242 11.3871L25.4008 11.1516L25.0738 11.3871L25.1969 11.0039L24.8734 10.7684H25.2742L25.4008 10.3852ZM15.1387 11.352L15.2652 11.7422H15.666L15.3426 11.9777L15.4656 12.3609L15.1387 12.1219L14.8152 12.3609L14.9383 11.9742L14.6113 11.7387H15.0191L15.1387 11.352ZM17.4203 11.352L17.5434 11.7387H17.9477L17.6207 11.9742L17.7437 12.3574L17.4203 12.1184L17.0934 12.3574L17.2164 11.9707L16.893 11.7352H17.2937L17.4203 11.352ZM19.6984 11.352L19.825 11.7387H20.2223L19.8988 11.9742L20.0219 12.3574L19.6949 12.1184L19.3715 12.3574L19.4945 11.9707L19.1676 11.7352H19.5719L19.6984 11.352ZM21.9801 11.352L22.1031 11.7387H22.5074L22.1805 11.9742L22.307 12.3574L21.9801 12.1184L21.6531 12.3574L21.7797 11.9707L21.4527 11.7352H21.8535L21.9801 11.352ZM24.2582 11.352L24.3848 11.7387H24.7855L24.4621 11.9742L24.5852 12.3574L24.2582 12.1184L23.9348 12.3574L24.0578 11.9707L23.7344 11.7352H24.1352L24.2582 11.352ZM26.5398 11.352L26.6629 11.7387H27.0672L26.7402 11.9742L26.8668 12.3574L26.5398 12.1184L26.2129 12.3574L26.3395 11.9707L26.0125 11.7352H26.4168L26.5398 11.352ZM16.2812 12.3223L16.4043 12.7055H16.8086L16.4816 12.941L16.6047 13.3277L16.2812 13.0887L15.9543 13.3242L16.0773 12.941L15.7539 12.7055H16.1547L16.2812 12.3223ZM18.5594 12.3223L18.6859 12.7055H19.0867L18.7598 12.941L18.8863 13.3277L18.5594 13.0887L18.2324 13.3242L18.359 12.941L18.032 12.7055H18.4363L18.5594 12.3223ZM20.841 12.3223L20.9641 12.7055H21.3684L21.0414 12.941L21.1645 13.3277L20.841 13.0887L20.5141 13.3242L20.6371 12.941L20.3137 12.7055H20.7145L20.841 12.3223ZM23.1191 12.3223L23.2457 12.7055H23.6465L23.323 12.941L23.4461 13.3277L23.1191 13.0887L22.7957 13.3242L22.9187 12.941L22.5918 12.7055H22.9996L23.1191 12.3223ZM25.4008 12.3223L25.5238 12.7055H25.9281L25.6012 12.941L25.7242 13.3277L25.4008 13.0887L25.0738 13.3242L25.1969 12.941L24.8734 12.7055H25.2742L25.4008 12.3223ZM15.1387 13.2926L15.2652 13.6758H15.666L15.3426 13.9113L15.4656 14.298L15.1387 14.059L14.8152 14.2945L14.9383 13.9113L14.6113 13.6758H15.0191L15.1387 13.2926ZM17.4203 13.2926L17.5434 13.6758H17.9477L17.6207 13.9113L17.7437 14.2945L17.4203 14.059L17.0934 14.2945L17.2164 13.9113L16.893 13.6758H17.2937L17.4203 13.2926ZM19.6984 13.2926L19.825 13.6758H20.2223L19.8988 13.9113L20.0219 14.298L19.6949 14.059L19.3715 14.2945L19.4945 13.9113L19.1676 13.6758H19.5719L19.6984 13.2926ZM21.9801 13.2926L22.1031 13.6758H22.5074L22.1805 13.9113L22.307 14.298L21.9801 14.059L21.6531 14.2945L21.7797 13.9113L21.4527 13.6758H21.8535L21.9801 13.2926ZM24.2582 13.2926L24.3848 13.6758H24.7855L24.4621 13.9113L24.5852 14.298L24.2582 14.059L23.9348 14.2945L24.0578 13.9113L23.7344 13.6758H24.1352L24.2582 13.2926ZM26.5398 13.2926L26.6629 13.6758H27.0672L26.7402 13.9113L26.8668 14.298L26.5398 14.059L26.2129 14.2945L26.3395 13.9113L26.0125 13.6758H26.4168L26.5398 13.2926ZM16.2812 14.2629L16.4043 14.6461H16.8086L16.4816 14.8816L16.6047 15.2648L16.2812 15.0258L15.9543 15.2648L16.0773 14.8781L15.7539 14.6426H16.1547L16.2812 14.2629ZM18.5594 14.2629L18.6859 14.6461H19.0867L18.7598 14.8816L18.8863 15.2648L18.5594 15.0258L18.2324 15.2648L18.359 14.8781L18.032 14.6426H18.4363L18.5594 14.2629ZM20.841 14.2629L20.9641 14.6461H21.3684L21.0414 14.8816L21.1645 15.2648L20.841 15.0258L20.5141 15.2648L20.6371 14.8781L20.3137 14.6426H20.7145L20.841 14.2629ZM23.1191 14.2629L23.2457 14.6461H23.6465L23.323 14.8816L23.4461 15.2648L23.1191 15.0258L22.7957 15.2648L22.9187 14.8781L22.5918 14.6426H22.9996L23.1191 14.2629ZM25.4008 14.2629L25.5238 14.6461H25.9281L25.6012 14.8816L25.7242 15.2648L25.4008 15.0258L25.0738 15.2648L25.1969 14.8781L24.8734 14.6426H25.2742L25.4008 14.2629ZM15.1387 15.2297L15.2652 15.6164H15.666L15.3426 15.8519L15.4656 16.2316L15.1387 15.9961L14.8152 16.2316L14.9383 15.8484L14.6113 15.6129H15.0191L15.1387 15.2297ZM17.4203 15.2297L17.5434 15.6164H17.9477L17.6207 15.8519L17.7473 16.2316L17.4203 15.9961L17.0934 16.2316L17.2199 15.8484L16.893 15.6129H17.2937L17.4203 15.2297ZM19.6984 15.2297L19.825 15.6164H20.2223L19.8988 15.8519L20.0219 16.2316L19.6949 15.9961L19.3715 16.2316L19.4945 15.8484L19.1676 15.6129H19.5719L19.6984 15.2297ZM21.9801 15.2297L22.1031 15.6164H22.5074L22.1805 15.8519L22.307 16.2316L21.9801 15.9961L21.6531 16.2316L21.7797 15.8484L21.4527 15.6129H21.8535L21.9801 15.2297ZM24.2582 15.2297L24.3848 15.6164H24.7855L24.4621 15.8519L24.5852 16.2316L24.2582 15.9961L23.9348 16.2316L24.0578 15.8484L23.7344 15.6129H24.1352L24.2582 15.2297ZM26.5398 15.2297L26.6629 15.6164H27.0672L26.7402 15.8519L26.8668 16.2316L26.5398 15.9961L26.2129 16.2316L26.3395 15.8484L26.0125 15.6129H26.4168L26.5398 15.2297ZM16.2812 16.2L16.4043 16.5832H16.8086L16.4816 16.8187L16.6047 17.2055L16.2812 16.9664L15.9543 17.202L16.0773 16.8187L15.7539 16.5832H16.1547L16.2812 16.2ZM18.5594 16.2L18.6859 16.5832H19.0867L18.7598 16.8187L18.8863 17.2055L18.5594 16.9664L18.2324 17.202L18.359 16.8187L18.032 16.5832H18.4363L18.5594 16.2ZM20.841 16.2L20.9641 16.5832H21.3684L21.0414 16.8187L21.1645 17.2055L20.841 16.9664L20.5141 17.202L20.6371 16.8187L20.3137 16.5832H20.7145L20.841 16.2ZM23.1191 16.2L23.2457 16.5832H23.6465L23.323 16.8187L23.4461 17.2055L23.1191 16.9664L22.7957 17.202L22.9187 16.8187L22.5918 16.5832H22.9996L23.1191 16.2ZM25.4008 16.2L25.5238 16.5832H25.9281L25.6012 16.8187L25.7242 17.2055L25.4008 16.9664L25.0738 17.202L25.1969 16.8187L24.8734 16.5832H25.2742L25.4008 16.2ZM15.1387 17.1703L15.2652 17.5535H15.666L15.3426 17.7891L15.4656 18.1723L15.1387 17.9367L14.8152 18.1723L14.9383 17.7855L14.6113 17.55H15.0191L15.1387 17.1703ZM17.4203 17.1703L17.5434 17.5535H17.9477L17.6207 17.7891L17.7473 18.1723L17.4203 17.9367L17.0934 18.1723L17.2199 17.7855L16.893 17.55H17.2937L17.4203 17.1703ZM19.6984 17.1703L19.825 17.5535H20.2223L19.9059 17.7891L20.0289 18.1723L19.702 17.9367L19.3785 18.1723L19.5016 17.7855L19.1746 17.55H19.5789L19.6984 17.1703ZM21.9801 17.1703L22.1031 17.5535H22.5074L22.1805 17.7891L22.307 18.1723L21.9801 17.9367L21.6531 18.1723L21.7797 17.7855L21.4527 17.55H21.8535L21.9801 17.1703ZM24.2582 17.1703L24.3848 17.5535H24.7855L24.4621 17.7891L24.5852 18.1723L24.2582 17.9367L23.9348 18.1723L24.0578 17.7855L23.7344 17.55H24.1352L24.2582 17.1703ZM26.5398 17.1703L26.6629 17.5535H27.0672L26.7402 17.7891L26.8668 18.1723L26.5398 17.9367L26.2129 18.1723L26.3395 17.7855L26.0125 17.55H26.4168L26.5398 17.1703Z" fill="white"/>
</g>
</g>
<g clip-path="url(#clip2_1_3553)">
<path d="M58.6652 16.5684L54.5241 20.8066C53.9741 21.389 53.0359 21.389 52.4859 20.8066L48.3123 16.5684C47.6653 15.9214 48.1182 14.7566 49.0241 14.7566H57.9859C58.8918 14.7566 59.3447 15.889 58.6652 16.5684Z" fill="white" fill-opacity="0.5"/>
</g>
<rect x="0.5" y="0.5" width="72" height="35" rx="3.5" stroke="white" stroke-opacity="0.5"/>
<defs>
<clipPath id="clip0_1_3553">
<rect x="14" y="10" width="24" height="16" rx="3" fill="white"/>
</clipPath>
<clipPath id="clip1_1_3553">
<rect width="24" height="18" fill="white" transform="translate(14 9)"/>
</clipPath>
<clipPath id="clip2_1_3553">
<rect width="11" height="11" fill="white" transform="translate(48 12.5)"/>
</clipPath>
</defs>
</svg>
