<svg width="13" height="12" viewBox="0 0 13 12" fill="none" xmlns="http://www.w3.org/2000/svg">
<path d="M6.00185 2.57186C6.10516 2.57205 6.20742 2.59275 6.30271 2.63272C6.39796 2.67274 6.48436 2.73124 6.55684 2.80485L11.7878 8.09385C11.926 8.24482 12.001 8.44302 11.9974 8.64763C11.9939 8.85224 11.9121 9.04771 11.7688 9.19385C11.6258 9.33896 11.4315 9.42223 11.2277 9.42578C11.0239 9.42934 10.8269 9.35289 10.6788 9.21285L5.99885 4.48384L1.31884 9.21285C1.17079 9.35289 0.973733 9.42934 0.769958 9.42578C0.566182 9.42223 0.371932 9.33896 0.228832 9.19385C0.0855818 9.04771 0.00379467 8.85224 0.000232697 8.64763C-0.00329304 8.44302 0.0717068 8.24482 0.209857 8.09385L5.44384 2.80384C5.51678 2.73004 5.60367 2.67154 5.69948 2.63167C5.79529 2.59185 5.89808 2.57152 6.00185 2.57186Z" fill="#737373"/>
</svg>
