<svg width="24" height="24" viewBox="0 0 24 24" fill="none" xmlns="http://www.w3.org/2000/svg">
<path d="M8.33964 13.9893C8.20194 14.0062 8.06431 14.0226 7.92661 14.0377C7.69546 14.0638 7.52911 14.2723 7.55484 14.503C7.57921 14.7181 7.76116 14.8773 7.97289 14.8773C7.98849 14.8773 8.00409 14.8765 8.02006 14.8748C8.16114 14.8588 8.30221 14.8423 8.44321 14.8247C8.67399 14.7965 8.83816 14.586 8.80914 14.3552C8.78094 14.1245 8.57079 13.9561 8.33964 13.9893Z" fill="#8697CB"/>
<path d="M6.70238 14.1315C6.56891 14.1353 6.43122 14.1382 6.29017 14.1391C6.05775 14.1403 5.87038 14.3298 5.87165 14.5626C5.87291 14.7942 6.06112 14.9812 6.2927 14.9812H6.29523C6.44217 14.9803 6.58575 14.9774 6.72512 14.9736C6.95754 14.9669 7.1407 14.7736 7.13481 14.5412C7.12891 14.3088 6.9268 14.1277 6.70238 14.1315Z" fill="#8697CB"/>
<path d="M11.6756 13.5243C11.5346 13.5416 11.3939 13.5605 11.2533 13.5795C11.023 13.6111 10.8613 13.8233 10.8929 14.0536C10.9215 14.265 11.1021 14.4178 11.3097 14.4178C11.3287 14.4178 11.3476 14.4166 11.3669 14.414C11.5043 14.3951 11.6415 14.377 11.7792 14.3597C12.0099 14.3315 12.1742 14.121 12.1451 13.8902C12.116 13.6595 11.9081 13.4906 11.6756 13.5243Z" fill="#8697CB"/>
<path d="M5.0629 14.0946C4.92817 14.0845 4.79216 14.0719 4.65616 14.0571C4.42627 14.0318 4.21743 14.199 4.19216 14.4306C4.16689 14.6617 4.33406 14.8693 4.56564 14.8945C4.71006 14.9101 4.8549 14.9232 4.99764 14.9346C5.00859 14.9354 5.01995 14.9359 5.03048 14.9359C5.24859 14.9359 5.43301 14.7682 5.44985 14.5472C5.46796 14.3148 5.29448 14.1123 5.0629 14.0946Z" fill="#8697CB"/>
<path d="M0.441085 13.1537C0.532033 13.1537 0.624243 13.1243 0.700875 13.0637C0.884032 12.9197 0.915187 12.6548 0.771615 12.4725C0.697085 12.3782 0.631401 12.2792 0.575401 12.179C0.544664 12.1239 0.502559 12.0805 0.454559 12.0455C0.309295 12.1895 0.189295 12.363 0.109717 12.5622C0.0697169 12.662 0.0440327 12.7639 0.0250854 12.8666C0.054559 12.9083 0.0777172 12.953 0.109717 12.9934C0.192664 13.0991 0.316453 13.1537 0.441085 13.1537Z" fill="#8697CB"/>
<path d="M3.45447 13.8638C3.32268 13.8347 3.19215 13.8027 3.06331 13.7681C2.83931 13.7075 2.60816 13.841 2.54752 14.0658C2.48689 14.2903 2.62037 14.521 2.84521 14.5817C2.98626 14.6195 3.12899 14.6545 3.27341 14.6861C3.30373 14.6928 3.33447 14.6957 3.36437 14.6957C3.55763 14.6957 3.73194 14.5619 3.77531 14.3652C3.82541 14.1383 3.68183 13.9139 3.45447 13.8638Z" fill="#8697CB"/>
<path d="M1.95116 13.3643C1.83411 13.3079 1.72085 13.2481 1.61264 13.1833C1.41264 13.0645 1.15454 13.1298 1.03538 13.3298C0.916636 13.5298 0.981901 13.7883 1.1819 13.907C1.31159 13.9841 1.44674 14.0561 1.58611 14.1235C1.64506 14.1517 1.70696 14.1652 1.76843 14.1652C1.92548 14.1652 2.0758 14.0771 2.14822 13.9268C2.24885 13.7168 2.16043 13.4654 1.95116 13.3643Z" fill="#8697CB"/>
<path d="M9.99614 13.7585L9.58222 13.8195C9.35197 13.8528 9.19237 14.0663 9.22604 14.2966C9.25634 14.5063 9.43612 14.6571 9.64207 14.6571C9.66224 14.6571 9.68249 14.6558 9.70312 14.6524L10.1221 14.5909C10.3519 14.5564 10.5103 14.3417 10.4753 14.1118C10.4407 13.8819 10.226 13.7235 9.99614 13.7585Z" fill="#8697CB"/>
<path d="M20.0896 14.1434C19.9582 14.1375 19.8256 14.1273 19.6921 14.1143C19.4517 14.0912 19.2542 14.2613 19.2315 14.4916C19.2083 14.7231 19.3776 14.9291 19.6087 14.9522C19.7578 14.967 19.9056 14.9783 20.0517 14.9847C20.0584 14.985 20.0643 14.985 20.071 14.985C20.2946 14.985 20.4816 14.8086 20.4913 14.583C20.5018 14.3505 20.322 14.1534 20.0896 14.1434Z" fill="#8697CB"/>
<path d="M21.6005 13.9829C21.4864 14.0216 21.3681 14.0523 21.246 14.0767C21.0181 14.1222 20.8699 14.3441 20.9158 14.5723C20.9559 14.7727 21.1318 14.9108 21.328 14.9108C21.355 14.9108 21.3832 14.9083 21.411 14.9024C21.5714 14.8704 21.7251 14.8295 21.8691 14.7815C22.0894 14.7071 22.2081 14.4683 22.134 14.2477C22.0603 14.0279 21.8236 13.91 21.6005 13.9829Z" fill="#8697CB"/>
<path d="M23.271 13.0231C23.0761 12.8976 22.8146 12.954 22.6892 13.1494C22.6251 13.2488 22.554 13.3419 22.4765 13.4261C22.3199 13.5978 22.3316 13.8639 22.503 14.021C22.5839 14.0947 22.6858 14.1313 22.7873 14.1313C22.9013 14.1313 23.015 14.0854 23.098 13.9945C23.207 13.8753 23.3077 13.7439 23.3969 13.605C23.5228 13.4092 23.4668 13.149 23.271 13.0231Z" fill="#8697CB"/>
<path d="M23.1195 12.0043C23.1123 12.0431 23.1043 12.081 23.0959 12.118C23.0449 12.3446 23.1873 12.5703 23.4142 12.6212C23.4454 12.6283 23.4761 12.6313 23.5072 12.6313C23.5333 12.6313 23.5578 12.6229 23.5831 12.6183C23.5662 12.3227 23.5199 12.0077 23.4407 11.673C23.2824 11.7096 23.1514 11.8347 23.1195 12.0043Z" fill="#8697CB"/>
<path d="M15.1138 13.3351L14.9858 13.3293C14.8809 13.3255 14.7761 13.323 14.6708 13.3217C14.4489 13.3015 14.2477 13.5049 14.2448 13.7377C14.2418 13.9701 14.4283 14.1608 14.6607 14.1638C14.7601 14.1651 14.8595 14.1676 14.9584 14.1706L15.0599 14.1756C15.0687 14.176 15.078 14.1764 15.0869 14.1764C15.3071 14.1764 15.4923 14.005 15.5066 13.7819C15.5222 13.5503 15.3462 13.3499 15.1138 13.3351Z" fill="#8697CB"/>
<path d="M13.3753 13.3564C13.233 13.3661 13.0911 13.3766 12.9492 13.388C12.7172 13.4073 12.545 13.6103 12.5639 13.8423C12.5825 14.0621 12.7661 14.2288 12.9833 14.2288C12.9947 14.2288 13.0064 14.2284 13.0183 14.2275C13.1559 14.2162 13.2936 14.2056 13.4318 14.1969C13.6637 14.1813 13.8393 13.98 13.8237 13.7484C13.8081 13.5168 13.6183 13.3459 13.3753 13.3564Z" fill="#8697CB"/>
<path d="M16.8352 13.5958C16.6928 13.5672 16.5535 13.539 16.4158 13.5137C16.188 13.4712 15.9673 13.621 15.9244 13.8497C15.881 14.0783 16.0318 14.2981 16.2604 14.341C16.3939 14.3667 16.5303 14.3937 16.6684 14.4215C16.6962 14.4273 16.7248 14.4299 16.7522 14.4299C16.9484 14.4299 17.124 14.2922 17.1644 14.0922C17.2103 13.8644 17.0629 13.6421 16.8352 13.5958Z" fill="#8697CB"/>
<path d="M18.4796 13.9339C18.3436 13.9078 18.2071 13.8812 18.0707 13.8543C17.84 13.8063 17.6206 13.9566 17.5752 14.1844C17.5297 14.4126 17.6775 14.6341 17.9053 14.68C18.0446 14.7078 18.1844 14.7355 18.3238 14.7613C18.3503 14.7663 18.376 14.7688 18.4021 14.7688C18.6008 14.7688 18.7777 14.6278 18.8152 14.4256C18.8585 14.1966 18.7082 13.9764 18.4796 13.9339Z" fill="#8697CB"/>
<path d="M23.5075 12.6315C23.4769 12.6315 23.4461 12.6281 23.4146 12.6214C23.1876 12.5705 23.0452 12.3448 23.0962 12.1182C23.1047 12.0812 23.1126 12.0433 23.1198 12.0045C23.1518 11.8349 23.2823 11.7102 23.441 11.6732C23.4191 11.5814 23.3977 11.49 23.3708 11.3957C23.3426 11.2959 23.3021 11.2016 23.2621 11.1086L22.2461 8.40661C22.0638 7.92158 21.4158 7.83278 21.1096 8.25083C20.5513 9.01381 19.6503 9.56791 18.7055 9.53251H16.8482L15.164 7.65128C14.8217 7.40707 14.3792 7.35822 13.9935 7.52536C13.3017 7.82521 12.5143 8.36161 11.5779 8.95531L13.7896 11.3523C13.9472 11.5229 13.9367 11.7894 13.7653 11.9473C13.6844 12.0218 13.5821 12.0589 13.4798 12.0589C13.3661 12.0589 13.2533 12.0134 13.1703 11.9233L10.9059 9.46898C10.8865 9.44791 10.8777 9.42226 10.8634 9.39908C10.5505 9.58771 10.2217 9.77798 9.87517 9.96451L11.6722 11.7616C11.8369 11.9262 11.8369 12.1923 11.6722 12.3569C11.5901 12.4391 11.4824 12.4803 11.3745 12.4803C11.2667 12.4803 11.1589 12.4391 11.0768 12.3569L9.1821 10.4622C9.14925 10.4294 9.12817 10.3907 9.10882 10.3515C8.80402 10.4976 8.48903 10.6399 8.15812 10.7734L9.56738 12.1826C9.732 12.3473 9.732 12.6134 9.56738 12.778C9.48525 12.8601 9.37747 12.9014 9.2697 12.9014C9.16193 12.9014 9.05408 12.8601 8.97202 12.778L7.42758 11.2336C7.38169 11.1877 7.35179 11.1329 7.33158 11.0753C6.97074 11.1965 6.59853 11.3098 6.20653 11.4071C5.74758 11.5208 5.2739 11.5763 4.80105 11.6378H1.5661C1.13957 11.597 0.743781 11.759 0.454939 12.0454C0.502939 12.0803 0.545045 12.1237 0.575781 12.1789C0.631781 12.2791 0.697466 12.3785 0.77199 12.4724C0.91557 12.6551 0.884415 12.9199 0.701255 13.0635C0.624202 13.1241 0.532413 13.1536 0.441465 13.1536C0.316835 13.1536 0.193046 13.0985 0.110098 12.9928C0.0785191 12.9524 0.0553614 12.9077 0.0254666 12.866C-0.0840074 13.469 0.163572 14.0942 0.689045 14.4446C0.705465 14.4555 0.722308 14.4665 0.73915 14.4778C2.6402 15.733 4.84568 16.2782 7.11389 16.0656C8.72108 15.9153 11.1968 15.6538 13.0571 15.3229C14.1691 15.125 15.308 15.1485 16.4078 15.407L18.6031 15.9237L18.6326 15.9338C18.6608 15.9439 18.6899 15.9536 18.7189 15.9629C20.844 16.637 23.759 15.6509 23.5842 12.6185C23.5581 12.6235 23.5341 12.6315 23.5075 12.6315ZM2.14841 13.9266C2.07599 14.077 1.92568 14.165 1.76862 14.165C1.70715 14.165 1.64525 14.1519 1.58631 14.1233C1.44694 14.0564 1.31178 13.9839 1.1821 13.9069C0.982095 13.7881 0.91683 13.5296 1.03557 13.3296C1.15473 13.1296 1.41284 13.0643 1.61283 13.1831C1.72105 13.2475 1.83389 13.3077 1.95136 13.3641C2.16062 13.4656 2.24905 13.717 2.14841 13.9266ZM3.77536 14.3654C3.73199 14.562 3.55768 14.6959 3.36441 14.6959C3.33451 14.6959 3.30378 14.6925 3.27347 14.6862C3.12905 14.6546 2.98631 14.6197 2.84525 14.5818C2.62041 14.5212 2.48694 14.2909 2.54757 14.066C2.6082 13.8412 2.83894 13.7077 3.06336 13.7684C3.1922 13.8029 3.3223 13.8344 3.45451 13.8639C3.68189 13.914 3.82547 14.1384 3.77536 14.3654ZM5.03095 14.9355C5.02042 14.9355 5.00906 14.9351 4.99811 14.9342C4.85495 14.9233 4.7101 14.9098 4.5661 14.8943C4.33453 14.869 4.16778 14.6614 4.19262 14.4302C4.2179 14.1986 4.42674 14.0319 4.65663 14.0567C4.79263 14.0715 4.92863 14.0837 5.06337 14.0942C5.29495 14.1119 5.46842 14.3144 5.45074 14.5464C5.43347 14.7675 5.24864 14.9355 5.03095 14.9355ZM6.72569 14.9738C6.58631 14.9776 6.44232 14.9805 6.29579 14.9814H6.29326C6.06169 14.9814 5.87348 14.7944 5.87221 14.5628C5.87095 14.33 6.05831 14.1405 6.29074 14.1393C6.43179 14.1384 6.56905 14.1355 6.70294 14.1317C6.92737 14.1279 7.12948 14.3085 7.13537 14.5414C7.14126 14.7743 6.9581 14.9671 6.72569 14.9738ZM8.44357 14.8247C8.3025 14.8424 8.1615 14.8589 8.02042 14.8748C8.00445 14.8766 7.98885 14.8774 7.97325 14.8774C7.76145 14.8774 7.57912 14.7182 7.55512 14.5031C7.52902 14.2719 7.69582 14.0635 7.92697 14.0378C8.0646 14.0226 8.2023 14.0063 8.34 13.9894C8.57115 13.9561 8.7813 14.1245 8.8095 14.3553C8.83808 14.586 8.67435 14.7965 8.44357 14.8247ZM10.1223 14.5907L9.70335 14.6521C9.68272 14.6555 9.66255 14.6567 9.6423 14.6567C9.43642 14.6567 9.25665 14.506 9.22635 14.2964C9.1926 14.066 9.3522 13.8525 9.58253 13.8193L9.99645 13.7582C10.2263 13.7233 10.441 13.8816 10.4755 14.1115C10.5105 14.3418 10.3522 14.5561 10.1223 14.5907ZM11.7796 14.3603C11.6419 14.3776 11.5046 14.3957 11.3674 14.4146C11.348 14.4172 11.3291 14.4185 11.3101 14.4185C11.1026 14.4185 10.9219 14.2656 10.8933 14.0543C10.8621 13.8239 11.0238 13.6117 11.2537 13.5801C11.3943 13.5612 11.5349 13.5422 11.676 13.525C11.9084 13.4913 12.1168 13.6601 12.1455 13.8908C12.1741 14.1216 12.0104 14.3317 11.7796 14.3603ZM13.4322 14.197C13.2941 14.2058 13.1564 14.2163 13.0187 14.2277C13.0069 14.2286 12.9952 14.2289 12.9838 14.2289C12.7665 14.2289 12.583 14.0622 12.5644 13.8425C12.5455 13.6104 12.7177 13.4075 12.9496 13.3881C13.0915 13.3768 13.2334 13.3662 13.3758 13.3565C13.6187 13.3464 13.8086 13.5165 13.8242 13.7486C13.8398 13.9805 13.6638 14.1814 13.4322 14.197ZM15.0874 14.1764C15.0785 14.1764 15.0693 14.1759 15.0605 14.1755L14.959 14.1704C14.86 14.1675 14.7606 14.165 14.6613 14.1637C14.4284 14.1608 14.2423 13.97 14.2453 13.7376C14.2482 13.5044 14.449 13.3014 14.6714 13.3216C14.7767 13.3229 14.8815 13.3254 14.9864 13.3292L15.1143 13.3351C15.3467 13.3498 15.5227 13.5503 15.508 13.7822C15.4928 14.005 15.308 14.1764 15.0874 14.1764ZM16.7518 14.4298C16.7244 14.4298 16.6958 14.4273 16.668 14.4214C16.5299 14.3936 16.3939 14.3663 16.26 14.341C16.0314 14.298 15.881 14.0783 15.924 13.8496C15.967 13.621 16.1875 13.4715 16.4154 13.5136C16.553 13.5393 16.6924 13.5671 16.8347 13.5957C17.0625 13.6416 17.2103 13.8644 17.164 14.0921C17.1236 14.2921 16.948 14.4298 16.7518 14.4298ZM18.4023 14.7683C18.3762 14.7683 18.3505 14.7658 18.324 14.7608C18.1846 14.7347 18.0449 14.7073 17.9055 14.6795C17.6777 14.634 17.5294 14.4121 17.5753 14.1839C17.6204 13.9561 17.8402 13.8058 18.0709 13.8538C18.2069 13.8808 18.3433 13.9077 18.4798 13.9334C18.7085 13.9763 18.8587 14.1961 18.8158 14.4248C18.7779 14.6273 18.601 14.7683 18.4023 14.7683ZM20.0714 14.9852C20.0646 14.9852 20.0588 14.9852 20.052 14.9848C19.9059 14.978 19.7585 14.9671 19.609 14.9523C19.3774 14.9292 19.2086 14.7233 19.2318 14.4917C19.2545 14.261 19.4515 14.0913 19.6924 14.1144C19.8259 14.1275 19.9589 14.138 20.0899 14.1435C20.3223 14.1536 20.5021 14.3507 20.4916 14.5831C20.4819 14.8088 20.2949 14.9852 20.0714 14.9852ZM21.8697 14.7814C21.7257 14.8294 21.572 14.8703 21.4116 14.9022C21.3838 14.9081 21.3556 14.9106 21.3286 14.9106C21.132 14.9106 20.956 14.7725 20.9165 14.5721C20.8709 14.3439 21.0187 14.1224 21.2465 14.0765C21.3686 14.0521 21.487 14.0214 21.601 13.9826C21.8242 13.9098 22.0609 14.0273 22.135 14.2475C22.2082 14.4677 22.0899 14.7068 21.8697 14.7814ZM23.3977 13.6049C23.3084 13.7439 23.2078 13.8753 23.0987 13.9944C23.0158 14.0854 22.9017 14.1313 22.788 14.1313C22.6865 14.1313 22.5851 14.0946 22.5038 14.021C22.3325 13.8639 22.3202 13.5978 22.4773 13.426C22.5548 13.3418 22.6259 13.2488 22.6899 13.1494C22.8154 12.954 23.0768 12.8976 23.2718 13.0231C23.4671 13.1489 23.5231 13.4092 23.3977 13.6049Z" fill="#38454F"/>
<path d="M13.1704 11.9231C13.2533 12.0132 13.3667 12.0587 13.4799 12.0587C13.5822 12.0587 13.6841 12.0216 13.7654 11.9471C13.9363 11.7892 13.9472 11.5227 13.7898 11.3522L11.578 8.95508C11.3486 9.1008 11.1123 9.24855 10.8635 9.39848C10.8778 9.42203 10.8866 9.44775 10.906 9.46838L13.1704 11.9231Z" fill="#ECF0F1"/>
<path d="M11.077 12.3565C11.1591 12.4387 11.2669 12.4799 11.3747 12.4799C11.4825 12.4799 11.5903 12.4387 11.6724 12.3565C11.837 12.1919 11.837 11.9258 11.6724 11.7612L9.87534 9.96411C9.62986 10.0963 9.37216 10.2247 9.10861 10.3511C9.12841 10.3903 9.14941 10.429 9.18189 10.4618L11.077 12.3565Z" fill="#ECF0F1"/>
<path d="M8.9718 12.7775C9.05392 12.8597 9.1617 12.9009 9.26955 12.9009C9.37732 12.9009 9.4851 12.8597 9.56722 12.7775C9.73185 12.6129 9.73185 12.3468 9.56722 12.1822L8.15797 10.7729C7.89225 10.8798 7.61475 10.9796 7.33099 11.0748C7.35121 11.1325 7.38109 11.1868 7.42699 11.2331L8.9718 12.7775Z" fill="#ECF0F1"/>
</svg>
