<svg width="40" height="40" viewBox="0 0 40 40" fill="none" xmlns="http://www.w3.org/2000/svg">
<path d="M32.5144 27.4845L32.5141 20H30.0996H26.9215H9.91217L9.91211 29.8965C9.91211 31.2299 10.9928 32.3109 12.3262 32.311L27.685 32.3131C29.0186 32.3133 30.0997 31.2324 30.0999 29.899C31.4335 29.8991 32.5145 28.8181 32.5144 27.4845Z" fill="#F05434"/>
<path d="M32.5135 12.5153C32.5135 11.1818 31.4325 10.1009 30.099 10.1009C30.0989 8.76744 29.0181 7.68657 27.6846 7.68677C27.4439 7.68677 27.1887 7.68684 26.9212 7.68684C22.8737 7.68737 15.9686 7.68837 12.3259 7.68884C10.9926 7.68904 9.91217 8.76997 9.91217 10.1033C8.57897 10.1037 7.49845 11.1848 7.49845 12.518L7.49817 20L7.49805 27.4818C7.49805 28.8151 8.57877 29.896 9.91217 29.8963L24.5064 29.8983C25.84 29.8985 26.9212 28.8174 26.9212 27.4839V20H30.0994H32.5137L32.5135 12.5153Z" fill="#FF983B"/>
<path d="M26.9216 10.1009C26.9216 8.76744 25.841 7.68657 24.5075 7.68677C20.5056 7.68731 15.3165 7.68797 12.3262 7.68851C10.9929 7.68864 9.9126 8.76957 9.9126 10.1029C9.91246 10.1029 9.91272 10.1029 9.9126 10.1029L26.9216 10.1009Z" fill="#FFCF5D"/>
<path d="M7.4986 27.481C3.36406 27.481 0 24.1248 0 19.9995C0 15.8744 3.36391 12.518 7.49874 12.518L32.5143 12.5146C36.6421 12.5146 40 15.8724 40 19.9995C40 24.1266 36.642 27.4844 32.5145 27.4844L7.4986 27.481Z" fill="#EC4B62"/>
<path d="M7.49854 25.0666C4.69485 25.0666 2.41406 22.7936 2.41406 19.9996C2.41406 17.2057 4.69485 14.9326 7.49848 14.9326L32.5141 14.9292C35.3101 14.9292 37.5851 17.2037 37.5851 19.9996C37.5851 22.7953 35.3104 25.0699 32.5141 25.0699L7.49854 25.0666Z" fill="#FFCF5D"/>
<path d="M4.66699 17.4939H5.75472C6.12603 17.4939 6.39687 17.5813 6.56724 17.756C6.73759 17.9264 6.82279 18.1906 6.82279 18.5489V18.7323C6.82279 18.9683 6.78345 19.1604 6.70485 19.309C6.63058 19.4574 6.51482 19.5645 6.35755 19.63V19.6431C6.71579 19.7654 6.89485 20.0843 6.89485 20.5998V20.993C6.89485 21.3468 6.80093 21.6176 6.6131 21.8055C6.42963 21.989 6.15879 22.0808 5.80058 22.0808H4.66699V17.4939ZM5.66954 19.3614C5.81369 19.3614 5.92072 19.3243 5.9906 19.25C6.06487 19.1758 6.102 19.0513 6.102 18.8765V18.6209C6.102 18.4549 6.07143 18.3348 6.01027 18.2605C5.95348 18.1863 5.86174 18.1491 5.73505 18.1491H5.38777V19.3614H5.66954ZM5.80058 21.4254C5.92727 21.4254 6.02119 21.3926 6.08234 21.3271C6.1435 21.2573 6.17408 21.1393 6.17408 20.9733V20.5736C6.17408 20.3639 6.13695 20.2198 6.06269 20.1411C5.99279 20.0581 5.87485 20.0166 5.70885 20.0166H5.38777V21.4254H5.80058Z" fill="#EC4B62"/>
<path d="M7.31592 17.4939H9.28166V18.1491H8.03672V19.3614H9.02612V20.0166H8.03672V21.4254H9.28166V22.0808H7.31592V17.4939Z" fill="#EC4B62"/>
<path d="M10.2599 18.1491H9.50635V17.4939H11.7342V18.1491H10.9807V22.0808H10.2599V18.1491Z" fill="#EC4B62"/>
<path d="M12.7101 18.1491H11.9565V17.4939H14.1844V18.1491H13.4309V22.0808H12.7101V18.1491Z" fill="#EC4B62"/>
<path d="M14.5337 17.4939H15.2544V22.0808H14.5337V17.4939Z" fill="#EC4B62"/>
<path d="M15.7944 17.4939H16.6988L17.3999 20.2394H17.4129V17.4939H18.0551V22.0808H17.3147L16.4498 18.7323H16.4366V22.0808H15.7944V17.4939Z" fill="#EC4B62"/>
<path d="M19.6126 22.1459C19.2632 22.1459 18.9967 22.0475 18.8132 21.851C18.6298 21.65 18.5381 21.3639 18.5381 20.9926V18.5812C18.5381 18.2099 18.6298 17.926 18.8132 17.7294C18.9967 17.5285 19.2632 17.428 19.6126 17.428C19.9621 17.428 20.2286 17.5285 20.4121 17.7294C20.5956 17.926 20.6873 18.2099 20.6873 18.5812V18.9744H20.0058V18.5354C20.0058 18.2339 19.8813 18.0832 19.6323 18.0832C19.3833 18.0832 19.2588 18.2339 19.2588 18.5354V21.045C19.2588 21.342 19.3833 21.4906 19.6323 21.4906C19.8813 21.4906 20.0058 21.342 20.0058 21.045V20.1472H19.6455V19.492H20.6873V20.9926C20.6873 21.3639 20.5956 21.65 20.4121 21.851C20.2286 22.0475 19.9621 22.1459 19.6126 22.1459Z" fill="#EC4B62"/>
<path d="M23.2224 22.1459C22.8731 22.1459 22.6066 22.0475 22.4231 21.851C22.2397 21.65 22.1479 21.3639 22.1479 20.9926V18.5812C22.1479 18.2099 22.2397 17.926 22.4231 17.7294C22.6066 17.5285 22.8731 17.428 23.2224 17.428C23.5719 17.428 23.8385 17.5285 24.022 17.7294C24.2053 17.926 24.2971 18.2099 24.2971 18.5812V18.9744H23.6157V18.5354C23.6157 18.2339 23.4912 18.0832 23.2422 18.0832C22.9932 18.0832 22.8686 18.2339 22.8686 18.5354V21.045C22.8686 21.342 22.9932 21.4906 23.2422 21.4906C23.4912 21.4906 23.6157 21.342 23.6157 21.045V20.1472H23.2552V19.492H24.2971V20.9926C24.2971 21.3639 24.2053 21.65 24.022 21.851C23.8385 22.0475 23.5719 22.1459 23.2224 22.1459Z" fill="#EC4B62"/>
<path d="M25.3168 17.4939H26.2931L27.0401 22.0808H26.3193L26.1883 21.1699V21.183H25.3692L25.2382 22.0808H24.5698L25.3168 17.4939ZM26.1031 20.5605L25.7821 18.2933H25.769L25.4543 20.5605H26.1031Z" fill="#EC4B62"/>
<path d="M27.3896 17.4939H28.4184L28.877 20.7768H28.8901L29.3489 17.4939H30.3776V22.0808H29.6961V18.6079H29.683L29.1589 22.0808H28.556L28.0318 18.6079H28.0186V22.0808H27.3896V17.4939Z" fill="#EC4B62"/>
<path d="M30.9155 17.4939H32.8814V18.1491H31.6364V19.3614H32.6258V20.0166H31.6364V21.4254H32.8814V22.0808H30.9155V17.4939Z" fill="#EC4B62"/>
<path d="M34.2456 22.1459C33.8961 22.1459 33.6318 22.0475 33.4527 21.851C33.2736 21.65 33.1841 21.3639 33.1841 20.9926V20.7305H33.8655V21.045C33.8655 21.342 33.9901 21.4906 34.2391 21.4906C34.3613 21.4906 34.4531 21.4556 34.5142 21.3857C34.5798 21.3115 34.6125 21.1935 34.6125 21.0319C34.6125 20.8396 34.5688 20.6715 34.4815 20.5272C34.3941 20.3787 34.2325 20.2019 33.9966 19.9966C33.6995 19.7345 33.4921 19.4986 33.3741 19.2889C33.2562 19.0749 33.1972 18.8346 33.1972 18.5681C33.1972 18.2055 33.289 17.926 33.4723 17.7294C33.6558 17.5285 33.9223 17.428 34.2717 17.428C34.617 17.428 34.8768 17.5285 35.0516 17.7294C35.2306 17.926 35.3202 18.2099 35.3202 18.5812V18.7712H34.6387V18.5354C34.6387 18.3781 34.6082 18.2645 34.547 18.1946C34.4858 18.1204 34.3963 18.0832 34.2783 18.0832C34.0381 18.0832 33.918 18.2296 33.918 18.5222C33.918 18.6882 33.9616 18.8432 34.049 18.9875C34.1407 19.1316 34.3046 19.3064 34.5405 19.5117C34.8418 19.7737 35.0493 20.0119 35.163 20.2259C35.2765 20.44 35.3333 20.6911 35.3333 20.9795C35.3333 21.3551 35.2393 21.6435 35.0516 21.8444C34.8681 22.0454 34.5995 22.1459 34.2456 22.1459Z" fill="#EC4B62"/>
</svg>
