<svg width="16" height="15" viewBox="0 0 16 15" fill="none" xmlns="http://www.w3.org/2000/svg">
<path d="M0.00158158 14.6701L4.00565 10.6265C2.12027 8.05707 2.99495 5.31994 4.38763 3.95731C5.29711 3.04941 6.55218 2.48791 7.93854 2.48791C9.11216 2.48791 10.1917 2.88966 11.0466 3.56346L11.0355 3.55556L12.7959 1.80387C10.5824 -0.429492 6.00887 -0.631949 3.55249 1.43691C3.59678 1.51441 3.66321 1.58796 3.71541 1.67258C3.63553 1.72241 2.18512 3.16962 2.01904 3.327C1.9874 3.29616 1.83477 3.18069 1.80314 3.14985C0.498235 5.10483 0.0806666 7.2164 0.707019 9.50986C0.860444 10.0223 0.949019 10.6107 0.949019 11.2197C0.949019 11.8215 0.862816 12.4036 0.702274 12.9532L0.713346 12.9097C0.534614 13.5218 0.235673 14.0984 0 14.6694L0.00158158 14.6701Z" fill="white"/>
<path d="M8.35666 8.53954C8.26334 8.587 8.13364 8.68822 8.13127 8.76731C8.11308 9.41106 8.12178 10.0556 8.12178 10.7326C9.17282 10.6219 9.97711 10.1829 10.5663 9.37468C11.006 8.77838 11.2702 8.02945 11.2702 7.21883C11.2702 6.94677 11.2401 6.68105 11.1839 6.4264L11.1887 6.45091C10.9862 5.43784 10.242 4.73556 9.27642 4.33697C8.82089 4.14875 8.3883 3.96211 8.12178 3.48918C8.12178 4.38838 8.11624 5.28836 8.13127 6.18756C8.13285 6.26902 8.25306 6.38053 8.3448 6.42323C8.79479 6.63597 9.03205 6.98157 9.03521 7.47585C9.03837 7.97013 8.79875 8.31811 8.35825 8.54033L8.35666 8.53954Z" fill="white"/>
<path d="M7.70302 6.33777V4.25467C6.73344 4.30687 5.88644 4.79087 5.34629 5.51687L5.33996 5.52557C4.87336 6.12582 4.59182 6.89057 4.59182 7.72018C4.59182 8.01753 4.6282 8.30619 4.69621 8.58299L4.69068 8.55847C4.91528 9.56839 5.66263 10.258 6.62351 10.6542C7.07351 10.8393 7.47447 11.0473 7.69037 11.5281C7.72121 10.606 7.72754 9.69572 7.71172 8.78545C7.71014 8.70636 7.58123 8.60276 7.48791 8.55689C7.07746 8.35444 6.83704 8.04205 6.79987 7.58257C6.75479 7.02502 7.01261 6.66914 7.70302 6.33777Z" fill="white"/>
<path d="M15.1367 2.09019C15.3146 1.47886 15.6144 0.902334 15.85 0.33055L11.846 4.37338C13.7314 6.94285 12.8567 9.67997 11.464 11.0426C10.5545 11.9505 9.29944 12.512 7.91229 12.512C6.73867 12.512 5.65916 12.1103 4.80425 11.4364L4.81532 11.4444L3.05489 13.1961C5.26848 15.4294 9.84196 15.6319 12.2983 13.563C12.254 13.4855 12.1876 13.412 12.1354 13.3274C12.2153 13.2775 13.6657 11.8303 13.8318 11.6729C13.8634 11.7038 14.0161 11.8192 14.0477 11.8501C15.3526 9.89508 15.7702 7.78352 15.1438 5.49006C14.9904 4.97759 14.9018 4.3892 14.9018 3.78024C14.9018 3.17841 14.988 2.59634 15.1486 2.04669L15.1367 2.09019Z" fill="white"/>
</svg>
