<svg width="40" height="40" viewBox="0 0 40 40" fill="none" xmlns="http://www.w3.org/2000/svg">
<path d="M27.7136 12.3434C27.7136 5.53729 22.1763 0 15.3701 0C8.56402 0 3.02678 5.53729 3.02678 12.3434V20.9712H27.7136V12.3434Z" fill="#DE5C6E"/>
<path d="M6.11709 9.92896C5.08227 9.92896 4.08996 10.1144 3.17138 10.4533C3.07631 11.0697 3.02678 11.7009 3.02678 12.3434V20.9712H27.7136V12.3434C27.7136 11.7008 27.6641 11.0697 27.5691 10.4533C26.6505 10.1144 25.6581 9.92896 24.6233 9.92896H6.11709Z" fill="#D5364C"/>
<path d="M21.8446 18.8218C25.422 15.2443 25.422 9.44405 21.8446 5.86662C18.2672 2.28915 12.467 2.28915 8.88946 5.86662C5.31204 9.44405 5.31204 15.2443 8.88946 18.8218C12.467 22.3992 18.2672 22.3992 21.8446 18.8218Z" fill="#F5EA72"/>
<path d="M19.1132 13.4184L20.8584 10.2309C21.112 9.76759 20.784 9.2002 20.256 9.18894L17.4686 9.12881L15.9749 6.61279C15.702 6.15328 15.0369 6.15328 14.7641 6.61279L13.2704 9.12881L10.483 9.18894C9.95485 9.20034 9.627 9.76759 9.88065 10.2309L11.6258 13.4184H19.1132Z" fill="#F3A977"/>
<path d="M27.7136 22.9145H3.02678V37.2638C3.02678 38.7748 4.25183 39.9999 5.76295 39.9999H24.9774C26.4886 39.9999 27.7136 38.7748 27.7136 37.2638V22.9145Z" fill="#DE5C6E"/>
<path d="M33.5664 22.5163H25.8848C24.8276 22.5163 23.9706 21.6593 23.9706 20.6021C23.9706 19.5449 24.8276 18.6878 25.8848 18.6878H33.5664C33.9526 18.6878 34.2667 18.3737 34.2667 17.9876V10.3027C34.2667 9.24551 35.1237 8.38847 36.1809 8.38847C37.2382 8.38847 38.0953 9.24551 38.0953 10.3027V17.9876C38.0953 20.4846 36.0636 22.5163 33.5664 22.5163Z" fill="#D4D4FF"/>
<path d="M36.1807 13.6329C38.2895 13.6329 39.9992 11.9234 39.9992 9.81442C39.9992 7.70554 38.2895 5.99595 36.1807 5.99595C34.0717 5.99595 32.362 7.70554 32.362 9.81442C32.362 11.9234 34.0717 13.6329 36.1807 13.6329Z" fill="#F3A977"/>
<path d="M3.02686 30.696C3.98558 31.0699 5.02775 31.2754 6.11717 31.2754H24.6234C25.7127 31.2754 26.755 31.0699 27.7137 30.696V22.9145H3.02678L3.02686 30.696Z" fill="#D5364C"/>
<path d="M6.11704 28.8602C2.74407 28.8602 0 26.1161 0 22.7431V18.4604C0 15.0875 2.74407 12.3434 6.11704 12.3434H24.6233C27.9962 12.3434 30.7403 15.0875 30.7403 18.4604V22.7431C30.7403 26.1161 27.9962 28.8602 24.6233 28.8602H6.11704Z" fill="#A78CD6"/>
<path d="M24.6229 16.4828H19.1134L15.3696 17.3721L11.626 16.4828H6.11665C5.02417 16.4828 4.13857 17.3684 4.13857 18.4608V22.7435C4.13857 23.8359 5.02417 24.7216 6.11665 24.7216H11.626L15.3696 23.8323L19.1134 24.7216H24.6229C25.7152 24.7216 26.6008 23.8359 26.6008 22.7435V18.4608C26.6008 17.3684 25.7152 16.4828 24.6229 16.4828Z" fill="white"/>
<path d="M11.6262 16.4828H19.1135V24.7216H11.6262V16.4828Z" fill="#D4D4FF"/>
<path d="M7.45961 22.6895C7.38087 22.6895 7.30088 22.6736 7.22415 22.6399C6.92789 22.5096 6.79329 22.1639 6.92356 21.8676L7.88314 19.6846H7.12774C6.80415 19.6846 6.54183 19.4223 6.54183 19.0987C6.54183 18.7751 6.80415 18.5127 7.12774 18.5127H8.78078C8.97864 18.5127 9.16323 18.6127 9.27137 18.7783C9.37956 18.9441 9.39676 19.1533 9.3171 19.3345L7.99626 22.3393C7.89986 22.5589 7.685 22.6895 7.45961 22.6895Z" fill="#6171A3"/>
<path d="M14.8754 22.6895C14.7966 22.6895 14.7166 22.6736 14.6399 22.6399C14.3437 22.5096 14.209 22.1639 14.3393 21.8676L15.299 19.6846H14.5437C14.22 19.6846 13.9577 19.4223 13.9577 19.0987C13.9577 18.7751 14.22 18.5127 14.5437 18.5127H16.1966C16.3945 18.5127 16.579 18.6127 16.6872 18.7783C16.7953 18.9441 16.8126 19.1533 16.733 19.3345L15.412 22.3393C15.3156 22.5589 15.1008 22.6895 14.8754 22.6895Z" fill="#6171A3"/>
<path d="M22.2915 22.6895C22.2127 22.6895 22.1327 22.6736 22.0559 22.6399C21.7596 22.5096 21.625 22.1639 21.7552 21.8676L22.715 19.6846H21.9595C21.6357 19.6846 21.3735 19.4223 21.3735 19.0987C21.3735 18.7751 21.6357 18.5127 21.9595 18.5127H23.6124C23.8104 18.5127 23.9949 18.6127 24.1032 18.7783C24.2113 18.9441 24.2286 19.1533 24.1488 19.3345L22.828 22.3393C22.7316 22.5589 22.5168 22.6895 22.2915 22.6895Z" fill="#6171A3"/>
<path d="M11.1654 35.4887C11.1659 36.5702 10.0655 37.4475 8.70735 37.4482C7.34932 37.4489 6.24794 36.5727 6.24741 35.4912C6.24686 34.4099 7.34732 33.5325 8.70542 33.5319C10.0634 33.531 11.1648 34.4073 11.1654 35.4887Z" fill="#EDA1AB"/>
<path d="M19.5752 35.4852C19.5758 36.5667 20.6772 37.4428 22.0351 37.4422C23.3932 37.4414 24.4937 36.5642 24.4932 35.4827C24.4926 34.4014 23.3912 33.5252 22.0333 33.5258C20.6752 33.5265 19.5747 34.4038 19.5752 35.4852Z" fill="#EDA1AB"/>
<path d="M17.7798 34.6012C17.779 33.1116 16.6998 32.9722 15.3687 32.9728C14.0374 32.9735 12.9584 33.114 12.9592 34.6037C12.9599 36.0933 14.0396 37.3002 15.3708 37.2996C16.7021 37.2988 17.7805 36.0908 17.7798 34.6012Z" fill="#565E75"/>
<path d="M20.6573 33.8299C20.6568 33.8299 20.6578 33.8299 20.6573 33.8299C20.3338 33.8293 20.0707 33.5665 20.0713 33.2428L20.0732 32.2771C20.0737 31.954 20.3359 31.6923 20.659 31.6923C20.9825 31.693 21.2455 31.9558 21.245 32.2795L21.2431 33.2452C21.2425 33.5682 20.9804 33.8299 20.6573 33.8299Z" fill="#565E75"/>
<path d="M11.6779 33.7422H11.6765C11.3529 33.7414 11.0911 33.4786 11.0918 33.1551C11.0925 32.8541 10.8481 32.6086 10.5472 32.608H10.5459C10.4006 32.608 10.2639 32.6645 10.1608 32.767C10.0576 32.8698 10.0004 33.0068 10.0002 33.1526C9.99943 33.4757 9.73718 33.7372 9.41432 33.7372H9.41299C9.08939 33.7364 8.8276 33.4736 8.8284 33.15C8.83046 32.2041 9.60072 31.436 10.546 31.436H10.5498C11.4969 31.438 12.2658 32.2102 12.2638 33.1573C12.2631 33.4807 12.0008 33.7422 11.6779 33.7422Z" fill="#565E75"/>
</svg>
