<svg width="32" height="32" viewBox="0 0 32 32" fill="none" xmlns="http://www.w3.org/2000/svg">
<path d="M11.1195 18.6524C10.9359 18.6749 10.7524 18.6968 10.5688 18.717C10.2606 18.7518 10.0388 19.0297 10.0731 19.3374C10.1056 19.6242 10.3482 19.8364 10.6305 19.8364C10.6513 19.8364 10.6721 19.8353 10.6934 19.8331C10.8815 19.8117 11.0696 19.7898 11.2576 19.7663C11.5653 19.7287 11.7842 19.448 11.7455 19.1403C11.7079 18.8327 11.4277 18.6081 11.1195 18.6524Z" fill="#8697CB"/>
<path d="M8.93651 18.8421C8.75855 18.8471 8.57497 18.851 8.3869 18.8522C8.07701 18.8538 7.82718 19.1065 7.82887 19.4169C7.83055 19.7257 8.0815 19.975 8.39027 19.975H8.39364C8.58957 19.9738 8.78101 19.9699 8.96683 19.9649C9.27673 19.9559 9.52094 19.6982 9.51308 19.3883C9.50522 19.0784 9.23574 18.837 8.93651 18.8421Z" fill="#8697CB"/>
<path d="M15.5675 18.0324C15.3794 18.0555 15.1919 18.0807 15.0044 18.106C14.6973 18.1481 14.4817 18.431 14.5238 18.7381C14.562 19.02 14.8028 19.2237 15.0796 19.2237C15.1049 19.2237 15.1301 19.2221 15.1559 19.2187C15.339 19.1934 15.522 19.1693 15.7056 19.1463C16.0132 19.1087 16.2322 18.828 16.1934 18.5203C16.1547 18.2127 15.8774 17.9875 15.5675 18.0324Z" fill="#8697CB"/>
<path d="M6.75054 18.7928C6.57089 18.7793 6.38955 18.7625 6.20822 18.7428C5.90169 18.7091 5.62324 18.932 5.58955 19.2408C5.55586 19.549 5.77875 19.8258 6.08752 19.8594C6.28008 19.8802 6.4732 19.8976 6.66352 19.9128C6.67812 19.9139 6.69327 19.9145 6.70731 19.9145C6.99812 19.9145 7.24401 19.691 7.26647 19.3963C7.29061 19.0864 7.05931 18.8164 6.75054 18.7928Z" fill="#8697CB"/>
<path d="M0.588114 17.5383C0.709377 17.5383 0.832324 17.499 0.9345 17.4182C1.17871 17.2262 1.22025 16.8731 1.02882 16.63C0.929447 16.5042 0.841868 16.3723 0.767201 16.2387C0.726219 16.1652 0.670079 16.1073 0.606079 16.0607C0.412394 16.2527 0.252394 16.484 0.146289 16.7496C0.0929559 16.8826 0.0587103 17.0185 0.0334473 17.1555C0.0727453 17.211 0.103623 17.2706 0.146289 17.3245C0.256886 17.4654 0.421938 17.5383 0.588114 17.5383Z" fill="#8697CB"/>
<path d="M4.60596 18.4851C4.43024 18.4463 4.2562 18.4037 4.08441 18.3576C3.78575 18.2768 3.47754 18.4548 3.39669 18.7545C3.31585 19.0538 3.49382 19.3614 3.79361 19.4423C3.98168 19.4928 4.17199 19.5394 4.36455 19.5815C4.40497 19.5905 4.44596 19.5944 4.48582 19.5944C4.7435 19.5944 4.97592 19.4159 5.03375 19.1537C5.10055 18.8511 4.90911 18.5519 4.60596 18.4851Z" fill="#8697CB"/>
<path d="M2.60155 17.8192C2.44548 17.7439 2.29446 17.6642 2.15018 17.5778C1.88352 17.4194 1.53938 17.5065 1.3805 17.7731C1.22218 18.0398 1.3092 18.3845 1.57587 18.5428C1.74878 18.6456 1.92899 18.7416 2.11481 18.8314C2.19341 18.869 2.27594 18.887 2.3579 18.887C2.56731 18.887 2.76773 18.7696 2.86429 18.5692C2.99846 18.2891 2.88057 17.9539 2.60155 17.8192Z" fill="#8697CB"/>
<path d="M13.3282 18.3446L12.7763 18.426C12.4693 18.4704 12.2565 18.755 12.3014 19.0621C12.3418 19.3417 12.5815 19.5427 12.8561 19.5427C12.883 19.5427 12.91 19.541 12.9375 19.5365L13.4961 19.4545C13.8026 19.4085 14.0137 19.1222 13.9671 18.8157C13.921 18.5091 13.6347 18.298 13.3282 18.3446Z" fill="#8697CB"/>
<path d="M26.7861 18.8578C26.611 18.8499 26.4341 18.8364 26.2562 18.819C25.9356 18.7882 25.6723 19.015 25.642 19.3221C25.6111 19.6308 25.8368 19.9054 26.145 19.9362C26.3437 19.9559 26.5408 19.971 26.7356 19.9795C26.7446 19.98 26.7524 19.98 26.7614 19.98C27.0595 19.98 27.3088 19.7448 27.3217 19.4439C27.3357 19.134 27.096 18.8712 26.7861 18.8578Z" fill="#8697CB"/>
<path d="M28.8007 18.6438C28.6485 18.6954 28.4908 18.7364 28.328 18.7689C28.0242 18.8296 27.8266 19.1254 27.8878 19.4297C27.9412 19.6969 28.1758 19.8811 28.4374 19.8811C28.4734 19.8811 28.511 19.8777 28.548 19.8699C28.7619 19.8272 28.9668 19.7727 29.1588 19.7087C29.4525 19.6094 29.6108 19.2911 29.512 18.9969C29.4137 18.7038 29.0982 18.5466 28.8007 18.6438Z" fill="#8697CB"/>
<path d="M31.028 17.3642C30.7681 17.1969 30.4195 17.2721 30.2522 17.5326C30.1668 17.6651 30.072 17.7892 29.9687 17.9015C29.7598 18.1305 29.7755 18.4853 30.004 18.6947C30.1118 18.793 30.2477 18.8418 30.383 18.8418C30.5351 18.8418 30.6867 18.7806 30.7973 18.6594C30.9427 18.5005 31.0769 18.3253 31.1959 18.1401C31.3637 17.879 31.2891 17.5321 31.028 17.3642Z" fill="#8697CB"/>
<path d="M30.826 16.0058C30.8164 16.0575 30.8058 16.108 30.7945 16.1574C30.7266 16.4595 30.9164 16.7604 31.219 16.8283C31.2605 16.8378 31.3015 16.8418 31.343 16.8418C31.3778 16.8418 31.4104 16.8306 31.4441 16.8244C31.4216 16.4303 31.3599 16.0103 31.2543 15.564C31.0432 15.6129 30.8686 15.7796 30.826 16.0058Z" fill="#8697CB"/>
<path d="M20.1517 17.7801L19.981 17.7723C19.8412 17.7672 19.7015 17.7639 19.5611 17.7622C19.2652 17.7352 18.9969 18.0064 18.993 18.3168C18.989 18.6267 19.2377 18.881 19.5476 18.885C19.6801 18.8867 19.8126 18.89 19.9445 18.894L20.0798 18.9007C20.0916 18.9013 20.104 18.9018 20.1158 18.9018C20.4094 18.9018 20.6564 18.6733 20.6755 18.3758C20.6963 18.067 20.4616 17.7998 20.1517 17.7801Z" fill="#8697CB"/>
<path d="M17.8337 17.8086C17.644 17.8215 17.4548 17.8355 17.2656 17.8507C16.9563 17.8765 16.7266 18.1471 16.7519 18.4565C16.7766 18.7495 17.0214 18.9718 17.3111 18.9718C17.3262 18.9718 17.3419 18.9713 17.3577 18.9701C17.5412 18.955 17.7248 18.9409 17.909 18.9292C18.2183 18.9084 18.4524 18.64 18.4316 18.3313C18.4108 18.0225 18.1577 17.7946 17.8337 17.8086Z" fill="#8697CB"/>
<path d="M22.4469 18.1278C22.2571 18.0896 22.0713 18.052 21.8877 18.0183C21.584 17.9616 21.2898 18.1614 21.2326 18.4663C21.1747 18.7711 21.3757 19.0642 21.6806 19.1214C21.8585 19.1557 22.0404 19.1916 22.2246 19.2287C22.2616 19.2365 22.2998 19.2399 22.3363 19.2399C22.5979 19.2399 22.832 19.0563 22.8859 18.7896C22.9471 18.4859 22.7506 18.1895 22.4469 18.1278Z" fill="#8697CB"/>
<path d="M24.6395 18.5784C24.4581 18.5436 24.2762 18.5082 24.0943 18.4723C23.7867 18.4083 23.4942 18.6087 23.4336 18.9124C23.3729 19.2167 23.57 19.512 23.8737 19.5732C24.0595 19.6103 24.2459 19.6473 24.4317 19.6816C24.4671 19.6883 24.5014 19.6917 24.5362 19.6917C24.8011 19.6917 25.0369 19.5036 25.0869 19.2341C25.1447 18.9287 24.9443 18.6351 24.6395 18.5784Z" fill="#8697CB"/>
<path d="M31.3434 16.842C31.3025 16.842 31.2615 16.8375 31.2194 16.8285C30.9168 16.7606 30.727 16.4597 30.7949 16.1576C30.8062 16.1082 30.8168 16.0577 30.8264 16.006C30.8691 15.7798 31.0431 15.6136 31.2547 15.5642C31.2255 15.4418 31.1969 15.32 31.161 15.1943C31.1234 15.0612 31.0695 14.9354 31.0161 14.8114L29.6615 11.2088C29.4184 10.5621 28.5544 10.4437 28.1462 11.0011C27.4018 12.0184 26.2004 12.7572 24.9406 12.71H22.4643L20.2187 10.2017C19.7622 9.87609 19.1722 9.81096 18.658 10.0338C17.7356 10.4336 16.6858 11.1488 15.4372 11.9404L18.3862 15.1364C18.5962 15.3638 18.5822 15.7192 18.3537 15.9297C18.2459 16.0291 18.1095 16.0785 17.9731 16.0785C17.8215 16.0785 17.671 16.0178 17.5604 15.8977L14.5412 12.6253C14.5154 12.5972 14.5036 12.563 14.4845 12.5321C14.0674 12.7836 13.6289 13.0373 13.1669 13.286L15.5629 15.6821C15.7825 15.9016 15.7825 16.2564 15.5629 16.4759C15.4535 16.5854 15.3098 16.6404 15.166 16.6404C15.0223 16.6404 14.8786 16.5854 14.7691 16.4759L12.2428 13.9496C12.199 13.9058 12.1709 13.8542 12.1451 13.802C11.7387 13.9968 11.3187 14.1865 10.8775 14.3645L12.7565 16.2435C12.976 16.463 12.976 16.8178 12.7565 17.0373C12.647 17.1468 12.5033 17.2018 12.3596 17.2018C12.2159 17.2018 12.0721 17.1468 11.9627 17.0373L9.90344 14.9781C9.84225 14.9169 9.80239 14.8439 9.77544 14.767C9.29432 14.9287 8.79804 15.0797 8.27537 15.2094C7.66344 15.361 7.03186 15.4351 6.4014 15.5171H2.08813C1.51943 15.4626 0.991708 15.6787 0.606585 16.0605C0.670585 16.1071 0.726726 16.1649 0.767708 16.2385C0.842375 16.3721 0.929954 16.5046 1.02932 16.6298C1.22076 16.8734 1.17922 17.2265 0.935006 17.418C0.832269 17.4988 0.709884 17.5381 0.58862 17.5381C0.422447 17.5381 0.257394 17.4646 0.146797 17.3237C0.104692 17.2698 0.0738151 17.2103 0.0339554 17.1547C-0.11201 17.9586 0.218096 18.7923 0.918726 19.2594C0.94062 19.274 0.963077 19.2886 0.985533 19.3037C3.52027 20.9773 6.46091 21.7043 9.48519 21.4208C11.6281 21.2204 14.9291 20.8717 17.4094 20.4305C18.8921 20.1666 20.4107 20.198 21.8771 20.5427L24.8042 21.2316L24.8435 21.2451C24.8811 21.2585 24.9199 21.2714 24.9586 21.2838C27.792 22.1826 31.6786 20.8678 31.4456 16.8246C31.4108 16.8313 31.3788 16.842 31.3434 16.842ZM2.86455 18.5688C2.76799 18.7693 2.56757 18.8866 2.35816 18.8866C2.2762 18.8866 2.19367 18.8692 2.11508 18.831C1.92925 18.7418 1.74904 18.6452 1.57613 18.5425C1.30946 18.3841 1.22244 18.0394 1.38076 17.7728C1.53964 17.5061 1.88378 17.4191 2.15044 17.5774C2.29473 17.6633 2.44518 17.7436 2.60181 17.8188C2.88083 17.9541 2.99873 18.2893 2.86455 18.5688ZM5.03381 19.1538C4.97599 19.416 4.74357 19.5945 4.48588 19.5945C4.44602 19.5945 4.40504 19.59 4.36462 19.5816C4.17206 19.5395 3.98174 19.4929 3.79367 19.4424C3.49388 19.3616 3.31592 19.0545 3.39676 18.7547C3.4776 18.4549 3.78525 18.2769 4.08448 18.3578C4.25627 18.4038 4.42974 18.4459 4.60602 18.4852C4.90918 18.552 5.10062 18.8512 5.03381 19.1538ZM6.70793 19.914C6.69389 19.914 6.67874 19.9134 6.66414 19.9123C6.47326 19.8977 6.28014 19.8797 6.08814 19.859C5.77937 19.8253 5.55704 19.5485 5.59016 19.2403C5.62386 18.9315 5.90232 18.7092 6.20884 18.7423C6.39018 18.762 6.57151 18.7783 6.75116 18.7923C7.05993 18.8159 7.29123 19.0859 7.26765 19.3952C7.24463 19.69 6.99818 19.914 6.70793 19.914ZM8.96758 19.9651C8.78175 19.9701 8.58976 19.974 8.39439 19.9752H8.39102C8.08225 19.9752 7.8313 19.7259 7.82961 19.4171C7.82793 19.1067 8.07775 18.854 8.38765 18.8524C8.57572 18.8512 8.75874 18.8473 8.93726 18.8423C9.23649 18.8372 9.50597 19.078 9.51383 19.3885C9.52168 19.699 9.27747 19.9561 8.96758 19.9651ZM11.2581 19.7663C11.07 19.7899 10.882 19.8118 10.6939 19.8331C10.6726 19.8354 10.6518 19.8365 10.631 19.8365C10.3486 19.8365 10.1055 19.6243 10.0735 19.3374C10.0387 19.0292 10.2611 18.7513 10.5693 18.7171C10.7528 18.6968 10.9364 18.675 11.12 18.6525C11.4282 18.6081 11.7084 18.8327 11.746 19.1404C11.7841 19.448 11.5658 19.7287 11.2581 19.7663ZM13.4964 19.4542L12.9378 19.5361C12.9103 19.5406 12.8834 19.5423 12.8564 19.5423C12.5819 19.5423 12.3422 19.3413 12.3018 19.0618C12.2568 18.7547 12.4696 18.47 12.7767 18.4257L13.3286 18.3443C13.6351 18.2977 13.9214 18.5088 13.9674 18.8153C14.014 19.1224 13.8029 19.4081 13.4964 19.4542ZM15.7061 19.1471C15.5225 19.1701 15.3395 19.1943 15.1565 19.2195C15.1307 19.2229 15.1054 19.2246 15.0801 19.2246C14.8034 19.2246 14.5625 19.0208 14.5244 18.739C14.4828 18.4319 14.6984 18.1489 15.0049 18.1068C15.1924 18.0816 15.3799 18.0563 15.568 18.0333C15.8779 17.9884 16.1558 18.2135 16.194 18.5211C16.2321 18.8288 16.0138 19.1089 15.7061 19.1471ZM17.9096 18.9293C17.7255 18.9411 17.5419 18.9551 17.3583 18.9703C17.3426 18.9714 17.3269 18.9719 17.3117 18.9719C17.022 18.9719 16.7773 18.7496 16.7526 18.4566C16.7273 18.1472 16.9569 17.8766 17.2662 17.8508C17.4554 17.8357 17.6446 17.8216 17.8344 17.8087C18.1583 17.7952 18.4115 18.022 18.4323 18.3314C18.4531 18.6407 18.2184 18.9085 17.9096 18.9293ZM20.1165 18.9018C20.1047 18.9018 20.0924 18.9012 20.0806 18.9006L19.9453 18.8939C19.8133 18.89 19.6808 18.8866 19.5484 18.8849C19.2379 18.881 18.9898 18.6267 18.9937 18.3168C18.9976 18.0058 19.2654 17.7352 19.5618 17.7621C19.7022 17.7638 19.842 17.7672 19.9818 17.7722L20.1524 17.7801C20.4623 17.7997 20.697 18.067 20.6773 18.3763C20.6571 18.6733 20.4107 18.9018 20.1165 18.9018ZM22.3357 19.2397C22.2992 19.2397 22.2611 19.2364 22.224 19.2285C22.0399 19.1914 21.8585 19.155 21.68 19.1213C21.3752 19.064 21.1747 18.771 21.232 18.4661C21.2893 18.1613 21.5834 17.962 21.8872 18.0181C22.0707 18.0524 22.2566 18.0894 22.4463 18.1276C22.75 18.1888 22.9471 18.4858 22.8853 18.7895C22.8314 19.0561 22.5973 19.2397 22.3357 19.2397ZM24.5364 19.6911C24.5016 19.6911 24.4674 19.6877 24.432 19.681C24.2462 19.6462 24.0598 19.6097 23.874 19.5726C23.5702 19.512 23.3726 19.2161 23.4338 18.9119C23.4939 18.6081 23.7869 18.4077 24.0946 18.4717C24.2759 18.5077 24.4578 18.5436 24.6397 18.5778C24.9446 18.6351 25.145 18.9281 25.0877 19.233C25.0372 19.503 24.8014 19.6911 24.5364 19.6911ZM26.7618 19.9802C26.7528 19.9802 26.745 19.9802 26.736 19.9797C26.5412 19.9707 26.3447 19.9561 26.1454 19.9364C25.8366 19.9056 25.6115 19.631 25.6424 19.3223C25.6727 19.0146 25.9354 18.7884 26.2566 18.8192C26.4345 18.8366 26.6119 18.8507 26.7865 18.858C27.0964 18.8714 27.3361 19.1342 27.3221 19.4441C27.3092 19.745 27.0599 19.9802 26.7618 19.9802ZM29.1596 19.7085C28.9676 19.7725 28.7627 19.827 28.5488 19.8696C28.5117 19.8775 28.4741 19.8808 28.4382 19.8808C28.176 19.8808 27.9413 19.6967 27.8886 19.4295C27.8279 19.1252 28.025 18.8299 28.3287 18.7687C28.4915 18.7361 28.6493 18.6952 28.8014 18.6435C29.0989 18.5464 29.4145 18.703 29.5133 18.9966C29.6109 19.2903 29.4532 19.6091 29.1596 19.7085ZM31.1969 18.1399C31.0779 18.3252 30.9437 18.5004 30.7983 18.6592C30.6877 18.7805 30.5356 18.8417 30.384 18.8417C30.2487 18.8417 30.1134 18.7928 30.0051 18.6946C29.7766 18.4852 29.7603 18.1304 29.9697 17.9013C30.073 17.7891 30.1679 17.665 30.2532 17.5325C30.4205 17.272 30.7691 17.1968 31.0291 17.3641C31.2895 17.5319 31.3642 17.8789 31.1969 18.1399Z" fill="#38454F"/>
<path d="M17.5605 15.8975C17.6711 16.0176 17.8222 16.0782 17.9732 16.0782C18.1096 16.0782 18.2455 16.0288 18.3538 15.9295C18.5817 15.7189 18.5963 15.3636 18.3864 15.1362L15.4373 11.9401C15.1314 12.1344 14.8164 12.3314 14.4846 12.5313C14.5037 12.5627 14.5155 12.597 14.5413 12.6245L17.5605 15.8975Z" fill="#ECF0F1"/>
<path d="M14.7693 16.4754C14.8788 16.5849 15.0225 16.6399 15.1662 16.6399C15.31 16.6399 15.4537 16.5849 15.5632 16.4754C15.7827 16.2559 15.7827 15.9011 15.5632 15.6816L13.1671 13.2855C12.8398 13.4618 12.4962 13.633 12.1448 13.8015C12.1712 13.8537 12.1992 13.9053 12.2425 13.9491L14.7693 16.4754Z" fill="#ECF0F1"/>
<path d="M11.9624 17.0368C12.0719 17.1463 12.2156 17.2013 12.3594 17.2013C12.5031 17.2013 12.6468 17.1463 12.7563 17.0368C12.9758 16.8173 12.9758 16.4625 12.7563 16.243L10.8773 14.364C10.523 14.5065 10.153 14.6396 9.77466 14.7665C9.80161 14.8434 9.84146 14.9158 9.90266 14.9776L11.9624 17.0368Z" fill="#ECF0F1"/>
</svg>
