<svg width="40" height="40" viewBox="0 0 40 40" fill="none" xmlns="http://www.w3.org/2000/svg">
<path d="M32.0628 15.9753C33.3337 15.9753 34.3631 17.0047 34.3631 18.2756C34.3631 19.5455 33.3337 20.5758 32.0628 20.5758C30.7921 20.5758 29.7627 19.5455 29.7627 18.2756C29.7627 17.0047 30.7922 15.9753 32.0628 15.9753Z" fill="#F95428"/>
<path d="M20.0011 15.9753C21.2709 15.9753 22.3012 17.0047 22.3012 18.2756C22.3012 19.5455 21.2709 20.5758 20.0011 20.5758C18.7303 20.5758 17.7007 19.5455 17.7007 18.2756C17.7007 17.0047 18.7302 15.9753 20.0011 15.9753Z" fill="#2BA5F7"/>
<path d="M7.93646 15.9753C9.20716 15.9753 10.2367 17.0047 10.2367 18.2756C10.2367 19.5455 9.20724 20.5758 7.93646 20.5758C6.66654 20.5758 5.63623 19.5455 5.63623 18.2756C5.63623 17.0047 6.66654 15.9753 7.93646 15.9753Z" fill="#F7B239"/>
<path d="M26.031 18.2756C26.031 21.6071 23.3311 24.3069 19.9999 24.3069C16.6684 24.3069 13.9678 21.6071 13.9678 18.2756C13.9678 14.9444 16.6684 12.2437 19.9999 12.2437C23.3311 12.2437 26.031 14.9444 26.031 18.2756ZM22.3 18.2756C22.3 17.0049 21.2698 15.9755 19.9999 15.9755C18.7291 15.9755 17.6996 17.0049 17.6996 18.2756C17.6996 19.5456 18.729 20.5759 19.9999 20.5759C21.2698 20.5758 22.3 19.5455 22.3 18.2756Z" fill="#F7B239"/>
<path d="M32.0628 12.2437C35.394 12.2437 38.0948 14.9444 38.0948 18.2756C38.0948 21.6071 35.3941 24.3069 32.0628 24.3069C28.7314 24.3069 26.0308 21.6071 26.0308 18.2756C26.0308 14.9444 28.7315 12.2437 32.0628 12.2437ZM34.363 18.2756C34.363 17.0049 33.3335 15.9755 32.0628 15.9755C30.7919 15.9755 29.7625 17.0049 29.7625 18.2756C29.7625 19.5456 30.7919 20.5759 32.0628 20.5759C33.3335 20.5759 34.363 19.5455 34.363 18.2756Z" fill="#2BA5F7"/>
<path d="M13.9675 18.2756C13.9675 21.6071 11.2668 24.3069 7.93545 24.3069C4.60491 24.3069 1.9043 21.6071 1.9043 18.2756C1.9043 14.9444 4.60491 12.2437 7.93545 12.2437C11.2668 12.2437 13.9675 14.9444 13.9675 18.2756ZM10.2357 18.2756C10.2357 17.0049 9.20623 15.9755 7.93545 15.9755C6.66553 15.9755 5.63522 17.0049 5.63522 18.2756C5.63522 19.5456 6.66553 20.5759 7.93545 20.5759C9.20623 20.5758 10.2357 19.5455 10.2357 18.2756Z" fill="#F95428"/>
<path d="M3.59756 18.2756C3.59756 15.2319 5.85256 12.7159 8.78216 12.3041C8.5053 12.2652 8.22302 12.2437 7.93545 12.2437C4.60491 12.2437 1.9043 14.9444 1.9043 18.2756C1.9043 21.6071 4.60491 24.3069 7.93545 24.3069C8.22295 24.3069 8.50536 24.2854 8.78216 24.2465C5.85256 23.8348 3.59756 21.3195 3.59756 18.2756Z" fill="#E54728"/>
<path d="M15.661 18.2756C15.661 15.2319 17.916 12.7159 20.8458 12.3041C20.5688 12.2652 20.2866 12.2437 19.999 12.2437C16.6684 12.2437 13.9678 14.9444 13.9678 18.2756C13.9678 21.6071 16.6684 24.3069 19.999 24.3069C20.2864 24.3069 20.5689 24.2854 20.8458 24.2465C17.916 23.8348 15.661 21.3195 15.661 18.2756Z" fill="#E09B2D"/>
<path d="M27.724 18.2756C27.724 15.2319 29.979 12.7159 32.9086 12.3041C32.6318 12.2652 32.3494 12.2437 32.0619 12.2437C28.7314 12.2437 26.0308 14.9444 26.0308 18.2756C26.0308 21.6071 28.7314 24.3069 32.0619 24.3069C32.3494 24.3069 32.6318 24.2854 32.9086 24.2465C29.979 23.8348 27.724 21.3195 27.724 18.2756Z" fill="#2197D8"/>
<path d="M11.7243 16.17C12.1173 15.777 12.0101 15.0325 11.4848 14.5072C10.9595 13.9818 10.2149 13.8745 9.82184 14.2677C9.42875 14.6608 9.53596 15.4053 10.0613 15.9307C10.5867 16.4559 11.3312 16.5632 11.7243 16.17Z" fill="#F96E53"/>
<path d="M23.9563 16.17C24.3493 15.777 24.2422 15.0324 23.7167 14.5072C23.1914 13.9818 22.4468 13.8745 22.0538 14.2677C21.6607 14.6608 21.7679 15.4053 22.2933 15.9307C22.8185 16.4559 23.5632 16.5632 23.9563 16.17Z" fill="#FCC772"/>
<path d="M36.1895 16.17C36.5827 15.777 36.4754 15.0325 35.9501 14.5072C35.4249 13.9818 34.6802 13.8745 34.2871 14.2677C33.8941 14.6608 34.0012 15.4053 34.5267 15.9307C35.052 16.4559 35.7965 16.5632 36.1895 16.17Z" fill="#55BEF9"/>
<path d="M39.3647 24.1382H0.634766V27.1224H39.3647V24.1382Z" fill="#B27214"/>
<path d="M39.365 27.7571H0.63492C0.28414 27.7571 0 27.4729 0 27.1221V20.523C0 19.1207 1.14086 17.9797 2.5432 17.9797H37.456C38.8587 17.9797 40 19.1206 40 20.523V27.1221C39.9999 27.4729 39.7158 27.7571 39.365 27.7571ZM1.26992 26.4871H38.7301V20.5229C38.7301 19.8207 38.1586 19.2496 37.456 19.2496H2.5432C1.84109 19.2496 1.26992 19.8207 1.26992 20.5229V26.4871Z" fill="#666666"/>
</svg>
