<svg width="9" height="8" viewBox="0 0 9 8" fill="none" xmlns="http://www.w3.org/2000/svg">
<path d="M4.00007 6.28543C3.9312 6.2853 3.86302 6.2715 3.7995 6.24485C3.736 6.21818 3.6784 6.17918 3.63007 6.1301L0.142741 2.6041C0.0506591 2.50345 0.000653222 2.37132 0.00300932 2.23491C0.00536542 2.09851 0.0599043 1.96819 0.155408 1.87077C0.250802 1.77402 0.38031 1.71851 0.516157 1.71614C0.652002 1.71378 0.783367 1.76474 0.882075 1.8581L4.00207 5.01078L7.12207 1.8581C7.22077 1.76474 7.35215 1.71378 7.488 1.71614C7.62385 1.71851 7.75335 1.77402 7.84875 1.87077C7.94425 1.96819 7.99877 2.09851 8.00115 2.23491C8.0035 2.37132 7.9535 2.50345 7.8614 2.6041L4.37207 6.13078C4.32345 6.17998 4.26552 6.21898 4.20165 6.24555C4.13777 6.2721 4.06925 6.28565 4.00007 6.28543Z" fill="#FF6000"/>
</svg>
