<svg width="32" height="32" viewBox="0 0 32 32" fill="none" xmlns="http://www.w3.org/2000/svg">
<path d="M0.420052 17.3944C2.50649 15.4019 5.93662 14.7693 8.40219 15.9205C6.21377 19.0418 4.60156 22.5935 3.70325 26.4183C3.97464 26.7462 4.26101 27.0602 4.55719 27.365C4.63843 27.2884 4.70239 27.1922 4.72774 27.0752C5.57533 23.2238 7.18178 19.6555 9.38058 16.533C10.8528 17.6756 11.5754 19.5563 11.4117 21.9694L11.4093 22.0006L11.4105 22.0322C11.5552 25.5258 13.569 28.7226 16.7969 30.5825C17.8121 31.1679 18.8758 31.5753 19.9465 31.8093C20.9018 31.5776 21.8225 31.2607 22.703 30.8678C20.946 31.0038 19.0861 30.5716 17.3719 29.584C14.4972 27.9274 12.7017 25.1 12.5629 22.015C12.7906 18.5209 11.406 16.6137 10.0714 15.5932C10.9283 14.4725 11.8646 13.4163 12.8706 12.431C16.9928 16.2645 20.8689 20.3705 24.4385 24.7116L26.9237 27.7349L27.8139 27.0026L25.3288 23.9793C21.743 19.6185 17.8513 15.493 13.7125 11.6393C14.5134 10.9138 15.3547 10.2322 16.2322 9.59781C17.6093 11.3385 19.8236 12.1913 22.5912 12.0092C25.1951 12.1274 27.6388 13.5448 29.2999 15.9008C30.5918 17.7332 31.2492 19.9124 31.1836 21.9452C31.5424 21.017 31.8167 20.0472 32 19.0452C31.6589 17.7137 31.0683 16.4091 30.242 15.2371C28.3664 12.5768 25.584 10.9801 22.6084 10.8569L22.5768 10.8556L22.5457 10.858C20.2006 11.0159 18.3429 10.333 17.1898 8.93345C20.1527 6.96457 23.4906 5.51657 27.0746 4.72717C27.1916 4.70124 27.2849 4.6344 27.3615 4.55316C27.0574 4.25814 26.7439 3.97234 26.4172 3.7021C22.8504 4.53991 19.5229 6.00115 16.5589 7.97004C15.4376 5.71824 15.8301 2.55373 17.5195 0.382022L17.754 0.0806684C17.2215 0.0276578 16.6811 0 16.1337 0V0.353788C14.5353 2.88389 14.2973 6.17862 15.6001 8.6344C14.6441 9.32295 13.7304 10.0651 12.8614 10.8569C10.9778 9.13454 9.04983 7.4624 7.06886 5.85883L5.15874 4.3123C4.87525 4.57562 4.60213 4.84874 4.33823 5.13166L6.34399 6.7554C8.28522 8.3267 10.1752 9.96427 12.0225 11.6514C10.9686 12.6874 9.98794 13.7983 9.09248 14.9772C9.02679 14.9438 8.95995 14.9092 8.89715 14.8799C6.16421 13.6001 2.56986 14.1365 0.109479 16.1337H0C0 16.6695 0.0276578 17.1985 0.0783638 17.7205L0.420052 17.3944Z" fill="#38454F"/>
</svg>
