<svg width="40" height="40" viewBox="0 0 40 40" fill="none" xmlns="http://www.w3.org/2000/svg">
<path d="M19.9996 5C10.833 5 3.33301 12.3333 3.33301 21.6666C3.33301 31 10.833 38.3334 19.9996 38.3334C29.1664 38.3334 36.6664 30.8334 36.6664 21.6666C36.6664 12.5 29.333 5 19.9996 5ZM19.9996 36C11.9997 36 5.49968 29.5 5.49968 21.5C5.49968 13.5 11.9997 7.16666 19.9996 7.16666C27.9996 7.16666 34.4996 13.6666 34.4996 21.6666C34.4996 29.6666 27.9996 36 19.9996 36Z" fill="#FF9A9F"/>
<path d="M19.9996 5C10.833 5 3.33301 12.3333 3.33301 21.6666C3.33301 27.1666 5.99968 32 9.99968 35H12.9996C8.16635 32.5 4.99968 27.3334 4.99968 21.6666C4.99968 13.3334 11.833 6.66666 19.9996 6.66666C28.1664 6.66666 34.9996 13.5 34.9996 21.6666C34.9996 27.5 31.6664 32.5 26.9996 35H29.9996C33.9996 32 36.6664 27.1666 36.6664 21.6666C36.6664 12.3333 29.333 5 19.9996 5Z" fill="#94CFFF"/>
<path d="M19.0002 6C11.3335 6.5 5.0002 12.6666 4.5002 20.5C4.16686 25.5 6.16686 30 9.5002 33C9.83354 33.3334 10.0002 33.8334 10.0002 34.3334V35C12.8335 37.1666 16.3335 38.3334 20.0002 38.3334C23.6669 38.3334 27.1669 37.1666 30.0002 35V34.3334C30.0002 33.8334 30.1669 33.5 30.5002 33.1666C33.5002 30.3334 35.5002 26.3334 35.5002 21.6666C35.6669 12.6666 28.1669 5.5 19.0002 6ZM20.0002 36C12.0002 36 5.5002 29.5 5.5002 21.5C5.5002 13.5 12.0002 7.16668 20.0002 7.16668C28.0002 7.16668 34.5003 13.6666 34.5003 21.6666C34.5003 29.6666 28.0002 36 20.0002 36Z" fill="#488BFF"/>
<path d="M13.4999 5.83293L15.8331 6.16627C15.9999 6.16627 15.9999 6.33293 15.8331 6.33293L14.1665 7.99959C14.1665 7.99959 14.1665 7.99959 14.1665 8.16627L14.4999 10.4996C14.4999 10.6663 14.3331 10.6663 14.3331 10.6663L12.1665 9.49959H11.9999L9.99985 10.6663C9.83319 10.6663 9.83319 10.6663 9.83319 10.4996L10.1665 8.16627V7.99959L8.49985 6.33293C8.33319 6.16627 8.49985 6.16627 8.49985 6.16627L10.8332 5.83293H10.9999L11.9999 3.66627C11.9999 3.49959 12.1665 3.49959 12.3332 3.66627L13.4999 5.83293C13.3331 5.83293 13.3331 5.83293 13.4999 5.83293Z" fill="#FFE164"/>
<path d="M13.4999 5.83293L15.8331 6.16627C15.9999 6.16627 15.9999 6.33293 15.8331 6.33293L14.1665 7.99959C14.1665 7.99959 14.1665 7.99959 14.1665 8.16627L14.4999 10.4996C14.4999 10.6663 14.3331 10.6663 14.3331 10.6663L12.1665 9.49959H11.9999L9.99985 10.6663C9.83319 10.6663 9.83319 10.6663 9.83319 10.4996L10.1665 8.16627V7.99959L8.49985 6.33293C8.33319 6.16627 8.49985 6.16627 8.49985 6.16627L10.8332 5.83293H10.9999L11.9999 3.66627C11.9999 3.49959 12.1665 3.49959 12.3332 3.66627L13.4999 5.83293ZM13.4999 5.83293C13.3331 5.83293 13.3331 5.83293 13.4999 5.83293V5.83293Z" fill="#FFE164"/>
<path d="M13.4999 5.83293L15.8331 6.16627C15.9999 6.16627 15.9999 6.33293 15.8331 6.33293L14.1665 7.99959C14.1665 7.99959 14.1665 7.99959 14.1665 8.16627L14.4999 10.4996C14.4999 10.6663 14.3331 10.6663 14.3331 10.6663L12.1665 9.49959H11.9999L9.99985 10.6663C9.83319 10.6663 9.83319 10.6663 9.83319 10.4996L10.1665 8.16627V7.99959L8.49985 6.33293C8.33319 6.16627 8.49985 6.16627 8.49985 6.16627L10.8332 5.83293H10.9999L11.9999 3.66627C11.9999 3.49959 12.1665 3.49959 12.3332 3.66627L13.4999 5.83293ZM13.4999 5.83293C13.3331 5.83293 13.3331 5.83293 13.4999 5.83293Z" stroke="#FFE164" stroke-width="0.9375" stroke-miterlimit="10"/>
<path d="M29.6669 5.83293L32.0001 6.16627C32.1669 6.16627 32.1669 6.33293 32.0001 6.33293L30.3335 7.99959C30.3335 7.99959 30.3335 7.99959 30.3335 8.16627L30.6669 10.4996C30.6669 10.6663 30.5001 10.6663 30.5001 10.6663L28.3335 9.49959H28.1669L26.1669 10.6663C26.0001 10.6663 26.0001 10.6663 26.0001 10.4996L26.3335 8.16627V7.99959L24.6669 6.33293C24.5001 6.16627 24.6669 6.16627 24.6669 6.16627L27.0001 5.83293H27.1669L28.3335 3.66627C28.3335 3.49959 28.5001 3.49959 28.6669 3.66627L29.6669 5.83293Z" fill="#FFE164" stroke="#FFE164" stroke-width="0.9375" stroke-miterlimit="10"/>
<path d="M21.9999 4.50009L24.8331 5.00009C24.9999 5.00009 24.9999 5.16675 24.9999 5.33342L22.8331 7.33342V7.50009L23.3331 10.3334C23.3331 10.5001 23.1665 10.6668 22.9999 10.5001L20.3331 9.16675H20.1665L17.4999 10.5001C17.3331 10.5001 17.1665 10.5001 17.1665 10.3334L17.6665 7.50009V7.33342L15.6665 5.33342C15.6665 5.16675 15.6665 5.00009 15.8331 5.00009L18.6665 4.50009C18.6665 4.50009 18.8333 4.50009 18.8333 4.33342L20.1665 1.66675C20.1665 1.50008 20.4999 1.50008 20.4999 1.66675L21.9999 4.50009C21.8331 4.50009 21.8331 4.50009 21.9999 4.50009Z" fill="#FFE164"/>
<path d="M21.9999 4.50009L24.8331 5.00009C24.9999 5.00009 24.9999 5.16675 24.9999 5.33342L22.8331 7.33342V7.50009L23.3331 10.3334C23.3331 10.5001 23.1665 10.6668 22.9999 10.5001L20.3331 9.16675H20.1665L17.4999 10.5001C17.3331 10.5001 17.1665 10.5001 17.1665 10.3334L17.6665 7.50009V7.33342L15.6665 5.33342C15.6665 5.16675 15.6665 5.00009 15.8331 5.00009L18.6665 4.50009C18.6665 4.50009 18.8333 4.50009 18.8333 4.33342L20.1665 1.66675C20.1665 1.50008 20.4999 1.50008 20.4999 1.66675L21.9999 4.50009ZM21.9999 4.50009C21.8331 4.50009 21.8331 4.50009 21.9999 4.50009V4.50009Z" fill="#FFE164"/>
<path d="M21.9999 4.50009L24.8331 5.00009C24.9999 5.00009 24.9999 5.16675 24.9999 5.33342L22.8331 7.33342V7.50009L23.3331 10.3334C23.3331 10.5001 23.1665 10.6668 22.9999 10.5001L20.3331 9.16675H20.1665L17.4999 10.5001C17.3331 10.5001 17.1665 10.5001 17.1665 10.3334L17.6665 7.50009V7.33342L15.6665 5.33342C15.6665 5.16675 15.6665 5.00009 15.8331 5.00009L18.6665 4.50009C18.6665 4.50009 18.8333 4.50009 18.8333 4.33342L20.1665 1.66675C20.1665 1.50008 20.4999 1.50008 20.4999 1.66675L21.9999 4.50009ZM21.9999 4.50009C21.8331 4.50009 21.8331 4.50009 21.9999 4.50009Z" stroke="#FFE164" stroke-width="0.9375" stroke-miterlimit="10"/>
<path d="M36.8336 28.1674H3.16689C2.33357 28.1674 1.50024 27.5006 1.50024 26.5006V19.0006C1.50024 18.1674 2.16689 17.334 3.16689 17.334H36.8336C37.6669 17.334 38.5002 18.0006 38.5002 19.0006V26.5006C38.5002 27.5006 37.6669 28.1674 36.8336 28.1674Z" fill="#EFEFEF"/>
<path d="M3.08054 20.7664C3.08054 20.3519 3.17809 20.0348 3.37321 19.8153C3.57321 19.5909 3.87076 19.4788 4.26586 19.4788C4.66097 19.4788 4.95609 19.5909 5.15119 19.8153C5.35119 20.0348 5.45119 20.3519 5.45119 20.7664V20.9274H4.69024V20.7153C4.69024 20.5299 4.65366 20.4006 4.58049 20.3274C4.51219 20.2494 4.41464 20.2104 4.28781 20.2104C4.16099 20.2104 4.06099 20.2494 3.98782 20.3274C3.91952 20.4006 3.88539 20.5299 3.88539 20.7153C3.88539 20.8909 3.92441 21.0469 4.00246 21.1836C4.08051 21.3153 4.17806 21.4421 4.29512 21.5641C4.41219 21.6811 4.53659 21.8006 4.66829 21.9226C4.80487 22.0396 4.93169 22.1689 5.04876 22.3103C5.16582 22.4518 5.26339 22.6128 5.34144 22.7933C5.41947 22.9738 5.45851 23.1859 5.45851 23.4298C5.45851 23.8444 5.35607 24.1639 5.15119 24.3883C4.95121 24.6078 4.65366 24.7176 4.25854 24.7176C3.86344 24.7176 3.56344 24.6078 3.35857 24.3883C3.15857 24.1639 3.05859 23.8444 3.05859 23.4298V23.1153H3.81954V23.4811C3.81954 23.6664 3.85612 23.7956 3.92929 23.8688C4.00734 23.9419 4.10977 23.9786 4.23659 23.9786C4.36342 23.9786 4.46342 23.9419 4.53659 23.8688C4.61462 23.7956 4.65366 23.6664 4.65366 23.4811C4.65366 23.3054 4.61462 23.1518 4.53659 23.0201C4.45854 22.8834 4.36097 22.7566 4.24391 22.6396C4.12684 22.5176 4.00002 22.3981 3.86344 22.2811C3.73174 22.1591 3.60734 22.0274 3.49027 21.8859C3.37321 21.7444 3.27566 21.5836 3.19761 21.4031C3.11956 21.2226 3.08054 21.0104 3.08054 20.7664ZM7.10496 19.5373C7.50982 19.5373 7.80982 19.6446 8.00494 19.8593C8.20492 20.0738 8.30492 20.3884 8.30492 20.8031V21.4689C8.30492 21.8836 8.20492 22.1981 8.00494 22.4128C7.80982 22.6274 7.50982 22.7348 7.10496 22.7348H6.72449V24.6591H5.91964V19.5373H7.10496ZM6.72449 20.2689V22.0031H7.10496C7.23179 22.0031 7.32934 21.9689 7.39764 21.9006C7.46592 21.8323 7.50007 21.7054 7.50007 21.5201V20.7519C7.50007 20.5664 7.46592 20.4396 7.39764 20.3714C7.32934 20.3031 7.23179 20.2689 7.10496 20.2689H6.72449ZM9.48259 21.6958H10.5874V22.4274H9.48259V23.9274H10.8728V24.6591H8.67774V19.5373H10.8728V20.2689H9.48259V21.6958ZM13.7056 22.7493V23.4298C13.7056 23.8444 13.6031 24.1639 13.3982 24.3883C13.1984 24.6078 12.9007 24.7176 12.5056 24.7176C12.1105 24.7176 11.8105 24.6078 11.6057 24.3883C11.4057 24.1639 11.3057 23.8444 11.3057 23.4298V20.7664C11.3057 20.3519 11.4057 20.0348 11.6057 19.8153C11.8105 19.5909 12.1105 19.4788 12.5056 19.4788C12.9007 19.4788 13.1984 19.5909 13.3982 19.8153C13.6031 20.0348 13.7056 20.3519 13.7056 20.7664V21.2641H12.9446V20.7153C12.9446 20.5299 12.9056 20.4006 12.8276 20.3274C12.7544 20.2494 12.6544 20.2104 12.5276 20.2104C12.4008 20.2104 12.2983 20.2494 12.2203 20.3274C12.1471 20.4006 12.1105 20.5299 12.1105 20.7153V23.4811C12.1105 23.6664 12.1471 23.7956 12.2203 23.8688C12.2983 23.9419 12.4008 23.9786 12.5276 23.9786C12.6544 23.9786 12.7544 23.9419 12.8276 23.8688C12.9056 23.7956 12.9446 23.6664 12.9446 23.4811V22.7493H13.7056ZM14.194 19.5373H14.9987V24.6591H14.194V19.5373ZM18.1921 24.6591H17.38L17.241 23.7298H16.2531L16.1141 24.6591H15.3751L16.1946 19.5373H17.3726L18.1921 24.6591ZM16.3556 23.0348H17.1311L16.7434 20.4446L16.3556 23.0348ZM18.567 19.5373H19.3719V23.9274H20.6961V24.6591H18.567V19.5373ZM23.3896 21.8054H24.5165V23.4298C24.5165 23.8444 24.4141 24.1639 24.2091 24.3883C24.0091 24.6078 23.7116 24.7176 23.3165 24.7176C22.9215 24.7176 22.6215 24.6078 22.4166 24.3883C22.2166 24.1639 22.1166 23.8444 22.1166 23.4298V20.7664C22.1166 20.3519 22.2166 20.0348 22.4166 19.8153C22.6215 19.5909 22.9215 19.4788 23.3165 19.4788C23.7116 19.4788 24.0091 19.5909 24.2091 19.8153C24.4141 20.0348 24.5165 20.3519 24.5165 20.7664V21.2641H23.7556V20.7153C23.7556 20.5299 23.7165 20.4006 23.6385 20.3274C23.5654 20.2494 23.4654 20.2104 23.3385 20.2104C23.2116 20.2104 23.1094 20.2494 23.0311 20.3274C22.958 20.4006 22.9215 20.5299 22.9215 20.7153V23.4811C22.9215 23.6664 22.958 23.7956 23.0311 23.8688C23.1094 23.9419 23.2116 23.9786 23.3385 23.9786C23.4654 23.9786 23.5654 23.9419 23.6385 23.8688C23.7165 23.7956 23.7556 23.6664 23.7556 23.4811V22.5371H23.3896V21.8054ZM27.6311 24.6591H26.819L26.68 23.7298H25.6921L25.5531 24.6591H24.8141L25.6336 19.5373H26.8116L27.6311 24.6591ZM25.7946 23.0348H26.5701L26.1824 20.4446L25.7946 23.0348ZM29.7106 23.1738L30.2595 19.5373H31.379V24.6591H30.618V20.9859L30.062 24.6591H29.301L28.701 21.0373V24.6591H27.9986V19.5373H29.1181L29.7106 23.1738ZM32.7694 21.6958H33.8741V22.4274H32.7694V23.9274H34.1595V24.6591H31.9645V19.5373H34.1595V20.2689H32.7694V21.6958ZM34.5557 20.7664C34.5557 20.3519 34.6532 20.0348 34.8485 19.8153C35.0485 19.5909 35.346 19.4788 35.7411 19.4788C36.1361 19.4788 36.4314 19.5909 36.6265 19.8153C36.8265 20.0348 36.9265 20.3519 36.9265 20.7664V20.9274H36.1655V20.7153C36.1655 20.5299 36.129 20.4006 36.0559 20.3274C35.9875 20.2494 35.8899 20.2104 35.763 20.2104C35.6364 20.2104 35.5364 20.2494 35.4631 20.3274C35.3949 20.4006 35.3606 20.5299 35.3606 20.7153C35.3606 20.8909 35.3996 21.0469 35.4776 21.1836C35.5559 21.3153 35.6534 21.4421 35.7704 21.5641C35.8875 21.6811 36.0119 21.8006 36.1435 21.9226C36.2801 22.0396 36.407 22.1689 36.524 22.3103C36.6411 22.4518 36.7386 22.6128 36.8166 22.7933C36.8949 22.9738 36.9339 23.1859 36.9339 23.4298C36.9339 23.8444 36.8314 24.1639 36.6265 24.3883C36.4265 24.6078 36.129 24.7176 35.7339 24.7176C35.3386 24.7176 35.0386 24.6078 34.8339 24.3883C34.6339 24.1639 34.5339 23.8444 34.5339 23.4298V23.1153H35.2949V23.4811C35.2949 23.6664 35.3314 23.7956 35.4045 23.8688C35.4826 23.9419 35.585 23.9786 35.7119 23.9786C35.8386 23.9786 35.9386 23.9419 36.0117 23.8688C36.0897 23.7956 36.129 23.6664 36.129 23.4811C36.129 23.3054 36.0897 23.1518 36.0117 23.0201C35.9337 22.8834 35.8362 22.7566 35.7191 22.6396C35.6021 22.5176 35.4752 22.3981 35.3386 22.2811C35.207 22.1591 35.0826 22.0274 34.9655 21.8859C34.8485 21.7444 34.751 21.5836 34.6727 21.4031C34.5947 21.2226 34.5557 21.0104 34.5557 20.7664Z" fill="#488BFF"/>
</svg>
