<svg width="21" height="20" viewBox="0 0 21 20" fill="none" xmlns="http://www.w3.org/2000/svg">
<path d="M19.9828 10.2662C19.9601 10.3534 19.9599 10.3387 19.9291 10.4344C19.8351 10.7268 19.6467 10.9821 19.3919 11.1626C19.137 11.3431 18.8291 11.4391 18.5137 11.4366C18.426 11.4366 18.3384 11.4366 18.2404 11.4366C18.2404 11.4756 18.2352 11.5087 18.2352 11.5367C18.2352 12.0809 18.2352 12.6251 18.2352 13.1693C18.2319 13.1981 18.2385 13.227 18.254 13.2517C18.2695 13.2764 18.293 13.2953 18.3209 13.3056C18.6136 13.4525 18.847 13.6907 18.9837 13.9819C19.1204 14.2732 19.1524 14.6006 19.0746 14.9117C18.9968 15.2227 18.8137 15.4993 18.5547 15.6972C18.2956 15.895 17.9757 16.0025 17.6462 16.0025C17.3167 16.0025 16.9967 15.895 16.7377 15.6972C16.4786 15.4993 16.2955 15.2227 16.2177 14.9117C16.1399 14.6006 16.1719 14.2732 16.3085 13.9819C16.4453 13.6907 16.6787 13.4525 16.9715 13.3056C17.0007 13.2944 17.0253 13.2741 17.0412 13.2477C17.0571 13.2213 17.0634 13.1906 17.0592 13.1603C17.0592 12.6231 17.0592 12.086 17.0592 11.5478V11.4326H15.8862V8.57637H15.9945C16.8199 8.57637 17.6451 8.58637 18.4652 8.57637C18.8302 8.56362 19.1871 8.68249 19.4673 8.91006C19.7474 9.13762 19.931 9.45781 19.9828 9.80906C19.9865 9.82418 19.9828 9.80906 20.0115 10.0157L19.9828 10.2662Z" fill="#0F0F0F"/>
<path d="M13.2363 8.57569H14.6971V11.4268H10.5933V8.57769H12.0509C12.0509 8.53756 12.0571 8.5095 12.0571 8.47744C12.0571 7.92725 12.0571 7.37506 12.0571 6.82688C12.0603 6.79956 12.0541 6.77206 12.0396 6.7485C12.025 6.725 12.0029 6.70675 11.9767 6.69656C11.6843 6.54963 11.4513 6.3115 11.3149 6.02048C11.1785 5.72944 11.1467 5.40233 11.2245 5.09163C11.3024 4.78093 11.4854 4.50463 11.7442 4.30705C12.0031 4.10948 12.3227 4.00208 12.6519 4.00208C12.9811 4.00208 13.3007 4.10948 13.5595 4.30705C13.8183 4.50463 14.0014 4.78093 14.0792 5.09163C14.1571 5.40233 14.1253 5.72944 13.9889 6.02048C13.8524 6.3115 13.6194 6.54963 13.3271 6.69656C13.2963 6.70788 13.2703 6.729 13.2534 6.7565C13.2365 6.78394 13.2298 6.81619 13.2342 6.84794C13.2342 7.38906 13.2342 7.92925 13.2342 8.47044L13.2363 8.57569Z" fill="#0F0F0F"/>
<path d="M6.75487 11.4319H5.30029V8.57968H9.40719V11.4319H7.9495C7.9495 11.473 7.94331 11.5041 7.94331 11.5321C7.94331 12.0783 7.94331 12.6255 7.94331 13.1727C7.93969 13.1999 7.94569 13.2275 7.96025 13.2509C7.97487 13.2744 7.99725 13.2924 8.02375 13.3019C8.31806 13.4475 8.55337 13.6851 8.69169 13.9764C8.83 14.2677 8.86337 14.5958 8.78631 14.9077C8.70931 15.2197 8.52637 15.4974 8.267 15.6961C8.00769 15.8947 7.68706 16.0027 7.35681 16.0027C7.02656 16.0027 6.70594 15.8947 6.44662 15.6961C6.18729 15.4974 6.00437 15.2197 5.92732 14.9077C5.85029 14.5958 5.88362 14.2677 6.02196 13.9764C6.1603 13.6851 6.39556 13.4475 6.68987 13.3019C6.73731 13.2779 6.76625 13.2579 6.76625 13.2017C6.76625 12.6325 6.76625 12.0642 6.76625 11.4981C6.76312 11.477 6.76106 11.4609 6.75487 11.4319Z" fill="#0F0F0F"/>
<path d="M2.94277 8.57587H4.11366V11.4271C4.08374 11.4271 4.05279 11.4331 4.02184 11.4331C3.17901 11.4331 2.33617 11.4331 1.49231 11.4331C1.10242 11.4419 0.724925 11.2998 0.442851 11.0382C0.160778 10.7766 0.00945662 10.3937 0.000427699 10.015C-0.00860113 9.63625 0.125402 9.29256 0.394707 9.01856C0.664012 8.74456 1.03434 8.58569 1.42422 8.57687C1.53357 8.57687 1.64396 8.57687 1.76362 8.57687V8.46262C1.76362 7.9225 1.76362 7.38131 1.76362 6.84112C1.76645 6.81181 1.75944 6.78244 1.74363 6.75731C1.72782 6.73219 1.70407 6.71275 1.67594 6.70181C1.38442 6.55412 1.15234 6.31569 1.01682 6.02471C0.881312 5.73372 0.8502 5.40697 0.928469 5.09676C1.00674 4.78655 1.18986 4.51081 1.44854 4.31367C1.70721 4.11654 2.02648 4.0094 2.35526 4.0094C2.68404 4.0094 3.00331 4.11654 3.26198 4.31367C3.52066 4.51081 3.70378 4.78655 3.78205 5.09676C3.86032 5.40697 3.82921 5.73372 3.69369 6.02471C3.55817 6.31569 3.32609 6.55412 3.03458 6.70181C3.00375 6.71312 2.97778 6.73425 2.96091 6.76175C2.94404 6.78919 2.93728 6.82144 2.94174 6.85319C2.94174 7.39031 2.94174 7.9285 2.94174 8.46562L2.94277 8.57587Z" fill="#0F0F0F"/>
</svg>
