<svg width="13" height="20" viewBox="0 0 13 20" fill="none" xmlns="http://www.w3.org/2000/svg">
<path d="M11.4583 18H7.29169V14.41L8.11456 15.21C8.21144 15.3038 8.32662 15.3781 8.45356 15.4289C8.5805 15.4797 8.71663 15.5058 8.85419 15.5058C8.99169 15.5058 9.12781 15.4797 9.25475 15.4289C9.38169 15.3781 9.49694 15.3038 9.59375 15.21C9.69137 15.1171 9.76888 15.0064 9.82175 14.8846C9.87463 14.7627 9.90188 14.632 9.90188 14.5C9.90188 14.368 9.87463 14.2373 9.82175 14.1154C9.76888 13.9936 9.69137 13.8829 9.59375 13.79L6.98956 11.29C6.8905 11.1989 6.77369 11.1276 6.64581 11.08C6.39225 10.98 6.10775 10.98 5.85419 11.08C5.72631 11.1276 5.6095 11.1989 5.51044 11.29L2.90625 13.79C2.80912 13.8832 2.73206 13.9939 2.6795 14.1157C2.62694 14.2376 2.59987 14.3681 2.59987 14.5C2.59987 14.6319 2.62694 14.7624 2.6795 14.8843C2.73206 15.0061 2.80912 15.1168 2.90625 15.21C3.10237 15.3983 3.36844 15.5041 3.64581 15.5041C3.78319 15.5041 3.91919 15.4781 4.04606 15.4277C4.173 15.3772 4.28831 15.3033 4.38544 15.21L5.20831 14.41V18H1.04167C0.7654 18 0.50045 18.1054 0.3051 18.2929C0.10975 18.4804 0 18.7348 0 19C0 19.2652 0.10975 19.5196 0.3051 19.7071C0.50045 19.8946 0.7654 20 1.04167 20H11.4583C11.7346 20 11.9996 19.8946 12.1949 19.7071C12.3903 19.5196 12.5 19.2652 12.5 19C12.5 18.7348 12.3903 18.4804 12.1949 18.2929C11.9996 18.1054 11.7346 18 11.4583 18ZM1.04167 2H5.20831V5.59L4.38544 4.79C4.28831 4.69676 4.173 4.6228 4.04606 4.57234C3.91919 4.52188 3.78319 4.49591 3.64581 4.49591C3.36844 4.49591 3.10237 4.60169 2.90625 4.79C2.80912 4.88324 2.73206 4.99393 2.6795 5.11575C2.62694 5.23758 2.59987 5.36814 2.59987 5.5C2.59987 5.7663 2.71012 6.02169 2.90625 6.21L5.51044 8.71C5.6095 8.80106 5.72631 8.87238 5.85419 8.92C5.97888 8.97288 6.11369 9.00025 6.25 9.00025C6.38631 9.00025 6.52113 8.97288 6.64581 8.92C6.77369 8.87238 6.8905 8.80106 6.98956 8.71L9.59375 6.21C9.69088 6.11676 9.76794 6.00607 9.8205 5.88425C9.87306 5.76242 9.90013 5.63186 9.90013 5.5C9.90013 5.36814 9.87306 5.23758 9.8205 5.11575C9.76794 4.99393 9.69088 4.88324 9.59375 4.79C9.49662 4.69676 9.38131 4.6228 9.25444 4.57234C9.1275 4.52188 8.9915 4.49591 8.85419 4.49591C8.71681 4.49591 8.58081 4.52188 8.45394 4.57234C8.327 4.6228 8.21169 4.69676 8.11456 4.79L7.29169 5.59V2H11.4583C11.7346 2 11.9996 1.89464 12.1949 1.70711C12.3903 1.51957 12.5 1.26522 12.5 1C12.5 0.734781 12.3903 0.480429 12.1949 0.292893C11.9996 0.105357 11.7346 0 11.4583 0H1.04167C0.7654 0 0.50045 0.105357 0.3051 0.292893C0.10975 0.480429 0 0.734781 0 1C0 1.26522 0.10975 1.51957 0.3051 1.70711C0.50045 1.89464 0.7654 2 1.04167 2Z" fill="#D9D9D9"/>
</svg>
