<svg width="32" height="32" viewBox="0 0 32 32" fill="none" xmlns="http://www.w3.org/2000/svg">
<path d="M30.5225 23.9929C29.6895 23.9759 29.0004 24.6369 28.9832 25.4699L28.9477 27.1842C28.939 27.6067 28.7062 28.0005 28.3402 28.2117C27.7599 28.5469 27.015 28.3473 26.6799 27.7668L20.6739 17.3641L20.2432 16.6542L17.7664 18.3355L18.0611 18.8726L24.0671 29.2753C25.234 31.2964 27.8276 31.9914 29.8487 30.8245C31.123 30.0888 31.9335 28.7179 31.964 27.2467L31.9995 25.5323C32.0168 24.6994 31.3555 24.0102 30.5225 23.9929Z" fill="#77D1B3"/>
<path d="M8.72378 0.63386L9.07178 0.432922C9.09916 0.520735 9.13541 0.60736 9.18366 0.69086L9.31053 0.91061C9.51841 1.27061 9.87366 1.48673 10.2396 1.51848L24.95 27.7244C26.1168 29.7455 28.591 30.5095 30.4653 29.4274C31.0787 29.0733 31.568 28.547 31.8949 27.921C31.6713 29.1272 30.9257 30.2027 29.8488 30.8245C27.8277 31.9914 25.234 31.2964 24.0672 29.2754L18.0611 18.8726L9.38135 3.05517C8.99497 3.03523 8.62616 2.82692 8.41835 2.46692L8.29147 2.24717C7.96535 1.6823 8.15891 0.959985 8.72378 0.63386Z" fill="#67B59F"/>
<path d="M23.8346 22.8389L21.8469 19.3961L20.3093 22.7669L22.2971 26.2097L23.8346 22.8389Z" fill="#E9A761"/>
<path d="M22.2971 26.2098L20.3093 22.7669L21.0941 21.0463L23.082 24.4892L22.2971 26.2098Z" fill="#E38523"/>
<path d="M20.3676 16.8582L11.3154 1.93856C11.4913 1.59399 11.4953 1.17043 11.2875 0.810431L11.1606 0.590681C10.8345 0.0258054 10.1122 -0.167694 9.54728 0.158431L8.72378 0.633868C8.15891 0.959993 7.96535 1.68231 8.29147 2.24718L8.41835 2.46693C8.62622 2.82693 8.99503 3.03524 9.38135 3.05518L17.7762 18.3544L20.3676 16.8582Z" fill="#655E67"/>
<path d="M8.20812 1.24305C8.30375 0.986858 9.07187 0.432983 9.07187 0.432983C9.22669 0.929983 9.60131 1.41011 10.1416 1.50567C10.2048 1.51686 10.2599 1.5553 10.2909 1.61155L19.0992 17.5906L17.7763 18.3544L9.38144 3.05517C9.35731 3.05392 9.33319 3.05192 9.30925 3.04923C9.02156 3.01673 8.74875 2.87955 8.55137 2.65317C8.204 2.25473 8.02181 1.74223 8.20812 1.24305Z" fill="#544F56"/>
<path d="M1.47727 23.993C2.31027 23.9759 2.99946 24.637 3.01664 25.47L3.05208 27.1843C3.06083 27.6068 3.29358 28.0005 3.65958 28.2118C4.23996 28.5469 4.98483 28.3473 5.31996 27.7668L11.326 17.3641L11.8033 16.5774L14.3705 18.0859L13.9388 18.8726L7.93277 29.2753C6.7659 31.2965 4.17227 31.9915 2.15114 30.8245C0.876832 30.0889 0.0662698 28.718 0.0357698 27.2468L0.000332338 25.5324C-0.0169802 24.6995 0.64427 24.0103 1.47727 23.993Z" fill="#77D1B3"/>
<path d="M23.276 0.63386L22.928 0.432922C22.9007 0.520735 22.8644 0.60736 22.8162 0.69086L22.6893 0.91061C22.4814 1.27061 22.1262 1.48673 21.7602 1.51848L7.04992 27.7245C5.88304 29.7456 3.40886 30.5096 1.53461 29.4275C0.921293 29.0734 0.431855 28.547 0.10498 27.921C0.328543 29.1272 1.07417 30.2027 2.15111 30.8245C4.17223 31.9914 6.76586 31.2964 7.93273 29.2754L13.9387 18.8727L22.6184 3.05517C23.0048 3.03523 23.3736 2.82692 23.5814 2.46692L23.7083 2.24717C24.0345 1.6823 23.8409 0.959985 23.276 0.63386Z" fill="#67B59F"/>
<path d="M8.16504 22.8389L10.1528 19.3961L11.6904 22.7669L9.7026 26.2097L8.16504 22.8389Z" fill="#E9A761"/>
<path d="M9.7026 26.2098L11.6903 22.7669L10.9055 21.0463L8.91772 24.4892L9.7026 26.2098Z" fill="#E38523"/>
<path d="M11.6323 16.8582L20.6845 1.93856C20.5086 1.59399 20.5046 1.17043 20.7125 0.810431L20.8393 0.590681C21.1655 0.0258054 21.8878 -0.167694 22.4526 0.158431L23.2761 0.633868C23.841 0.959993 24.0346 1.68231 23.7085 2.24718L23.5816 2.46693C23.3737 2.82693 23.0049 3.03524 22.6186 3.05518L14.2237 18.3543L11.6323 16.8582Z" fill="#655E67"/>
<path d="M23.7917 1.24305C23.6961 0.98686 23.5158 0.772297 23.2759 0.63386L22.9279 0.432922C22.7731 0.929922 22.3985 1.41005 21.8583 1.50561C21.795 1.5168 21.7399 1.55524 21.7089 1.61149L12.9006 17.5905L14.2235 18.3543L22.6184 3.05517C22.6425 3.05392 22.6666 3.05192 22.6906 3.04923C22.9783 3.01673 23.2511 2.87955 23.4484 2.65317C23.7958 2.25473 23.978 1.74223 23.7917 1.24305Z" fill="#544F56"/>
<path d="M16 29.4547C17.4077 29.4547 18.5488 28.3136 18.5488 26.9059C18.5488 25.4983 17.4077 24.3571 16 24.3571C14.5923 24.3571 13.4512 25.4983 13.4512 26.9059C13.4512 28.3136 14.5923 29.4547 16 29.4547Z" fill="#DF646E"/>
<path d="M17.243 24.6809C17.4489 25.0487 17.5668 25.4725 17.5668 25.924C17.5668 27.3317 16.4257 28.4728 15.018 28.4728C14.5665 28.4728 14.1427 28.3549 13.7749 28.149C14.211 28.9278 15.0437 29.4547 15.9999 29.4547C17.4076 29.4547 18.5487 28.3135 18.5487 26.9058C18.5487 25.9497 18.0218 25.117 17.243 24.6809Z" fill="#D82F3C"/>
</svg>
