<svg width="24" height="24" viewBox="0 0 24 24" fill="none" xmlns="http://www.w3.org/2000/svg">
<path d="M12 24C18.6275 24 24 18.6275 24 12C24 5.37258 18.6275 0 12 0C5.37258 0 0 5.37258 0 12C0 18.6275 5.37258 24 12 24Z" fill="#6DA544"/>
<path d="M11.9999 4.69562L21.913 12L11.9999 19.3043L2.08691 12L11.9999 4.69562Z" fill="#FFDA44"/>
<path d="M12.0001 16.1739C14.3053 16.1739 16.174 14.3052 16.174 12C16.174 9.69481 14.3053 7.82611 12.0001 7.82611C9.69487 7.82611 7.82617 9.69481 7.82617 12C7.82617 14.3052 9.69487 16.1739 12.0001 16.1739Z" fill="#F0F0F0"/>
<path d="M9.91324 11.7391C9.18739 11.7391 8.48696 11.8495 7.82764 12.0544C7.85681 14.3344 9.71329 16.1739 12.0002 16.1739C13.4143 16.1739 14.6633 15.47 15.4182 14.3941C14.1265 12.7771 12.139 11.7391 9.91324 11.7391Z" fill="#0052B4"/>
<path d="M16.0967 12.7997C16.147 12.5408 16.1741 12.2736 16.1741 12C16.1741 9.69481 14.3053 7.82611 12.0002 7.82611C10.2802 7.82611 8.80355 8.86681 8.16455 10.3526C8.72945 10.2356 9.31423 10.174 9.91325 10.174C12.3375 10.1739 14.5306 11.1816 16.0967 12.7997Z" fill="#0052B4"/>
</svg>
