<svg width="32" height="32" viewBox="0 0 32 32" fill="none" xmlns="http://www.w3.org/2000/svg">
<path d="M1.04687 16.9843C1 16.6562 1 16.3281 1 16C1 12.5781 2.17187 9.3906 4.09374 6.85936C6.85936 3.29687 11.1718 1 16 1C24.2968 1 30.9999 7.7031 30.9999 16C30.9999 24.2968 24.2968 30.9999 16 30.9999C8.03123 30.9999 1.5625 24.8124 1.04687 16.9843Z" fill="white"/>
<path d="M23.5466 27.2965C23.406 27.2965 23.2653 27.2496 23.2185 27.109L15.6716 16.7028C15.531 16.5153 15.5779 16.234 15.7654 16.0934C15.9529 15.9528 16.2341 15.9997 16.3747 16.1872L23.9216 26.5934C24.0622 26.7809 24.0153 27.0621 23.8278 27.2028C23.7341 27.2496 23.6403 27.2965 23.5466 27.2965Z" fill="#82828E"/>
<path d="M8.21848 27.5778C8.12473 27.5778 8.03098 27.5309 7.98411 27.484C7.79661 27.3434 7.74973 27.0621 7.89036 26.8746L15.6716 16.1872C15.8122 15.9997 16.0935 15.9528 16.281 16.0934C16.4685 16.234 16.5153 16.5153 16.3747 16.7028L8.59348 27.3903C8.49973 27.484 8.35911 27.5778 8.21848 27.5778Z" fill="#82828E"/>
<path d="M16 16.8906C15.9531 16.8906 15.9062 16.8906 15.8593 16.8906L3.4375 12.8125C3.20312 12.7187 3.10938 12.4844 3.15625 12.25C3.25 12.0156 3.48437 11.9219 3.71875 11.9687L16.1406 16C16.375 16.0937 16.4687 16.3281 16.4218 16.5625C16.3281 16.75 16.1875 16.8906 16 16.8906Z" fill="#82828E"/>
<path d="M16 16.8906C15.7656 16.8906 15.5781 16.7031 15.5781 16.4687V3.67187C15.5781 3.4375 15.7656 3.25 16 3.25C16.2344 3.25 16.4219 3.4375 16.4219 3.67187V16.4687C16.4219 16.6562 16.2344 16.8906 16 16.8906Z" fill="#82828E"/>
<path d="M16.0001 16.8907C15.8126 16.8907 15.6719 16.7969 15.5782 16.6094C15.4844 16.3751 15.6251 16.1407 15.8594 16.0469L28.2813 12.0157C28.5157 11.9219 28.75 12.0626 28.8438 12.2969C28.9375 12.5313 28.7969 12.7657 28.5625 12.8594L16.1407 16.8907C16.0938 16.8438 16.0469 16.8907 16.0001 16.8907Z" fill="#82828E"/>
<path d="M15.0634 11.5468L11.6415 14.0312C11.079 14.4531 10.8446 15.1562 11.079 15.8124L12.3915 19.7968C12.6259 20.453 13.2352 20.9218 13.9384 20.9218H18.1571C18.8602 20.9218 19.4696 20.453 19.704 19.7968L21.0165 15.8124C21.2508 15.1562 21.0165 14.4062 20.454 14.0312L16.9383 11.5468C16.3758 11.1249 15.6259 11.1249 15.0634 11.5468Z" fill="#3B3B44"/>
<path d="M28.4214 24.3906C26.4058 27.3906 23.3589 29.5937 19.7964 30.5312L21.4371 25.5156C21.6714 24.8593 22.2808 24.3906 22.9839 24.3906H28.4214Z" fill="#3B3B44"/>
<path d="M12.2031 30.5312C8.64061 29.5937 5.54688 27.3906 3.57812 24.3906H9.06248C9.76561 24.3906 10.375 24.8593 10.6094 25.5156L12.2031 30.5312Z" fill="#3B3B44"/>
<path d="M1.04687 16.9843C1 16.6562 1 16.3281 1 16C1 12.5781 2.17187 9.39061 4.09374 6.85938L5.82811 12.1094C6.06248 12.7656 5.82811 13.5156 5.26561 13.8906L1.04687 16.9843Z" fill="#3B3B44"/>
<path d="M10.7031 1.98437C12.3437 1.32812 14.125 1 16 1C17.875 1 19.6562 1.32812 21.2968 1.98437L16.9375 5.12499C16.375 5.54686 15.625 5.54686 15.0625 5.12499L10.7031 1.98437Z" fill="#3B3B44"/>
<path d="M27.9061 6.85938C29.828 9.39061 30.9999 12.5781 30.9999 16C30.9999 16.3281 30.9999 16.6562 30.953 16.9843L26.7811 13.9375C26.2186 13.5156 25.9843 12.8125 26.2186 12.1562L27.9061 6.85938Z" fill="#3B3B44"/>
<path opacity="0.1" d="M31 16C31 24.2968 24.2968 30.9999 16 30.9999C15.4844 30.9999 15.0156 30.9999 14.5 30.953C21.625 28.5156 30.625 18.5312 24.8593 3.90625C28.6093 6.62499 31 11.0312 31 16Z" fill="black"/>
<path d="M24.75 14.75C28.2018 14.75 31 11.9518 31 8.5C31 5.04822 28.2018 2.25 24.75 2.25C21.2982 2.25 18.5 5.04822 18.5 8.5C18.5 11.9518 21.2982 14.75 24.75 14.75Z" fill="#3CAA38"/>
<path d="M25.1239 12.25C23.8949 12.25 22.9003 11.9202 22.1402 11.2607C21.3801 10.5967 21 9.7344 21 8.6738V8.48663C21 7.74688 21.1505 7.09403 21.4516 6.52807C21.7577 5.96212 22.2019 5.5254 22.7843 5.21791C23.3667 4.90597 24.0577 4.75 24.8574 4.75C25.9827 4.75 26.8712 5.0664 27.5227 5.6992C28.1742 6.32754 28.5 7.20544 28.5 8.33289V9.20856H23.5395C23.6283 9.61408 23.8233 9.93271 24.1244 10.1644C24.4255 10.3962 24.8154 10.512 25.2942 10.512C26.0839 10.512 26.7009 10.2625 27.1451 9.76337L28.2853 10.9799C27.9743 11.3676 27.5326 11.6774 26.96 11.9091C26.3924 12.1364 25.7804 12.25 25.1239 12.25ZM24.8425 6.48797C24.112 6.48797 23.6777 6.92469 23.5395 7.79813H26.0568V7.62433C26.0666 7.26337 25.9654 6.98485 25.7532 6.78877C25.541 6.58824 25.2374 6.48797 24.8425 6.48797Z" fill="white"/>
</svg>
