<svg width="17" height="16" viewBox="0 0 17 16" fill="none" xmlns="http://www.w3.org/2000/svg">
<path d="M12.5296 15.9999C12.4171 16.0003 12.3062 15.9732 12.2066 15.9209L8.00483 13.626L3.80502 15.9199C3.69393 15.9807 3.56759 16.0078 3.44136 15.998C3.31513 15.9883 3.19446 15.942 3.09405 15.8649C2.99107 15.7847 2.91164 15.6782 2.86413 15.5566C2.81661 15.4349 2.80277 15.3028 2.82406 15.174L3.60202 10.2742L0.205173 6.78434C0.114042 6.69005 0.0499786 6.573 0.0197142 6.44546C-0.0105501 6.31786 -0.00589838 6.18452 0.0331807 6.05937C0.0697094 5.93593 0.140322 5.82533 0.236904 5.74024C0.333485 5.65514 0.452115 5.59904 0.579157 5.57839L5.27295 4.82641L7.39785 0.391606C7.4508 0.27486 7.5362 0.175837 7.64394 0.106386C7.75169 0.0369355 7.87713 -4.99978e-10 8.00533 0C8.13352 -4.99978e-10 8.25896 0.0369355 8.36671 0.106386C8.47446 0.175837 8.5599 0.27486 8.6128 0.391606L10.7327 4.82541L15.4265 5.56639C15.5535 5.58704 15.6722 5.64314 15.7687 5.72824C15.8653 5.81333 15.936 5.92393 15.9725 6.04737C16.0116 6.17252 16.0162 6.30586 15.9859 6.43346C15.9557 6.561 15.8916 6.67805 15.8005 6.77234L12.4196 10.2722L13.1976 15.172C13.2139 15.273 13.2089 15.3764 13.1829 15.4754C13.1569 15.5745 13.1105 15.6669 13.0466 15.7469C12.9849 15.8247 12.9065 15.8878 12.8172 15.9314C12.7279 15.975 12.63 15.9981 12.5306 15.9989L12.5296 15.9999Z" fill="#737373"/>
</svg>
