<svg width="40" height="40" viewBox="0 0 40 40" fill="none" xmlns="http://www.w3.org/2000/svg">
<path d="M19.9996 4.3335C10.833 4.3335 3.33301 11.8335 3.33301 21.0002C3.33301 30.1669 10.833 37.6669 19.9996 37.6669C29.1664 37.6669 36.6664 30.1669 36.6664 21.0002C36.6664 11.8335 29.333 4.3335 19.9996 4.3335ZM19.9996 35.5002C11.9997 35.5002 5.49968 29.0002 5.49968 21.0002C5.49968 13.0001 11.9997 6.66682 19.9996 6.66682C27.9996 6.66682 34.4996 13.1669 34.4996 21.1669C34.4996 29.1669 27.9996 35.5002 19.9996 35.5002Z" fill="#FF9A9F"/>
<path d="M19.9996 4.3335C10.833 4.3335 3.33301 11.8335 3.33301 21.0002C3.33301 26.5002 5.99968 31.3336 9.99968 34.3336H12.9996C8.16635 31.8336 4.99968 26.8336 4.99968 21.0002C4.99968 12.6669 11.833 6.00016 19.9996 6.00016C28.1664 6.00016 34.9996 12.8335 34.9996 21.0002C34.9996 26.8336 31.6664 31.8336 26.9996 34.3336H29.9996C33.9996 31.3336 36.6664 26.5002 36.6664 21.0002C36.6664 11.8335 29.333 4.3335 19.9996 4.3335Z" fill="#94CFFF"/>
<path d="M19.0002 5.49952C11.3335 5.99952 5.0002 12.1662 4.5002 19.9996C4.16686 24.9996 6.16686 29.4996 9.5002 32.4996C9.83354 32.8329 10.0002 33.1662 10.0002 33.6662V34.3329C12.8335 36.4996 16.3335 37.6662 20.0002 37.6662C23.6669 37.6662 27.1669 36.4996 30.0002 34.3329V33.6662C30.0002 33.1662 30.1669 32.8329 30.5002 32.4996C33.5002 29.6662 35.5002 25.6662 35.5002 20.9996C35.6669 12.1662 28.1669 4.99952 19.0002 5.49952ZM20.0002 35.4996C12.0002 35.4996 5.5002 28.9996 5.5002 20.9996C5.5002 12.9995 12.0002 6.66618 20.0002 6.66618C28.0002 6.66618 34.5003 13.1662 34.5003 21.1662C34.5003 29.1662 28.0002 35.4996 20.0002 35.4996Z" fill="#488BFF"/>
<path d="M27.3335 30.4993H12.8335C12.6669 30.4993 12.5001 30.4993 12.3335 30.6659L11.8335 32.3326V36.6659C11.8335 37.6659 12.6669 38.3326 13.5001 38.3326H27.3335L29.0001 37.8326C29.0001 37.6659 29.1669 37.4993 29.1669 37.3326V32.3326C29.0001 31.3326 28.1669 30.4993 27.3335 30.4993Z" fill="#E5646E"/>
<path d="M15.3335 35.8328V32.8328C15.3335 32.4994 15.1669 32.3328 14.8335 32.3328C14.5001 32.3328 14.3335 32.4994 14.3335 32.8328V36.4994C14.3335 36.8328 14.5001 36.9994 14.8335 36.9994C14.8335 36.9994 15.8335 36.9994 16.1669 36.9994C16.5001 36.9994 16.6669 36.6661 16.6669 36.4994C16.6669 36.1661 16.3335 35.9994 16.1669 35.9994C15.8335 35.8328 15.5001 35.8328 15.3335 35.8328Z" fill="white"/>
<path d="M18 32.3328C17.6666 32.3328 17.5 32.4994 17.5 32.8328V36.3328C17.5 36.6661 17.6666 36.8328 18 36.8328C18.3334 36.8328 18.5 36.6661 18.5 36.3328V32.8328C18.5 32.4994 18.1666 32.3328 18 32.3328Z" fill="white"/>
<path d="M25.6663 35.8334H24.6663V35.1666H25.4996C25.8329 35.1666 25.9996 35 25.9996 34.6666C25.9996 34.3334 25.8329 34.1666 25.4996 34.1666H24.6663V33.5H25.6663C25.9996 33.5 26.1663 33.3334 26.1663 33C26.1663 32.6666 25.9996 32.5 25.6663 32.5H24.1663C23.8329 32.5 23.6663 32.6666 23.6663 33V36.5C23.6663 36.8334 23.8329 37 24.1663 37H25.6663C25.9996 37 26.1663 36.8334 26.1663 36.5C26.1663 36.1666 25.9996 35.8334 25.6663 35.8334Z" fill="white"/>
<path d="M22.5004 32.3335C22.167 32.1667 21.8337 32.3335 21.8337 32.6667L21.167 34.8335L20.3337 32.6667C20.167 32.3335 19.8337 32.1667 19.667 32.3335C19.3337 32.5001 19.167 32.8335 19.3337 33.0001L20.5004 36.5001C20.667 36.8335 20.8337 37.0001 21.167 37.0001C21.5004 37.0001 21.667 36.8335 21.8337 36.5001L23.0004 33.0001C23.0004 32.8335 22.8337 32.5001 22.5004 32.3335Z" fill="white"/>
<path d="M12.3332 35.9993V30.4993C11.6665 30.6659 11.1665 31.3326 11.1665 32.1659V37.1659C11.1665 38.1659 11.9998 38.8326 12.8331 38.8326H27.1665C27.8331 38.8326 28.4999 38.3326 28.8331 37.6659H13.9999C12.9999 37.6659 12.3332 36.9993 12.3332 35.9993Z" fill="#DB4655"/>
<path d="M13.4999 5.33366L15.8331 5.66699C15.9999 5.66699 15.9999 5.83366 15.8331 5.83366L14.1665 7.50033C14.1665 7.50033 14.1665 7.50033 14.1665 7.66699L14.4999 10.0003C14.4999 10.0003 14.4999 10.167 14.3331 10.0003L12.1665 9.00033H11.9999L9.99985 10.167L9.83319 10.0003L10.1665 7.66699V7.50033L8.49985 5.83366C8.33319 5.66699 8.49985 5.66699 8.49985 5.66699L10.8332 5.33366H10.9999L11.9999 3.16699C11.9999 3.00033 12.1665 3.00033 12.3332 3.16699L13.4999 5.33366C13.3331 5.33366 13.3331 5.16699 13.4999 5.33366Z" fill="#FFE164"/>
<path d="M13.4999 5.33366L15.8331 5.66699C15.9999 5.66699 15.9999 5.83366 15.8331 5.83366L14.1665 7.50033C14.1665 7.50033 14.1665 7.50033 14.1665 7.66699L14.4999 10.0003C14.4999 10.0003 14.4999 10.167 14.3331 10.0003L12.1665 9.00033H11.9999L9.99985 10.167L9.83319 10.0003L10.1665 7.66699V7.50033L8.49985 5.83366C8.33319 5.66699 8.49985 5.66699 8.49985 5.66699L10.8332 5.33366H10.9999L11.9999 3.16699C11.9999 3.00033 12.1665 3.00033 12.3332 3.16699L13.4999 5.33366ZM13.4999 5.33366C13.3331 5.16699 13.3331 5.33366 13.4999 5.33366V5.33366Z" fill="#FFE164"/>
<path d="M13.4999 5.33366L15.8331 5.66699C15.9999 5.66699 15.9999 5.83366 15.8331 5.83366L14.1665 7.50033C14.1665 7.50033 14.1665 7.50033 14.1665 7.66699L14.4999 10.0003C14.4999 10.0003 14.4999 10.167 14.3331 10.0003L12.1665 9.00033H11.9999L9.99985 10.167L9.83319 10.0003L10.1665 7.66699V7.50033L8.49985 5.83366C8.33319 5.66699 8.49985 5.66699 8.49985 5.66699L10.8332 5.33366H10.9999L11.9999 3.16699C11.9999 3.00033 12.1665 3.00033 12.3332 3.16699L13.4999 5.33366ZM13.4999 5.33366C13.3331 5.16699 13.3331 5.33366 13.4999 5.33366Z" stroke="#FFE164" stroke-width="0.9375" stroke-miterlimit="10"/>
<path d="M29.6669 5.33366L32.0003 5.66699C32.1669 5.66699 32.1669 5.83366 32.0003 5.83366L30.3336 7.50033C30.3336 7.50033 30.3336 7.50033 30.3336 7.66699L30.8336 10.0003C30.8336 10.167 30.6669 10.167 30.6669 10.167L28.5003 9.00033H28.3336L26.3336 10.167C26.1669 10.167 26.1669 10.167 26.1669 10.0003L26.5003 7.66699V7.50033L24.8336 5.83366C24.6669 5.66699 24.8336 5.66699 24.8336 5.66699L27.1669 5.33366H27.3336L28.3336 3.16699C28.3336 3.00033 28.5003 3.00033 28.6669 3.16699L29.6669 5.33366Z" fill="#FFE164"/>
<path d="M29.6669 5.33366L32.0003 5.66699C32.1669 5.66699 32.1669 5.83366 32.0003 5.83366L30.3336 7.50033C30.3336 7.50033 30.3336 7.50033 30.3336 7.66699L30.8336 10.0003C30.8336 10.167 30.6669 10.167 30.6669 10.167L28.5003 9.00033H28.3336L26.3336 10.167C26.1669 10.167 26.1669 10.167 26.1669 10.0003L26.5003 7.66699V7.50033L24.8336 5.83366C24.6669 5.66699 24.8336 5.66699 24.8336 5.66699L27.1669 5.33366H27.3336L28.3336 3.16699C28.3336 3.00033 28.5003 3.00033 28.6669 3.16699L29.6669 5.33366Z" fill="#FFE164" stroke="#FFE164" stroke-width="0.9375" stroke-miterlimit="10"/>
<path d="M22 4.00024L24.8334 4.33358C25 4.50024 25 4.66691 25 4.66691L22.8334 6.66691V6.83357L23.3334 9.83358C23.3334 10.0002 23.1667 10.0002 23 10.0002L20.3334 8.66691H20.1667L17.6667 10.0002C17.5 10.0002 17.3334 10.0002 17.3334 9.83358L17.8334 7.00024V6.83357L15.6667 4.66691C15.5 4.50024 15.6667 4.33358 15.8334 4.33358L18.6667 3.83358C18.6667 3.83358 18.8334 3.83358 18.8334 3.66691L20.1667 1.00024C20.1667 0.833578 20.5 0.833578 20.5 1.00024L22 4.00024C21.8334 4.00024 21.8334 4.00024 22 4.00024Z" fill="#FFE164"/>
<path d="M22 4.00024L24.8334 4.33358C25 4.50024 25 4.66691 25 4.66691L22.8334 6.66691V6.83357L23.3334 9.83358C23.3334 10.0002 23.1667 10.0002 23 10.0002L20.3334 8.66691H20.1667L17.6667 10.0002C17.5 10.0002 17.3334 10.0002 17.3334 9.83358L17.8334 7.00024V6.83357L15.6667 4.66691C15.5 4.50024 15.6667 4.33358 15.8334 4.33358L18.6667 3.83358C18.6667 3.83358 18.8334 3.83358 18.8334 3.66691L20.1667 1.00024C20.1667 0.833578 20.5 0.833578 20.5 1.00024L22 4.00024ZM22 4.00024C21.8334 4.00024 21.8334 4.00024 22 4.00024V4.00024Z" fill="#FFE164"/>
<path d="M22 4.00024L24.8334 4.33358C25 4.50024 25 4.66691 25 4.66691L22.8334 6.66691V6.83357L23.3334 9.83357C23.3334 10.0002 23.1667 10.0002 23 10.0002L20.3334 8.66691H20.1667L17.6667 10.0002C17.5 10.0002 17.3334 10.0002 17.3334 9.83357L17.8334 7.00024V6.83357L15.6667 4.66691C15.5 4.50024 15.6667 4.33358 15.8334 4.33358L18.6667 3.83357C18.6667 3.83357 18.8334 3.83358 18.8334 3.66691L20.1667 1.00024C20.1667 0.833578 20.5 0.833578 20.5 1.00024L22 4.00024ZM22 4.00024C21.8334 4.00024 21.8334 4.00024 22 4.00024Z" stroke="#FFE164" stroke-width="0.9375" stroke-miterlimit="10"/>
<path d="M36.8336 26.6671H3.16689C2.33357 26.6671 1.50024 26.0004 1.50024 25.0004V17.5004C1.50024 16.6671 2.16689 15.8337 3.16689 15.8337H36.8336C37.6669 15.8337 38.5002 16.5004 38.5002 17.5004V25.0004C38.5002 26.0004 37.6669 26.6671 36.8336 26.6671Z" fill="#EFEFEF"/>
<path d="M3.08054 19.2577C3.08054 18.8431 3.17809 18.5261 3.37321 18.3066C3.57321 18.0822 3.87076 17.97 4.26586 17.97C4.66097 17.97 4.95609 18.0822 5.15119 18.3066C5.35119 18.5261 5.45119 18.8431 5.45119 19.2577V19.4187H4.69024V19.2066C4.69024 19.0212 4.65366 18.892 4.58049 18.8187C4.51219 18.7407 4.41464 18.7017 4.28781 18.7017C4.16099 18.7017 4.06099 18.7407 3.98782 18.8187C3.91952 18.892 3.88539 19.0212 3.88539 19.2066C3.88539 19.3821 3.92441 19.5382 4.00246 19.6747C4.08051 19.8066 4.17806 19.9335 4.29512 20.0552C4.41219 20.1725 4.53659 20.292 4.66829 20.4137C4.80487 20.531 4.93169 20.6601 5.04876 20.8016C5.16582 20.9431 5.26339 21.1041 5.34144 21.2846C5.41947 21.4651 5.45851 21.6772 5.45851 21.9211C5.45851 22.3357 5.35607 22.6552 5.15119 22.8796C4.95121 23.0991 4.65366 23.209 4.25854 23.209C3.86344 23.209 3.56344 23.0991 3.35857 22.8796C3.15857 22.6552 3.05859 22.3357 3.05859 21.9211V21.6065H3.81954V21.9722C3.81954 22.1576 3.85612 22.287 3.92929 22.3601C4.00734 22.4332 4.10977 22.47 4.23659 22.47C4.36342 22.47 4.46342 22.4332 4.53659 22.3601C4.61462 22.287 4.65366 22.1576 4.65366 21.9722C4.65366 21.7967 4.61462 21.6431 4.53659 21.5115C4.45854 21.3747 4.36097 21.248 4.24391 21.131C4.12684 21.009 4.00002 20.8895 3.86344 20.7725C3.73174 20.6505 3.60734 20.5187 3.49027 20.3772C3.37321 20.2357 3.27566 20.0747 3.19761 19.8942C3.11956 19.714 3.08054 19.5016 3.08054 19.2577ZM7.10496 18.0286C7.50982 18.0286 7.80982 18.136 8.00494 18.3505C8.20492 18.5651 8.30492 18.8797 8.30492 19.2945V19.9602C8.30492 20.3747 8.20492 20.6895 8.00494 20.9041C7.80982 21.1187 7.50982 21.226 7.10496 21.226H6.72449V23.1502H5.91964V18.0286H7.10496ZM6.72449 18.7602V20.4942H7.10496C7.23179 20.4942 7.32934 20.4601 7.39764 20.392C7.46592 20.3236 7.50007 20.1967 7.50007 20.0115V19.2431C7.50007 19.0577 7.46592 18.931 7.39764 18.8626C7.32934 18.7945 7.23179 18.7602 7.10496 18.7602H6.72449ZM9.48259 20.187H10.5874V20.9187H9.48259V22.4186H10.8728V23.1502H8.67774V18.0286H10.8728V18.7602H9.48259V20.187ZM13.7056 21.2406V21.9211C13.7056 22.3357 13.6031 22.6552 13.3982 22.8796C13.1984 23.0991 12.9007 23.209 12.5056 23.209C12.1105 23.209 11.8105 23.0991 11.6057 22.8796C11.4057 22.6552 11.3057 22.3357 11.3057 21.9211V19.2577C11.3057 18.8431 11.4057 18.5261 11.6057 18.3066C11.8105 18.0822 12.1105 17.97 12.5056 17.97C12.9007 17.97 13.1984 18.0822 13.3982 18.3066C13.6031 18.5261 13.7056 18.8431 13.7056 19.2577V19.7552H12.9446V19.2066C12.9446 19.0212 12.9056 18.892 12.8276 18.8187C12.7544 18.7407 12.6544 18.7017 12.5276 18.7017C12.4008 18.7017 12.2983 18.7407 12.2203 18.8187C12.1471 18.892 12.1105 19.0212 12.1105 19.2066V21.9722C12.1105 22.1576 12.1471 22.287 12.2203 22.3601C12.2983 22.4332 12.4008 22.47 12.5276 22.47C12.6544 22.47 12.7544 22.4332 12.8276 22.3601C12.9056 22.287 12.9446 22.1576 12.9446 21.9722V21.2406H13.7056ZM14.194 18.0286H14.9987V23.1502H14.194V18.0286ZM18.1921 23.1502H17.38L17.241 22.2211H16.2531L16.1141 23.1502H15.3751L16.1946 18.0286H17.3726L18.1921 23.1502ZM16.3556 21.526H17.1311L16.7434 18.9357L16.3556 21.526ZM18.567 18.0286H19.3719V22.4186H20.6961V23.1502H18.567V18.0286ZM23.3896 20.2967H24.5165V21.9211C24.5165 22.3357 24.4141 22.6552 24.2091 22.8796C24.0091 23.0991 23.7116 23.209 23.3165 23.209C22.9215 23.209 22.6215 23.0991 22.4166 22.8796C22.2166 22.6552 22.1166 22.3357 22.1166 21.9211V19.2577C22.1166 18.8431 22.2166 18.5261 22.4166 18.3066C22.6215 18.0822 22.9215 17.97 23.3165 17.97C23.7116 17.97 24.0091 18.0822 24.2091 18.3066C24.4141 18.5261 24.5165 18.8431 24.5165 19.2577V19.7552H23.7556V19.2066C23.7556 19.0212 23.7165 18.892 23.6385 18.8187C23.5654 18.7407 23.4654 18.7017 23.3385 18.7017C23.2116 18.7017 23.1094 18.7407 23.0311 18.8187C22.958 18.892 22.9215 19.0212 22.9215 19.2066V21.9722C22.9215 22.1576 22.958 22.287 23.0311 22.3601C23.1094 22.4332 23.2116 22.47 23.3385 22.47C23.4654 22.47 23.5654 22.4332 23.6385 22.3601C23.7165 22.287 23.7556 22.1576 23.7556 21.9722V21.0285H23.3896V20.2967ZM27.6311 23.1502H26.819L26.68 22.2211H25.6921L25.5531 23.1502H24.8141L25.6336 18.0286H26.8116L27.6311 23.1502ZM25.7946 21.526H26.5701L26.1824 18.9357L25.7946 21.526ZM29.7106 21.665L30.2595 18.0286H31.379V23.1502H30.618V19.4772L30.062 23.1502H29.301L28.701 19.5285V23.1502H27.9986V18.0286H29.1181L29.7106 21.665ZM32.7694 20.187H33.8741V20.9187H32.7694V22.4186H34.1595V23.1502H31.9645V18.0286H34.1595V18.7602H32.7694V20.187ZM34.5557 19.2577C34.5557 18.8431 34.6532 18.5261 34.8485 18.3066C35.0485 18.0822 35.346 17.97 35.7411 17.97C36.1361 17.97 36.4314 18.0822 36.6265 18.3066C36.8265 18.5261 36.9265 18.8431 36.9265 19.2577V19.4187H36.1655V19.2066C36.1655 19.0212 36.129 18.892 36.0559 18.8187C35.9875 18.7407 35.8899 18.7017 35.763 18.7017C35.6364 18.7017 35.5364 18.7407 35.4631 18.8187C35.3949 18.892 35.3606 19.0212 35.3606 19.2066C35.3606 19.3821 35.3996 19.5382 35.4776 19.6747C35.5559 19.8066 35.6534 19.9335 35.7704 20.0552C35.8875 20.1725 36.0119 20.292 36.1435 20.4137C36.2801 20.531 36.407 20.6601 36.524 20.8016C36.6411 20.9431 36.7386 21.1041 36.8166 21.2846C36.8949 21.4651 36.9339 21.6772 36.9339 21.9211C36.9339 22.3357 36.8314 22.6552 36.6265 22.8796C36.4265 23.0991 36.129 23.209 35.7339 23.209C35.3386 23.209 35.0386 23.0991 34.8339 22.8796C34.6339 22.6552 34.5339 22.3357 34.5339 21.9211V21.6065H35.2949V21.9722C35.2949 22.1576 35.3314 22.287 35.4045 22.3601C35.4826 22.4332 35.585 22.47 35.7119 22.47C35.8386 22.47 35.9386 22.4332 36.0117 22.3601C36.0897 22.287 36.129 22.1576 36.129 21.9722C36.129 21.7967 36.0897 21.6431 36.0117 21.5115C35.9337 21.3747 35.8362 21.248 35.7191 21.131C35.6021 21.009 35.4752 20.8895 35.3386 20.7725C35.207 20.6505 35.0826 20.5187 34.9655 20.3772C34.8485 20.2357 34.751 20.0747 34.6727 19.8942C34.5947 19.714 34.5557 19.5016 34.5557 19.2577Z" fill="#488BFF"/>
</svg>
