<svg width="13" height="13" viewBox="0 0 13 13" fill="none" xmlns="http://www.w3.org/2000/svg">
<path d="M6.57769 13C6.3955 13 6.21823 13 6.03603 13C6.0114 12.9951 5.98188 12.9901 5.95725 12.9901C5.38607 12.9606 4.82471 12.8571 4.28309 12.6699C2.89943 12.1921 1.80137 11.3349 1.00368 10.1033C0.462039 9.26584 0.141978 8.34954 0.0385734 7.35935C0.0238013 7.23126 0.0139533 7.09825 0.00410528 6.97017C0.00410528 6.78789 0.00410528 6.61055 0.00410528 6.42827C0.00902928 6.40857 0.00902928 6.38394 0.0139533 6.36423C0.0484214 6.08343 0.0631937 5.80263 0.117358 5.52675C0.334015 4.35429 0.846112 3.3247 1.65365 2.44781C2.70739 1.29998 4.00733 0.629995 5.55349 0.437868C6.16404 0.359047 6.77463 0.378752 7.38029 0.482205C8.45372 0.669406 9.41885 1.098 10.2609 1.78768C11.6691 2.94537 12.4471 4.43311 12.5948 6.25092C12.6638 7.0884 12.5604 7.90617 12.2846 8.69931C11.7233 10.3201 10.6794 11.527 9.15787 12.3202C8.4685 12.6798 7.73483 12.8867 6.96175 12.9655C6.82882 12.9803 6.70077 12.9901 6.57769 13ZM1.05292 6.69429C1.05785 9.60083 3.40661 11.9507 6.30686 11.9507C9.20709 11.9507 11.5657 9.58605 11.5559 6.68937C11.546 3.78285 9.19232 1.43299 6.29701 1.44284C3.39676 1.44777 1.048 3.80748 1.05292 6.69429Z" fill="white"/>
<path d="M5.86779 6.69387C5.86779 7.97964 5.86779 9.26049 5.86779 10.5463C5.86779 10.7482 5.77325 10.896 5.62281 10.9256C5.55834 10.9404 5.49382 10.9354 5.42935 10.9354C4.76741 10.9305 4.14842 10.7482 3.57672 10.364C2.64394 9.73341 2.04216 8.80726 1.81433 7.59046C1.56072 6.23572 1.83583 5.00906 2.60956 3.9499C3.16836 3.17646 3.8948 2.70846 4.75452 2.52126C5.00813 2.46707 5.26603 2.44243 5.52393 2.44736C5.74747 2.45229 5.86779 2.59022 5.86779 2.84639C5.86779 4.12725 5.86779 5.41302 5.86779 6.69387Z" fill="white"/>
</svg>
