<svg width="40" height="40" viewBox="0 0 40 40" fill="none" xmlns="http://www.w3.org/2000/svg">
<path d="M33.8136 31.5059C33.583 31.5059 33.3958 31.3189 33.3958 31.0882V20.1779C33.3958 19.7449 33.0435 19.3927 32.6105 19.3927H30.7687C30.538 19.3927 30.351 19.2057 30.351 18.9748C30.351 18.7442 30.538 18.5571 30.7687 18.5571H32.6105C33.5043 18.5571 34.2315 19.2842 34.2315 20.1779V31.0882C34.2313 31.3189 34.0443 31.5059 33.8136 31.5059Z" fill="#2E3C43"/>
<path d="M10.0185 28.2913C8.51401 28.2913 7.29002 27.0672 7.29002 25.5628V13.7295C7.29002 12.2249 8.51401 11.0009 10.0185 11.0009H28.7817C30.2862 11.0009 31.5102 12.2249 31.5102 13.7295V25.5628C31.5102 27.0673 30.2862 28.2913 28.7817 28.2913H10.0185Z" fill="#962A3A"/>
<path d="M28.7808 26.6644H10.0176C9.4089 26.6644 8.9155 26.171 8.9155 25.5624V13.7289C8.9155 13.1203 9.40897 12.6269 10.0176 12.6269H28.7808C29.3894 12.6269 29.8828 13.1203 29.8828 13.7289V25.5624C29.8829 26.171 29.3894 26.6644 28.7808 26.6644Z" fill="#FFF5F5"/>
<path d="M19.5655 23.7564L20.0644 24.633C20.0954 24.6877 20.1484 24.726 20.2099 24.7387L21.1978 24.9423C21.3634 24.9764 21.4288 25.1779 21.315 25.3029L20.6354 26.0483C20.5932 26.0947 20.573 26.157 20.5798 26.2193L20.6914 27.2218C20.7102 27.3899 20.5388 27.5143 20.3848 27.4447L19.4658 27.0288C19.4087 27.0028 19.3432 27.0028 19.286 27.0288L18.3672 27.4447C18.213 27.5143 18.0417 27.3898 18.0604 27.2218L18.172 26.2193C18.179 26.157 18.1587 26.0947 18.1164 26.0483L17.4369 25.3029C17.323 25.1779 17.3884 24.9764 17.5542 24.9423L18.5419 24.7387C18.6034 24.726 18.6564 24.6874 18.6874 24.633L19.1864 23.7564C19.27 23.6094 19.4818 23.6094 19.5655 23.7564Z" fill="#F7CF69"/>
<path d="M12.7165 11.4102L13.2153 12.2868C13.2465 12.3414 13.2993 12.3799 13.361 12.3925L14.3488 12.5962C14.5143 12.6303 14.5798 12.8317 14.466 12.9567L13.7865 13.7022C13.7441 13.7486 13.724 13.8108 13.7308 13.8733L13.8425 14.8757C13.8611 15.0437 13.6898 15.1682 13.5357 15.0986L12.6168 14.6826C12.5597 14.6567 12.4941 14.6567 12.437 14.6826L11.5181 15.0986C11.3641 15.1682 11.1927 15.0437 11.2114 14.8757L11.323 13.8733C11.33 13.811 11.3097 13.7486 11.2674 13.7022L10.5879 12.9567C10.4739 12.8317 10.5393 12.6303 10.705 12.5961L11.6929 12.3925C11.7543 12.3798 11.8073 12.3412 11.8384 12.2867L12.3373 11.4102C12.4209 11.2633 12.6327 11.2633 12.7165 11.4102Z" fill="#F7CF69"/>
<path d="M12.9391 13.7021L12.2596 12.9567C12.1456 12.8317 12.211 12.6303 12.3767 12.5961L13.363 12.3929L13.3613 12.3926C13.3 12.3799 13.2468 12.3413 13.2157 12.2868L12.717 11.4102C12.6333 11.2633 12.4214 11.2633 12.3378 11.4102L11.8388 12.2869C11.8078 12.3415 11.7548 12.3799 11.6933 12.3926L10.7055 12.5962C10.5398 12.6303 10.4744 12.8318 10.5883 12.9567L11.2678 13.7022C11.3102 13.7486 11.3304 13.811 11.3235 13.8733L11.2118 14.8757C11.1932 15.0438 11.3645 15.1683 11.5186 15.0986L12.4374 14.6827C12.4946 14.6567 12.5602 14.6567 12.6173 14.6827L12.8908 14.8065L12.9947 13.8733C13.0016 13.8108 12.9813 13.7485 12.9391 13.7021Z" fill="#FFB64C"/>
<path d="M26.4629 11.4102L26.9618 12.2868C26.9929 12.3414 27.0459 12.3799 27.1074 12.3926L28.0953 12.5961C28.2608 12.6303 28.3263 12.8317 28.2124 12.9567L27.5329 13.7021C27.4907 13.7486 27.4704 13.8108 27.4773 13.8733L27.5889 14.8757C27.6077 15.0437 27.4363 15.1682 27.2823 15.0986L26.3633 14.6826C26.3062 14.6567 26.2407 14.6567 26.1834 14.6826L25.2645 15.0986C25.1105 15.1682 24.9392 15.0437 24.9578 14.8757L25.0695 13.8733C25.0764 13.811 25.0562 13.7486 25.0138 13.7021L24.3344 12.9567C24.2204 12.8317 24.2859 12.6303 24.4515 12.5961L25.4394 12.3926C25.5008 12.3799 25.5538 12.3413 25.5849 12.2868L26.0838 11.4102C26.1675 11.2633 26.3794 11.2633 26.4629 11.4102Z" fill="#F7CF69"/>
<path d="M19.5364 15.6222L21.5954 13.3811C21.6604 13.3102 21.6714 13.2052 21.6225 13.1225L20.8786 11.8648C20.8394 11.7985 20.768 11.7578 20.6909 11.7578H18.0606C17.9835 11.7578 17.9121 11.7984 17.8729 11.8648L17.129 13.1225C17.08 13.2052 17.091 13.3102 17.156 13.3811L19.2151 15.6222C19.3015 15.7163 19.45 15.7163 19.5364 15.6222Z" fill="#B5D3E3"/>
<path d="M26.433 27.3312L28.492 25.0901C28.557 25.0192 28.568 24.9142 28.5191 24.8315L27.7752 23.5739C27.736 23.5075 27.6646 23.4667 27.5875 23.4667H24.9572C24.8801 23.4667 24.8086 23.5075 24.7695 23.5739L24.0255 24.8315C23.9765 24.9142 23.9875 25.0192 24.0526 25.0901L26.1116 27.3312C26.1981 27.4253 26.3465 27.4253 26.433 27.3312Z" fill="#B5D3E3"/>
<path d="M12.6873 27.3312L14.7463 25.0901C14.8115 25.0192 14.8225 24.9142 14.7735 24.8315L14.0296 23.5739C13.9902 23.5075 13.919 23.4667 13.8418 23.4667H11.2115C11.1345 23.4667 11.0631 23.5075 11.0239 23.5739L10.2799 24.8315C10.2309 24.9142 10.2419 25.0192 10.307 25.0901L12.3661 27.3312C12.4525 27.4253 12.6008 27.4253 12.6873 27.3312Z" fill="#B5D3E3"/>
<path d="M11.9511 24.8313L12.7585 23.4667H11.2115C11.1345 23.4667 11.0631 23.5075 11.0239 23.5739L10.2799 24.8313C10.2309 24.9141 10.2419 25.0192 10.307 25.09L12.3661 27.3312C12.4525 27.4253 12.6008 27.4253 12.6872 27.3312L13.2267 26.7441C13.3033 26.6606 13.3033 26.5325 13.2267 26.449L11.9782 25.09C11.9132 25.0192 11.9022 24.9142 11.9511 24.8313Z" fill="#8ABBD5"/>
<path d="M14.3823 17.84C13.963 17.4208 13.2833 17.4208 12.864 17.84L12.6272 18.0769C12.5707 18.1333 12.4791 18.1333 12.4227 18.0769L12.1897 17.8438C11.7704 17.4245 11.0906 17.4245 10.6713 17.8438C10.2521 18.263 10.2521 18.9429 10.6713 19.3621L12.4228 21.1135C12.4793 21.1701 12.5708 21.1701 12.6273 21.1135L14.3823 19.3583C14.8015 18.939 14.8015 18.2593 14.3823 17.84Z" fill="#EC5569"/>
<path d="M12.3426 19.3621C11.9491 18.9686 11.925 18.3458 12.27 17.9241L12.1897 17.8437C11.7704 17.4244 11.0906 17.4244 10.6713 17.8437C10.2521 18.2629 10.2521 18.9428 10.6713 19.3621L12.4229 21.1134C12.4793 21.17 12.5708 21.17 12.6273 21.1134L13.3607 20.38L12.3426 19.3621Z" fill="#E63950"/>
<path d="M21.2689 17.84C20.8497 17.4208 20.1699 17.4208 19.7507 17.84L19.5138 18.0769C19.4573 18.1333 19.3658 18.1333 19.3093 18.0769L19.0763 17.8438C18.657 17.4245 17.9773 17.4245 17.558 17.8438C17.1388 18.263 17.1388 18.9429 17.558 19.3621L19.3095 21.1135C19.3659 21.1701 19.4575 21.1701 19.514 21.1135L21.269 19.3583C21.6881 18.939 21.6881 18.2593 21.2689 17.84Z" fill="#EC5569"/>
<path opacity="0.05" d="M22.8079 11.9409H15.979V27.4018H22.8079V11.9409Z" fill="black"/>
<path d="M28.1289 17.84C27.7096 17.4208 27.0297 17.4208 26.6105 17.84L26.3737 18.0769C26.3172 18.1333 26.2256 18.1333 26.1692 18.0769L25.9361 17.8438C25.5169 17.4245 24.8371 17.4245 24.4179 17.8438C23.9986 18.263 23.9986 18.9429 24.4179 19.3621L26.1694 21.1135C26.2259 21.1701 26.3175 21.1701 26.3739 21.1135L28.1289 19.3583C28.5481 18.939 28.5481 18.2593 28.1289 17.84Z" fill="#EC5569"/>
<path d="M33.8135 30.6701C32.9521 30.6701 32.2514 31.3709 32.2514 32.2322C32.2514 33.0936 32.9521 33.7943 33.8135 33.7943C34.6749 33.7943 35.3757 33.0936 35.3757 32.2322C35.3757 31.3709 34.6749 30.6701 33.8135 30.6701Z" fill="#168C80"/>
<path d="M33.4189 32.2322C33.4189 31.5772 33.8244 31.0154 34.3972 30.7837C34.2167 30.7108 34.0197 30.6701 33.8135 30.6701C32.9521 30.6701 32.2514 31.3709 32.2514 32.2322C32.2514 33.0936 32.9521 33.7943 33.8135 33.7943C34.0197 33.7943 34.2167 33.7538 34.3972 33.6808C33.8244 33.4491 33.4189 32.8873 33.4189 32.2322Z" fill="#13776B"/>
<path d="M28.7818 11.0009H10.0185C8.51401 11.0009 7.29002 12.2249 7.29002 13.7295V25.5628C7.29002 27.0673 8.51401 28.2913 10.0185 28.2913H28.7818C30.2863 28.2913 31.5102 27.0674 31.5102 25.5628V13.7295C31.5102 12.2249 30.2862 11.0009 28.7818 11.0009ZM29.8839 25.5628C29.8839 26.1715 29.3904 26.6649 28.7818 26.6649H10.0185C9.40981 26.6649 8.91647 26.1714 8.91647 25.5628V13.7295C8.91647 13.1207 9.40987 12.6273 10.0185 12.6273H28.7817C29.3904 12.6273 29.8838 13.1207 29.8838 13.7295L29.8839 25.5628Z" fill="#168C80"/>
<path d="M8.96121 25.5628V13.7295C8.96121 12.2249 10.1852 11.0009 11.6897 11.0009H10.0185C8.51401 11.0009 7.29002 12.2249 7.29002 13.7295V25.5628C7.29002 27.0673 8.51401 28.2913 10.0185 28.2913H11.6897C10.1852 28.2913 8.96121 27.0672 8.96121 25.5628Z" fill="#13776B"/>
<path d="M5.20555 0.124511H7.41356C8.13202 0.124511 8.67088 0.307529 9.03015 0.673564C9.38935 1.0396 9.56895 1.57617 9.56895 2.28329V6.7007C9.56895 7.40778 9.38935 7.94436 9.03015 8.31036C8.67088 8.67644 8.13202 8.85944 7.41356 8.85944H5.20555V0.124511ZM7.38728 7.61164C7.62382 7.61164 7.80348 7.54504 7.92616 7.41197C8.05755 7.27884 8.12328 7.06258 8.12328 6.76304V2.22091C8.12328 1.92142 8.05755 1.70512 7.92616 1.57202C7.80348 1.43891 7.62382 1.37236 7.38728 1.37236H6.65127V7.61164H7.38728Z" fill="#168C80"/>
<path d="M10.5449 0.124511H12.6872C13.432 0.124511 13.9752 0.29089 14.3168 0.623651C14.6586 0.94809 14.8295 1.45138 14.8295 2.13354V2.67013C14.8295 3.5769 14.514 4.1509 13.8832 4.39215V4.41711C14.2337 4.51694 14.479 4.72075 14.6192 5.02856C14.7681 5.33636 14.8426 5.74814 14.8426 6.26393V7.79876C14.8426 8.04836 14.8513 8.25216 14.8688 8.41024C14.8865 8.55996 14.9302 8.7097 15.0003 8.85944H13.5283C13.4757 8.71804 13.4407 8.5849 13.4232 8.46016C13.4057 8.33536 13.3968 8.11078 13.3968 7.7863V6.18906C13.3968 5.78974 13.3268 5.51106 13.1866 5.353C13.0552 5.19493 12.823 5.11591 12.49 5.11591H11.9906V8.85944H10.5449V0.124511ZM12.5163 3.86805C12.8055 3.86805 13.0201 3.79735 13.1603 3.65593C13.3093 3.5145 13.3837 3.27742 13.3837 2.94465V2.27082C13.3837 1.95468 13.3225 1.72592 13.1997 1.5845C13.0858 1.44307 12.9018 1.37236 12.6477 1.37236H11.9906V3.86805H12.5163Z" fill="#168C80"/>
<path d="M17.9351 8.98451C17.2253 8.98451 16.6821 8.79317 16.3053 8.41051C15.9286 8.02784 15.7402 7.48711 15.7402 6.78832V2.19622C15.7402 1.49742 15.9286 0.956683 16.3053 0.574011C16.6821 0.191337 17.2253 0 17.9351 0C18.6447 0 19.1879 0.191337 19.5647 0.574011C19.9415 0.956683 20.1299 1.49742 20.1299 2.19622V6.78832C20.1299 7.48711 19.9415 8.02784 19.5647 8.41051C19.1879 8.79317 18.6447 8.98451 17.9351 8.98451ZM17.9351 7.73664C18.4344 7.73664 18.6842 7.44964 18.6842 6.87564V2.10887C18.6842 1.53486 18.4344 1.24785 17.9351 1.24785C17.4356 1.24785 17.1859 1.53486 17.1859 2.10887V6.87564C17.1859 7.44964 17.4356 7.73664 17.9351 7.73664Z" fill="#168C80"/>
<path d="M21.1078 0.124511H23.237C23.9555 0.124511 24.4943 0.307529 24.8536 0.673564C25.2128 1.0396 25.3925 1.57617 25.3925 2.28329V3.1443C25.3925 3.85143 25.2128 4.388 24.8536 4.75404C24.4943 5.12006 23.9555 5.30308 23.237 5.30308H22.5536V8.85944H21.1078V0.124511ZM23.237 4.05524C23.4736 4.05524 23.6488 3.99284 23.7627 3.86805C23.8855 3.74328 23.9467 3.53114 23.9467 3.23165V2.19594C23.9467 1.89646 23.8855 1.68432 23.7627 1.55953C23.6488 1.43476 23.4736 1.37236 23.237 1.37236H22.5536V4.05524H23.237Z" fill="#168C80"/>
<path d="M28.108 8.98451C27.4072 8.98451 26.877 8.79731 26.5178 8.42297C26.1586 8.04031 25.9789 7.49544 25.9789 6.78832V6.28916H27.3458V6.88812C27.3458 7.45384 27.5954 7.73664 28.0949 7.73664C28.3403 7.73664 28.5243 7.67011 28.6469 7.53698C28.7783 7.39558 28.844 7.17098 28.844 6.86318C28.844 6.49713 28.7564 6.17684 28.5812 5.90232C28.406 5.61947 28.0818 5.28256 27.6085 4.89156C27.0128 4.39242 26.5967 3.9432 26.36 3.54389C26.1234 3.13625 26.0052 2.67872 26.0052 2.17126C26.0052 1.48078 26.1892 0.948363 26.5572 0.574011C26.9252 0.191337 27.4597 0 28.1605 0C28.8528 0 29.3742 0.191337 29.7245 0.574011C30.0838 0.948363 30.2634 1.48911 30.2634 2.19622V2.55809H28.8965V2.10887C28.8965 1.80938 28.8353 1.59308 28.7125 1.45998C28.5899 1.31856 28.4103 1.24785 28.1738 1.24785C27.6919 1.24785 27.4509 1.52653 27.4509 2.08391C27.4509 2.40003 27.5385 2.69535 27.7138 2.96988C27.8978 3.2444 28.2263 3.57716 28.6994 3.96816C29.304 4.4673 29.7203 4.92069 29.948 5.32831C30.1759 5.73594 30.2898 6.21429 30.2898 6.76332C30.2898 7.47878 30.1014 8.02784 29.7245 8.41051C29.3567 8.79317 28.8178 8.98451 28.108 8.98451Z" fill="#168C80"/>
<path d="M6.0497 39.9998C5.52398 39.9998 5.12532 39.8293 4.8537 39.4881C4.58209 39.1471 4.44628 38.6521 4.44628 38.0033V37.0923C4.44628 36.6348 4.52951 36.2522 4.69599 35.9443C4.86246 35.6365 5.13409 35.4118 5.51085 35.2704V35.2455C5.16914 35.1124 4.91504 34.9003 4.74856 34.6092C4.59085 34.3095 4.51199 33.9269 4.51199 33.461V33.2988C4.51199 32.5917 4.69161 32.0552 5.05085 31.6892C5.41009 31.323 5.94893 31.14 6.66738 31.14H8.32338V32.3879H6.69372C6.45713 32.3879 6.27313 32.4544 6.14169 32.5875C6.01903 32.7207 5.9577 32.937 5.9577 33.2364V33.773C5.9577 34.1058 6.0278 34.3428 6.16798 34.4843C6.31693 34.6257 6.53598 34.6964 6.82512 34.6964H7.39025V33.7232H8.80971V34.6964H9.21711V35.9443H8.80971V38.8144C8.80971 39.0639 8.81845 39.2676 8.83597 39.4258C8.85351 39.5755 8.89731 39.7253 8.96737 39.875H7.52172C7.45158 39.692 7.40778 39.4633 7.39025 39.1886H7.36398C7.20625 39.4633 7.02225 39.667 6.81198 39.8001C6.61046 39.9333 6.35636 39.9998 6.0497 39.9998ZM6.58856 38.752C7.04418 38.752 7.31138 38.4899 7.39025 37.9658V35.9443H6.83826C6.50532 35.9443 6.26436 36.0317 6.11542 36.2063C5.96646 36.3726 5.89198 36.6555 5.89198 37.0548V37.9408C5.89198 38.232 5.95332 38.44 6.07598 38.5648C6.19864 38.6895 6.36951 38.752 6.58856 38.752Z" fill="#FFB64C"/>
<path d="M11.7822 31.14H13.1753L13.8193 37.8535H13.8457L14.5291 31.14H16.1062L16.7897 37.8535H16.8159L17.4599 31.14H18.7084L17.7753 39.875H15.9748L15.3177 33.9852H15.2913L14.6342 39.875H12.7153L11.7822 31.14Z" fill="#FFB64C"/>
<path d="M19.4399 31.14H20.8855V39.875H19.4399V31.14Z" fill="#FFB64C"/>
<path d="M21.9682 31.14H23.7818L25.1882 36.3685H25.2144V31.14H26.5024V39.875H25.0173L23.2824 33.4985H23.2562V39.875H21.9682V31.14Z" fill="#FFB64C"/>
<path d="M29.4562 40C28.7553 40 28.2252 39.8129 27.8659 39.4385C27.5067 39.0559 27.3271 38.511 27.3271 37.8039V37.3048H28.6939V37.9038C28.6939 38.4694 28.9437 38.7523 29.4431 38.7523C29.6884 38.7523 29.8724 38.6856 29.9951 38.5526C30.1266 38.4111 30.1922 38.1865 30.1922 37.8788C30.1922 37.5128 30.1046 37.1924 29.9293 36.9179C29.7542 36.635 29.4299 36.2981 28.9568 35.9071C28.3611 35.408 27.9448 34.9588 27.7082 34.5594C27.4717 34.1518 27.3533 33.6943 27.3533 33.1868C27.3533 32.4963 27.5373 31.9639 27.9053 31.5897C28.2733 31.2069 28.8078 31.0155 29.5088 31.0155C30.2011 31.0155 30.7223 31.2069 31.0728 31.5897C31.4321 31.9639 31.6117 32.5047 31.6117 33.2118V33.5736H30.2448V33.1244C30.2448 32.8249 30.1834 32.6086 30.0608 32.4755C29.9382 32.3342 29.7586 32.2634 29.5219 32.2634C29.0401 32.2634 28.7991 32.542 28.7991 33.0994C28.7991 33.4156 28.8867 33.7109 29.0619 33.9854C29.2459 34.26 29.5746 34.5928 30.0477 34.9838C30.6522 35.4829 31.0684 35.9363 31.2962 36.3439C31.5241 36.7515 31.6379 37.2299 31.6379 37.7789C31.6379 38.4943 31.4496 39.0434 31.0728 39.426C30.7048 39.8088 30.1659 40 29.4562 40Z" fill="#FFB64C"/>
</svg>
