<svg width="24" height="24" viewBox="0 0 24 24" fill="none" xmlns="http://www.w3.org/2000/svg">
<path d="M24 12C24 18.6274 18.6274 24 12 24C5.37262 24 0 18.6274 0 12C0 12.0028 12 0 12 0C18.6274 0 24 5.37262 24 12Z" fill="#0052B4"/>
<path d="M11.9678 12H11.9999C11.9999 11.9891 11.9999 11.9788 11.9999 11.9679C11.9891 11.9786 11.9785 11.9893 11.9678 12Z" fill="#F0F0F0"/>
<path d="M12 6.26086C12 4.14937 12 2.76577 12 0H11.998C5.3715 0.00107813 0 5.37319 0 12H6.26086V8.47435L9.78645 12H11.9679C11.9787 11.9892 11.9893 11.9786 12.0001 11.9679C12.0001 11.1594 12.0001 10.438 12.0001 9.78648L8.4744 6.26086H12Z" fill="#F0F0F0"/>
<path d="M6.07124 1.56519C4.19442 2.63389 2.63413 4.19418 1.56543 6.071V12H4.69588V4.69569L12.0002 4.69564C12.0002 3.70831 12.0002 2.76772 12.0002 1.56519H6.07124Z" fill="#D80027"/>
<path d="M11.9998 10.5244L7.73639 6.26101H6.26074L11.9998 12.0001C11.9998 12.0001 11.9998 10.9826 11.9998 10.5244Z" fill="#D80027"/>
<path d="M7.23729 14.0869L7.89587 15.464L9.38312 15.1203L8.71712 16.4938L9.91307 17.4422L8.42395 17.7778L8.42815 19.3043L7.23729 18.3493L6.04648 19.3043L6.05065 17.7778L4.56152 17.4422L5.75754 16.4938L5.09144 15.1203L6.57875 15.464L7.23729 14.0869Z" fill="#F0F0F0"/>
<path d="M17.9663 16.6957L18.2956 17.3842L19.0392 17.2123L18.7062 17.8991L19.3042 18.3733L18.5597 18.5411L18.5617 19.3043L17.9663 18.8268L17.3709 19.3043L17.3729 18.5411L16.6284 18.3733L17.2265 17.8991L16.8935 17.2123L17.637 17.3842L17.9663 16.6957Z" fill="#F0F0F0"/>
<path d="M14.9029 9.39124L15.2321 10.0799L15.9757 9.90791L15.6427 10.5947L16.2407 11.0689L15.4962 11.2368L15.4982 12L14.9029 11.5224L14.3074 12L14.3095 11.2368L13.5649 11.0689L14.163 10.5947L13.83 9.90791L14.5736 10.0799L14.9029 9.39124Z" fill="#F0F0F0"/>
<path d="M17.9663 5.21741L18.2956 5.906L19.0392 5.73411L18.7062 6.42088L19.3042 6.89507L18.5597 7.06292L18.5617 7.82615L17.9663 7.34863L17.3709 7.82615L17.3729 7.06292L16.6284 6.89507L17.2264 6.42088L16.8935 5.73411L17.637 5.906L17.9663 5.21741Z" fill="#F0F0F0"/>
<path d="M20.6421 8.34778L20.9714 9.03643L21.715 8.86445L21.382 9.55123L21.98 10.0255L21.2354 10.1933L21.2375 10.9565L20.6421 10.4791L20.0467 10.9565L20.0487 10.1933L19.3042 10.0255L19.9022 9.55123L19.5692 8.86445L20.3128 9.03643L20.6421 8.34778Z" fill="#F0F0F0"/>
<path d="M18.7291 12L18.9881 12.7972H19.8263L19.1481 13.2899L19.4072 14.087L18.7291 13.5943L18.051 14.087L18.31 13.2899L17.6318 12.7972H18.47L18.7291 12Z" fill="#F0F0F0"/>
</svg>
