<svg width="176" height="176" viewBox="0 0 176 176" fill="none" xmlns="http://www.w3.org/2000/svg">
<g clip-path="url(#clip0_1_1262)">
<path d="M6.14636 55.0776L118.412 45.2728C120.508 45.0897 122.358 46.6448 122.542 48.7483L126.755 96.9716C126.939 99.0754 125.386 100.927 123.291 101.11L11.0246 110.915C8.92826 111.098 7.07833 109.544 6.89458 107.44L2.68152 59.2163C2.49776 57.1126 4.04998 55.2607 6.14636 55.0776Z" fill="white"/>
<path fill-rule="evenodd" clip-rule="evenodd" d="M119.886 48.9793C119.83 48.3376 119.268 47.8734 118.643 47.9279L6.37758 57.7324C5.75355 57.7869 5.2805 58.3413 5.33659 58.9837M5.33659 58.9837L9.54965 107.207C9.60581 107.85 10.1678 108.313 10.7919 108.259L123.058 98.4538C123.681 98.3994 124.155 97.8456 124.099 97.2031L119.886 48.9793M125.197 48.5156C124.886 44.9505 121.747 42.3047 118.18 42.6164L5.91371 52.4211C2.345 52.7327 -0.286377 55.8828 0.0250186 59.4473L4.23807 107.671C4.54954 111.236 7.68724 113.882 11.256 113.57L123.522 103.766C127.09 103.454 129.721 100.304 129.41 96.7395L125.197 48.5156C125.197 48.5157 125.197 48.5154 125.197 48.5156Z" fill="#F4F4F4"/>
<path d="M87.8181 94.3844C87.146 94.4433 86.4793 94.2321 85.9629 93.7976C85.4464 93.3636 85.1236 92.741 85.0648 92.0684L84.1798 81.9154C84.1215 81.2422 84.3316 80.5734 84.765 80.0558C85.1984 79.5383 85.8194 79.2149 86.4909 79.1555L112.658 76.8647C113.329 76.8059 113.996 77.0165 114.513 77.4516C115.03 77.8861 115.353 78.5081 115.411 79.1808L116.295 89.3332C116.354 90.007 116.144 90.6758 115.71 91.1933C115.277 91.7109 114.656 92.0348 113.985 92.0937L87.8181 94.3844ZM53.2107 97.4144C52.539 97.4732 51.8716 97.2626 51.3554 96.8275C50.8387 96.393 50.5159 95.771 50.4573 95.0978L49.5724 84.9453C49.5139 84.2721 49.7243 83.6033 50.1575 83.0858C50.5911 82.5682 51.2118 82.2443 51.8835 82.1854L78.05 79.8947C78.7216 79.8358 79.3888 80.047 79.9058 80.4815C80.4217 80.9155 80.745 81.5381 80.8034 82.2113L81.6883 92.3637C81.7471 93.0364 81.5365 93.7057 81.1031 94.2233C80.6697 94.7408 80.0488 95.0648 79.3772 95.1231L53.2107 97.4144ZM18.603 100.444C17.9315 100.503 17.2641 100.292 16.7477 99.858C16.2313 99.4235 15.9083 98.8009 15.8496 98.1277L14.9648 87.9753C14.9062 87.3021 15.1167 86.6333 15.5501 86.1157C15.9835 85.5982 16.6043 85.2742 17.2759 85.2159L43.4427 82.9246C44.1141 82.8658 44.7814 83.077 45.298 83.5109C45.8143 83.9454 46.1375 84.568 46.196 85.2412L47.081 95.3937C47.1395 96.0669 46.9291 96.7357 46.4955 97.2532C46.0623 97.7708 45.4413 98.0947 44.7699 98.1536L18.603 100.444ZM17.1081 78.4102C16.3246 78.479 15.546 78.2326 14.9435 77.7255C14.3411 77.2189 13.9642 76.4929 13.8958 75.7075C13.8273 74.9227 14.073 74.1422 14.5786 73.5383C15.0842 72.9344 15.8085 72.5566 16.592 72.4878L34.3178 70.9363C35.1014 70.867 35.8799 71.1139 36.4824 71.6205C37.0848 72.127 37.4617 72.853 37.5302 73.6384C37.5985 74.4238 37.353 75.2043 36.8474 75.8082C36.3417 76.4121 35.6175 76.7894 34.8339 76.8581L17.1081 78.4102ZM100.779 62.5598C99.9961 62.6285 99.2173 62.3821 98.6145 61.875C98.0128 61.3685 97.635 60.6425 97.5674 59.8571C97.4986 59.0717 97.7439 58.2912 98.2494 57.6873C98.7559 57.0834 99.4797 56.7061 100.263 56.6374L110.393 55.7508C111.176 55.682 111.954 55.9279 112.557 56.435C113.159 56.9415 113.536 57.6675 113.605 58.4529C113.673 59.2383 113.428 60.0188 112.922 60.6227C112.416 61.2266 111.692 61.6044 110.909 61.6726L100.779 62.5598ZM16.3708 69.9501C15.5873 70.0183 14.8087 69.7725 14.2062 69.2654C13.6038 68.7588 13.2269 68.0323 13.1585 67.2474C13.09 66.462 13.3357 65.6816 13.8412 65.0777C14.3469 64.4738 15.0712 64.0959 15.8547 64.0277L52.9943 60.7756C53.7779 60.7074 54.5565 60.9532 55.159 61.4603C55.7613 61.9669 56.1386 62.6929 56.2068 63.4783C56.2756 64.2637 56.0297 65.0441 55.5243 65.648C55.0182 66.2519 54.2942 66.6298 53.5105 66.698L16.3708 69.9501Z" fill="#F4F4F4"/>
<path d="M56.7156 78.804L169.755 86.7526C171.866 86.9011 173.459 88.7365 173.311 90.8551L169.913 139.413C169.765 141.532 167.932 143.126 165.822 142.977L52.782 135.029C50.6711 134.881 49.078 133.045 49.2264 130.927L52.6237 82.3691C52.7721 80.2511 54.6048 78.6561 56.7156 78.804Z" fill="white"/>
<path fill-rule="evenodd" clip-rule="evenodd" d="M55.297 82.5561L51.8997 131.114C51.8545 131.76 52.3399 132.311 52.9691 132.355C52.969 132.355 52.9693 132.355 52.9691 132.355L166.009 140.303C166.637 140.347 167.193 139.872 167.239 139.227L170.636 90.6681C170.681 90.0207 170.195 89.4713 169.566 89.4267M169.566 89.4267L56.5268 81.4781C55.8993 81.4341 55.3427 81.9099 55.297 82.5561M49.9487 82.1816C50.2002 78.5923 53.3092 75.8775 56.903 76.1299L169.942 84.0785C173.535 84.3315 176.235 87.4528 175.984 91.0421L172.587 139.6C172.336 143.191 169.225 145.905 165.633 145.652L52.5931 137.704C49.0009 137.451 46.3001 134.329 46.5514 130.74L49.9487 82.1816Z" fill="#F4F4F4"/>
<path d="M131.155 130.318C130.482 130.271 129.855 129.958 129.413 129.447C128.97 128.937 128.748 128.272 128.796 127.597L129.507 117.424C129.554 116.75 129.867 116.122 130.376 115.678C130.886 115.235 131.55 115.012 132.223 115.059L158.442 116.902C159.115 116.95 159.742 117.263 160.184 117.773C160.626 118.284 160.848 118.95 160.801 119.624L160.09 129.798C160.042 130.472 159.729 131.1 159.221 131.543C158.711 131.987 158.047 132.21 157.374 132.162L131.155 130.318ZM96.4778 127.881C95.8051 127.833 95.1781 127.52 94.7354 127.01C94.2926 126.499 94.071 125.833 94.1188 125.16L94.8305 114.986C94.8773 114.312 95.1902 113.684 95.699 113.24C96.2088 112.797 96.8727 112.575 97.5459 112.621L123.764 114.465C124.438 114.512 125.064 114.825 125.507 115.336C125.95 115.846 126.171 116.512 126.124 117.187L125.413 127.359C125.365 128.034 125.052 128.661 124.544 129.105C124.034 129.549 123.371 129.771 122.697 129.725L96.4778 127.881ZM61.8008 125.442C61.1282 125.396 60.5012 125.082 60.0584 124.572C59.6162 124.061 59.394 123.396 59.4413 122.721L60.153 112.549C60.2003 111.874 60.5133 111.246 61.0226 110.802C61.5313 110.359 62.1957 110.136 62.8684 110.184L89.0874 112.027C89.7606 112.075 90.3876 112.388 90.8298 112.898C91.2726 113.408 91.4942 114.074 91.4469 114.749L90.7358 124.921C90.6879 125.596 90.375 126.224 89.8668 126.668C89.3564 127.111 88.6931 127.334 88.0204 127.286L61.8008 125.442ZM63.766 103.431C62.9811 103.376 62.2496 103.011 61.7337 102.415C61.2173 101.82 60.9582 101.043 61.0138 100.256C61.0688 99.4691 61.4334 98.7365 62.0269 98.219C62.6214 97.702 63.3964 97.4419 64.1812 97.4974L81.9429 98.7459C82.7278 98.8009 83.4587 99.1667 83.9752 99.7618C84.4911 100.357 84.7501 101.135 84.6951 101.921C84.6401 102.708 84.2755 103.441 83.6815 103.958C83.0875 104.475 82.3125 104.735 81.5277 104.68L63.766 103.431ZM148.937 100.9C148.152 100.845 147.422 100.479 146.905 99.8839C146.389 99.2882 146.13 98.5121 146.185 97.7251C146.24 96.9381 146.605 96.2055 147.199 95.6879C147.793 95.1704 148.568 94.9108 149.353 94.9658L159.502 95.6796C160.287 95.7346 161.019 96.0998 161.535 96.6955C162.05 97.2911 162.309 98.0677 162.254 98.8542C162.199 99.6418 161.834 100.374 161.241 100.892C160.647 101.409 159.872 101.669 159.087 101.614L148.937 100.9ZM64.3594 94.9542C63.5746 94.8992 62.8431 94.5329 62.3272 93.9378C61.8107 93.3421 61.5517 92.5655 61.6067 91.779C61.6617 90.9914 62.0263 90.2589 62.6203 89.7419C63.2149 89.2243 63.9893 88.9647 64.7747 89.0197L101.989 91.6361C102.774 91.6911 103.505 92.0568 104.022 92.6524C104.537 93.2475 104.797 94.0241 104.741 94.8112C104.687 95.5982 104.321 96.3309 103.728 96.8484C103.134 97.366 102.359 97.6256 101.574 97.5706L64.3594 94.9542Z" fill="#F4F4F4"/>
<path d="M128.791 34.2202L128.367 46.355L119.156 78.6945L118.379 100.937C118.364 101.336 118.231 101.722 117.997 102.045C117.762 102.369 117.438 102.615 117.064 102.754C116.694 102.901 116.288 102.93 115.9 102.836C115.513 102.743 115.165 102.532 114.901 102.232L112.367 99.5522L109.652 102.048C109.464 102.233 109.239 102.379 108.992 102.475C108.746 102.571 108.482 102.616 108.218 102.606C107.954 102.597 107.694 102.534 107.455 102.421C107.217 102.308 107.002 102.148 106.828 101.949L104.294 99.2684L101.578 101.764C101.39 101.95 101.166 102.095 100.919 102.191C100.673 102.287 100.409 102.332 100.145 102.323C99.8806 102.314 99.621 102.25 99.3823 102.138C99.1425 102.024 98.9297 101.864 98.7548 101.665L96.2286 98.984L93.5133 101.48C93.3246 101.666 93.1002 101.811 92.8538 101.907C92.6074 102.004 92.3445 102.048 92.08 102.039C91.816 102.029 91.5558 101.966 91.3171 101.853C91.0784 101.74 90.8639 101.579 90.689 101.381L88.1552 98.7008L85.1725 101.187C84.8893 101.468 84.5268 101.654 84.1341 101.721C83.7409 101.786 83.3372 101.729 82.9786 101.556C82.6156 101.391 82.3092 101.122 82.0986 100.784C81.8879 100.445 81.7823 100.051 81.795 99.6517L83.7832 42.7628C83.8778 40.0815 85.0301 37.5476 86.9886 35.718C88.9461 33.8885 91.5487 32.913 94.2233 33.0061L128.791 34.2202Z" fill="#6E6E6E"/>
<path d="M100.152 102.324C100.416 102.333 100.679 102.289 100.926 102.193C101.173 102.098 101.397 101.952 101.586 101.766L104.301 99.2706L106.835 101.951C107.01 102.149 107.223 102.31 107.463 102.423C107.702 102.536 107.962 102.599 108.226 102.608C108.49 102.617 108.753 102.573 109 102.477C109.246 102.381 109.47 102.236 109.659 102.05L112.374 99.5538L114.908 102.234C115.171 102.534 115.52 102.744 115.907 102.838C116.294 102.931 116.701 102.902 117.071 102.755C117.445 102.617 117.77 102.371 118.004 102.047C118.238 101.724 118.372 101.338 118.387 100.938L119.164 78.6978L128.368 46.3575L128.792 34.2226L102.564 33.3015L100.152 102.324Z" fill="#403F3F"/>
<path d="M143.371 79.5465L119.157 78.6962L120.44 42.027C120.514 39.8817 121.436 37.8541 123.003 36.3903C124.569 34.9265 126.652 34.1464 128.792 34.2215C130.932 34.2967 132.955 35.221 134.415 36.7911C135.876 38.3611 136.654 40.4485 136.579 42.5937L135.838 63.7896L143.371 79.5465Z" fill="#6E6E6E"/>
<path d="M109.07 78.3425L92.9296 77.776C92.3955 77.7573 91.889 77.5263 91.5249 77.1336C91.1597 76.7409 90.965 76.219 90.9837 75.6827C91.0018 75.1465 91.2323 74.6394 91.6239 74.2731C92.0155 73.9073 92.5363 73.7121 93.072 73.7308L109.212 74.2978C109.747 74.3165 110.252 74.5475 110.618 74.9402C110.983 75.3329 111.177 75.8549 111.159 76.3911C111.14 76.9274 110.909 77.4345 110.517 77.8008C110.126 78.1665 109.606 78.3618 109.07 78.3425Z" fill="#FAFAFA"/>
<path d="M108.787 86.4292L92.6465 85.8622C92.1114 85.8435 91.6059 85.6119 91.2407 85.2198C90.876 84.8271 90.6808 84.3051 90.7006 83.7689C90.7193 83.2321 90.9492 82.7255 91.3408 82.3592C91.7324 81.9929 92.2532 81.7982 92.7878 81.8169L108.928 82.3834C109.463 82.4027 109.969 82.6337 110.334 83.0258C110.699 83.4191 110.893 83.9405 110.875 84.4773C110.856 85.0135 110.625 85.5206 110.234 85.8864C109.842 86.2527 109.322 86.4474 108.787 86.4292Z" fill="#FAFAFA"/>
<path d="M109.707 60.142C109.762 58.5338 109.177 56.9696 108.082 55.7931C106.987 54.6161 105.471 53.9226 103.866 53.8644L99.8316 53.7227C99.2964 53.7039 98.791 53.4729 98.4258 53.0804C98.06 52.6879 97.8659 52.1661 97.8846 51.6297C97.9033 51.0933 98.1343 50.5865 98.5259 50.2206C98.9175 49.8545 99.4378 49.6596 99.9729 49.6783L104.008 49.8201C104.543 49.839 105.048 50.0699 105.414 50.4619C105.779 50.854 105.975 51.3753 105.956 51.9114C105.938 52.4477 106.132 52.9696 106.498 53.3621C106.863 53.7546 107.368 53.9857 107.904 54.0045C108.439 54.0232 108.96 53.8282 109.352 53.4623C109.743 53.0963 109.974 52.5895 109.992 52.0531C110.046 50.4447 109.462 48.8802 108.367 47.7032C107.273 46.5259 105.756 45.8322 104.151 45.774L104.222 43.7519C104.241 43.2155 104.047 42.6937 103.681 42.3012C103.316 41.9086 102.81 41.6776 102.275 41.6588C101.74 41.64 101.219 41.835 100.827 42.201C100.435 42.5669 100.206 43.0738 100.187 43.6101L100.116 45.6324C98.5105 45.5759 96.9479 46.1611 95.7731 47.2591C94.5983 48.3571 93.907 49.878 93.8509 51.4872C93.7937 53.0964 94.3778 54.662 95.4734 55.8399C96.569 57.0174 98.0864 57.711 99.6913 57.7671L103.727 57.909C104.262 57.9277 104.768 58.1587 105.134 58.5514C105.498 58.9435 105.693 59.4655 105.675 60.0017C105.656 60.5385 105.425 61.0451 105.033 61.4108C104.641 61.7771 104.12 61.9718 103.586 61.9531L99.5489 61.8118C99.0137 61.792 98.5088 61.561 98.1436 61.1683C97.7795 60.7761 97.5837 60.2547 97.6019 59.7185C97.6211 59.1822 97.4259 58.6603 97.0612 58.2676C96.696 57.8754 96.19 57.6444 95.6549 57.6257C95.1197 57.6065 94.5989 57.8017 94.2073 58.1675C93.8157 58.5338 93.5858 59.0403 93.5665 59.5766C93.5115 61.1853 94.0962 62.7506 95.1912 63.9282C96.2863 65.1057 97.8021 65.7993 99.4081 65.8576L99.3366 67.8799C99.3179 68.4162 99.5126 68.9381 99.8778 69.3303C100.243 69.723 100.748 69.954 101.284 69.9727C101.819 69.9914 102.34 69.7967 102.731 69.4304C103.123 69.0646 103.353 68.5581 103.372 68.0213L103.442 65.9989C105.048 66.0539 106.61 65.4676 107.784 64.3693C108.959 63.2715 109.651 61.7507 109.707 60.142Z" fill="#FFD580"/>
<path d="M148.584 62.9382C148.876 62.6654 149.243 62.485 149.636 62.4212C150.03 62.3568 150.434 62.4107 150.798 62.5768C151.162 62.7429 151.467 63.013 151.677 63.3534C151.887 63.6939 151.991 64.0888 151.978 64.4886L151.725 71.7404C151.649 73.8854 150.728 75.9127 149.161 77.3768C147.594 78.8409 145.512 79.6208 143.371 79.5454C141.231 79.4706 139.208 78.5461 137.748 76.9758C136.287 75.4056 135.509 73.3189 135.583 71.1733L135.837 63.9221C135.851 63.5223 135.983 63.1356 136.216 62.8106C136.45 62.4861 136.774 62.2375 137.149 62.0978C137.522 61.9575 137.929 61.9317 138.317 62.0235C138.707 62.1154 139.059 62.3205 139.332 62.6131L139.904 63.228L142.604 60.7052C142.995 60.3389 143.515 60.1442 144.051 60.1629C144.586 60.1816 145.091 60.4126 145.457 60.8053L147.974 63.5113L148.584 62.9382Z" fill="#403F3F"/>
<path d="M103.371 68.0185L103.441 65.9978C105.047 66.0544 106.61 65.4692 107.785 64.3709C108.959 63.2731 109.651 61.7523 109.707 60.143C109.764 58.5337 109.18 56.9684 108.084 55.7903C106.989 54.6127 105.471 53.9194 103.866 53.863L101.848 53.7922L101.708 57.8363L103.724 57.9073C104.26 57.926 104.765 58.1575 105.131 58.5497C105.495 58.9424 105.69 59.4643 105.672 60.0006C105.653 60.5368 105.422 61.0439 105.031 61.4097C104.639 61.7754 104.119 61.9707 103.584 61.952L101.566 61.881L101.282 69.9699C101.548 69.9792 101.812 69.9358 102.061 69.8428C102.309 69.7499 102.536 69.6091 102.731 69.4276C102.925 69.2466 103.082 69.0288 103.191 68.7874C103.3 68.5454 103.363 68.2841 103.371 68.0185Z" fill="#FFB366"/>
<path d="M104.007 49.8172C104.542 49.8366 105.047 50.0679 105.412 50.4602C105.778 50.8527 105.972 51.3741 105.954 51.9102C105.945 52.1757 105.987 52.4406 106.081 52.6894C106.173 52.9384 106.314 53.1665 106.494 53.3609C106.676 53.5552 106.893 53.7119 107.134 53.8222C107.375 53.9324 107.636 53.9939 107.901 54.0033C108.166 54.0126 108.43 53.9694 108.678 53.8764C108.927 53.7834 109.155 53.6422 109.348 53.4611C109.542 53.2799 109.698 53.0622 109.809 52.8204C109.918 52.5786 109.98 52.3175 109.989 52.0519C110.043 50.4434 109.46 48.879 108.364 47.7018C107.269 46.5246 105.753 45.8309 104.149 45.7728L104.219 43.7506C104.228 43.485 104.185 43.2201 104.093 42.9712C104 42.7222 103.859 42.494 103.678 42.2997C103.497 42.1052 103.281 41.9485 103.039 41.8383C102.798 41.7282 102.537 41.6667 102.272 41.6575L101.989 49.7463L104.007 49.8172Z" fill="#FFB366"/>
<path d="M108.93 82.3845L100.86 82.1013L100.718 86.146L108.788 86.4298C109.323 86.4485 109.844 86.2532 110.236 85.8875C110.628 85.5217 110.858 85.0146 110.876 84.4778C110.895 83.9416 110.7 83.4196 110.336 83.0275C109.97 82.6342 109.466 82.4032 108.93 82.3845Z" fill="#FAFAFA"/>
<path d="M109.211 74.2951L101.141 74.0118L100.999 78.0565L109.07 78.3403C109.605 78.359 110.126 78.1638 110.518 77.798C110.909 77.4317 111.139 76.9246 111.158 76.3884C111.177 75.8521 110.982 75.3302 110.617 74.9375C110.252 74.5448 109.746 74.3138 109.211 74.2951Z" fill="#FAFAFA"/>
</g>
<defs>
<clipPath id="clip0_1_1262">
<rect width="176" height="176" fill="white"/>
</clipPath>
</defs>
</svg>
