<svg width="32" height="32" viewBox="0 0 32 32" fill="none" xmlns="http://www.w3.org/2000/svg">
<path d="M16 31C24.2842 31 31 24.2843 31 16C31 7.71572 24.2842 1 16 1C7.71573 1 1 7.71572 1 16C1 24.2843 7.71573 31 16 31Z" fill="#E57E25"/>
<path d="M1.39054 17.1722C3.33036 15.3197 6.51947 14.7315 8.81178 15.8018C6.77714 18.7038 5.27821 22.0059 4.44303 25.5619C4.69536 25.8668 4.9616 26.1588 5.23697 26.4422C5.3125 26.3709 5.37197 26.2815 5.39554 26.1727C6.18357 22.5919 7.67714 19.2743 9.72143 16.3713C11.0902 17.4335 11.762 19.1822 11.6098 21.4257L11.6076 21.4547L11.6088 21.4841C11.7432 24.7322 13.6156 27.7043 16.6166 29.4335C17.5605 29.9778 18.5494 30.3566 19.5449 30.5741C20.4331 30.3588 21.2891 30.0641 22.1077 29.6988C20.4742 29.8252 18.745 29.4234 17.1513 28.5052C14.4785 26.965 12.8093 24.3363 12.6801 21.4681C12.8918 18.2194 11.6045 16.4463 10.3637 15.4975C11.1604 14.4556 12.0309 13.4735 12.9663 12.5575C16.7987 16.1216 20.4025 19.9391 23.7212 23.9752L26.0318 26.786L26.8594 26.1052L24.549 23.2943C21.2152 19.24 17.597 15.4043 13.7489 11.8215C14.4936 11.1469 15.2757 10.5132 16.0916 9.9234C17.3719 11.5418 19.4307 12.3347 22.0037 12.1653C24.4247 12.2752 26.6966 13.5931 28.2411 15.7835C29.4421 17.4872 30.0534 19.5132 29.9923 21.4032C30.3261 20.5402 30.581 19.6385 30.7514 18.7069C30.4343 17.469 29.8852 16.256 29.1169 15.1665C27.3732 12.6931 24.7862 11.2085 22.0198 11.094L21.9904 11.0928L21.9614 11.095C19.7811 11.2418 18.054 10.6069 16.9819 9.30572C19.7366 7.47518 22.84 6.12893 26.1721 5.395C26.2809 5.3709 26.3677 5.30875 26.4389 5.23322C26.1561 4.95893 25.8647 4.69322 25.5609 4.44197C22.2448 5.2209 19.151 6.57947 16.3954 8.41C15.3528 6.31643 15.7177 3.37428 17.2884 1.35518L17.5064 1.075C17.0114 1.02571 16.509 1 16 1V1.32893C14.514 3.68125 14.2927 6.74447 15.5039 9.02768C14.6152 9.66785 13.7655 10.3579 12.9577 11.094C11.2064 9.49268 9.41393 7.93804 7.57214 6.44715L5.79625 5.00928C5.53268 5.2541 5.27875 5.50803 5.03339 5.77107L6.89821 7.28072C8.70303 8.7416 10.4602 10.2641 12.1777 11.8327C11.1979 12.7959 10.2861 13.8288 9.45357 14.9248C9.3925 14.8938 9.33035 14.8616 9.27197 14.8343C6.73107 13.6444 3.38929 14.1432 1.10179 16H1C1 16.4982 1.02571 16.99 1.07286 17.4753L1.39054 17.1722Z" fill="#38454F"/>
<path d="M24.75 14.75C28.2018 14.75 31 11.9518 31 8.5C31 5.04822 28.2018 2.25 24.75 2.25C21.2982 2.25 18.5 5.04822 18.5 8.5C18.5 11.9518 21.2982 14.75 24.75 14.75Z" fill="#38454F"/>
<path d="M25.1239 12.25C23.8949 12.25 22.9003 11.9202 22.1402 11.2607C21.3801 10.5967 21 9.7344 21 8.6738V8.48663C21 7.74688 21.1505 7.09403 21.4516 6.52807C21.7577 5.96212 22.2019 5.5254 22.7843 5.21791C23.3667 4.90597 24.0577 4.75 24.8574 4.75C25.9827 4.75 26.8712 5.0664 27.5227 5.6992C28.1742 6.32754 28.5 7.20544 28.5 8.33289V9.20856H23.5395C23.6283 9.61408 23.8233 9.93271 24.1244 10.1644C24.4255 10.3962 24.8154 10.512 25.2942 10.512C26.0839 10.512 26.7009 10.2625 27.1451 9.76337L28.2853 10.9799C27.9743 11.3676 27.5326 11.6774 26.96 11.9091C26.3924 12.1364 25.7804 12.25 25.1239 12.25ZM24.8425 6.48797C24.112 6.48797 23.6777 6.92469 23.5395 7.79813H26.0568V7.62433C26.0666 7.26337 25.9654 6.98485 25.7532 6.78877C25.541 6.58824 25.2374 6.48797 24.8425 6.48797Z" fill="white"/>
</svg>
