<svg width="24" height="24" viewBox="0 0 24 24" fill="none" xmlns="http://www.w3.org/2000/svg">
<path d="M12 24C18.6275 24 24 18.6275 24 12C24 5.37258 18.6275 0 12 0C5.37258 0 0 5.37258 0 12C0 18.6275 5.37258 24 12 24Z" fill="#F0F0F0"/>
<path d="M11.4785 12H24.0002C24.0002 10.9169 23.8558 9.86767 23.5868 8.86957H11.4785V12Z" fill="#D80027"/>
<path d="M11.4785 5.73916H22.2389C21.5044 4.54047 20.5651 3.48095 19.47 2.6087H11.4785V5.73916Z" fill="#D80027"/>
<path d="M12.0001 24C14.8243 24 17.42 23.0239 19.4699 21.3913H4.53027C6.58012 23.0239 9.17589 24 12.0001 24Z" fill="#D80027"/>
<path d="M1.76147 18.2609H22.2389C22.8286 17.2985 23.286 16.2467 23.5868 15.1304H0.413574C0.714371 16.2467 1.17173 17.2985 1.76147 18.2609Z" fill="#D80027"/>
<path d="M5.55863 1.87397H6.65217L5.63498 2.61295L6.02353 3.80869L5.00639 3.06971L3.98925 3.80869L4.32487 2.7757C3.42928 3.52171 2.64431 4.39575 1.99744 5.36963H2.34783L1.70034 5.84002C1.59946 6.0083 1.50271 6.17925 1.41 6.35273L1.71919 7.30435L1.14235 6.88523C0.998955 7.18903 0.867795 7.49967 0.749906 7.8168L1.09054 8.8653H2.34783L1.33064 9.60427L1.71919 10.8L0.702047 10.061L0.0927652 10.5037C0.0317812 10.9939 0 11.4932 0 12H12C12 5.37262 12 4.59131 12 0C9.62947 0 7.41961 0.687656 5.55863 1.87397ZM6.02353 10.8L5.00639 10.061L3.98925 10.8L4.3778 9.60427L3.36061 8.8653H4.61789L5.00639 7.66957L5.39489 8.8653H6.65217L5.63498 9.60427L6.02353 10.8ZM5.63498 6.10861L6.02353 7.30435L5.00639 6.56536L3.98925 7.30435L4.3778 6.10861L3.36061 5.36963H4.61789L5.00639 4.17389L5.39489 5.36963H6.65217L5.63498 6.10861ZM10.3279 10.8L9.31073 10.061L8.29358 10.8L8.68215 9.60427L7.66493 8.8653H8.92222L9.31073 7.66957L9.69922 8.8653H10.9565L9.9393 9.60427L10.3279 10.8ZM9.9393 6.10861L10.3279 7.30435L9.31073 6.56536L8.29358 7.30435L8.68215 6.10861L7.66493 5.36963H8.92222L9.31073 4.17389L9.69922 5.36963H10.9565L9.9393 6.10861ZM9.9393 2.61295L10.3279 3.80869L9.31073 3.06971L8.29358 3.80869L8.68215 2.61295L7.66493 1.87397H8.92222L9.31073 0.678234L9.69922 1.87397H10.9565L9.9393 2.61295Z" fill="#0052B4"/>
</svg>
