<svg width="40" height="40" viewBox="0 0 40 40" fill="none" xmlns="http://www.w3.org/2000/svg">
<path d="M31.5365 31.5051V39.5164C31.5365 39.7831 31.3201 39.9993 31.0535 39.9993H30.1305C29.8636 39.9993 29.6475 39.7831 29.6475 39.5164V31.5051H31.5365Z" fill="#629ACC"/>
<path d="M31.5366 31.5051H29.6475V32.974H31.5366V31.5051Z" fill="#48709B"/>
<path d="M34.8831 2.20287V7.86567H5.11572V2.20287C5.11572 1.93613 5.3319 1.71997 5.59862 1.71997H34.4003C34.6669 1.71997 34.8831 1.93622 34.8831 2.20287Z" fill="#629ACC"/>
<path d="M34.8829 4.84619H5.11572V7.86674H34.8829V4.84619Z" fill="#48709B"/>
<path d="M38.1513 6.37401V27.2416C38.1513 27.5084 37.9351 27.7245 37.6684 27.7245H2.33152C2.06481 27.7245 1.84863 27.5084 1.84863 27.2416V6.37401C1.84863 6.10729 2.06481 5.89111 2.33152 5.89111H37.6683C37.935 5.89111 38.1513 6.10738 38.1513 6.37401Z" fill="#00D2D7"/>
<path d="M38.1513 6.37401V6.96151H1.84863V6.37401C1.84863 6.10729 2.06481 5.89111 2.33152 5.89111H37.6683C37.935 5.89111 38.1513 6.10738 38.1513 6.37401Z" fill="#00F0F5"/>
<path d="M35.8438 26.6349C35.8438 27.0083 35.8043 27.373 35.7294 27.7248H25.4551C25.3802 27.373 25.3408 27.0083 25.3408 26.6349C25.3408 23.7399 27.6964 21.3843 30.5922 21.3843C33.4881 21.3843 35.8438 23.7399 35.8438 26.6349Z" fill="#00B2BF"/>
<path d="M12.5321 19.953H6.28466C6.01793 19.953 5.80176 19.7369 5.80176 19.4701V10.102C5.80176 9.83532 6.01793 9.61914 6.28466 9.61914H12.5321C12.7989 9.61914 13.015 9.83532 13.015 10.102V19.4701C13.015 19.7369 12.7988 19.953 12.5321 19.953Z" fill="#E4EAF6"/>
<path d="M23.1241 19.953H16.8764C16.6098 19.953 16.3936 19.7369 16.3936 19.4701V10.102C16.3936 9.83532 16.6098 9.61914 16.8764 9.61914H23.1241C23.3908 9.61914 23.6069 9.83532 23.6069 10.102V19.4701C23.6069 19.7369 23.3908 19.953 23.1241 19.953Z" fill="#E4EAF6"/>
<path d="M33.7152 19.953H27.4679C27.2011 19.953 26.9849 19.7369 26.9849 19.4701V10.102C26.9849 9.83532 27.2011 9.61914 27.4679 9.61914H33.7152C33.982 9.61914 34.1981 9.83532 34.1981 10.102V19.4701C34.1981 19.7369 33.982 19.953 33.7152 19.953Z" fill="#E4EAF6"/>
<path d="M12.5321 19.9527H6.28466C6.01793 19.9527 5.80176 19.7365 5.80176 19.4698V18.5242H13.015V19.4698C13.015 19.7364 12.7988 19.9527 12.5321 19.9527Z" fill="#C7CFE2"/>
<path d="M23.1241 19.9527H16.8764C16.6098 19.9527 16.3936 19.7365 16.3936 19.4698V18.5242H23.6069V19.4698C23.6069 19.7364 23.3908 19.9527 23.1241 19.9527Z" fill="#C7CFE2"/>
<path d="M33.7152 19.9527H27.4679C27.2011 19.9527 26.9849 19.7365 26.9849 19.4698V18.5242H34.1981V19.4698C34.1981 19.7364 33.982 19.9527 33.7152 19.9527Z" fill="#C7CFE2"/>
<path d="M34.7971 26.6349C34.7971 27.3787 34.604 28.0779 34.2651 28.6839C33.5456 29.97 32.171 30.8402 30.592 30.8402C29.0137 30.8402 27.6381 29.9702 26.9196 28.6839C26.5798 28.0779 26.3867 27.3784 26.3867 26.6349C26.3867 24.3129 28.27 22.4304 30.592 22.4304C32.9146 22.4304 34.7971 24.3129 34.7971 26.6349Z" fill="#E94141"/>
<path d="M34.2651 28.6841C33.5454 29.9702 32.1709 30.8402 30.5918 30.8402C29.0134 30.8402 27.6381 29.9702 26.9194 28.6841H34.2651Z" fill="#C62525"/>
<path d="M34.7551 26.0489C34.0566 24.56 32.455 23.5193 30.591 23.5193C28.727 23.5193 27.1254 24.5599 26.4268 26.0489C26.7118 24.0039 28.4678 22.4304 30.591 22.4304C32.7149 22.4304 34.4704 24.0039 34.7551 26.0489Z" fill="#F28383"/>
<path d="M33.1394 31.9276H28.0428C27.7762 31.9276 27.5601 31.7113 27.5601 31.4446V30.2131C27.5601 29.9463 27.7762 29.7302 28.0428 29.7302H33.1394C33.4062 29.7302 33.6223 29.9463 33.6223 30.2131V31.4446C33.6223 31.7113 33.4062 31.9276 33.1394 31.9276Z" fill="#FFA511"/>
<path d="M19.5171 24.4444H6.28466C6.01793 24.4444 5.80176 24.2282 5.80176 23.9614V23.3138C5.80176 23.0472 6.01793 22.8308 6.28466 22.8308H19.5171C19.7839 22.8308 20 23.0472 20 23.3138V23.9614C20 24.2282 19.7839 24.4444 19.5171 24.4444Z" fill="#629ACC"/>
<path d="M9.06924 3.44219C10.0198 3.44219 10.7903 2.67163 10.7903 1.7211C10.7903 0.77056 10.0198 0 9.06924 0C8.11872 0 7.34814 0.77056 7.34814 1.7211C7.34814 2.67163 8.11872 3.44219 9.06924 3.44219Z" fill="#FFDC13"/>
<path d="M14.5351 3.44219C15.4856 3.44219 16.2562 2.67163 16.2562 1.7211C16.2562 0.77056 15.4856 0 14.5351 0C13.5845 0 12.814 0.77056 12.814 1.7211C12.814 2.67163 13.5845 3.44219 14.5351 3.44219Z" fill="#FFA511"/>
<path d="M19.9994 3.44219C20.9499 3.44219 21.7206 2.67163 21.7206 1.7211C21.7206 0.77056 20.9499 0 19.9994 0C19.0488 0 18.2783 0.77056 18.2783 1.7211C18.2783 2.67163 19.0488 3.44219 19.9994 3.44219Z" fill="#FFDC13"/>
<path d="M25.4658 3.44219C26.4163 3.44219 27.1868 2.67163 27.1868 1.7211C27.1868 0.77056 26.4163 0 25.4658 0C24.5153 0 23.7446 0.77056 23.7446 1.7211C23.7446 2.67163 24.5153 3.44219 25.4658 3.44219Z" fill="#FFA511"/>
<path d="M30.9301 3.44219C31.8805 3.44219 32.6511 2.67163 32.6511 1.7211C32.6511 0.77056 31.8805 0 30.9301 0C29.9795 0 29.209 0.77056 29.209 1.7211C29.209 2.67163 29.9795 3.44219 30.9301 3.44219Z" fill="#FFDC13"/>
<path d="M8.45486 17.6189C8.12143 17.6189 7.85126 17.3485 7.85126 17.0152C7.85126 15.0935 8.96306 13.8052 9.70189 13.1615H8.7422C8.66486 13.4057 8.43643 13.5829 8.16658 13.5829C7.83314 13.5829 7.56299 13.3126 7.56299 12.9792V12.558C7.56299 12.2246 7.83323 11.9543 8.16658 11.9543H10.6503C10.9837 11.9543 11.2538 12.2246 11.2538 12.558V13.201C11.2538 13.4136 11.1419 13.6106 10.9592 13.7195C10.8834 13.7655 9.05845 14.8957 9.05845 17.0152C9.05854 17.3485 8.78829 17.6189 8.45486 17.6189Z" fill="#E94141"/>
<path d="M19.0462 17.6189C18.7128 17.6189 18.4427 17.3485 18.4427 17.0152C18.4427 15.0935 19.5545 13.8052 20.2932 13.1615H19.3337C19.2562 13.4057 19.0278 13.5829 18.7579 13.5829C18.4245 13.5829 18.1543 13.3126 18.1543 12.9792V12.558C18.1543 12.2246 18.4247 11.9543 18.7579 11.9543H21.2417C21.575 11.9543 21.8452 12.2246 21.8452 12.558V13.201C21.8452 13.4136 21.7332 13.6106 21.5507 13.7195C21.4748 13.7655 19.6498 14.8957 19.6498 17.0152C19.6498 17.3485 19.3797 17.6189 19.0462 17.6189Z" fill="#E94141"/>
<path d="M29.6375 17.6189C29.304 17.6189 29.0339 17.3485 29.0339 17.0152C29.0339 15.0935 30.1456 13.8052 30.8845 13.1615H29.9247C29.8475 13.4057 29.619 13.5829 29.3491 13.5829C29.0157 13.5829 28.7456 13.3126 28.7456 12.9792V12.558C28.7456 12.2246 29.0157 11.9543 29.3491 11.9543H31.8329C32.1664 11.9543 32.4365 12.2246 32.4365 12.558V13.201C32.4365 13.4136 32.3245 13.6106 32.1417 13.7195C32.0659 13.7655 30.241 14.8957 30.241 17.0152C30.2411 17.3485 29.9709 17.6189 29.6375 17.6189Z" fill="#E94141"/>
<path d="M22.1324 23.4713C21.7991 23.4713 21.5288 23.2011 21.5288 22.8678V22.7922C21.5288 22.459 21.7992 22.1887 22.1324 22.1887C22.4658 22.1887 22.7361 22.459 22.7361 22.7922V22.8678C22.7361 23.2011 22.4658 23.4713 22.1324 23.4713Z" fill="#00B2BF"/>
<path d="M23.7439 23.4713C23.4104 23.4713 23.1401 23.2011 23.1401 22.8678V22.7922C23.1401 22.459 23.4104 22.1887 23.7439 22.1887C24.0773 22.1887 24.3474 22.459 24.3474 22.7922V22.8678C24.3474 23.2011 24.0771 23.4713 23.7439 23.4713Z" fill="#00B2BF"/>
</svg>
