<svg width="13" height="12" viewBox="0 0 13 12" fill="none" xmlns="http://www.w3.org/2000/svg">
<path d="M5.99999 9.42814C5.89667 9.42795 5.79441 9.40725 5.69912 9.36728C5.60387 9.32726 5.51747 9.26876 5.44499 9.19515L0.21399 3.90615C0.0758665 3.75518 0.000857762 3.55698 0.0043919 3.35237C0.00792605 3.14776 0.0897344 2.95229 0.232989 2.80615C0.376081 2.66104 0.570342 2.57777 0.774114 2.57422C0.977881 2.57066 1.17493 2.64711 1.32299 2.78715L6.00299 7.51616L10.683 2.78715C10.831 2.64711 11.0281 2.57066 11.2319 2.57422C11.4356 2.57777 11.6299 2.66104 11.773 2.80615C11.9162 2.95229 11.998 3.14776 12.0016 3.35237C12.0051 3.55698 11.9301 3.75518 11.792 3.90615L6.55799 9.19616C6.48505 9.26996 6.39816 9.32846 6.30235 9.36833C6.20654 9.40815 6.10375 9.42848 5.99999 9.42814Z" fill="#737373"/>
</svg>
