<svg width="40" height="40" viewBox="0 0 40 40" fill="none" xmlns="http://www.w3.org/2000/svg">
<path d="M28.5096 31.4899C28.5096 31.4899 23.3389 33.4596 18.3324 33.4596C15.9781 33.4596 12.1649 32.9385 8.51186 32.7267C7.6942 32.6794 7.45314 31.5886 8.1744 31.2005C8.63574 30.9522 9.15246 30.6884 9.7146 30.4229C12.6692 29.0276 9.7146 27.0577 9.7146 27.0577C9.7146 27.0577 4.69309 24.2492 3.14864 23.1182C2.49941 22.6427 1.08926 21.3605 0.261445 20.5964C-0.0871484 20.2745 -0.0871484 19.7244 0.261445 19.4026C1.08926 18.6384 2.49941 17.3561 3.14864 16.8806C4.69309 15.7496 9.7146 12.9411 9.7146 12.9411C9.7146 12.9411 12.6692 10.9713 9.7146 9.57598C9.15246 9.31052 8.63574 9.04666 8.1744 8.79838C7.45314 8.41026 7.6942 7.31946 8.51186 7.27212C12.1649 7.06032 15.9781 6.53931 18.3324 6.53931C23.3389 6.53931 28.5096 8.50906 28.5096 8.50906V31.4899Z" fill="#FBE77B"/>
<path d="M24.8053 7.40112C19.3627 9.00419 15.3779 14.0446 15.3779 19.9995C15.3779 25.9543 19.3627 30.9946 24.8053 32.5977C26.9921 32.0679 28.5098 31.4897 28.5098 31.4897V8.50905C28.5098 8.50905 26.9921 7.93099 24.8053 7.40112Z" fill="#FCDD2E"/>
<path d="M28.5099 27.6703C28.5099 27.6703 25.0579 30.0813 21.7155 30.0813C20.0921 30.0813 17.426 28.9784 14.9141 28.5879C14.138 28.4671 13.9779 27.4239 14.6751 27.062C14.7419 27.0274 14.812 26.9926 14.8856 26.9579C16.8581 26.0265 14.8856 24.7114 14.8856 24.7114L9.97298 20.6236C9.58258 20.2988 9.58258 19.6994 9.97298 19.3745L14.8856 15.2868C14.8856 15.2868 16.8581 13.9718 14.8856 13.0403C14.812 13.0055 14.7419 12.9708 14.6751 12.9361C13.9779 12.5744 14.1379 11.5311 14.9141 11.4103C17.426 11.0198 20.0921 9.91699 21.7155 9.91699C25.0579 9.91699 28.5099 12.3279 28.5099 12.3279V27.6703Z" fill="#FBA615"/>
<path d="M19.7477 10.2275C17.0672 12.6333 15.3779 16.1223 15.3779 19.999C15.3779 23.876 17.0672 27.3649 19.7477 29.7706C20.4926 29.9539 21.1643 30.0813 21.7154 30.0813C25.0578 30.0813 28.5098 27.6703 28.5098 27.6703V12.3279C28.5098 12.3279 25.0578 9.91699 21.7154 9.91699C21.1642 9.91699 20.4926 10.0443 19.7477 10.2275Z" fill="#FA9801"/>
<path d="M28.5095 31.4904C34.8555 31.4904 39.9999 26.3459 39.9999 19.9999C39.9999 13.654 34.8555 8.50952 28.5095 8.50952C22.1635 8.50952 17.019 13.654 17.019 19.9999C17.019 26.3459 22.1635 31.4904 28.5095 31.4904Z" fill="#E9EFFF"/>
<path d="M35.581 10.9436C37.1058 12.8935 38.0146 15.3483 38.0146 18.0153C38.0146 24.3613 32.8703 29.5056 26.5243 29.5056C23.8571 29.5056 21.4026 28.5968 19.4526 27.0721C21.5558 29.7616 24.8305 31.4908 28.5095 31.4908C34.8554 31.4908 39.9999 26.3465 39.9999 20.0004C39.9999 16.3215 38.2708 13.0466 35.581 10.9436Z" fill="#D3DCFB"/>
<path d="M10.5354 16.4237C10.3637 16.4237 10.193 16.3514 10.0725 16.2108C9.85348 15.9553 9.88308 15.5705 10.1385 15.3515L11.2876 14.3667C11.5431 14.1477 11.9279 14.1773 12.1469 14.4328C12.3658 14.6882 12.3362 15.073 12.0807 15.2919L10.9317 16.2769C10.8169 16.3754 10.6757 16.4237 10.5354 16.4237Z" fill="#FCDD2E"/>
<path d="M4.54291 19.7888C4.25838 19.7888 4.00392 19.5887 3.94603 19.299C3.88002 18.969 4.09408 18.648 4.42408 18.582C6.71777 18.1232 8.50017 16.7437 8.51791 16.7298C8.78277 16.5226 9.16591 16.569 9.37331 16.8342C9.58071 17.0992 9.53405 17.4821 9.26891 17.6896C9.18725 17.7536 7.23757 19.262 4.663 19.7771C4.62276 19.7851 4.58252 19.7888 4.54291 19.7888Z" fill="#FCDD2E"/>
</svg>
