<svg width="24" height="24" viewBox="0 0 24 24" fill="none" xmlns="http://www.w3.org/2000/svg">
<path d="M11.9999 23.9998C18.6273 23.9998 23.9998 18.6273 23.9998 11.9999C23.9998 5.37253 18.6273 0 11.9999 0C5.37253 0 0 5.37253 0 11.9999C0 18.6273 5.37253 23.9998 11.9999 23.9998Z" fill="#E6E6E6"/>
<path d="M24 12C24 8.95803 22.866 6.1822 21 4.06722C20.2475 4.92049 19.6166 5.8822 19.1285 6.92447L20.2783 7.30762C20.5025 7.38262 20.6241 7.62522 20.5491 7.84976C20.4896 8.02931 20.3225 8.14286 20.1429 8.14286C20.0983 8.14286 20.0525 8.13559 20.0075 8.12059L18.7899 7.71476C18.6026 8.20376 18.4462 8.70776 18.3232 9.22548L19.7748 9.43285C20.0091 9.4663 20.172 9.6832 20.1386 9.91757C20.1081 10.1315 19.9248 10.2857 19.7148 10.2857C19.6946 10.2857 19.674 10.2845 19.6535 10.2815L18.1582 10.068C18.0785 10.56 18.0279 11.0615 18.0099 11.5718H19.2858C19.5228 11.5718 19.7143 11.7638 19.7143 12.0005C19.7143 12.237 19.5228 12.429 19.2858 12.429H18.0099C18.0279 12.939 18.0785 13.4408 18.1582 13.9328L19.6535 13.7194C19.8888 13.6843 20.1051 13.8488 20.1386 14.0828C20.172 14.3173 20.0091 14.5342 19.7748 14.5675L18.3232 14.775C18.4458 15.2922 18.6026 15.7967 18.7899 16.2857L20.0075 15.8798C20.2338 15.8048 20.4746 15.9265 20.5496 16.1507C20.6246 16.3752 20.5033 16.6178 20.2788 16.6928L19.1289 17.076C19.617 18.1182 20.2479 19.0804 21.0005 19.9332C22.866 17.8178 24 15.042 24 12Z" fill="#CCD6DB"/>
<path d="M4.71424 12.4285C4.47724 12.4285 4.28568 12.2365 4.28568 12C4.28568 11.7635 4.47724 11.5715 4.71424 11.5715H5.99009C5.97209 11.0615 5.92152 10.5596 5.8418 10.0676L4.34653 10.281C4.32596 10.2845 4.30539 10.2857 4.28524 10.2857C4.07525 10.2857 3.89182 10.1315 3.86139 9.91802C3.82797 9.68357 3.99082 9.46675 4.22525 9.4333L5.6768 9.22585C5.55423 8.70858 5.39738 8.20421 5.2101 7.71521L3.99254 8.12104C3.94754 8.13604 3.90168 8.14286 3.85711 8.14286C3.67754 8.14286 3.5104 8.02931 3.45082 7.84976C3.37582 7.62522 3.49711 7.38262 3.72168 7.30762L4.87153 6.92447C4.38339 5.8822 3.75254 4.92006 2.99997 4.06722C1.13399 6.1822 0 8.95803 0 12C0 15.042 1.13399 17.8178 2.99997 19.9328C3.75254 19.0795 4.38339 18.1178 4.87153 17.0755L3.72168 16.6924C3.49754 16.6174 3.37582 16.3748 3.45082 16.1502C3.52582 15.9261 3.76625 15.8044 3.99296 15.8794L5.21053 16.2852C5.39781 15.7962 5.55423 15.2922 5.67723 14.7745L4.22482 14.5672C3.99039 14.5337 3.82754 14.3168 3.86097 14.0824C3.89439 13.8484 4.11254 13.6855 4.34611 13.719L5.84138 13.9324C5.92109 13.4404 5.97166 12.939 5.98966 12.4285H4.71424Z" fill="#CCD6DB"/>
<path d="M5.98988 12.4284H7.28544C7.52243 12.4284 7.71398 12.2364 7.71398 11.9999C7.71398 11.7633 7.52243 11.5713 7.28544 11.5713H5.98988C5.99459 11.7136 5.99974 11.8563 5.99974 11.9999C5.99974 12.1434 5.99459 12.2861 5.98988 12.4284Z" fill="#E64C3C"/>
<path d="M4.28573 11.9999C4.28573 12.2364 4.47729 12.4284 4.71429 12.4284H5.99014C5.99485 12.2861 6 12.1434 6 11.9999C6 11.8563 5.99485 11.7136 5.99014 11.5713H4.71429C4.47729 11.5713 4.28573 11.7633 4.28573 11.9999Z" fill="#C03A2B"/>
<path d="M7.22482 14.9955C7.24539 14.9985 7.26596 14.9998 7.2861 14.9998C7.4961 14.9998 7.67956 14.8455 7.70993 14.6321C7.74338 14.3976 7.58056 14.1808 7.34611 14.1473L5.8414 13.9322C5.79555 14.216 5.74197 14.4975 5.6764 14.7743L7.22482 14.9955Z" fill="#E64C3C"/>
<path d="M3.86143 14.0819C3.82801 14.3163 3.99086 14.5332 4.22529 14.5666L5.67687 14.774C5.74244 14.4972 5.79554 14.2156 5.84183 13.9319L4.3466 13.7185C4.113 13.6855 3.89486 13.8483 3.86143 14.0819Z" fill="#C03A2B"/>
<path d="M7.34647 9.85281C7.58086 9.81936 7.74376 9.60254 7.71031 9.36809C7.67686 9.13409 7.45875 8.96954 7.22518 9.00464L5.67677 9.22581C5.74234 9.50264 5.79548 9.78418 5.84177 10.0679L7.34647 9.85281Z" fill="#E64C3C"/>
<path d="M3.86143 9.91804C3.89186 10.1315 4.07529 10.2858 4.28529 10.2858C4.30545 10.2858 4.32602 10.2845 4.3466 10.2815L5.84186 10.068C5.79601 9.78432 5.74244 9.50277 5.67687 9.22587L4.22486 9.43287C3.99086 9.46632 3.82801 9.68359 3.86143 9.91804Z" fill="#C03A2B"/>
<path d="M6.56396 7.264C6.78809 7.189 6.90981 6.94643 6.83481 6.72186C6.76024 6.49773 6.51896 6.37515 6.29267 6.45101L4.87111 6.92505C4.9924 7.1839 5.10683 7.447 5.20968 7.71574L6.56396 7.264Z" fill="#E64C3C"/>
<path d="M3.45081 7.84971C3.51038 8.02926 3.67752 8.14288 3.85709 8.14288C3.90166 8.14288 3.94752 8.13554 3.99252 8.12054L5.21009 7.71471C5.10723 7.44601 4.9928 7.18286 4.87152 6.92401L3.72166 7.30715C3.49709 7.38257 3.37581 7.62516 3.45081 7.84971Z" fill="#C03A2B"/>
<path d="M6.29321 17.5494C6.33821 17.5644 6.38407 17.5713 6.42865 17.5713C6.60821 17.5713 6.77535 17.4576 6.83493 17.2781C6.90993 17.0535 6.78864 16.8109 6.56407 16.7359L5.21022 16.2846C5.10737 16.5534 4.99294 16.8165 4.87166 17.0754L6.29321 17.5494Z" fill="#E64C3C"/>
<path d="M3.45081 16.15C3.37581 16.3745 3.49709 16.6171 3.72166 16.6921L4.87152 17.0752C4.9928 16.8164 5.10723 16.5532 5.21009 16.2845L3.99252 15.8787C3.76623 15.8037 3.52581 15.9254 3.45081 16.15Z" fill="#C03A2B"/>
<path d="M18.0097 11.5713H16.7142C16.4772 11.5713 16.2857 11.7633 16.2857 11.9999C16.2857 12.2364 16.4772 12.4284 16.7142 12.4284H18.0097C18.005 12.2861 17.9999 12.1434 17.9999 11.9999C17.9999 11.8563 18.005 11.7136 18.0097 11.5713Z" fill="#E64C3C"/>
<path d="M19.7141 11.9999C19.7141 11.7633 19.5226 11.5713 19.2856 11.5713H18.0097C18.005 11.7136 17.9998 11.8563 17.9998 11.9999C17.9998 12.1434 18.005 12.2861 18.0097 12.4284H19.2856C19.5226 12.4284 19.7141 12.2364 19.7141 11.9999Z" fill="#C03A2B"/>
<path d="M16.7751 9.00418C16.5407 8.97118 16.3234 9.13355 16.29 9.36755C16.2566 9.602 16.4194 9.8189 16.6538 9.85227L18.1585 10.0674C18.2044 9.78372 18.258 9.50217 18.3235 9.22528L16.7751 9.00418Z" fill="#E64C3C"/>
<path d="M19.7146 10.2858C19.9246 10.2858 20.108 10.1315 20.1384 9.91804C20.1719 9.68359 20.009 9.46677 19.7746 9.43332L18.323 9.22587C18.2575 9.50277 18.2044 9.78432 18.158 10.068L19.6533 10.2815C19.6739 10.2845 19.6944 10.2858 19.7146 10.2858Z" fill="#C03A2B"/>
<path d="M16.6533 14.147C16.4189 14.1803 16.256 14.3972 16.2894 14.6316C16.3203 14.8455 16.5037 14.9998 16.7137 14.9998C16.7339 14.9998 16.7544 14.9985 16.775 14.9955L18.3234 14.7743C18.2578 14.4975 18.2047 14.216 18.1584 13.9322L16.6533 14.147Z" fill="#E64C3C"/>
<path d="M20.1384 14.0819C20.105 13.8479 19.8886 13.6833 19.6533 13.7185L18.158 13.9319C18.2039 14.2156 18.2575 14.4971 18.323 14.774L19.7746 14.5666C20.009 14.5336 20.1719 14.3163 20.1384 14.0819Z" fill="#C03A2B"/>
<path d="M17.4358 16.736C17.2116 16.811 17.0899 17.0536 17.1649 17.2782C17.2244 17.4577 17.3916 17.5713 17.5711 17.5713C17.6158 17.5713 17.6616 17.564 17.7066 17.549L19.1281 17.075C19.0069 16.8162 18.8924 16.553 18.7896 16.2843L17.4358 16.736Z" fill="#E64C3C"/>
<path d="M20.5489 16.1501C20.4739 15.9259 20.2335 15.8042 20.0067 15.8792L18.7892 16.2851C18.892 16.5537 19.0065 16.8169 19.1277 17.0757L20.2776 16.6926C20.5026 16.6172 20.6239 16.3746 20.5489 16.1501Z" fill="#C03A2B"/>
<path d="M17.7067 6.45036C17.4809 6.37493 17.2391 6.49707 17.1646 6.72122C17.0896 6.94578 17.2109 7.18835 17.4354 7.26335L18.7893 7.71461C18.8921 7.44592 19.0066 7.18278 19.1278 6.92392L17.7067 6.45036Z" fill="#E64C3C"/>
<path d="M20.1426 8.14289C20.3221 8.14289 20.4893 8.02934 20.5489 7.84979C20.6239 7.62524 20.5026 7.38263 20.278 7.30763L19.1281 6.9245C19.0069 7.18335 18.8924 7.44649 18.7896 7.71524L20.0071 8.12106C20.0521 8.13606 20.098 8.14289 20.1426 8.14289Z" fill="#C03A2B"/>
</svg>
