<svg width="6" height="6" viewBox="0 0 6 6" fill="none" xmlns="http://www.w3.org/2000/svg">
<path d="M2.04822 1.01648C2.15517 0.863224 2.29755 0.738051 2.46325 0.65161C2.62898 0.565186 2.81309 0.520044 3 0.520044C3.18688 0.520044 3.37102 0.565186 3.53672 0.65161C3.70242 0.738051 3.84481 0.863224 3.95176 1.01648L5.78953 3.64682C5.91167 3.82141 5.98361 4.02613 5.99752 4.23875C6.01142 4.45136 5.96676 4.66372 5.86839 4.85272C5.77003 5.04173 5.62172 5.20014 5.4396 5.31073C5.25748 5.42132 5.04852 5.47986 4.83545 5.47998L1.16452 5.47998C0.951447 5.47986 0.742494 5.42132 0.560386 5.31073C0.37826 5.20014 0.229954 5.04173 0.131589 4.85272C0.0332237 4.66372 -0.0114317 4.45136 0.00245985 4.23875C0.0163696 4.02613 0.0883017 3.82141 0.210457 3.64682L2.04822 1.01648Z" fill="#13C2C2"/>
</svg>
