<svg width="40" height="40" viewBox="0 0 40 40" fill="none" xmlns="http://www.w3.org/2000/svg">
<path d="M8.07971 6.33781L0.8951 8.26295C0.251084 8.4355 -0.131124 9.09747 0.041429 9.74147L6.39982 33.4713L24.1215 29.9725L24.9751 28.4939L8.07971 6.33781Z" fill="#D5D9F2"/>
<path d="M24.9747 28.4932L18.6161 4.76347C18.4438 4.11945 17.7818 3.73724 17.1378 3.90979L8.07924 6.33705V25.7738C8.07924 27.1072 9.16019 28.1883 10.4937 28.1883H15.3654L14.5341 31.2907L6.39934 33.4705C6.57188 34.1146 7.23385 34.4967 7.87788 34.3241L24.121 29.9719C24.7649 29.7991 25.1473 29.1371 24.9747 28.4932Z" fill="#A4ACE3"/>
<path d="M5.79658 17.9878C6.05822 18.9643 6.55046 19.9478 8.08034 21.2432L8.88515 17.6046L8.08034 13.9659C6.35078 14.4561 5.32978 16.2457 5.79658 17.9878Z" fill="#CA59A6"/>
<path d="M17.839 14.7611C17.3682 13.0032 15.5614 11.9601 13.8036 12.4311C11.8733 12.9483 11.3952 14.7994 11.3952 14.7994C11.3952 14.7994 10.0556 13.4353 8.1252 13.9526C8.10959 13.9567 8.09454 13.9618 8.079 13.9662V21.2435C9.3029 22.28 11.1907 23.5158 14.1573 25.1082C18.1468 18.6681 18.3102 16.5188 17.839 14.7611Z" fill="#AA3584"/>
<path d="M27.5535 9.75521L27.362 0H10.546C9.87927 0 9.33875 0.540516 9.33875 1.20723V25.7741L16.1922 25.9647L27.5535 9.75521Z" fill="#F3F1F4"/>
<path d="M27.362 0V9.50241L23.1743 8.37777C21.8864 8.03266 20.5624 8.79699 20.2174 10.085L16.0134 25.7741H9.33875C9.33875 26.4408 9.87927 26.9814 10.546 26.9814H27.362C28.0288 26.9814 28.5694 26.4408 28.5694 25.7741V1.20723C28.5694 0.540516 28.0289 0 27.362 0Z" fill="#D5D9F2"/>
<path d="M13.7977 6.64719L12.4793 4.85212C12.4064 4.7529 12.4064 4.61784 12.4793 4.51862L13.7977 2.72354C13.9103 2.5703 14.1392 2.5703 14.2518 2.72354L15.5702 4.51862C15.6431 4.61784 15.6431 4.7529 15.5702 4.85212L14.2518 6.64719C14.1392 6.80051 13.9102 6.80051 13.7977 6.64719Z" fill="#CA59A6"/>
<path d="M13.7977 15.4533L12.4793 13.6582C12.4064 13.559 12.4064 13.4238 12.4793 13.3247L13.7977 11.5296C13.9103 11.3763 14.1392 11.3763 14.2518 11.5296L15.5702 13.3247C15.6431 13.4238 15.6431 13.559 15.5702 13.6582L14.2517 15.4533C14.1392 15.6064 13.9102 15.6064 13.7977 15.4533Z" fill="#CA59A6"/>
<path d="M13.7977 24.2569L12.4793 22.4618C12.4064 22.3625 12.4064 22.2275 12.4793 22.1283L13.7977 20.3333C13.9103 20.1799 14.1392 20.1799 14.2518 20.3333L15.5702 22.1283C15.6431 22.2275 15.6431 22.3625 15.5702 22.4618L14.2518 24.2569C14.1392 24.4101 13.9102 24.4101 13.7977 24.2569Z" fill="#CA59A6"/>
<path d="M24.1119 6.64719L25.4305 4.85212C25.5032 4.7529 25.5032 4.61784 25.4305 4.51862L24.1119 2.72354C23.9994 2.5703 23.7706 2.5703 23.6579 2.72354L22.3394 4.51862C22.2667 4.61784 22.2667 4.7529 22.3394 4.85212L23.6579 6.64719C23.7706 6.80051 23.9996 6.80051 24.1119 6.64719Z" fill="#CA59A6"/>
<path d="M32.8323 39.4814L39.1048 13.8956L22.8616 9.54327C22.2176 9.37071 21.5556 9.75292 21.3831 10.3969L15.0247 34.1267L32.8323 39.4814Z" fill="#F3F1F4"/>
<path d="M39.1048 13.8963L32.5901 38.2091C32.5038 38.5311 32.1728 38.7221 31.8508 38.6359L15.0247 34.1273C14.8521 34.7713 15.2342 35.4333 15.8783 35.6058L32.1215 39.9581C32.7655 40.1306 33.4275 39.7485 33.6 39.1045L39.9584 15.3747C40.1309 14.7308 39.7487 14.0688 39.1048 13.8963Z" fill="#D5D9F2"/>
<path d="M29.1972 17.7901C23.3847 20.9355 22.1894 22.5582 21.7343 24.1233C21.2526 25.7794 22.1907 27.535 23.8571 27.9799C24.7805 28.2263 25.5568 28.0073 26.0914 27.7388C25.7904 28.6854 25.4133 29.475 24.8048 30.1057C24.4978 30.4237 24.0444 30.5537 23.6174 30.4391L22.9049 30.2482C22.5858 30.1627 22.2416 30.3341 22.1464 30.6507C22.0481 30.9782 22.2401 31.32 22.5681 31.4078L28.4795 32.9918C28.7987 33.0773 29.1429 32.906 29.238 32.5893C29.3365 32.2618 29.1444 31.9201 28.8164 31.8321L28.0795 31.6347C27.6526 31.5203 27.3248 31.1811 27.218 30.7522C27.0064 29.9019 27.0746 29.0296 27.2874 28.0591C27.6163 28.559 28.1789 29.1369 29.1017 29.385C30.7673 29.8331 32.4576 28.7819 32.8684 27.1068C33.2568 25.5234 33.0332 23.5207 29.572 17.8905C29.4935 17.763 29.3289 17.7189 29.1972 17.7901Z" fill="#717ED4"/>
</svg>
