<svg width="24" height="24" viewBox="0 0 24 24" fill="none" xmlns="http://www.w3.org/2000/svg">
<path d="M0 12C0 13.4678 0.264047 14.8739 0.746391 16.1739L12 16.6956L23.2536 16.1739C23.736 14.8739 24 13.4678 24 12C24 10.5321 23.736 9.12604 23.2536 7.82607L12 7.30432L0.746391 7.82607C0.264047 9.12604 0 10.5321 0 12Z" fill="black"/>
<path d="M11.9999 0C6.84037 0 2.44185 3.2565 0.746338 7.8261H23.2536C21.558 3.2565 17.1595 0 11.9999 0Z" fill="#0052B4"/>
<path d="M23.2535 16.174H0.746338C2.44185 20.7435 6.84037 24 11.9999 24C17.1595 24 21.558 20.7435 23.2535 16.174Z" fill="#F0F0F0"/>
</svg>
