<svg width="32" height="32" viewBox="0 0 32 32" fill="none" xmlns="http://www.w3.org/2000/svg">
<path d="M2.22258 2.23836C2.70672 1.7822 3.46033 1.86875 3.83283 2.38174L17.4363 20.8133C18.3338 22.0293 19.2876 22.6475 20.8092 22.6522H29.494C29.5675 22.6522 29.64 22.6575 29.7103 22.6671C30.6812 22.8015 31.1772 23.9119 30.736 24.7786L29.7682 26.6801C29.5669 27.0785 29.0732 27.4317 28.6233 27.4317H20.8087C18.9145 27.4317 17.1492 26.4842 16.1154 24.9139L2.10073 3.62066C1.81572 3.18733 1.84416 2.59522 2.22258 2.23836Z" fill="#CB8252"/>
<path d="M22.3096 27.4317H26.0669L27.1404 22.6522H23.383L22.3096 27.4317Z" fill="#F0C419"/>
<path d="M4.50293 7.27105L7.5211 11.8566L9.72502 10.366L6.36655 5.81546L4.50293 7.27105Z" fill="#546A79"/>
<path d="M17.4356 20.8132C17.5302 20.9417 17.6295 21.0612 17.7303 21.178L29.2861 3.62064C29.5712 3.18731 29.5433 2.5952 29.1649 2.23834C28.6807 1.78164 27.9271 1.86873 27.5545 2.38172L15.6934 18.4527L17.4356 20.8132Z" fill="#7F5B53"/>
<path d="M13.659 21.1823C12.8475 22.1525 11.9682 22.6484 10.6103 22.6527H1.92615C1.33733 22.6527 0.900413 22.8397 0.648676 23.3117C0.4066 23.7647 0.447393 24.3164 0.675513 24.7763L1.61913 26.6806C1.82041 27.079 2.10973 27.432 2.56005 27.432H4.06136C4.06136 26.2639 5.02752 25.3079 6.20837 25.3079H11.576C12.4331 25.3079 13.1712 25.8146 13.5147 26.5373C14.2512 26.0865 14.8963 25.4854 15.3837 24.745L15.6939 24.2735L13.659 21.1823Z" fill="#7F5B53"/>
<path d="M6.20694 25.3074H8.95029L8.35395 22.6522H4.59668L5.24615 25.5438C5.53707 25.3977 5.86074 25.3074 6.20694 25.3074Z" fill="#F9EAB0"/>
<path d="M23.7128 12.0882L26.71 7.53394L24.7589 6.16916L21.4492 10.6539L23.7128 12.0882Z" fill="#CBB292"/>
<path d="M11.5746 29.5558H6.20707C5.02622 29.5558 4.06006 28.5998 4.06006 27.4317C4.06006 26.2633 5.02622 25.3074 6.20707 25.3074H11.5746C12.7554 25.3074 13.7216 26.2633 13.7216 27.4317C13.7216 28.5998 12.7554 29.5558 11.5746 29.5558Z" fill="#38454F"/>
</svg>
