<svg width="24" height="24" viewBox="0 0 24 24" fill="none" xmlns="http://www.w3.org/2000/svg">
<path d="M23.8984 10.4348H13.5653L13.5653 0.101578C13.0528 0.034875 12.5305 0 12 0C11.4695 0 10.9472 0.034875 10.4348 0.101578V10.4347L0.101578 10.4347C0.034875 10.9472 0 11.4694 0 12C0 12.5306 0.034875 13.0529 0.101578 13.5652H10.4347L10.4347 23.8984C10.9472 23.9651 11.4695 24 12 24C12.5305 24 13.0529 23.9652 13.5652 23.8984V13.5653L23.8984 13.5653C23.9651 13.0528 24 12.5306 24 12C24 11.4694 23.9651 10.9472 23.8984 10.4348Z" fill="#D80027"/>
</svg>
