<svg width="10" height="16" viewBox="0 0 10 16" fill="none" xmlns="http://www.w3.org/2000/svg">
<path d="M9.16665 14.4H5.83335V11.528L6.49165 12.168C6.56915 12.243 6.6613 12.3025 6.76285 12.3431C6.8644 12.3837 6.9733 12.4046 7.08335 12.4046C7.19335 12.4046 7.30225 12.3837 7.4038 12.3431C7.50535 12.3025 7.59755 12.243 7.675 12.168C7.7531 12.0936 7.8151 12.0051 7.8574 11.9076C7.8997 11.8102 7.9215 11.7056 7.9215 11.6C7.9215 11.4944 7.8997 11.3898 7.8574 11.2923C7.8151 11.1948 7.7531 11.1063 7.675 11.032L5.59165 9.032C5.5124 8.95915 5.41895 8.9021 5.31665 8.864C5.1138 8.784 4.8862 8.784 4.68335 8.864C4.58105 8.9021 4.4876 8.95915 4.40835 9.032L2.325 11.032C2.2473 11.1066 2.18565 11.1951 2.1436 11.2926C2.10155 11.39 2.0799 11.4945 2.0799 11.6C2.0799 11.7055 2.10155 11.8099 2.1436 11.9074C2.18565 12.0049 2.2473 12.0934 2.325 12.168C2.4819 12.3187 2.69475 12.4032 2.91665 12.4032C3.02655 12.4032 3.13535 12.3825 3.23685 12.3421C3.3384 12.3018 3.43065 12.2426 3.50835 12.168L4.16665 11.528V14.4H0.833335C0.61232 14.4 0.40036 14.4843 0.24408 14.6343C0.0878001 14.7844 0 14.9879 0 15.2C0 15.4121 0.0878001 15.6157 0.24408 15.7657C0.40036 15.9157 0.61232 16 0.833335 16H9.16665C9.3877 16 9.59965 15.9157 9.7559 15.7657C9.9122 15.6157 10 15.4121 10 15.2C10 14.9879 9.9122 14.7844 9.7559 14.6343C9.59965 14.4843 9.3877 14.4 9.16665 14.4ZM0.833335 1.6H4.16665V4.472L3.50835 3.832C3.43065 3.75741 3.3384 3.69824 3.23685 3.65787C3.13535 3.61751 3.02655 3.59672 2.91665 3.59672C2.69475 3.59672 2.4819 3.68135 2.325 3.832C2.2473 3.90659 2.18565 3.99514 2.1436 4.0926C2.10155 4.19006 2.0799 4.29452 2.0799 4.4C2.0799 4.61304 2.1681 4.81736 2.325 4.968L4.40835 6.968C4.4876 7.04085 4.58105 7.0979 4.68335 7.136C4.7831 7.1783 4.89095 7.2002 5 7.2002C5.10905 7.2002 5.2169 7.1783 5.31665 7.136C5.41895 7.0979 5.5124 7.04085 5.59165 6.968L7.675 4.968C7.7527 4.89341 7.81435 4.80485 7.8564 4.7074C7.89845 4.60994 7.9201 4.50549 7.9201 4.4C7.9201 4.29452 7.89845 4.19006 7.8564 4.0926C7.81435 3.99514 7.7527 3.90659 7.675 3.832C7.5973 3.75741 7.50505 3.69824 7.40355 3.65787C7.302 3.61751 7.1932 3.59672 7.08335 3.59672C6.97345 3.59672 6.86465 3.61751 6.76315 3.65787C6.6616 3.69824 6.56935 3.75741 6.49165 3.832L5.83335 4.472V1.6H9.16665C9.3877 1.6 9.59965 1.51572 9.7559 1.36568C9.9122 1.21565 10 1.01217 10 0.8C10 0.587825 9.9122 0.384344 9.7559 0.234315C9.59965 0.0842855 9.3877 0 9.16665 0H0.833335C0.61232 0 0.40036 0.0842855 0.24408 0.234315C0.0878001 0.384344 0 0.587825 0 0.8C0 1.01217 0.0878001 1.21565 0.24408 1.36568C0.40036 1.51572 0.61232 1.6 0.833335 1.6Z" fill="#737373"/>
</svg>
