<svg width="20" height="21" viewBox="0 0 20 21" fill="none" xmlns="http://www.w3.org/2000/svg">
<path d="M16.9471 13.9105C17.0531 13.6088 17.1407 13.3009 17.2096 12.9886C17.3601 12.3032 17.4179 11.6007 17.3814 10.8999C17.3138 9.6334 16.9622 8.4521 16.3189 7.3594C15.6109 6.1567 14.6506 5.2085 13.438 4.51472C12.7949 4.14432 12.1006 3.87099 11.3775 3.70358C11.3262 3.69175 11.304 3.67434 11.3042 3.61446C11.3073 3.06952 11.3073 2.52459 11.3042 1.97965C11.3042 1.91977 11.3191 1.90817 11.3761 1.91931C12.9406 2.22914 14.3468 2.88061 15.585 3.88554C17.5425 5.4675 18.7967 7.758 19.0751 10.2593C19.1551 10.974 19.1523 11.6955 19.0668 12.4096C19.0082 12.8979 18.9135 13.3812 18.7834 13.8555C18.7732 13.8935 18.7639 13.9195 18.7119 13.9193C18.1317 13.917 17.5515 13.9177 16.9727 13.9174C16.964 13.9158 16.9555 13.9134 16.9471 13.9105Z" fill="white"/>
<path d="M1.73138 16.7799C0.605902 15.1798 0.00129207 13.2716 2.06854e-06 11.3154C-0.00128793 9.3592 0.600812 7.4501 1.72419 5.8486C1.74252 5.9097 1.75065 16.5789 1.73138 16.7799Z" fill="white"/>
<path d="M19.9939 15.6563H19.8899C16.4838 15.6563 13.0778 15.6571 9.6719 15.6586C9.5791 15.6586 9.5628 15.6324 9.5628 15.5456C9.5651 10.3974 9.5665 5.2493 9.567 0.10119C9.567 0.0157801 9.5456 0 9.4637 0C6.696 0.00232 3.9283 0.00301998 1.16061 0.00208998H1.06546C1.06546 0.03876 1.08867 0.0591801 1.10306 0.0826201C1.87668 1.3396 2.65029 2.59619 3.4239 3.85239C3.4605 3.91048 3.4794 3.97799 3.4782 4.04665C3.4768 8.2961 3.4768 12.5456 3.4782 16.7951C3.4796 16.8778 3.4553 16.9589 3.4086 17.0272C2.58392 18.2857 1.76048 19.5456 0.938272 20.8067C0.925742 20.8258 0.897432 20.8415 0.911582 20.874H6.234C9.4776 20.874 12.7213 20.874 15.9649 20.874C16.0157 20.874 16.054 20.868 16.0898 20.8209C17.3854 19.114 18.6822 17.4074 19.9802 15.7013C19.9895 15.689 20.0106 15.679 19.9939 15.6563ZM15.2232 19.0912C15.1907 19.1343 15.1535 19.1346 15.1106 19.1343H4.1204C4.1487 19.0598 4.1958 19.002 4.2364 18.941C4.5512 18.4564 4.8669 17.9727 5.1838 17.4898C5.2077 17.454 5.2201 17.4118 5.2191 17.3688C5.2191 12.7513 5.2191 8.1337 5.2191 3.5161C5.2193 3.4731 5.2068 3.43099 5.1834 3.39495C4.86 2.87152 4.5375 2.3477 4.2158 1.8235C4.2012 1.80029 4.1872 1.77569 4.1666 1.74088H4.2624C5.419 1.74088 6.5756 1.74018 7.7321 1.73879C7.8124 1.73879 7.8289 1.76014 7.8289 1.83742C7.827 6.9883 7.8258 12.1393 7.8252 17.2902C7.8252 17.3763 7.8433 17.3974 7.9313 17.3974C10.7547 17.3946 13.5784 17.3938 16.4024 17.3951H16.5117C16.0749 17.9681 15.6476 18.5284 15.2232 19.0912Z" fill="white"/>
</svg>
