<svg width="32" height="32" viewBox="0 0 32 32" fill="none" xmlns="http://www.w3.org/2000/svg">
<path d="M12.4402 0.874295L11.665 1.80687C8.09098 6.09349 6.25687 8.29774 5.43457 15.8747C6.76388 16.0271 8.05386 16.0919 9.29784 16.0691C10.1927 7.89047 12.7029 4.86114 16.4664 0.326832L16.7191 0.0220698C16.4803 0.0109876 16.2409 0.00378418 15.9999 0.00378418C14.8113 0.00378418 13.6554 0.141758 12.5433 0.394988C12.5821 0.558451 12.5555 0.735213 12.4402 0.874295Z" fill="#F8FF13"/>
<path d="M4.33625 15.7292C5.19901 7.83649 7.21764 5.41115 10.8138 1.09738L11.0477 0.815887C5.07211 2.82787 0.726764 8.37676 0.499023 14.9751C0.540028 14.9763 0.580478 14.9707 0.621482 14.9812C1.88541 15.3032 3.12441 15.5498 4.33625 15.7292Z" fill="#090898"/>
<path d="M1.32064 19.3048C6.93159 21.9297 10.2135 22.2888 17.9174 19.1353C17.3029 18.1357 16.6202 17.1727 15.8589 16.2528L15.794 16.1664C13.971 16.7487 11.9785 17.0845 9.85121 17.1655C9.83292 17.1671 9.8163 17.1754 9.79746 17.1754C9.77917 17.1754 9.76143 17.1749 9.74204 17.1727C9.73761 17.1721 9.73484 17.1699 9.7304 17.1694C9.42675 17.1793 9.12088 17.1859 8.81169 17.1859C7.52504 17.1859 6.19406 17.0957 4.82762 16.9194C4.80934 16.9194 4.7905 16.9189 4.77165 16.9167C4.7639 16.9161 4.7578 16.9111 4.75059 16.91C3.36753 16.7283 1.9479 16.4545 0.5 16.0927C0.539896 17.187 0.691169 18.2532 0.946616 19.2783C1.06797 19.2462 1.19874 19.2478 1.32064 19.3048Z" fill="#090898"/>
<path d="M17.3196 1.03449C13.5821 5.5372 11.2869 8.30499 10.417 16.0249C12.2284 15.9113 13.9284 15.6021 15.4915 15.099C16.2052 8.56487 18.3053 6.08522 21.1961 2.69128C21.5591 2.26517 21.9364 1.82077 22.3255 1.35255C20.9573 0.740799 19.4856 0.322444 17.9424 0.129059C17.9308 0.232124 17.9002 0.33408 17.8288 0.419968L17.3196 1.03449Z" fill="#090898"/>
<path d="M4.27367 24.9804C10.2775 26.5241 13.294 26.8516 20.246 24.0865C19.7716 22.7007 19.1738 21.3764 18.4706 20.1058C14.6073 21.6989 11.7414 22.4946 9.03738 22.4946C6.55773 22.4946 4.19887 21.8247 1.3125 20.5153C1.88101 22.1876 2.72659 23.7302 3.79548 25.0911C3.9268 24.987 4.09802 24.9355 4.27367 24.9804Z" fill="#F8FF13"/>
<path d="M22.0389 3.40922C21.6265 3.89297 21.237 4.35288 20.8652 4.80559C27.2109 8.09868 29.4994 12.786 30.9717 19.5888C31.3235 18.2916 31.5147 16.9279 31.5147 15.5188C31.5147 9.60144 28.2011 4.45872 23.3288 1.84219C23.3111 1.8771 23.2995 1.91423 23.2734 1.94582C22.8467 2.46114 22.4351 2.94488 22.0389 3.40922Z" fill="#090898"/>
<path d="M30.0928 20.7882C28.6771 13.7104 26.5703 8.94397 20.1631 5.68912C19.3502 6.74747 18.6537 7.8169 18.0869 9.09358C24.4447 13.3519 27.2231 18.5079 27.2835 26.1624C28.6305 24.735 29.7082 23.0534 30.4392 21.1954C30.2674 21.1295 30.131 20.9815 30.0928 20.7882Z" fill="#F8FF13"/>
<path d="M17.6704 10.1508C17.1695 11.5576 16.8 13.2283 16.5762 15.3633L16.7285 15.5666C20.0088 19.528 21.9903 24.2418 22.6064 29.5585C23.9685 28.9168 25.2208 28.0829 26.3307 27.0916C26.2393 26.9919 26.1811 26.8605 26.1822 26.7143C26.2532 19.2476 23.6914 14.2573 17.6704 10.1508Z" fill="#090898"/>
<path d="M20.5737 25.1482C16.7531 26.6615 14.0645 27.2832 11.4635 27.2832C9.38279 27.2832 7.34366 26.8898 4.80859 26.2581C7.63125 29.1999 11.6004 31.034 16 31.034C17.9572 31.034 19.8284 30.6677 21.5528 30.0067L21.5262 29.8593C21.3466 28.2258 21.0186 26.6593 20.5737 25.1482Z" fill="#090898"/>
<path d="M20.8652 4.8056C21.237 4.35289 21.6271 3.89298 22.0388 3.40924C22.435 2.94433 22.8467 2.4606 23.2733 1.94527C23.2994 1.91369 23.311 1.87656 23.3288 1.84165C23.0013 1.666 22.6655 1.5042 22.3248 1.35182C21.9357 1.81948 21.5584 2.26444 21.1955 2.69055C18.3046 6.08505 16.2045 8.5647 15.4908 15.0987C13.9277 15.6025 12.2277 15.9116 10.4163 16.0247C11.2862 8.30427 13.5814 5.53703 17.3189 1.03431L17.8287 0.419795C17.8995 0.333907 17.9301 0.23195 17.9422 0.128886C17.5388 0.0784616 17.1315 0.040782 16.7188 0.0219421L16.466 0.326704C12.7026 4.86101 10.1924 7.89034 9.29753 16.069C8.05355 16.0917 6.76358 16.0269 5.43426 15.8745C6.25656 8.2976 8.09068 6.09336 11.6647 1.80674L12.4399 0.874167C12.5552 0.735084 12.5817 0.558323 12.5429 0.394859C12.0343 0.510669 11.535 0.651414 11.0469 0.815985L10.813 1.09748C7.21685 5.41124 5.19821 7.83659 4.33546 15.7293C3.12361 15.5493 1.88462 15.3027 0.621241 14.9813C0.580236 14.9707 0.539786 14.9758 0.498782 14.9752C0.492133 15.1559 0.484375 15.3365 0.484375 15.5188C0.484375 15.7111 0.492133 15.9012 0.498782 16.0917C1.94668 16.4542 3.36631 16.7274 4.74938 16.9091C4.75714 16.9101 4.76268 16.9146 4.77044 16.9158C4.78872 16.9174 4.807 16.9185 4.82584 16.9185C6.19229 17.0947 7.52382 17.1851 8.81048 17.1851C9.11966 17.1851 9.42553 17.1789 9.72918 17.1684C9.73306 17.169 9.73639 17.1718 9.74082 17.1718C9.75966 17.1734 9.7774 17.1745 9.79624 17.1745C9.81507 17.1745 9.8317 17.1661 9.84999 17.1645C11.9772 17.0836 13.9703 16.7478 15.7929 16.1654L15.8577 16.2519C16.6191 17.1712 17.3017 18.1348 17.9162 19.1344C10.2124 22.2879 6.92982 21.9293 1.31942 19.3039C1.19752 19.2469 1.06675 19.2452 0.945397 19.2774C1.05012 19.6973 1.17369 20.1101 1.31167 20.5158C4.19803 21.8251 6.5569 22.4951 9.03655 22.4951C11.7406 22.4951 14.6065 21.6994 18.4697 20.1063C19.173 21.3764 19.7708 22.7012 20.2452 24.0871C13.2932 26.8521 10.2767 26.5246 4.27285 24.9808C4.09775 24.9359 3.92597 24.9875 3.79409 25.0923C4.1127 25.4978 4.45015 25.8868 4.807 26.258C7.34262 26.8903 9.38121 27.2832 11.4619 27.2832C14.0634 27.2832 16.7514 26.662 20.572 25.1482C21.017 26.6593 21.3451 28.2257 21.5246 29.8593L21.5511 30.0067C21.9092 29.8692 22.2605 29.7207 22.6051 29.5584C21.989 24.2416 20.0074 19.5278 16.7271 15.5664L16.5747 15.3631C16.7986 13.2281 17.1676 11.558 17.6691 10.1506C23.6906 14.2571 26.2517 19.2474 26.1813 26.7136C26.1803 26.8598 26.2379 26.9911 26.3298 27.0909C26.6607 26.795 26.9776 26.4847 27.2823 26.1616C27.2219 18.5066 24.4436 13.3512 18.0857 9.09277C18.6526 7.81609 19.3492 6.74666 20.162 5.6883C26.5692 8.94371 28.676 13.7097 30.0917 20.7873C30.1305 20.9807 30.2663 21.1286 30.438 21.1946C30.6436 20.6721 30.822 20.1368 30.9711 19.5887C29.4994 12.7859 27.2109 8.09869 20.8652 4.8056Z" fill="#C7D0D8"/>
</svg>
