<svg width="19" height="21" viewBox="0 0 19 21" fill="none" xmlns="http://www.w3.org/2000/svg">
<path fill-rule="evenodd" clip-rule="evenodd" d="M0.0655351 16.4816C0.20125 16.0612 0.338918 15.6417 0.476807 15.2222C0.497861 14.9478 0.397734 14.6869 0.29969 14.4314C0.144197 14.0262 -0.00605791 13.6346 0.340575 13.2251C0.295122 13.1602 0.226812 13.1503 0.157537 13.1403C0.101868 13.1323 0.0455676 13.1241 0 13.0873C0.592539 10.8974 1.07597 8.67303 1.15775 6.26977C1.30654 6.06819 1.45256 5.86008 1.59959 5.65052C2.14571 4.87218 2.70577 4.07393 3.47326 3.51526C3.511 3.5085 3.55309 3.512 3.59504 3.5155C3.68171 3.52272 3.76779 3.5299 3.81383 3.44638C3.70493 2.26204 3.8275 0.877761 5.0395 0.278792C6.1424 -0.342167 7.66076 0.105437 8.172 1.31072C8.20628 1.47409 8.28434 1.64232 8.36354 1.81291C8.55129 2.21744 8.74511 2.63517 8.37608 3.03248C8.17838 3.33542 8.04255 3.65908 8.10367 4.06542C8.55167 4.37751 8.83807 4.10259 9.14005 3.81276C9.4577 3.50776 9.79259 3.18628 10.351 3.51463C10.603 3.29418 10.855 3.08084 11.2361 3.17024C11.1817 3.87616 11.6827 3.86498 12.1845 3.85373C12.4364 3.84811 12.6886 3.84248 12.8707 3.92769C13.0255 3.89562 13.2133 3.90793 13.403 3.92039C13.8637 3.95072 14.3351 3.98173 14.3688 3.37666C14.3919 3.38399 14.4148 3.39224 14.4376 3.40049C14.5224 3.43115 14.6074 3.46187 14.7094 3.44554C14.7301 3.54308 14.7128 3.64215 14.6968 3.73435C14.6653 3.91568 14.6383 4.07036 14.914 4.13436C15.0745 4.09438 15.2508 4.11543 15.4168 4.13527C15.7366 4.17343 16.0175 4.20703 16.0717 3.78993C16.2214 3.75539 16.3644 3.87266 16.4123 3.92769L16.276 4.06542C16.532 4.31526 16.7881 4.29542 17.0813 4.27277C17.2326 4.26107 17.3938 4.2486 17.57 4.27209C17.7128 4.22291 17.7104 4.07766 17.7083 3.9454C17.7056 3.7814 17.7033 3.63735 17.9785 3.72127C18.0357 3.82318 18.0428 3.94495 18.05 4.06671C18.0606 4.24929 18.0712 4.43194 18.2509 4.54762C18.2156 4.58639 18.1726 4.60836 18.1297 4.63032C18.0734 4.65913 18.0173 4.68786 17.9785 4.75422C17.9836 4.96051 18.1761 5.03165 18.3554 5.09786C18.4153 5.11998 18.4738 5.14156 18.5232 5.16748H18.9321C18.9158 5.21628 18.9463 5.24797 18.9764 5.27944C18.9846 5.28796 18.9928 5.29647 19 5.30529C18.608 5.4497 18.1285 5.44613 17.6486 5.44256C16.6864 5.43541 15.7225 5.42827 15.4589 6.61379C15.2388 6.5434 15.1079 6.74171 14.9989 6.90658C14.9695 6.95119 14.9417 6.9933 14.9141 7.02705C14.7847 7.00638 14.679 6.93059 14.5734 6.85481C14.4677 6.77911 14.3621 6.70333 14.2328 6.68265C14.1852 7.82576 14.7572 8.8794 15.3227 9.85042C15.1729 10.0363 14.9891 10.1534 14.7779 10.1948C14.2631 9.49926 13.975 8.70921 13.6861 7.91704C13.5775 7.61901 13.4687 7.32075 13.3477 7.02705C13.1609 7.15307 13.2056 7.33086 13.2552 7.52826C13.2924 7.6761 13.3323 7.83488 13.2798 7.99115C13.334 8.22519 13.2115 8.32841 13.0073 8.33555L11.7134 8.06002C11.4694 8.1922 11.283 8.44653 11.0976 8.69949C10.781 9.13152 10.4673 9.55953 9.87461 9.36852C9.83562 9.3917 9.80347 9.43146 9.77162 9.47098C9.70891 9.54859 9.64696 9.62536 9.53409 9.57511L9.46575 9.50625C9.388 9.53749 9.30948 9.57215 9.23013 9.60727C8.83663 9.78125 8.42101 9.96504 7.96761 9.78178C7.88415 9.80238 7.79271 9.80512 7.70104 9.80785C7.48632 9.81424 7.27015 9.8207 7.15089 10.0571C7.0992 10.3451 7.08537 10.6481 7.07146 10.951C7.0542 11.3288 7.03695 11.7063 6.94627 12.0542C6.6262 11.9645 6.30612 12.1642 6.26515 12.4674C6.22844 12.7929 6.28165 13.0775 6.33478 13.3615C6.36039 13.4983 6.38593 13.6349 6.40136 13.7759L6.94612 13.6381C7.13158 14.0167 7.42817 14.3486 7.72408 14.6798C7.961 14.945 8.19754 15.2096 8.37631 15.4975C8.47391 15.6204 8.58435 15.7437 8.69738 15.8698C9.09719 16.3159 9.52877 16.7975 9.53409 17.4257C9.42403 17.4534 9.33874 17.5469 9.25316 17.6408C9.21166 17.6862 9.17008 17.7318 9.12561 17.7701C9.1174 18.1162 9.34072 18.3661 9.56365 18.6158C9.71347 18.7834 9.86306 18.9509 9.94233 19.1474C10.2309 19.4715 10.4335 19.8308 10.636 20.1901C10.6779 20.2642 10.7198 20.3385 10.7623 20.4125C10.2249 20.485 9.67622 20.5225 9.11877 20.5225C8.26321 20.5225 7.42825 20.4342 6.62255 20.2661C6.53065 20.1301 6.45441 19.9877 6.40121 19.836C6.19994 19.6094 6.01242 19.3492 5.82247 19.0855C5.33107 18.4033 4.82318 17.6982 4.01756 17.4945C3.87378 17.5404 3.87717 17.6459 3.88057 17.7517C3.88329 17.8364 3.88603 17.9214 3.81342 17.9764C3.63298 18.3276 3.46228 18.6834 3.30148 19.0436C2.08096 18.3775 0.987172 17.5084 0.0655351 16.4816Z" fill="white"/>
</svg>
