<svg width="24" height="24" viewBox="0 0 24 24" fill="none" xmlns="http://www.w3.org/2000/svg">
<path d="M0.785152 12.7382C0.75 12.4922 0.75 12.2461 0.75 12C0.75 9.43357 1.6289 7.04295 3.0703 5.14452C5.14452 2.47265 8.37885 0.75 12 0.75C18.2226 0.75 23.2499 5.77733 23.2499 12C23.2499 18.2226 18.2226 23.2499 12 23.2499C6.02342 23.2499 1.17188 18.6093 0.785152 12.7382Z" fill="white"/>
<path d="M17.66 20.4724C17.5545 20.4724 17.449 20.4372 17.4139 20.3318L11.7537 12.5271C11.6483 12.3865 11.6834 12.1755 11.8241 12.0701C11.9647 11.9646 12.1756 11.9998 12.281 12.1404L17.9412 19.9451C18.0467 20.0857 18.0115 20.2966 17.8709 20.4021C17.8006 20.4372 17.7302 20.4724 17.66 20.4724Z" fill="#82828E"/>
<path d="M6.16386 20.6834C6.09355 20.6834 6.02324 20.6482 5.98808 20.613C5.84746 20.5076 5.8123 20.2966 5.91777 20.156L11.7537 12.1404C11.8592 11.9998 12.0701 11.9646 12.2108 12.0701C12.3514 12.1755 12.3865 12.3865 12.281 12.5271L6.44511 20.5428C6.3748 20.613 6.26933 20.6834 6.16386 20.6834Z" fill="#82828E"/>
<path d="M12 12.668C11.9648 12.668 11.9296 12.668 11.8945 12.668L2.57812 9.60939C2.40234 9.53904 2.33203 9.36332 2.36719 9.18752C2.4375 9.01172 2.61328 8.94144 2.78906 8.97654L12.1054 12C12.2812 12.0703 12.3515 12.2461 12.3163 12.4219C12.2461 12.5625 12.1406 12.668 12 12.668Z" fill="#82828E"/>
<path d="M12 12.6679C11.8242 12.6679 11.6836 12.5273 11.6836 12.3515V2.7539C11.6836 2.57812 11.8242 2.4375 12 2.4375C12.1758 2.4375 12.3164 2.57812 12.3164 2.7539V12.3515C12.3164 12.4921 12.1758 12.6679 12 12.6679Z" fill="#82828E"/>
<path d="M12.0001 12.668C11.8595 12.668 11.7539 12.5977 11.6837 12.4571C11.6133 12.2813 11.7188 12.1055 11.8946 12.0352L21.211 9.01178C21.3868 8.94143 21.5625 9.04696 21.6329 9.22268C21.7031 9.39848 21.5977 9.57428 21.4219 9.64456L12.1055 12.668C12.0704 12.6329 12.0352 12.668 12.0001 12.668Z" fill="#82828E"/>
<path d="M11.2976 8.66005L8.73113 10.5233C8.30925 10.8398 8.13345 11.3671 8.30925 11.8592L9.29363 14.8475C9.46943 15.3397 9.9264 15.6913 10.4538 15.6913H13.6178C14.1452 15.6913 14.6022 15.3397 14.778 14.8475L15.7624 11.8592C15.9381 11.3671 15.7624 10.8046 15.3405 10.5233L12.7037 8.66005C12.2819 8.34362 11.7194 8.34362 11.2976 8.66005Z" fill="#3B3B44"/>
<path d="M21.3162 18.293C19.8045 20.543 17.5193 22.1953 14.8474 22.8984L16.078 19.1367C16.2537 18.6445 16.7107 18.293 17.2381 18.293H21.3162Z" fill="#3B3B44"/>
<path d="M9.15233 22.8984C6.48046 22.1953 4.16016 20.543 2.68359 18.293H6.79686C7.32421 18.293 7.78125 18.6445 7.95705 19.1367L9.15233 22.8984Z" fill="#3B3B44"/>
<path d="M0.785152 12.7382C0.75 12.4921 0.75 12.2461 0.75 12C0.75 9.43357 1.6289 7.04296 3.0703 5.14453L4.37108 9.08205C4.54686 9.5742 4.37108 10.1367 3.94921 10.4179L0.785152 12.7382Z" fill="#3B3B44"/>
<path d="M8.02733 1.48828C9.25778 0.99609 10.5938 0.75 12 0.75C13.4063 0.75 14.7422 0.99609 15.9726 1.48828L12.7031 3.84374C12.2813 4.16015 11.7188 4.16015 11.2969 3.84374L8.02733 1.48828Z" fill="#3B3B44"/>
<path d="M20.9296 5.14453C22.371 7.04296 23.2499 9.43357 23.2499 12C23.2499 12.2461 23.2499 12.4921 23.2148 12.7382L20.0858 10.4531C19.664 10.1367 19.4882 9.60937 19.664 9.11715L20.9296 5.14453Z" fill="#3B3B44"/>
<path opacity="0.1" d="M23.25 12C23.25 18.2226 18.2226 23.2499 12 23.2499C11.6133 23.2499 11.2617 23.2499 10.875 23.2147C16.2188 21.3867 22.9688 13.8984 18.6445 2.92969C21.457 4.96874 23.25 8.2734 23.25 12Z" fill="black"/>
<path d="M18.5625 11.0625C21.1513 11.0625 23.25 8.96383 23.25 6.375C23.25 3.78617 21.1513 1.6875 18.5625 1.6875C15.9737 1.6875 13.875 3.78617 13.875 6.375C13.875 8.96383 15.9737 11.0625 18.5625 11.0625Z" fill="#3CAA38"/>
<path d="M18.8429 9.1875C17.9212 9.1875 17.1752 8.94015 16.6051 8.44553C16.0351 7.94753 15.75 7.3008 15.75 6.50535V6.36497C15.75 5.81016 15.8629 5.32052 16.0887 4.89605C16.3183 4.47159 16.6514 4.14405 17.0882 3.91343C17.525 3.67948 18.0433 3.5625 18.6431 3.5625C19.487 3.5625 20.1534 3.7998 20.642 4.2744C21.1306 4.74566 21.375 5.40408 21.375 6.24967V6.90642H17.6546C17.7212 7.21056 17.8675 7.44953 18.0933 7.6233C18.3191 7.79715 18.6116 7.884 18.9707 7.884C19.5629 7.884 20.0257 7.69687 20.3588 7.32253L21.214 8.23493C20.9807 8.5257 20.6494 8.75805 20.22 8.93182C19.7943 9.1023 19.3353 9.1875 18.8429 9.1875ZM18.6319 4.86598C18.084 4.86598 17.7583 5.19352 17.6546 5.8486H19.5426V5.71825C19.55 5.44753 19.4741 5.23864 19.3149 5.09158C19.1558 4.94118 18.9281 4.86598 18.6319 4.86598Z" fill="white"/>
</svg>
