<svg width="32" height="32" viewBox="0 0 32 32" fill="none" xmlns="http://www.w3.org/2000/svg">
<path d="M16.1968 29.8739C24.2102 29.8739 30.7063 23.447 30.7063 15.5189C30.7063 7.59089 24.2102 1.16394 16.1968 1.16394C8.18356 1.16394 1.6875 7.59089 1.6875 15.5189C1.6875 23.447 8.18356 29.8739 16.1968 29.8739Z" fill="#E6E7E8"/>
<path fill-rule="evenodd" clip-rule="evenodd" d="M1.20264 15.5189C1.20264 7.31826 7.92067 0.679108 16.1968 0.679108C24.4729 0.679108 31.1911 7.31826 31.1911 15.5189C31.1911 23.7197 24.4729 30.3588 16.1968 30.3588C7.92067 30.3588 1.20264 23.7197 1.20264 15.5189ZM16.1968 1.64881C8.44642 1.64881 2.17233 7.86356 2.17233 15.5189C2.17233 23.1744 8.44641 29.3891 16.1968 29.3891C23.9473 29.3891 30.2214 23.1744 30.2214 15.5189C30.2214 7.86356 23.9473 1.64881 16.1968 1.64881Z" fill="#ECF0F1"/>
<path d="M19.8803 19.974H13.178L10.8745 14.0339L16.378 10.074L21.8815 14.0339L19.8803 19.974Z" fill="#38454F"/>
<path d="M13.5999 19.5309C13.3527 19.4081 13.052 19.5076 12.9285 19.7522L12.7048 20.1952C12.5812 20.4397 12.6813 20.7373 12.9285 20.8595C13.0005 20.8951 13.0766 20.9114 13.1516 20.9114C13.3353 20.9114 13.5119 20.8115 13.5999 20.6378L13.8235 20.1947C13.9476 19.9507 13.8476 19.6536 13.5999 19.5309Z" fill="#38454F"/>
<path d="M12.7048 21.302C12.4577 21.1793 12.1575 21.2788 12.0335 21.5233L11.8098 21.9664C11.6862 22.2108 11.7863 22.5083 12.0335 22.6306C12.1055 22.6663 12.1815 22.6826 12.2566 22.6826C12.4402 22.6826 12.6168 22.5826 12.7048 22.4088L12.9285 21.9659C13.0526 21.7218 12.9526 21.4243 12.7048 21.302Z" fill="#38454F"/>
<path d="M20.552 20.1952L20.3284 19.7522C20.2043 19.5071 19.9047 19.4081 19.657 19.5308C19.4098 19.6531 19.3098 19.9507 19.4333 20.1952L19.657 20.6381C19.7451 20.8119 19.9212 20.912 20.1053 20.912C20.1804 20.912 20.257 20.8951 20.3284 20.86C20.5756 20.7372 20.6757 20.4396 20.552 20.1952Z" fill="#38454F"/>
<path d="M21.223 21.5233C21.0994 21.2783 20.7987 21.1793 20.5515 21.3021C20.3044 21.4243 20.2042 21.7218 20.3279 21.9663L20.5515 22.4093C20.6396 22.5831 20.8157 22.6831 20.9998 22.6831C21.0748 22.6831 21.1514 22.6662 21.223 22.6311C21.4701 22.5089 21.5702 22.2114 21.4465 21.9668L21.223 21.5233Z" fill="#38454F"/>
<path d="M9.86884 13.0692L9.40901 12.8742C9.15434 12.7662 8.86015 12.8825 8.75208 13.134C8.64302 13.3849 8.76109 13.6765 9.01425 13.7839L9.47404 13.9789C9.53858 14.0062 9.60563 14.0195 9.6717 14.0195C9.86582 14.0195 10.0505 13.9067 10.1315 13.7196C10.2406 13.4676 10.1225 13.177 9.86884 13.0692Z" fill="#38454F"/>
<path d="M8.02993 12.2891L7.57014 12.0941C7.31547 11.9871 7.02128 12.103 6.91322 12.354C6.80415 12.6048 6.92222 12.896 7.17538 13.0038L7.63518 13.1988C7.69972 13.2261 7.76675 13.2395 7.83281 13.2395C8.02692 13.2395 8.21155 13.1266 8.2926 12.9396C8.40117 12.6881 8.28309 12.3965 8.02993 12.2891Z" fill="#38454F"/>
<path d="M16.3777 6.11392C16.1011 6.11392 15.8774 6.33568 15.8774 6.60892V7.10392C15.8774 7.37716 16.1011 7.59892 16.3777 7.59892C16.6544 7.59892 16.8781 7.37716 16.8781 7.10392V6.60892C16.8781 6.33568 16.6544 6.11392 16.3777 6.11392Z" fill="#38454F"/>
<path d="M16.3777 8.09396C16.1011 8.09396 15.8774 8.31572 15.8774 8.58896V9.08397C15.8774 9.35717 16.1011 9.57894 16.3777 9.57894C16.6544 9.57894 16.8781 9.35717 16.8781 9.08397V8.58896C16.8781 8.31572 16.6544 8.09396 16.3777 8.09396Z" fill="#38454F"/>
<path d="M23.3472 12.8742L22.8874 13.0692C22.6337 13.177 22.5161 13.4682 22.6252 13.7191C22.7063 13.9067 22.8909 14.0191 23.085 14.0191C23.1511 14.0191 23.2182 14.0062 23.2827 13.9785L23.7425 13.7835C23.9961 13.6761 24.1136 13.3845 24.0046 13.1336C23.8955 12.8821 23.6014 12.7658 23.3472 12.8742Z" fill="#38454F"/>
<path d="M25.8434 12.354C25.7344 12.1019 25.4402 11.9866 25.1866 12.094L24.7267 12.2891C24.4731 12.3965 24.3554 12.6881 24.4646 12.9391C24.5457 13.1266 24.7302 13.2389 24.9244 13.2389C24.9904 13.2389 25.0575 13.2261 25.122 13.1985L25.5818 13.0034C25.835 12.896 25.9525 12.6049 25.8434 12.354Z" fill="#38454F"/>
<path d="M12.6168 1.65399L11.3677 3.43104L16.3783 6.60894L20.8813 3.20236L19.7475 1.59855C18.6393 1.32284 17.4805 1.17334 16.2877 1.16592C15.0185 1.17384 13.7886 1.34363 12.6168 1.65399Z" fill="#435159"/>
<path d="M26.1994 7.10394L25.3838 12.549L30.3905 15.5571L30.6922 14.9874C30.5877 12.1564 29.6561 9.53538 28.1275 7.35343L26.1994 7.10394Z" fill="#435159"/>
<path d="M26.7865 25.3269L26.885 22.9459L21.3815 22.9439L18.9834 28.1935L21.0578 29.0458C23.2621 28.2702 25.2194 26.9822 26.7865 25.3269Z" fill="#435159"/>
<path d="M11.875 22.9439L5.87109 22.9459L5.97816 25.5239C7.53616 27.1089 9.4604 28.3379 11.6168 29.079L13.7727 28.1935L11.875 22.9439Z" fill="#435159"/>
<path d="M7.37203 12.549L6.5565 7.10394L4.42813 7.37916C2.96718 9.47451 2.0551 11.9718 1.896 14.67L2.36579 15.5571L7.37203 12.549Z" fill="#435159"/>
</svg>
