<svg width="24" height="24" viewBox="0 0 24 24" fill="none" xmlns="http://www.w3.org/2000/svg">
<path d="M12 24C18.6275 24 24 18.6275 24 12C24 5.37258 18.6275 0 12 0C5.37258 0 0 5.37258 0 12C0 18.6275 5.37258 24 12 24Z" fill="#338AF3"/>
<path d="M11.9654 7.82611C9.66013 7.82611 7.7915 9.69481 7.7915 12C7.7915 14.3052 9.6602 16.1739 11.9654 16.1739C14.2705 16.1739 16.1393 14.3052 16.1393 12C16.1393 9.69481 14.2705 7.82611 11.9654 7.82611ZM10.9219 12C10.9219 11.4237 11.3891 10.9565 11.9654 10.9565C12.5417 10.9565 13.0089 11.4237 13.0089 12C13.0089 12.5763 12.5417 13.0435 11.9654 13.0435C11.3891 13.0435 10.9219 12.5763 10.9219 12ZM13.0473 10.2151C12.8854 10.1167 12.7088 10.0403 12.5219 9.98866V8.91991C12.9925 9.00436 13.4266 9.19374 13.799 9.46344L13.0473 10.2151ZM11.4784 9.97081C11.2827 10.0176 11.0977 10.092 10.9277 10.1897L10.1725 9.43449C10.5543 9.16719 10.9981 8.98261 11.4784 8.90746V9.97081ZM10.9277 13.8104C11.0977 13.9079 11.2826 13.9824 11.4784 14.0292V15.0925C10.9981 15.0175 10.5543 14.8327 10.1725 14.5655L10.9277 13.8104ZM12.5219 14.0114C12.7088 13.9598 12.8854 13.8834 13.0473 13.785L13.7989 14.5367C13.4265 14.8064 12.9925 14.9957 12.5219 15.0802V14.0114ZM13.7758 13.0379C13.8677 12.8778 13.9396 12.7048 13.9867 12.5218H15.0517C14.9734 12.9887 14.7918 13.4204 14.5309 13.7929L13.7758 13.0379ZM13.9867 11.4783C13.9396 11.2952 13.8677 11.1224 13.7758 10.9623L14.5309 10.2071C14.7917 10.5797 14.9734 11.0113 15.0517 11.4782L13.9867 11.4783ZM9.42883 10.1665L10.1804 10.9181C10.0759 11.0902 9.99568 11.2784 9.94415 11.4783H8.87908C8.9603 10.9943 9.15245 10.5481 9.42883 10.1665ZM8.87908 12.5217H9.94415C9.9956 12.7216 10.0759 12.9098 10.1804 13.0819L9.42883 13.8335C9.15245 13.4519 8.9603 13.0058 8.87908 12.5217Z" fill="#F0F0F0"/>
<path d="M18.7478 12C18.7478 10.1447 18.0026 8.46369 16.7955 7.23913L15.6888 8.34586C16.6125 9.28711 17.1825 10.577 17.1825 12C17.1825 14.8815 14.8467 17.2174 11.9652 17.2174C9.08366 17.2174 6.74782 14.8815 6.74782 12C6.74782 10.5592 7.33174 9.25486 8.27591 8.31076L7.16918 7.20398C5.94176 8.43136 5.18262 10.127 5.18262 12C5.18262 15.1038 7.26747 17.7207 10.1132 18.5267C9.80118 19.1193 9.84873 19.8655 10.2945 20.4217C10.8798 19.9526 11.4858 19.4669 12 19.0549C12.5141 19.4669 13.1202 19.9526 13.7055 20.4217C14.1556 19.86 14.1999 19.1043 13.8776 18.5087C16.6922 17.6831 18.7478 15.0818 18.7478 12Z" fill="#F0F0F0"/>
</svg>
