<svg width="64" height="24" viewBox="0 0 64 24" fill="none" xmlns="http://www.w3.org/2000/svg">
<g clip-path="url(#clip0_1_1291)">
<rect x="8" width="24" height="24" rx="4" fill="#262626"/>
<g clip-path="url(#clip1_1_1291)">
<path d="M27.788 8.6292C27.6524 8.33762 27.4363 8.09095 27.165 7.91835C26.8937 7.74575 26.5786 7.65443 26.257 7.6552C25.6885 7.69363 25.1255 7.52292 24.6741 7.1752C24.3088 6.73419 24.1203 6.17329 24.1451 5.6012C24.1355 5.27948 24.0339 4.96725 23.8525 4.70143C23.6709 4.4356 23.4171 4.22732 23.121 4.1012C22.8191 3.99059 22.4919 3.96883 22.178 4.03848C21.8642 4.10813 21.5768 4.26628 21.35 4.4942C20.9732 4.92276 20.4552 5.20199 19.89 5.2812C19.3224 5.22824 18.7945 4.9663 18.409 4.5462C18.1758 4.32472 17.8842 4.17456 17.5684 4.11343C17.2527 4.0523 16.926 4.08276 16.627 4.2012C16.3352 4.33673 16.0882 4.55286 15.9151 4.82411C15.742 5.09536 15.65 5.41043 15.65 5.7322C15.6886 6.30107 15.5179 6.86443 15.17 7.3162C14.7304 7.68078 14.1718 7.87054 13.601 7.8492C13.2793 7.85994 12.9674 7.96216 12.7017 8.14388C12.436 8.32559 12.2277 8.57928 12.101 8.8752C11.9904 9.17685 11.9684 9.50385 12.0375 9.81765C12.1066 10.1314 12.2639 10.4189 12.491 10.6462C12.9193 11.0215 13.1992 11.5375 13.28 12.1012C13.2288 12.6709 12.9671 13.201 12.546 13.5882C12.3236 13.821 12.1728 14.1129 12.1117 14.4291C12.0505 14.7452 12.0815 15.0722 12.201 15.3712C12.3361 15.6634 12.5521 15.9109 12.8234 16.0842C13.0948 16.2575 13.4101 16.3495 13.732 16.3492C14.3006 16.3108 14.8636 16.4815 15.315 16.8292C15.6822 17.2686 15.8722 17.8291 15.848 18.4012C15.8575 18.7231 15.9591 19.0355 16.1408 19.3014C16.3224 19.5673 16.5766 19.7755 16.873 19.9012C17.1748 20.0121 17.5019 20.0342 17.8158 19.9649C18.1296 19.8956 18.4171 19.7378 18.6441 19.5102C19.0181 19.0802 19.5362 18.8014 20.1011 18.7262C20.6692 18.7838 21.197 19.0462 21.5861 19.4642C21.8161 19.6913 22.1088 19.8445 22.4265 19.9041C22.7443 19.9637 23.0726 19.9269 23.3694 19.7986C23.666 19.6703 23.9177 19.4563 24.0919 19.1839C24.2661 18.9115 24.3549 18.5934 24.347 18.2702C24.3084 17.7013 24.4791 17.1379 24.8271 16.6862C25.2671 16.3233 25.8263 16.137 26.3961 16.1632C26.7197 16.161 27.0352 16.0622 27.3024 15.8794C27.5694 15.6966 27.7758 15.4382 27.8949 15.1372C28.0142 14.8363 28.0407 14.5067 27.9712 14.1906C27.9017 13.8745 27.7394 13.5864 27.505 13.3632C27.0743 12.9871 26.7944 12.4677 26.717 11.9012C26.7694 11.3326 27.0323 10.8041 27.4541 10.4192C27.6723 10.1824 27.8193 9.88875 27.8782 9.57215C27.9372 9.2555 27.9055 8.92868 27.7871 8.6292H27.788ZM21.229 14.8602C20.5682 15.1452 19.8291 15.1922 19.1374 14.9934C18.4458 14.7945 17.8445 14.3621 17.4359 13.7696C17.0274 13.1771 16.8369 12.4614 16.8969 11.7442C16.9569 11.0271 17.2636 10.3529 17.7649 9.8366C18.2661 9.32025 18.9309 8.99363 19.6459 8.91241C20.361 8.83118 21.0821 9.00035 21.6864 9.39115C22.2907 9.78195 22.7409 10.3702 22.9601 11.0556C23.1794 11.741 23.1543 12.4812 22.889 13.1502C22.7384 13.5304 22.5142 13.8772 22.2294 14.1706C21.9445 14.464 21.6046 14.6983 21.229 14.8602Z" fill="#737373"/>
</g>
<rect x="40" width="24" height="24" rx="4" fill="#262626"/>
<g clip-path="url(#clip2_1_1291)">
<path d="M58.824 6.90912H55.618C55.4347 6.08452 54.9756 5.34708 54.3167 4.81854C53.6578 4.29 52.8383 4.00195 51.9935 4.00195C51.1488 4.00195 50.3293 4.29 49.6704 4.81854C49.0114 5.34708 48.5523 6.08452 48.369 6.90912H45.175C44.9793 6.93496 44.7996 7.03105 44.6694 7.17951C44.5393 7.32797 44.4675 7.51869 44.4675 7.71612C44.4675 7.91355 44.5393 8.10426 44.6694 8.25272C44.7996 8.40119 44.9793 8.49728 45.175 8.52312H46.49L47.249 17.5321C47.3098 18.2029 47.6182 18.8272 48.1139 19.2832C48.6097 19.7392 49.2574 19.9944 49.931 19.9991H54.059C54.7332 19.9951 55.3818 19.7401 55.8783 19.2838C56.3747 18.8275 56.6834 18.2027 56.744 17.5311L57.501 8.52212H58.824C59.0198 8.49628 59.1994 8.40019 59.3295 8.25172C59.4598 8.10326 59.5315 7.91255 59.5315 7.71512C59.5315 7.51769 59.4598 7.32697 59.3295 7.17851C59.1994 7.03006 59.0198 6.93395 58.824 6.90812V6.90912ZM51.995 5.62612C52.4106 5.62664 52.8167 5.75045 53.1618 5.98186C53.507 6.21327 53.7757 6.54189 53.934 6.92612H50.056C50.2178 6.54435 50.4874 6.21804 50.8317 5.98715C51.1761 5.75625 51.5804 5.63079 51.995 5.62612ZM50.79 16.3351H50.739C50.5687 16.3355 50.4046 16.271 50.2801 16.1547C50.1557 16.0384 50.0802 15.8791 50.069 15.7091L49.812 11.8361C49.8073 11.6623 49.8702 11.4934 49.9873 11.3649C50.1044 11.2364 50.2667 11.1581 50.4402 11.1466C50.6137 11.1351 50.785 11.1913 50.918 11.3032C51.0511 11.4151 51.1356 11.5742 51.154 11.7471L51.412 15.6221C51.4187 15.7102 51.4076 15.7988 51.3797 15.8826C51.3517 15.9664 51.3071 16.0438 51.2488 16.1102C51.1905 16.1766 51.1196 16.2307 51.0401 16.2693C50.9606 16.308 50.8742 16.3303 50.786 16.3351H50.79ZM53.925 15.7111C53.9131 15.8808 53.8374 16.0398 53.7131 16.1559C53.5888 16.272 53.4251 16.3368 53.255 16.3371H53.205C53.1171 16.3315 53.031 16.3087 52.952 16.2697C52.8729 16.2308 52.8022 16.1768 52.7441 16.1105C52.6859 16.0443 52.6414 15.9672 52.6131 15.8837C52.5848 15.8003 52.5732 15.712 52.579 15.6241L52.85 11.7491C52.8545 11.6609 52.8764 11.5745 52.9145 11.4948C52.9527 11.4152 53.0062 11.3439 53.0722 11.2852C53.1382 11.2264 53.2151 11.1813 53.2986 11.1526C53.3821 11.124 53.4705 11.1121 53.5587 11.1179C53.6468 11.1237 53.7329 11.1469 53.8119 11.1863C53.891 11.2256 53.9615 11.2803 54.0192 11.3471C54.077 11.414 54.1208 11.4917 54.1482 11.5756C54.1756 11.6595 54.1861 11.7481 54.179 11.8361L53.925 15.7111Z" fill="#737373"/>
</g>
</g>
<defs>
<clipPath id="clip0_1_1291">
<rect width="64" height="24" fill="white"/>
</clipPath>
<clipPath id="clip1_1_1291">
<rect width="16" height="16" fill="white" transform="translate(12 4)"/>
</clipPath>
<clipPath id="clip2_1_1291">
<rect width="16" height="16" fill="white" transform="translate(44 4)"/>
</clipPath>
</defs>
</svg>
