<svg width="117" height="32" viewBox="0 0 117 32" fill="none" xmlns="http://www.w3.org/2000/svg">
<g clip-path="url(#clip0_1_519)">
<path d="M19.6355 14.9776H16.5893V25.8984H12.2239V15.0316H9.96094V11.3062H12.2374V8.39238C12.2374 5.65542 13.7011 4.21875 16.9391 4.21875H19.9474V8.01296H17.5764C16.75 8.01296 16.5596 8.36538 16.5596 9.21874V11.2981H19.9205L19.6355 14.983V14.9776Z" fill="#FF6000"/>
</g>
<g clip-path="url(#clip1_1_519)">
<path d="M67.3226 10.45C67.61 16.8875 62.81 24.0625 54.3226 24.0625C51.7351 24.0625 49.3351 23.3 47.3101 22.0125C49.7351 22.3 52.1601 21.625 54.0851 20.1125C52.0851 20.075 50.3976 18.75 49.8101 16.9375C50.5226 17.075 51.2351 17.0375 51.8726 16.8625C49.6726 16.425 48.1476 14.4375 48.1976 12.3125C48.8101 12.65 49.5226 12.8625 50.2726 12.8875C48.2351 11.525 47.6601 8.8375 48.8601 6.775C51.1226 9.5375 54.485 11.3625 58.2851 11.55C57.6226 8.6875 59.7851 5.9375 62.7476 5.9375C64.0601 5.9375 65.2475 6.48749 66.0851 7.38749C67.1225 7.1875 68.1101 6.8 68.9851 6.275C68.6476 7.3375 67.9226 8.2375 66.9725 8.81249C67.8976 8.69999 68.7851 8.45 69.5975 8.0875C68.9975 8.99999 68.2226 9.81247 67.3226 10.45Z" fill="#FF6000"/>
</g>
<g clip-path="url(#clip2_1_519)">
<path d="M97.552 4.52689C96.4298 4.57983 95.6634 4.75893 94.9935 5.02218C94.3001 5.29239 93.7124 5.65499 93.1277 6.24183C92.543 6.82866 92.1829 7.41677 91.9146 8.11118C91.6549 8.7826 91.479 9.54958 91.4295 10.6724C91.3799 11.7953 91.3689 12.1561 91.3744 15.0203C91.3799 17.8845 91.3925 18.2434 91.447 19.3686C91.5005 20.4906 91.679 21.2568 91.9422 21.9268C92.2129 22.6202 92.5751 23.2077 93.1621 23.7927C93.7492 24.3776 94.3368 24.7368 95.0329 25.0056C95.7037 25.2648 96.4709 25.4415 97.5935 25.4907C98.7162 25.5398 99.0775 25.5512 101.941 25.5457C104.804 25.5403 105.165 25.5277 106.29 25.4742C107.414 25.4209 108.177 25.2411 108.847 24.9792C109.54 24.7079 110.128 24.3464 110.713 23.7591C111.297 23.1718 111.657 22.5833 111.925 21.8885C112.185 21.2177 112.362 20.4505 112.41 19.3288C112.459 18.203 112.471 17.8436 112.466 14.9798C112.46 12.116 112.447 11.7571 112.394 10.6323C112.341 9.5076 112.162 8.74378 111.899 8.0732C111.628 7.37985 111.266 6.7928 110.679 6.20745C110.092 5.62209 109.503 5.26244 108.809 4.99497C108.138 4.73531 107.371 4.55832 106.248 4.5098C105.126 4.46129 104.764 4.44884 101.9 4.45432C99.0355 4.45981 98.6769 4.47204 97.552 4.52689ZM97.6752 23.5932C96.6468 23.5486 96.0885 23.3777 95.7164 23.2346C95.2236 23.0448 94.8726 22.8154 94.5018 22.4481C94.131 22.0808 93.9031 21.7286 93.7108 21.2368C93.5663 20.8648 93.3922 20.3071 93.3441 19.2788C93.2918 18.1673 93.2809 17.8336 93.2748 15.0178C93.2686 12.2019 93.2794 11.8686 93.3281 10.7568C93.372 9.7293 93.5439 9.1703 93.6867 8.79842C93.8766 8.30504 94.1052 7.95466 94.4733 7.58404C94.8414 7.21342 95.1926 6.98519 95.6847 6.7928C96.0564 6.64768 96.6141 6.47513 97.642 6.42619C98.7543 6.37346 99.0876 6.36291 101.903 6.35679C104.718 6.35068 105.053 6.36122 106.165 6.41016C107.193 6.45488 107.752 6.62511 108.123 6.76875C108.616 6.95861 108.967 7.18663 109.338 7.55535C109.708 7.92407 109.937 8.27403 110.129 8.7672C110.275 9.13782 110.447 9.69534 110.496 10.7239C110.549 11.8362 110.561 12.1697 110.566 14.9849C110.571 17.8001 110.561 18.1344 110.512 19.2458C110.467 20.2741 110.297 20.8328 110.153 21.2052C109.964 21.6979 109.735 22.0491 109.367 22.4194C108.998 22.7898 108.647 23.0181 108.155 23.2104C107.784 23.3554 107.225 23.5283 106.198 23.5773C105.086 23.6296 104.753 23.6406 101.936 23.6467C99.1199 23.6528 98.7877 23.6414 97.6754 23.5932M106.273 9.36311C106.274 9.61345 106.348 9.85803 106.488 10.0659C106.627 10.2739 106.825 10.4357 107.057 10.5311C107.288 10.6265 107.543 10.6511 107.788 10.6019C108.034 10.5526 108.259 10.4316 108.435 10.2543C108.612 10.077 108.732 9.8512 108.781 9.60558C108.829 9.35996 108.803 9.10551 108.707 8.87441C108.611 8.64332 108.448 8.44595 108.24 8.30727C108.032 8.16861 107.787 8.09486 107.536 8.09536C107.201 8.09603 106.879 8.22995 106.642 8.46769C106.405 8.70543 106.273 9.02751 106.273 9.36311ZM96.5047 15.0106C96.5106 18.0018 98.9398 20.421 101.93 20.4152C104.921 20.4096 107.342 17.9807 107.336 14.9895C107.33 11.9984 104.901 9.57848 101.91 9.58438C98.9187 9.59029 96.499 12.0199 96.5047 15.0106ZM98.4044 15.0068C98.403 14.3114 98.6079 13.6314 98.993 13.0523C99.3782 12.4734 99.9264 12.0218 100.568 11.7544C101.21 11.487 101.917 11.416 102.599 11.5503C103.281 11.6846 103.909 12.0182 104.401 12.5089C104.894 12.9996 105.23 13.6254 105.367 14.3071C105.504 14.9889 105.436 15.6959 105.171 16.3389C104.906 16.9818 104.457 17.5317 103.879 17.9191C103.302 18.3067 102.622 18.5142 101.927 18.5155C101.465 18.5166 101.008 18.4266 100.581 18.2507C100.154 18.0749 99.7661 17.8167 99.4389 17.4908C99.1118 17.165 98.852 16.778 98.6746 16.3518C98.497 15.9256 98.4052 15.4685 98.4044 15.0068Z" fill="#FF6000"/>
</g>
<defs>
<clipPath id="clip0_1_519">
<rect width="30" height="30" fill="white"/>
</clipPath>
<clipPath id="clip1_1_519">
<rect width="30" height="30" fill="white" transform="translate(43.46)"/>
</clipPath>
<clipPath id="clip2_1_519">
<rect width="30" height="30" fill="white" transform="translate(86.92)"/>
</clipPath>
</defs>
</svg>
