<svg width="17" height="16" viewBox="0 0 17 16" fill="none" xmlns="http://www.w3.org/2000/svg">
<path d="M12.5297 16C12.4172 16.0003 12.3063 15.9732 12.2067 15.921L8.00484 13.6261L3.80502 15.92C3.69394 15.9807 3.5676 16.0079 3.44137 15.9981C3.31514 15.9883 3.19447 15.9421 3.09405 15.865C2.99108 15.7847 2.91165 15.6782 2.86414 15.5566C2.81662 15.4349 2.80278 15.3028 2.82406 15.174L3.60203 10.2742L0.205173 6.78435C0.114042 6.69006 0.0499787 6.57301 0.0197142 6.44547C-0.0105501 6.31787 -0.00589839 6.18453 0.0331808 6.05938C0.0697095 5.93594 0.140323 5.82534 0.236905 5.74025C0.333486 5.65515 0.452116 5.59905 0.579158 5.5784L5.27296 4.82642L7.39787 0.391606C7.45081 0.27486 7.53621 0.175837 7.64396 0.106386C7.7517 0.0369355 7.87715 -4.99979e-10 8.00534 0C8.13354 -4.99979e-10 8.25898 0.0369355 8.36673 0.106386C8.47447 0.175837 8.55992 0.27486 8.61282 0.391606L10.7327 4.82542L15.4265 5.5664C15.5536 5.58705 15.6722 5.64315 15.7688 5.72825C15.8654 5.81334 15.936 5.92394 15.9725 6.04738C16.0116 6.17253 16.0163 6.30587 15.986 6.43347C15.9557 6.56101 15.8917 6.67806 15.8005 6.77235L12.4197 10.2722L13.1976 15.172C13.214 15.273 13.209 15.3764 13.183 15.4754C13.1569 15.5745 13.1105 15.6669 13.0466 15.747C12.9849 15.8248 12.9065 15.8878 12.8172 15.9314C12.7279 15.975 12.63 15.9981 12.5307 15.999L12.5297 16Z" fill="#FF8229"/>
</svg>
