<svg width="14" height="14" viewBox="0 0 14 14" fill="none" xmlns="http://www.w3.org/2000/svg">
<path d="M13.7673 12.669L10.3338 9.23493C11.114 8.20186 11.5224 6.93547 11.4925 5.64121C11.4627 4.34693 10.9965 3.10069 10.1696 2.10462C9.34262 1.10855 8.20342 0.421088 6.93672 0.153727C5.67003 -0.113632 4.35014 0.0547981 3.19118 0.631702C2.03221 1.2086 1.10214 2.16013 0.551827 3.33196C0.00151279 4.5038 -0.136767 5.82715 0.159417 7.08741C0.455604 8.34772 1.16888 9.47096 2.18355 10.275C3.19822 11.079 4.45479 11.5167 5.74939 11.5169C7.00467 11.5228 8.2263 11.1112 9.22196 10.3467L12.6741 13.7622C12.7465 13.8359 12.8331 13.8943 12.9286 13.9338C13.0241 13.9733 13.1267 13.9931 13.23 13.992C13.4382 13.9909 13.6377 13.9083 13.786 13.7622C13.9265 13.6137 14.0033 13.4162 13.9998 13.2118C13.9963 13.0074 13.9128 12.8125 13.7673 12.669ZM5.77039 9.96524C5.08041 9.96354 4.40154 9.79191 3.79368 9.46549C3.18583 9.13907 2.66775 8.66792 2.28525 8.09375C1.90274 7.51953 1.66758 6.85991 1.60056 6.17326C1.53355 5.48656 1.63673 4.79395 1.90099 4.1566C2.16524 3.51926 2.58245 2.95684 3.11571 2.51906C3.64898 2.08127 4.28188 1.7816 4.95848 1.64653C5.63507 1.51146 6.33455 1.54515 6.995 1.74463C7.65549 1.94411 8.25666 2.30323 8.74539 2.79025C9.13958 3.17794 9.4513 3.64134 9.66182 4.1526C9.87235 4.66384 9.97731 5.21238 9.97039 5.76524C9.97171 6.87991 9.53123 7.94968 8.74539 8.74024C8.35663 9.13303 7.89301 9.44379 7.38201 9.65422C6.87101 9.86462 6.323 9.97041 5.77039 9.96524Z" fill="#FF6000"/>
</svg>
