<svg width="32" height="32" viewBox="0 0 32 32" fill="none" xmlns="http://www.w3.org/2000/svg">
<path d="M27.3184 31.9998H4.68082C3.17576 31.9998 1.95557 30.7796 1.95557 29.2745V6.85806C1.95557 5.35299 3.17576 4.13281 4.68082 4.13281H27.3184C28.8235 4.13281 30.0437 5.35299 30.0437 6.85806V29.2745C30.0437 30.7796 28.8235 31.9998 27.3184 31.9998Z" fill="#F8F8F8"/>
<path d="M27.319 4.13281H24.665C26.1702 4.13281 27.3902 5.35299 27.3902 6.85806V29.2745C27.3902 30.7797 26.1702 31.9997 24.665 31.9997H27.319C28.8242 31.9997 30.0442 30.7797 30.0442 29.2745V6.85812C30.0442 5.35293 28.8242 4.13281 27.319 4.13281Z" fill="#E1E1E4"/>
<path d="M30.0437 12.6649H1.95557V6.85155C1.95557 5.34999 3.17276 4.13281 4.67432 4.13281H27.3249C28.8265 4.13281 30.0437 5.34999 30.0437 6.85155V12.6649Z" fill="#956EC4"/>
<path d="M24.6719 4.13281H27.3259C28.8272 4.13281 30.0444 5.35006 30.0444 6.85162V12.665H27.3904V6.85162C27.3903 5.35006 26.1731 4.13281 24.6719 4.13281Z" fill="#6D2C92"/>
<path d="M8.89493 7.74081C8.00937 7.74081 7.2915 7.02287 7.2915 6.13737V1.60344C7.29143 0.717937 8.00937 0 8.89493 0C9.78049 0 10.4984 0.717937 10.4984 1.60344V6.13731C10.4984 7.02287 9.78043 7.74081 8.89493 7.74081Z" fill="#FFD92D"/>
<path d="M22.8285 7.74081C21.943 7.74081 21.2251 7.02287 21.2251 6.13737V1.60344C21.2251 0.717937 21.943 0 22.8285 0C23.7141 0 24.432 0.717937 24.432 1.60344V6.13731C24.432 7.02287 23.7142 7.74081 22.8285 7.74081Z" fill="#FFD92D"/>
<path d="M13.0027 24.6612C12.5567 24.6612 12.1231 24.4956 11.792 24.1639C11.5121 23.884 11.0522 23.884 10.7724 24.1639C10.4912 24.4445 10.4912 24.9036 10.7724 25.1842C11.3847 25.7958 12.2007 26.1151 13.0027 26.1151C13.8187 26.1151 14.6346 25.7958 15.2469 25.1842C15.8717 24.5595 16.1779 23.7435 16.1779 22.94C16.1779 22.1373 15.8717 21.3213 15.2469 20.709C14.9921 20.4417 14.6859 20.2373 14.3548 20.0843L15.9617 18.4275C16.0116 18.3763 16.0504 18.3125 16.0892 18.2488C16.1391 18.147 16.1779 18.032 16.1779 17.9045C16.1779 17.509 15.8592 17.1904 15.4506 17.1904H11.6909C11.2947 17.1904 10.9761 17.509 10.9761 17.9045C10.9761 18.3125 11.2947 18.6311 11.6909 18.6311H13.755L12.4556 19.9568C12.1869 20.2504 12.1869 20.6965 12.4806 20.9771C12.4806 20.9895 12.4806 20.9895 12.4931 20.9895C12.6204 21.1426 12.8117 21.232 13.0167 21.2195C13.4627 21.232 13.8964 21.385 14.2274 21.7293C14.5709 22.0603 14.7372 22.4939 14.7372 22.94C14.7372 23.3868 14.5709 23.8197 14.2274 24.1639C13.8824 24.4958 13.4501 24.6612 13.0027 24.6612Z" fill="#956EC4"/>
<path d="M20.8438 17.8659C20.8299 17.4911 20.5226 17.1914 20.1444 17.1914C20.0532 17.1914 19.9662 17.2093 19.8862 17.2411C19.8829 17.2416 19.8796 17.2423 19.8796 17.2423C19.8721 17.2444 19.8686 17.2471 19.865 17.2497C19.8339 17.2633 19.8043 17.2793 19.7757 17.2971C19.7709 17.299 19.7667 17.3015 19.7632 17.3046C19.7597 17.307 19.7561 17.3088 19.7526 17.3111L18.1932 18.2369C17.8621 18.428 17.7472 18.8741 17.9646 19.1928C18.092 19.422 18.3207 19.5495 18.563 19.5495C18.6779 19.5495 18.8054 19.5245 18.9204 19.4477L19.4301 19.1547V25.4273C19.4301 25.8221 19.7363 26.1283 20.1311 26.1283C20.5135 26.1283 20.8446 25.8221 20.8446 25.4273V17.9051V17.9026C20.8446 17.899 20.8451 17.8956 20.8451 17.8921C20.8451 17.8886 20.8446 17.8852 20.8446 17.8817C20.8446 17.8768 20.8446 17.8718 20.8446 17.867L20.8438 17.8659Z" fill="#956EC4"/>
</svg>
