<svg width="19" height="16" viewBox="0 0 19 16" fill="none" xmlns="http://www.w3.org/2000/svg">
<path fill-rule="evenodd" clip-rule="evenodd" d="M3.88161 8.49242C3.84807 8.49476 3.81229 8.50681 3.76604 8.52337C3.7198 8.53994 3.66314 8.56094 3.62735 8.58654C3.59155 8.61207 3.57664 8.64203 3.59902 8.67358C3.62139 8.70521 3.68105 8.73826 3.73026 8.79541C3.77948 8.85256 3.81825 8.93365 3.84064 9.00134C3.86301 9.06888 3.86895 9.12301 3.90175 9.16209C3.93457 9.20117 3.99422 9.22526 4.03897 9.28986C4.08372 9.35454 4.11353 9.45965 4.1523 9.46266C4.19109 9.46568 4.23878 9.36651 4.25818 9.36207C4.27758 9.35755 4.26862 9.44768 4.28506 9.50784C4.30146 9.56793 4.3432 9.59804 4.40583 9.60256C4.46845 9.60693 4.55199 9.586 4.62657 9.54391C4.70114 9.50182 4.76675 9.43872 4.81597 9.38014C4.86519 9.32149 4.898 9.26735 4.92932 9.27338C4.96062 9.27932 4.99047 9.34551 5.00387 9.40717C5.01728 9.46869 5.01431 9.52584 5.03966 9.57395C5.065 9.62214 5.11869 9.66114 5.17536 9.67921C5.23202 9.69721 5.29167 9.69419 5.34836 9.70172C5.40499 9.70925 5.45867 9.72732 5.47659 9.75586C5.49451 9.7844 5.47659 9.82347 5.50648 9.86112C5.53622 9.89862 5.61385 9.93468 5.62725 9.97075C5.64066 10.0069 5.58998 10.043 5.54375 10.082C5.49752 10.121 5.45573 10.1631 5.42147 10.2113C5.38714 10.2594 5.36026 10.3134 5.33639 10.3856C5.31252 10.4578 5.29167 10.548 5.25593 10.5975C5.22012 10.6472 5.16943 10.6561 5.12615 10.6832C5.0829 10.7102 5.04712 10.7554 5.03071 10.8003C5.01431 10.8455 5.01728 10.8906 4.98597 10.9071C4.95466 10.9237 4.88903 10.9116 4.79955 10.9161C4.71004 10.9207 4.59673 10.9417 4.53111 10.9703C4.46549 10.9989 4.44761 11.0349 4.43418 11.0845C4.42074 11.1341 4.41177 11.1972 4.36408 11.2258C4.31633 11.2543 4.22987 11.2483 4.13888 11.2693C4.04791 11.2904 3.95247 11.3385 3.84954 11.4062C3.74664 11.4738 3.6363 11.561 3.51399 11.6135C3.39168 11.6661 3.25747 11.6842 3.17397 11.6707C3.09044 11.6571 3.05763 11.612 3.04122 11.549C3.02483 11.4858 3.02483 11.4047 3.00842 11.328C2.992 11.2514 2.95919 11.1792 2.97261 11.1296C2.98601 11.08 3.04566 11.053 3.03376 10.9823C3.02182 10.9117 2.93829 10.7975 2.85033 10.6832C2.76233 10.569 2.66987 10.4547 2.60127 10.3752C2.53268 10.2954 2.4879 10.2504 2.45362 10.1768C2.41931 10.1032 2.39544 10.0009 2.38053 9.91217C2.36563 9.82355 2.35965 9.74841 2.32981 9.68832C2.30001 9.62816 2.24632 9.58306 2.17619 9.53495C2.10607 9.48691 2.01958 9.43579 1.98082 9.37261C1.94204 9.30944 1.95099 9.23437 1.92415 9.15614C1.8973 9.07799 1.83467 8.99682 1.77799 8.9472C1.7213 8.89758 1.67062 8.87959 1.61691 8.88109C1.56319 8.8826 1.50656 8.90376 1.46628 8.88569C1.42601 8.86762 1.40216 8.81047 1.37532 8.73231C1.34848 8.65416 1.31863 8.55499 1.27388 8.46321C1.22917 8.37158 1.16948 8.2874 1.17248 8.2618C1.17547 8.23635 1.24108 8.2694 1.29926 8.28747C1.35744 8.30539 1.40813 8.30848 1.44841 8.27535C1.48869 8.24237 1.5185 8.17318 1.53641 8.11302C1.55428 8.05301 1.56028 8.00188 1.57098 7.95068C1.58171 7.89948 1.59721 7.84821 1.6142 7.77721C1.63119 7.70628 1.64971 7.61562 1.66029 7.54093C1.67089 7.46624 1.67353 7.40759 1.63648 7.3716C1.59944 7.33561 1.52271 7.32228 1.45393 7.33696C1.38515 7.35164 1.32428 7.39426 1.22376 7.39298C1.12323 7.39163 0.983 7.34637 0.899672 7.35029C0.816321 7.35435 0.789885 7.40759 0.747555 7.42769C0.705217 7.44764 0.647037 7.43424 0.607342 7.40766C0.567647 7.38101 0.546505 7.34103 0.505499 7.32092C0.464487 7.30097 0.403657 7.30097 0.365287 7.26498C0.326909 7.22899 0.311045 7.15701 0.247564 7.10769C0.184061 7.05837 0.0729571 7.03172 0.0266513 6.98639C-0.0196546 6.94106 -0.00113225 6.87707 0.0478165 6.85576C0.0967652 6.83437 0.176118 6.85568 0.205226 6.83836C0.234327 6.82105 0.213162 6.7651 0.169499 6.713C0.125851 6.66105 0.0597205 6.61308 0.0808857 6.57581C0.102028 6.53847 0.21052 6.51181 0.344114 6.52913C0.477716 6.54645 0.636443 6.60774 0.665582 6.59042C0.694683 6.5731 0.594143 6.4771 0.606047 6.42914C0.617951 6.38118 0.742292 6.38118 0.832261 6.37056C0.9222 6.35979 0.977767 6.33856 1.06773 6.33984C1.15766 6.3412 1.28203 6.36522 1.37461 6.38916C1.46719 6.41318 1.52805 6.4372 1.65107 6.45188C1.77408 6.46656 1.95928 6.47183 2.07173 6.4692C2.18419 6.46656 2.22385 6.45579 2.23576 6.41709C2.24766 6.37854 2.23179 6.31191 2.17225 6.24791C2.11272 6.18391 2.00954 6.12254 2.06379 6.09995C2.11804 6.07729 2.32967 6.09325 2.44345 6.13331C2.5572 6.17329 2.57308 6.23729 2.64452 6.25852C2.71594 6.27991 2.84295 6.25852 2.92361 6.27991C3.00432 6.30129 3.03872 6.36522 3.11278 6.39722C3.18687 6.42922 3.30063 6.42922 3.39189 6.45316C3.48315 6.47718 3.55194 6.52514 3.59693 6.57446C3.64191 6.62393 3.66306 6.67452 3.64456 6.71315C3.62603 6.75185 3.56782 6.7785 3.53213 6.83181C3.49641 6.8852 3.48318 6.96516 3.48979 7.02118C3.49641 7.0772 3.52287 7.10912 3.56518 7.12644C3.60751 7.14383 3.6657 7.14647 3.71729 7.17975C3.76886 7.2131 3.81385 7.2771 3.91175 7.31174C4.00966 7.34645 4.16043 7.35172 4.24378 7.3158C4.32713 7.27974 4.34301 7.20249 4.31125 7.12644C4.2795 7.05047 4.20014 6.97585 4.1512 6.91185C4.10225 6.84785 4.08375 6.79454 4.05594 6.73988C4.02818 6.68522 3.99114 6.6292 4.0004 6.60111C4.00966 6.57318 4.06522 6.57318 4.1155 6.54509C4.16574 6.51716 4.21073 6.46122 4.18165 6.40256C4.15254 6.34391 4.04935 6.28254 3.98455 6.27321C3.91975 6.26387 3.89329 6.30656 3.86283 6.30927C3.8324 6.31191 3.79803 6.27456 3.77819 6.22389C3.75834 6.17329 3.75305 6.10929 3.71998 6.06389C3.68689 6.01864 3.62606 5.99198 3.56917 5.96465C3.51229 5.93732 3.45939 5.90931 3.45811 5.8807C3.45677 5.85209 3.50702 5.82272 3.54274 5.81534C3.57847 5.80804 3.59964 5.82272 3.60825 5.80864C3.61683 5.79464 3.6129 5.75202 3.64529 5.72409C3.67772 5.696 3.74646 5.68275 3.78222 5.6561C3.81794 5.62937 3.82058 5.58938 3.81064 5.55603C3.80074 5.52275 3.77822 5.4961 3.74449 5.48879C3.71077 5.48141 3.66578 5.49346 3.62742 5.48879C3.58905 5.48405 3.55729 5.46274 3.53216 5.46274C3.50702 5.46274 3.48853 5.48412 3.46271 5.50016C3.43689 5.51612 3.40386 5.52674 3.37408 5.53743C3.34428 5.54812 3.31786 5.55874 3.29472 5.57809C3.27155 5.59737 3.25173 5.62538 3.22989 5.62937C3.20804 5.63343 3.18426 5.61333 3.18426 5.5741C3.18426 5.5348 3.20807 5.47614 3.2061 5.42216C3.20414 5.3681 3.17635 5.31878 3.13201 5.28746C3.08767 5.25613 3.02684 5.24281 2.99509 5.20885C2.96335 5.17489 2.9607 5.12015 2.97725 5.06684C2.9938 5.01354 3.02949 4.96158 3.05528 4.96693C3.08107 4.9722 3.09693 5.03484 3.12937 5.05284C3.1618 5.07083 3.21073 5.04418 3.24512 4.99155C3.27952 4.93892 3.29936 4.86024 3.38995 4.82824C3.48059 4.79624 3.64197 4.81092 3.69819 4.74624C3.7544 4.68156 3.70547 4.5376 3.71145 4.48158C3.71742 4.42564 3.77824 4.45764 3.86292 4.50831C3.94756 4.55891 4.05605 4.62826 4.16716 4.6656C4.27826 4.70295 4.39202 4.70822 4.437 4.62163C4.48198 4.53497 4.45817 4.35629 4.44096 4.23236C4.42377 4.10835 4.41318 4.039 4.37746 4.04435C4.34173 4.0497 4.2809 4.12966 4.2002 4.17235C4.1195 4.21504 4.01895 4.22031 3.92901 4.18703C3.83904 4.15368 3.7597 4.0817 3.74778 4.01107C3.73588 3.94037 3.79145 3.8711 3.86289 3.85242C3.93433 3.83375 4.02162 3.86575 4.07851 3.85371C4.1354 3.84173 4.16184 3.78579 4.14863 3.69642C4.1354 3.60712 4.08248 3.48446 4.04808 3.40043C4.01372 3.31649 3.99784 3.27115 3.98193 3.18185C3.96605 3.09252 3.95017 2.95921 3.92901 2.85257C3.90784 2.74594 3.88138 2.66597 3.86024 2.5913C3.8391 2.51663 3.82319 2.44733 3.79674 2.398C3.77027 2.34867 3.73325 2.31933 3.72665 2.2807C3.72003 2.24203 3.74385 2.19403 3.78618 2.15273C3.82849 2.11139 3.88935 2.07673 3.92375 2.02206C3.95815 1.96739 3.96608 1.89275 3.95815 1.83941C3.95021 1.78609 3.9264 1.75409 3.96741 1.75542C4.00842 1.75676 4.11423 1.79141 4.17244 1.78609C4.23063 1.78075 4.24122 1.73542 4.21743 1.69145C4.19362 1.64745 4.1354 1.60478 4.0706 1.57945C4.00577 1.55412 3.93436 1.54612 3.90525 1.51948C3.87615 1.49281 3.88938 1.44749 3.92375 1.38748C3.95815 1.32748 4.01372 1.25285 4.05605 1.20485C4.09838 1.15685 4.12747 1.13554 4.18039 1.13951C4.23331 1.14351 4.31004 1.17285 4.36559 1.22885C4.42115 1.28481 4.45553 1.36749 4.48463 1.44348C4.51374 1.51945 4.53754 1.58878 4.58914 1.65012C4.64075 1.71141 4.7201 1.76475 4.76376 1.81942C4.80742 1.87409 4.81536 1.93006 4.84182 1.93939C4.86827 1.94873 4.91326 1.91139 4.94631 1.87139C4.97938 1.83139 5.00052 1.78876 4.97012 1.74475C4.93969 1.70075 4.85766 1.65546 4.79683 1.59945C4.73597 1.54346 4.69632 1.47681 4.66588 1.43015C4.63545 1.38349 4.61428 1.35681 4.61032 1.31284C4.60635 1.26887 4.61958 1.20754 4.67118 1.20754C4.72277 1.20754 4.81271 1.26885 4.89341 1.29818C4.97412 1.32751 5.04554 1.32485 5.09846 1.29684C5.15137 1.26885 5.18574 1.21554 5.26645 1.1662C5.34716 1.11688 5.47411 1.07156 5.56408 1.05424C5.65398 1.03691 5.70691 1.04757 5.67522 1.0129C5.64344 0.978238 5.52704 0.898238 5.53758 0.856931C5.54819 0.815595 5.68576 0.81293 5.82731 0.799595C5.96886 0.786268 6.11433 0.762294 6.22283 0.763634C6.33133 0.76496 6.40278 0.791599 6.48478 0.783595C6.56677 0.775599 6.65939 0.732959 6.7401 0.6863C6.82082 0.639632 6.88956 0.58899 6.96101 0.563661C7.03239 0.538324 7.10648 0.538324 7.1951 0.543663C7.28372 0.548994 7.38688 0.559663 7.44651 0.591662C7.50599 0.623662 7.52188 0.676963 7.6224 0.688965C7.72291 0.700959 7.90814 0.671662 8.06023 0.678326C8.21233 0.684989 8.33137 0.727659 8.35516 0.768988C8.3791 0.810324 8.30757 0.850298 8.23883 0.8943C8.17009 0.938294 8.1039 0.986271 8.13169 1.02093C8.1594 1.05559 8.28122 1.07693 8.36322 1.0836C8.44529 1.09027 8.48753 1.08229 8.54181 1.07027C8.59602 1.05827 8.66213 1.04227 8.70784 1.0516C8.75339 1.06093 8.77854 1.0956 8.84931 1.10227C8.92009 1.10893 9.0365 1.08759 9.13242 1.08759C9.22835 1.08759 9.30371 1.10893 9.34475 1.13092C9.38579 1.1529 9.39234 1.17557 9.47102 1.19024C9.54985 1.2049 9.70059 1.21157 9.80849 1.21556C9.91623 1.21957 9.98106 1.2209 9.94597 1.18558C9.91096 1.15024 9.77596 1.07827 9.77137 1.03693C9.76677 0.995593 9.89244 0.984961 10.0148 0.990947C10.1371 0.996933 10.2562 1.0196 10.3435 1.04426C10.4309 1.06891 10.4864 1.09557 10.4613 1.12822C10.4361 1.1609 10.3303 1.19954 10.323 1.24088C10.3157 1.2822 10.4071 1.32617 10.505 1.34088C10.6028 1.35554 10.7073 1.34088 10.7881 1.36487C10.8687 1.38888 10.9256 1.45151 10.9963 1.47685C11.0671 1.50215 11.1518 1.49018 11.1816 1.45216C11.2114 1.41415 11.1861 1.35018 11.241 1.33551C11.296 1.32085 11.4309 1.35548 11.5525 1.37349C11.6744 1.39148 11.7828 1.39281 11.8476 1.3815C11.9124 1.37017 11.9335 1.34618 11.8965 1.31151C11.8595 1.27685 11.7643 1.23151 11.7814 1.19285C11.7986 1.1542 11.9282 1.1222 12.0248 1.1222C12.1214 1.1222 12.1848 1.1542 12.2669 1.16754C12.3489 1.18088 12.4494 1.17554 12.5076 1.20621C12.5658 1.23687 12.5817 1.30354 12.6227 1.30221C12.6637 1.30087 12.7299 1.23154 12.7986 1.2142C12.8674 1.19688 12.9389 1.23151 13.0102 1.27021C13.0817 1.30888 13.1531 1.35154 13.2167 1.38751C13.2801 1.42348 13.3357 1.45281 13.3899 1.47148C13.4442 1.49015 13.4971 1.49814 13.5699 1.49015C13.6426 1.48214 13.7352 1.45815 13.8609 1.46218C13.9866 1.46617 14.1453 1.49817 14.2762 1.52485C14.4071 1.55151 14.5104 1.57281 14.5765 1.61148C14.6426 1.65015 14.6717 1.70612 14.763 1.73549C14.8543 1.76481 15.0077 1.76749 15.1612 1.76346C15.3146 1.75945 15.468 1.74878 15.5772 1.74679C15.6863 1.74478 15.7511 1.75146 15.8258 1.77012C15.9005 1.78878 15.9852 1.81945 16.0361 1.81412C16.087 1.80878 16.1042 1.76749 16.0731 1.73214C16.0421 1.69678 15.9627 1.66746 16.0011 1.64947C16.0395 1.63145 16.1955 1.62478 16.3219 1.62878C16.4481 1.63278 16.5447 1.64745 16.6532 1.6601C16.7617 1.67275 16.8821 1.68342 16.9568 1.70609C17.0315 1.72872 17.0606 1.76342 17.2247 1.87006C17.3887 1.9767 17.6876 2.15533 17.9125 2.30463C18.1374 2.45394 18.2882 2.57394 18.394 2.66591C18.4998 2.75788 18.5607 2.82188 18.5355 2.84589C18.5104 2.86988 18.3992 2.85388 18.3252 2.83784C18.2511 2.82184 18.2141 2.80584 18.1877 2.83118C18.1612 2.85652 18.1453 2.92318 18.1109 2.96185C18.0765 3.00052 18.0236 3.01116 17.9972 3.04316C17.9707 3.07516 17.9707 3.12845 17.9668 3.18046C17.9627 3.23245 17.9548 3.2831 17.9137 3.27645C17.8729 3.26979 17.7988 3.20579 17.7405 3.18315C17.6824 3.16049 17.64 3.17915 17.5884 3.19515C17.5368 3.21115 17.4759 3.22449 17.4098 3.22715C17.3437 3.22982 17.2722 3.22182 17.2273 3.24449C17.1823 3.26716 17.1637 3.32046 17.1651 3.36582C17.1664 3.41113 17.1875 3.44847 17.2498 3.48311C17.3119 3.51774 17.4152 3.54982 17.4759 3.59379C17.5368 3.63776 17.5553 3.69378 17.6029 3.72714C17.6505 3.76042 17.7272 3.77103 17.7696 3.79904C17.812 3.82705 17.8199 3.87238 17.7947 3.90039C17.7696 3.9284 17.7114 3.93901 17.7087 3.96567C17.7061 3.9924 17.759 4.03501 17.8092 4.06972C17.8595 4.10436 17.9072 4.13101 17.8887 4.15104C17.8701 4.17099 17.7854 4.18432 17.7604 4.22837C17.7352 4.27234 17.7696 4.34696 17.7801 4.41103C17.7908 4.47496 17.7775 4.52827 17.7748 4.60559C17.7722 4.68292 17.7801 4.78427 17.7484 4.80023C17.7167 4.81627 17.6452 4.74692 17.5024 4.63496C17.3595 4.52299 17.1452 4.36834 16.9891 4.24034C16.8331 4.11242 16.7352 4.01107 16.6836 3.91243C16.632 3.8138 16.6266 3.7178 16.6532 3.64318C16.6795 3.56849 16.7378 3.51518 16.7907 3.42987C16.8437 3.34454 16.8913 3.22721 16.8939 3.15524C16.8965 3.08324 16.8542 3.05657 16.8146 3.00594C16.7748 2.95528 16.7378 2.88063 16.7021 2.84063C16.6664 2.80063 16.632 2.7953 16.6201 2.82463C16.6081 2.85397 16.6187 2.91794 16.6055 2.97528C16.5923 3.0326 16.5553 3.08324 16.5103 3.08592C16.4653 3.08857 16.4124 3.04328 16.3489 3.00594C16.2854 2.96861 16.2113 2.93927 16.1479 2.93927C16.0844 2.93927 16.0314 2.9686 15.9944 3.0086C15.9574 3.0486 15.9361 3.09924 15.9508 3.15257C15.9654 3.20591 16.0156 3.26189 16.0764 3.29389C16.1373 3.32589 16.2087 3.33388 16.218 3.35924C16.2272 3.38455 16.1743 3.42724 16.1161 3.4432C16.0579 3.45924 15.9943 3.44855 15.9388 3.45254C15.8833 3.45653 15.8356 3.4752 15.7867 3.47791C15.7377 3.48055 15.6875 3.46722 15.6386 3.42588C15.5896 3.38455 15.542 3.31524 15.444 3.27258C15.3462 3.22992 15.198 3.21394 15.1729 3.23791C15.1477 3.26192 15.2457 3.32589 15.255 3.36055C15.2641 3.39524 15.1849 3.40051 15.075 3.39388C14.9652 3.38721 14.825 3.36858 14.7204 3.36457C14.616 3.36057 14.5472 3.37123 14.522 3.41655C14.4969 3.46187 14.5155 3.54184 14.4943 3.6032C14.4731 3.66449 14.4123 3.70718 14.3977 3.7498C14.3832 3.79249 14.415 3.83511 14.415 3.86982C14.415 3.90445 14.3832 3.93111 14.3462 3.96311C14.309 3.99511 14.2668 4.03245 14.2734 4.0631C14.28 4.09374 14.3355 4.11776 14.4123 4.1137C14.489 4.1097 14.5869 4.07778 14.6398 4.09773C14.6928 4.11776 14.7007 4.18974 14.7337 4.23507C14.7668 4.2804 14.825 4.29907 14.8555 4.27904C14.8858 4.25909 14.8884 4.20036 14.9402 4.19102C14.9917 4.18176 15.0923 4.22174 15.177 4.27505C15.2615 4.32836 15.3303 4.39499 15.3859 4.4657C15.4415 4.53632 15.4838 4.61101 15.5115 4.679C15.5393 4.74692 15.5525 4.80828 15.5777 4.86159C15.6028 4.91498 15.6398 4.9603 15.6822 5.00691C15.7245 5.05359 15.7722 5.10155 15.8079 5.15223C15.8435 5.2029 15.8674 5.25621 15.8634 5.30289C15.8595 5.34957 15.8276 5.38948 15.8158 5.46289C15.8039 5.53615 15.8118 5.64284 15.8066 5.72951C15.8012 5.8161 15.7828 5.88273 15.7669 5.93875C15.7509 5.99469 15.7377 6.0401 15.7245 6.08008C15.7113 6.12006 15.6981 6.15477 15.6544 6.18541C15.6108 6.21613 15.5367 6.24271 15.4665 6.24C15.3964 6.23737 15.3303 6.20537 15.288 6.22005C15.2457 6.23466 15.2272 6.29602 15.2047 6.33728C15.1822 6.37862 15.1557 6.39993 15.1597 6.44262C15.1636 6.48531 15.1981 6.54923 15.1914 6.60134C15.1849 6.65329 15.1372 6.69327 15.1015 6.72527C15.0657 6.75727 15.042 6.78129 15.0776 6.81856C15.1133 6.85591 15.2087 6.90658 15.3171 6.99324C15.4256 7.07983 15.5473 7.20256 15.6201 7.30775C15.6928 7.41308 15.7166 7.5011 15.6875 7.55178C15.6585 7.60245 15.5764 7.6157 15.5049 7.641C15.4335 7.66645 15.3727 7.70372 15.3397 7.75447C15.3065 7.80506 15.3013 7.86906 15.2615 7.87434C15.2219 7.87976 15.1478 7.82637 15.1254 7.74905C15.1029 7.67172 15.1319 7.57045 15.1121 7.49847C15.0923 7.42641 15.0234 7.38379 15.0194 7.33975C15.0155 7.29585 15.0764 7.25052 15.0764 7.20113C15.0764 7.15181 15.0156 7.0985 14.9508 7.08789C14.8859 7.0772 14.8171 7.1092 14.7788 7.09715C14.7404 7.08518 14.7325 7.02916 14.7284 6.96252C14.7245 6.89589 14.7245 6.81856 14.661 6.77188C14.5976 6.72527 14.4705 6.70931 14.3832 6.73724C14.296 6.76525 14.2484 6.83723 14.2087 6.87322C14.1689 6.90914 14.1372 6.90922 14.1385 6.86253C14.1399 6.81593 14.1743 6.72256 14.1769 6.65593C14.1795 6.58929 14.1505 6.54923 14.0975 6.55187C14.0446 6.55451 13.9679 6.59991 13.9308 6.65058C13.8938 6.70118 13.8964 6.7572 13.911 6.7959C13.9256 6.83452 13.952 6.85583 13.9322 6.86916C13.9124 6.88256 13.8462 6.88783 13.8025 6.9105C13.7589 6.93316 13.7378 6.97314 13.7589 7.03714C13.7801 7.10114 13.8436 7.18908 13.9071 7.21709C13.9705 7.2451 14.0341 7.21318 14.1015 7.1878C14.1689 7.16243 14.2404 7.14383 14.3185 7.14383C14.3965 7.14383 14.4812 7.16243 14.5142 7.19443C14.5473 7.22643 14.5288 7.27183 14.4839 7.29977C14.4388 7.32778 14.3674 7.33847 14.3118 7.39042C14.2563 7.44245 14.2167 7.53574 14.21 7.60508C14.2034 7.67435 14.2298 7.71968 14.2999 7.7757C14.37 7.83172 14.4839 7.89835 14.5328 7.95701C14.5818 8.01559 14.5658 8.06626 14.6161 8.10496C14.6663 8.14366 14.7828 8.17024 14.8291 8.21429C14.8754 8.25826 14.8515 8.31963 14.8105 8.36631C14.7695 8.41291 14.7113 8.44491 14.7232 8.47556C14.7351 8.50628 14.8171 8.53549 14.8568 8.59023C14.8966 8.6449 14.8939 8.72486 14.8529 8.80482C14.8119 8.88478 14.7325 8.96482 14.7034 9.06082C14.6742 9.15682 14.6955 9.26878 14.6663 9.35673C14.6372 9.44467 14.5578 9.50867 14.4916 9.58336C14.4256 9.65805 14.3727 9.74336 14.3118 9.80736C14.251 9.87136 14.1822 9.91398 14.0975 9.94063C14.0129 9.96736 13.9124 9.97798 13.8303 9.98859C13.7483 9.99936 13.6848 10.01 13.6319 10.026C13.579 10.042 13.5367 10.0634 13.5288 10.1053C13.5207 10.1473 13.5472 10.21 13.5532 10.252C13.5591 10.2939 13.5446 10.3152 13.5017 10.3292C13.4586 10.3432 13.3872 10.3499 13.3581 10.3179C13.3289 10.2859 13.3422 10.2152 13.3151 10.1646C13.288 10.1139 13.2205 10.0832 13.1392 10.0933C13.0578 10.1033 12.9626 10.1539 12.901 10.2198C12.8395 10.2859 12.8117 10.3672 12.8137 10.4478C12.8157 10.5285 12.8474 10.6085 12.9136 10.6924C12.9797 10.7765 13.0802 10.8645 13.1675 10.9458C13.2548 11.027 13.3289 11.1017 13.3911 11.1831C13.4532 11.2644 13.5035 11.3524 13.5233 11.4564C13.5432 11.5603 13.5326 11.6803 13.5247 11.7629C13.5168 11.8456 13.5115 11.8909 13.4902 11.9416C13.4691 11.9922 13.4321 12.0483 13.3818 12.0776C13.3316 12.1069 13.268 12.1096 13.2218 12.1389C13.1755 12.1682 13.1464 12.2242 13.1147 12.2668C13.0828 12.3095 13.0485 12.3388 12.9982 12.3749C12.948 12.4108 12.8818 12.4535 12.8487 12.4388C12.8156 12.4242 12.8156 12.3522 12.8236 12.2936C12.8315 12.2349 12.8474 12.1895 12.8276 12.1642C12.8077 12.1389 12.7522 12.1336 12.7019 12.1136C12.6517 12.0936 12.6066 12.059 12.5551 12.0149C12.5035 11.9709 12.4454 11.9176 12.4255 11.8682C12.4056 11.8189 12.4242 11.7737 12.4043 11.7417C12.3844 11.7097 12.3263 11.691 12.2787 11.6804C12.2311 11.6698 12.194 11.6671 12.1793 11.6404C12.1649 11.6137 12.1728 11.563 12.1556 11.543C12.1385 11.523 12.0961 11.5337 12.0749 11.575C12.0538 11.6164 12.0538 11.6883 12.0459 11.763C12.0379 11.8377 12.022 11.915 12.0022 11.9722C11.9824 12.0296 11.9586 12.0669 11.9599 12.1069C11.9612 12.1469 11.9876 12.1896 12.0233 12.2335C12.0591 12.2775 12.1041 12.3229 12.1279 12.3682C12.1517 12.4136 12.1544 12.4588 12.1834 12.5082C12.2125 12.5575 12.2681 12.6108 12.3269 12.6581C12.3858 12.7055 12.448 12.7468 12.524 12.8141C12.6001 12.8814 12.6901 12.9748 12.7337 13.1028C12.7773 13.2307 12.7748 13.3934 12.78 13.5066C12.7852 13.62 12.7985 13.684 12.7589 13.7053C12.7191 13.7266 12.6265 13.7053 12.53 13.6413C12.4334 13.5773 12.3329 13.4707 12.2786 13.352C12.2244 13.2334 12.2165 13.1028 12.1781 12.9934C12.1397 12.884 12.0709 12.796 11.9864 12.7028C11.9017 12.6094 11.8011 12.5108 11.7561 12.4321C11.7112 12.3535 11.7218 12.2948 11.735 12.2121C11.7482 12.1295 11.764 12.0229 11.7561 11.8975C11.7482 11.7722 11.7164 11.6283 11.682 11.4816C11.6476 11.335 11.6107 11.1857 11.5788 11.0644C11.5471 10.9431 11.5207 10.8498 11.4929 10.8511C11.4651 10.8524 11.436 10.9484 11.3804 11.0164C11.3249 11.0844 11.2429 11.1243 11.1741 11.1258C11.1053 11.127 11.0497 11.0897 11.0404 11.051C11.0313 11.0124 11.0682 10.9724 11.0815 10.931C11.0947 10.8897 11.0841 10.847 11.0749 10.7937C11.0656 10.7404 11.0577 10.6764 11.0206 10.6258C10.9836 10.5751 10.9174 10.5378 10.8804 10.4965C10.8434 10.4551 10.8353 10.4098 10.801 10.3925C10.7667 10.3752 10.7058 10.3858 10.6516 10.3711C10.5973 10.3564 10.5496 10.3165 10.5285 10.2484C10.5074 10.1805 10.5126 10.0845 10.5114 10.0085C10.51 9.9325 10.5021 9.87648 10.4836 9.8499C10.4651 9.82325 10.4359 9.82588 10.4095 9.86315C10.3831 9.9005 10.3593 9.97248 10.3049 10.0125C10.2507 10.0525 10.166 10.0605 10.0827 10.0645C9.99936 10.0685 9.91736 10.0686 9.86706 10.0859C9.81684 10.1032 9.79832 10.1378 9.79042 10.1871C9.78236 10.2365 9.785 10.3005 9.73342 10.3498C9.68184 10.3991 9.57605 10.4338 9.50596 10.487C9.43586 10.5404 9.40152 10.6124 9.35913 10.6871C9.31682 10.7617 9.26652 10.839 9.22157 10.8991C9.17654 10.959 9.13694 11.0016 9.09327 11.0377C9.0496 11.0737 9.00194 11.1029 8.96369 11.1203C8.92529 11.1376 8.89615 11.143 8.88026 11.171C8.86445 11.1989 8.86181 11.2496 8.87635 11.3443C8.89088 11.4389 8.92265 11.5776 8.90669 11.6762C8.8908 11.7749 8.8274 11.8335 8.80354 11.9028C8.77974 11.9721 8.79563 12.0522 8.77583 12.1148C8.75595 12.1774 8.70038 12.2228 8.6607 12.2748C8.62095 12.3268 8.59715 12.3854 8.57201 12.4348C8.54701 12.4841 8.52043 12.524 8.48346 12.5267C8.44642 12.5293 8.39875 12.4947 8.36035 12.416C8.32203 12.3374 8.29297 12.2148 8.27444 12.1108C8.25592 12.0068 8.24802 11.9214 8.20826 11.8548C8.16858 11.7881 8.09713 11.7402 8.06144 11.6722C8.02575 11.6041 8.02575 11.5162 8.00595 11.4508C7.98607 11.3855 7.94631 11.3428 7.8921 11.2575C7.83789 11.1722 7.76915 11.0442 7.75055 10.9616C7.7321 10.8789 7.76387 10.8416 7.75725 10.7737C7.75055 10.7057 7.7056 10.607 7.67126 10.539C7.63685 10.4711 7.61306 10.4337 7.61833 10.4017C7.6236 10.3697 7.65794 10.3431 7.67653 10.3097C7.69506 10.2764 7.69769 10.2364 7.67518 10.207C7.65266 10.1778 7.60508 10.1591 7.58392 10.111C7.56269 10.0631 7.56811 9.98581 7.55478 9.94447C7.54161 9.90314 7.50983 9.89779 7.49402 9.94447C7.47813 9.99115 7.47813 10.0898 7.45163 10.1458C7.4252 10.2018 7.37235 10.2151 7.31813 10.2231C7.26377 10.231 7.20828 10.2337 7.15798 10.1898C7.10776 10.1458 7.06281 10.0551 7.07471 9.99575C7.0866 9.93649 7.15535 9.90841 7.17523 9.87046C7.19503 9.83243 7.16589 9.78447 7.11168 9.7725C7.05747 9.76045 6.97811 9.78447 6.91064 9.76045C6.84318 9.73651 6.78761 9.66445 6.7334 9.60188C6.67911 9.53924 6.62618 9.48586 6.59847 9.4339C6.57069 9.38187 6.56805 9.3312 6.53492 9.31795C6.50187 9.30455 6.4384 9.32857 6.37221 9.35665C6.30611 9.38458 6.23729 9.41659 6.15138 9.42863C6.06539 9.4406 5.96216 9.43255 5.86691 9.43661C5.77167 9.4406 5.6844 9.45657 5.58388 9.43925C5.48337 9.42193 5.36952 9.37126 5.29152 9.33263C5.21347 9.29393 5.17117 9.26728 5.13808 9.21931C5.10501 9.17128 5.0812 9.10193 5.03621 9.06729C4.99123 9.03266 4.92511 9.03266 4.87351 9.05261C4.82191 9.07264 4.78487 9.1127 4.73459 9.11932C4.68435 9.12603 4.62084 9.0993 4.55337 9.05931C4.48589 9.01933 4.41448 8.96603 4.33906 8.94735C4.26365 8.92868 4.18426 8.94464 4.14196 8.91934C4.09963 8.89404 4.09433 8.82741 4.07316 8.75136C4.052 8.67539 4.01498 8.59008 3.98078 8.54378C3.94659 8.49747 3.91516 8.49009 3.88161 8.49242ZM16.3275 14.5155C16.3275 14.5488 16.3988 14.5942 16.4756 14.6062C16.5524 14.6181 16.6344 14.5969 16.7191 14.6195C16.8037 14.6421 16.891 14.7088 16.9479 14.7128C17.0047 14.7168 17.0312 14.6582 17.006 14.5901C16.9809 14.5222 16.9042 14.4448 16.8063 14.4181C16.7084 14.3915 16.5893 14.4155 16.4941 14.4383C16.3988 14.4609 16.3275 14.4821 16.3275 14.5155ZM15.1066 11.8547C15.0761 11.8853 15.0629 11.9786 15.0258 12.0587C14.9888 12.1386 14.928 12.2053 14.8645 12.2626C14.801 12.3199 14.7348 12.3679 14.7494 12.4105C14.764 12.4532 14.8592 12.4905 14.9505 12.4559C15.0418 12.4212 15.129 12.3145 15.1753 12.2079C15.2216 12.1013 15.2269 11.9947 15.2057 11.9252C15.1846 11.856 15.1369 11.824 15.1066 11.8547ZM15.8659 11.76C15.8222 11.6774 15.8328 11.5628 15.7997 11.4948C15.7667 11.4267 15.6899 11.4053 15.6238 11.3815C15.5576 11.3574 15.5021 11.3307 15.4836 11.2481C15.465 11.1654 15.4836 11.0268 15.4744 10.9202C15.4651 10.8135 15.4281 10.7389 15.3751 10.6895C15.3221 10.6403 15.2534 10.6163 15.1965 10.6683C15.1397 10.7202 15.0947 10.8482 15.096 10.9308C15.0973 11.0134 15.145 11.0508 15.1344 11.0801C15.1237 11.1094 15.055 11.1308 15.0642 11.1868C15.0735 11.2428 15.1608 11.3334 15.2256 11.3988C15.2904 11.4641 15.3328 11.5041 15.3341 11.56C15.3355 11.6161 15.2957 11.688 15.3116 11.7308C15.3274 11.7734 15.3988 11.7867 15.4478 11.8386C15.4967 11.8907 15.5232 11.9813 15.5299 12.052C15.5365 12.1227 15.5232 12.1733 15.5404 12.2146C15.5576 12.2559 15.6052 12.2879 15.6291 12.3333C15.6529 12.3786 15.6529 12.4373 15.6344 12.4999C15.6158 12.5625 15.5788 12.6292 15.5947 12.6785C15.6105 12.7278 15.6793 12.7598 15.7508 12.7478C15.8222 12.7358 15.8962 12.6798 15.9346 12.6932C15.973 12.7066 15.9756 12.7892 16.0127 12.8478C16.0497 12.9065 16.1211 12.9412 16.1569 12.9025C16.1925 12.8639 16.1925 12.7518 16.2309 12.7278C16.2693 12.7039 16.346 12.7679 16.3725 12.7252C16.399 12.6825 16.3751 12.5332 16.3222 12.4386C16.2692 12.3439 16.1873 12.3039 16.1462 12.2306C16.1053 12.1573 16.1053 12.0506 16.0564 11.9719C16.0073 11.8932 15.9096 11.8426 15.8659 11.76ZM16.7045 13.5491C16.6344 13.5331 16.5286 13.5624 16.4784 13.6144C16.428 13.6663 16.4334 13.741 16.4466 13.8157C16.4598 13.8903 16.4811 13.965 16.477 14.025C16.473 14.085 16.4439 14.1302 16.4664 14.1596C16.489 14.1889 16.563 14.2023 16.608 14.181C16.6529 14.1597 16.6688 14.1036 16.7032 14.0156C16.7376 13.9276 16.7906 13.8076 16.7998 13.717C16.809 13.6264 16.7747 13.5651 16.7045 13.5491ZM15.2535 15.0462C15.2058 15.0074 15.1714 14.9435 15.1755 14.8755C15.1794 14.8076 15.2216 14.7355 15.2137 14.6915C15.2058 14.6476 15.1476 14.6315 15.1132 14.5822C15.0788 14.5329 15.0682 14.4503 15.0947 14.3796C15.1211 14.309 15.1846 14.2502 15.2151 14.1823C15.2455 14.1143 15.2429 14.037 15.2535 13.9637C15.264 13.8903 15.2879 13.8211 15.3473 13.7837C15.4068 13.7464 15.5021 13.7411 15.5881 13.7623C15.674 13.7837 15.7508 13.8317 15.8222 13.8237C15.8936 13.8157 15.9598 13.7517 16.0154 13.7038C16.0709 13.6557 16.1159 13.6237 16.1529 13.6304C16.19 13.637 16.2191 13.6824 16.2244 13.7437C16.2296 13.805 16.2112 13.8824 16.1318 13.9317C16.0524 13.981 15.9122 14.0024 15.8051 13.9877C15.6978 13.973 15.6238 13.9223 15.563 13.9437C15.5022 13.965 15.4546 14.0584 15.473 14.1064C15.4915 14.1542 15.5762 14.157 15.6503 14.1637C15.7244 14.1704 15.7878 14.181 15.7865 14.2184C15.7852 14.2557 15.7192 14.3196 15.7033 14.3715C15.6873 14.4236 15.7218 14.4636 15.7548 14.5143C15.7878 14.5649 15.8197 14.6263 15.8394 14.7076C15.8593 14.7889 15.8672 14.8902 15.8236 14.9462C15.7799 15.0021 15.6847 15.0128 15.6238 14.9422C15.563 14.8716 15.5366 14.7195 15.5035 14.6476C15.4704 14.5757 15.4307 14.5836 15.4228 14.6476C15.4149 14.7116 15.4387 14.8315 15.4439 14.9182C15.4492 15.0048 15.436 15.0581 15.3989 15.0781C15.362 15.0981 15.301 15.0848 15.2535 15.0462ZM15.9823 15.8794C15.8566 15.9434 15.7191 16.0073 15.6476 15.9993C15.5762 15.9913 15.5709 15.9113 15.6396 15.834C15.7084 15.7567 15.8513 15.682 15.9492 15.6101C16.0471 15.5381 16.0999 15.4687 16.1754 15.4381C16.2508 15.4074 16.3487 15.4153 16.3791 15.4634C16.4095 15.5113 16.3725 15.5994 16.2971 15.6754C16.2217 15.7513 16.108 15.8154 15.9823 15.8794ZM12.9332 15.2021C12.9332 15.2421 12.9597 15.3007 12.9993 15.3194C13.0391 15.3381 13.0919 15.3167 13.125 15.3327C13.1581 15.3487 13.1713 15.4021 13.2731 15.4248C13.375 15.4473 13.5654 15.4394 13.6885 15.454C13.8116 15.4687 13.8671 15.5061 13.9649 15.534C14.0628 15.5619 14.2031 15.5807 14.2944 15.5994C14.3856 15.618 14.4279 15.6366 14.514 15.6487C14.6 15.6606 14.7296 15.666 14.8274 15.6727C14.9253 15.6793 14.9915 15.6873 15.0392 15.718C15.0867 15.7486 15.1158 15.802 15.1515 15.826C15.1873 15.85 15.2295 15.8446 15.2587 15.8087C15.2878 15.7726 15.3037 15.706 15.3592 15.6713C15.4147 15.6366 15.51 15.634 15.6159 15.614C15.7217 15.594 15.8381 15.5567 15.8501 15.5127C15.8619 15.4687 15.7693 15.4181 15.678 15.4127C15.5868 15.4074 15.4968 15.4473 15.4003 15.446C15.3037 15.4447 15.2005 15.4021 15.1224 15.41C15.0444 15.4181 14.9915 15.4767 14.9055 15.4927C14.8195 15.5087 14.7005 15.482 14.6119 15.4287C14.5233 15.3754 14.4651 15.2953 14.4042 15.2407C14.3433 15.1861 14.2799 15.1567 14.1965 15.1581C14.1132 15.1594 14.01 15.1913 13.9201 15.1913C13.8301 15.1913 13.7534 15.1594 13.6688 15.1301C13.5841 15.1007 13.4915 15.0741 13.4121 15.0648C13.3328 15.0554 13.2666 15.0634 13.1979 15.0754C13.129 15.0874 13.0576 15.1034 13.0086 15.1221C12.9597 15.1408 12.9332 15.1622 12.9332 15.2021ZM14.5616 14.7222C14.5312 14.7116 14.4968 14.6556 14.4294 14.6263C14.3619 14.5969 14.2614 14.5943 14.1727 14.5835C14.0841 14.5729 14.0073 14.5543 13.9558 14.5396C13.9042 14.5249 13.8778 14.5142 13.8433 14.4822C13.8089 14.4502 13.7665 14.397 13.7467 14.3503C13.7269 14.3036 13.7296 14.2636 13.7123 14.221C13.6952 14.1783 13.6581 14.133 13.6171 14.0744C13.5761 14.0157 13.5311 13.9437 13.5232 13.8664C13.5153 13.7891 13.5444 13.7065 13.6026 13.6584C13.6608 13.6105 13.748 13.5971 13.8222 13.5997C13.8963 13.6024 13.957 13.6211 13.9875 13.5837C14.018 13.5465 14.018 13.4531 14.0603 13.4144C14.1026 13.3758 14.1873 13.3918 14.2481 13.3652C14.309 13.3384 14.3461 13.2692 14.3843 13.2065C14.4227 13.1438 14.4624 13.0878 14.5035 13.0586C14.5445 13.0292 14.5868 13.0266 14.6159 12.9826C14.645 12.9385 14.6609 12.8532 14.6834 12.7986C14.7058 12.7439 14.735 12.7199 14.7866 12.7305C14.8381 12.7413 14.9121 12.7865 14.9637 12.8265C15.0153 12.8666 15.0445 12.9012 15.0815 12.9358C15.1186 12.9705 15.1635 13.0052 15.1662 13.0358C15.1688 13.0665 15.1291 13.0932 15.0947 13.1278C15.0603 13.1625 15.0313 13.2052 15.0167 13.2411C15.0021 13.2771 15.0021 13.3064 14.9862 13.3384C14.9704 13.3704 14.9387 13.4051 14.9493 13.4438C14.9598 13.4825 15.0127 13.5251 15.0392 13.5691C15.0657 13.6131 15.0656 13.6584 15.0788 13.6971C15.0921 13.7358 15.1186 13.7677 15.1345 13.7997C15.1503 13.8317 15.1556 13.8638 15.1305 13.8783C15.1054 13.893 15.0498 13.8903 15.0088 13.9131C14.9678 13.9357 14.9413 13.9837 14.932 14.037C14.9228 14.0904 14.9307 14.149 14.9136 14.1983C14.8963 14.2476 14.854 14.2877 14.8262 14.3209C14.7985 14.3543 14.7852 14.381 14.7574 14.4369C14.7297 14.493 14.6873 14.5783 14.653 14.6382C14.6184 14.6982 14.592 14.7329 14.5616 14.7222ZM11.2797 12.9305C11.2611 12.9758 11.2666 13.0878 11.3339 13.1717C11.4014 13.2558 11.5311 13.3118 11.6395 13.4251C11.7481 13.5384 11.8353 13.7091 11.8829 13.8184C11.9305 13.9276 11.9386 13.9756 11.9729 14.0169C12.0072 14.0583 12.0681 14.093 12.1251 14.189C12.1819 14.285 12.2348 14.4422 12.2891 14.5543C12.3433 14.6662 12.3988 14.7328 12.4544 14.7954C12.51 14.8582 12.5655 14.9168 12.6423 14.9648C12.719 15.0128 12.8169 15.0502 12.8856 15.0569C12.9544 15.0634 12.994 15.0395 13.0153 14.9648C13.0364 14.8902 13.0391 14.7649 13.043 14.6715C13.047 14.5782 13.0523 14.5169 13.0034 14.4489C12.9544 14.381 12.8512 14.3063 12.7891 14.2143C12.7269 14.1223 12.7057 14.013 12.6475 13.9317C12.5893 13.8504 12.4941 13.7971 12.4134 13.7358C12.3327 13.6745 12.2665 13.605 12.1647 13.521C12.0629 13.4371 11.9252 13.3384 11.8459 13.2518C11.7665 13.1652 11.7453 13.0905 11.7189 13.0491C11.6924 13.0078 11.6607 12.9998 11.6039 12.9852C11.5469 12.9705 11.465 12.9492 11.4027 12.9279C11.3406 12.9065 11.2983 12.8852 11.2797 12.9305ZM8.92099 12.1214C8.90518 12.1454 8.88403 12.1906 8.88071 12.252C8.87747 12.3133 8.89193 12.3907 8.89193 12.4653C8.89193 12.5399 8.87747 12.6119 8.87868 12.6892C8.88011 12.7666 8.8972 12.8492 8.93364 12.8885C8.96994 12.9279 9.02558 12.9239 9.07588 12.8979C9.1261 12.8719 9.17097 12.8239 9.18821 12.7599C9.20546 12.6959 9.19492 12.6159 9.16977 12.5366C9.14462 12.4573 9.10494 12.3787 9.07648 12.3133C9.04809 12.248 9.03085 12.1961 9.013 12.1614C8.99508 12.1266 8.97664 12.1093 8.96203 12.102C8.94757 12.0946 8.93696 12.0973 8.92099 12.1214ZM13.545 10.4337C13.5047 10.3991 13.4399 10.3937 13.3764 10.4097C13.3128 10.4257 13.2507 10.4629 13.2315 10.519C13.2123 10.575 13.2361 10.6496 13.3076 10.6656C13.379 10.6816 13.498 10.639 13.5496 10.5856C13.6012 10.5324 13.5854 10.4684 13.545 10.4337ZM15.102 10.0052C15.0537 10.0098 14.9704 10.0031 14.9176 9.94515C14.8646 9.88717 14.8421 9.77785 14.856 9.66257C14.8699 9.54722 14.9202 9.426 14.9923 9.3693C15.0644 9.31268 15.1583 9.32059 15.1788 9.36787C15.1992 9.41523 15.1463 9.50189 15.1371 9.58389C15.1279 9.66588 15.1623 9.74329 15.1761 9.80653C15.19 9.86985 15.1834 9.91925 15.1734 9.95185C15.1636 9.98445 15.1503 10.0005 15.102 10.0052ZM16.4731 5.83582C16.4625 5.89056 16.4784 5.96781 16.4943 6.02647C16.5102 6.0852 16.526 6.12518 16.5181 6.16636C16.5102 6.20778 16.4784 6.25047 16.4929 6.31304C16.5076 6.37568 16.5684 6.45835 16.6212 6.54238C16.6743 6.62634 16.7192 6.71172 16.7589 6.79296C16.7986 6.87435 16.8329 6.95161 16.8316 7.03699C16.8303 7.12222 16.7933 7.21559 16.7536 7.23291C16.7139 7.25022 16.6716 7.19164 16.6332 7.19029C16.5948 7.18893 16.5605 7.24488 16.5366 7.3009C16.5128 7.35691 16.4996 7.41286 16.4189 7.44358C16.3382 7.47415 16.1901 7.47957 16.0949 7.5249C15.9996 7.57015 15.9572 7.65553 15.9004 7.74212C15.8435 7.82878 15.7722 7.9168 15.7748 7.97011C15.7774 8.02342 15.8541 8.04209 15.9163 8.05805C15.9785 8.07409 16.026 8.08734 16.0407 8.15405C16.0551 8.22069 16.0366 8.34071 16.079 8.41141C16.1213 8.48196 16.2244 8.50334 16.2906 8.41532C16.3568 8.3273 16.3859 8.13011 16.4533 8.02214C16.5207 7.91409 16.6266 7.89542 16.7179 7.86884C16.8091 7.84219 16.8858 7.8074 17.0116 7.77412C17.1372 7.74076 17.3118 7.70876 17.37 7.65282C17.4283 7.5968 17.37 7.51691 17.3184 7.44358C17.2668 7.37017 17.2218 7.30353 17.2165 7.21566C17.2113 7.12764 17.2457 7.01824 17.2325 6.91697C17.2192 6.81562 17.1584 6.72234 17.0988 6.64907C17.0394 6.57574 16.9811 6.52235 16.9718 6.4704C16.9626 6.41837 17.0022 6.3677 17.0855 6.32245C17.1689 6.27712 17.2959 6.23706 17.3304 6.14242C17.3647 6.04785 17.3065 5.89847 17.2469 5.83981C17.1875 5.78116 17.1265 5.81316 17.0538 5.83311C16.9811 5.85314 16.8964 5.8612 16.8118 5.83981C16.7271 5.8185 16.6424 5.76791 16.5816 5.7585C16.5207 5.74916 16.4838 5.78116 16.4731 5.83582ZM15.4188 4.08147C15.3355 4.07213 15.3038 4.11483 15.3434 4.1908C15.3831 4.26677 15.4943 4.3761 15.612 4.50139C15.7297 4.62675 15.854 4.768 15.9466 4.91467C16.0392 5.06135 16.1001 5.21329 16.1477 5.33723C16.1954 5.46131 16.2297 5.55723 16.288 5.61988C16.3461 5.68252 16.4282 5.71189 16.4494 5.68659C16.4705 5.66129 16.4308 5.58125 16.4732 5.55859C16.5155 5.53593 16.6398 5.57056 16.6689 5.56122C16.698 5.55189 16.6319 5.49866 16.538 5.4266C16.444 5.35462 16.3223 5.26396 16.2959 5.21201C16.2695 5.15998 16.3382 5.14666 16.4521 5.13995C16.5658 5.13333 16.7245 5.13333 16.6954 5.09463C16.6663 5.056 16.4494 4.97867 16.3052 4.88938C16.1611 4.80008 16.0896 4.69873 16.0129 4.58406C15.9361 4.46938 15.8541 4.34146 15.7457 4.24682C15.6372 4.15217 15.5022 4.09081 15.4188 4.08147ZM12.2839 0.87403C12.227 0.828696 12.1067 0.787389 11.9156 0.734059C11.7244 0.680728 11.4625 0.615425 11.2501 0.584073C11.0378 0.552728 10.8751 0.555386 10.7924 0.610064C10.7098 0.664698 10.7072 0.771359 10.8236 0.826686C10.9399 0.881997 11.1755 0.885995 11.3766 0.897349C11.5776 0.908666 11.7443 0.927331 11.897 0.94867C12.0498 0.969993 12.1887 0.993966 12.2614 0.981317C12.3342 0.968668 12.3408 0.919358 12.2839 0.87403ZM6.78701 0.328133C6.73739 0.274147 6.62362 0.214146 6.51557 0.187838C6.40753 0.1615 6.30528 0.168818 6.2153 0.1455C6.1254 0.122144 6.04777 0.0681578 5.91375 0.0345013C5.77965 0.000844818 5.58923 -0.0124901 5.47945 0.0141489C5.3696 0.0408181 5.34053 0.107484 5.3961 0.166115C5.45167 0.224754 5.59187 0.275427 5.74531 0.302089C5.89876 0.32875 6.06547 0.331386 6.2156 0.351429C6.36574 0.371427 6.49931 0.40875 6.59523 0.432754C6.69116 0.45675 6.74936 0.467427 6.78573 0.448754C6.8221 0.430089 6.83663 0.382119 6.78701 0.328133Z" fill="white"/>
</svg>
