<svg width="63" height="50" viewBox="0 0 63 50" fill="none" xmlns="http://www.w3.org/2000/svg">
<rect x="23" y="2.5" width="20" height="20" rx="4" fill="#262626"/>
<g clip-path="url(#clip0_1_2320)">
<path d="M38.768 9.93944C38.6962 9.89382 38.6144 9.86663 38.5296 9.86026C38.4448 9.85389 38.3598 9.86855 38.282 9.90294L36.1525 10.8629V10.6694C36.152 10.1032 35.9268 9.56036 35.5265 9.15999C35.1261 8.75963 34.5832 8.53446 34.017 8.53394H29.1355C28.5693 8.53446 28.0264 8.75963 27.6261 9.15999C27.2257 9.56036 27.0005 10.1032 27 10.6694V14.3304C27.0005 14.8966 27.2257 15.4395 27.6261 15.8399C28.0264 16.2402 28.5693 16.4654 29.1355 16.4659H34.017C34.5832 16.4654 35.1261 16.2402 35.5265 15.8399C35.9268 15.4395 36.152 14.8966 36.1525 14.3304V14.1269L38.282 15.0909C38.3458 15.1206 38.4151 15.1366 38.4855 15.1379C38.5829 15.1373 38.6781 15.109 38.76 15.0564C38.832 15.0119 38.8917 14.9501 38.9336 14.8765C38.9755 14.8029 38.9984 14.7201 39 14.6354V10.3644C38.9992 10.28 38.9776 10.1971 38.9371 10.1229C38.8967 10.0488 38.8386 9.9858 38.768 9.93944Z" fill="#737373"/>
</g>
<rect x="23" y="27.5" width="20" height="20" rx="4" fill="#262626"/>
<g clip-path="url(#clip1_1_2320)">
<path d="M36.3937 43.5001C36.3094 43.5004 36.2262 43.4801 36.1515 43.4409L33 41.7196L29.85 43.4401C29.7667 43.4857 29.6719 43.506 29.5772 43.4987C29.4826 43.4914 29.392 43.4567 29.3167 43.3989C29.2395 43.3387 29.1799 43.2588 29.1443 43.1676C29.1086 43.0763 29.0983 42.9772 29.1142 42.8806L29.6977 39.2056L27.15 36.5881C27.0816 36.5174 27.0336 36.4296 27.0109 36.3339C26.9882 36.2382 26.9917 36.1382 27.021 36.0444C27.0484 35.9518 27.1013 35.8688 27.1738 35.805C27.2462 35.7412 27.3352 35.6991 27.4305 35.6836L30.951 35.1196L32.5447 31.7934C32.5844 31.7058 32.6485 31.6315 32.7293 31.5794C32.8101 31.5273 32.9042 31.4996 33.0004 31.4996C33.0965 31.4996 33.1906 31.5273 33.2714 31.5794C33.3522 31.6315 33.4163 31.7058 33.456 31.7934L35.046 35.1189L38.5665 35.6746C38.6618 35.6901 38.7508 35.7322 38.8232 35.796C38.8956 35.8598 38.9486 35.9428 38.976 36.0354C39.0053 36.1292 39.0088 36.2292 38.9861 36.3249C38.9634 36.4206 38.9153 36.5084 38.847 36.5791L36.3112 39.2041L36.8947 42.8791C36.907 42.9549 36.9032 43.0324 36.8837 43.1067C36.8642 43.181 36.8294 43.2503 36.7815 43.3104C36.7352 43.3687 36.6764 43.416 36.6094 43.4487C36.5425 43.4814 36.469 43.4987 36.3945 43.4994L36.3937 43.5001Z" fill="#737373"/>
</g>
<path d="M1 50V0H-1V50H1Z" fill="#333333" mask="url(#path-1-inside-1_1_2320)"/>
<defs>
<clipPath id="clip0_1_2320">
<rect width="12" height="12" fill="white" transform="translate(27 6.5)"/>
</clipPath>
<clipPath id="clip1_1_2320">
<rect width="12" height="12" fill="white" transform="translate(27 31.5)"/>
</clipPath>
</defs>
</svg>
