<svg width="40" height="40" viewBox="0 0 40 40" fill="none" xmlns="http://www.w3.org/2000/svg">
<path d="M21.4232 0.584298C22.3951 -0.374686 24.018 -0.117654 24.6459 1.09477C25.1559 2.07914 26.3621 2.47109 27.3532 1.97445C28.574 1.36274 30.038 2.10868 30.2605 3.45578C30.4414 4.54961 31.4674 5.29507 32.5635 5.12899C33.9135 4.92445 35.0754 6.08625 34.8707 7.43626C34.7046 8.53234 35.4502 9.55854 36.544 9.7392C37.8911 9.9618 38.637 11.4259 38.0254 12.6465C37.5286 13.6376 37.9205 14.8439 38.905 15.3537C40.1174 15.9817 40.3745 17.6046 39.4155 18.5765C38.6367 19.3657 38.6367 20.6341 39.4155 21.4232C40.3745 22.3951 40.1174 24.018 38.905 24.6459C37.9206 25.1559 37.5286 26.3621 38.0254 27.3532C38.637 28.574 37.8911 30.038 36.544 30.2605C35.4501 30.4414 34.7046 31.4674 34.8707 32.5635C35.0754 33.9135 33.9135 35.0754 32.5635 34.8707C31.4674 34.7046 30.4412 35.4502 30.2605 36.544C30.038 37.8911 28.5739 38.6371 27.3532 38.0254C26.3621 37.5286 25.1559 37.9205 24.6459 38.905C24.018 40.1174 22.3951 40.3745 21.4232 39.4155C20.6341 38.6367 19.3657 38.6367 18.5765 39.4155C17.6046 40.3745 15.9817 40.1174 15.3537 38.905C14.8439 37.9206 13.6376 37.5286 12.6465 38.0254C11.4258 38.6371 9.9618 37.8911 9.7392 36.544C9.55846 35.4501 8.53234 34.7046 7.43626 34.8707C6.08625 35.0754 4.92445 33.9135 5.12899 32.5635C5.29507 31.4674 4.54954 30.4412 3.45578 30.2605C2.10868 30.038 1.36274 28.5739 1.97445 27.3532C2.47118 26.3621 2.07923 25.1559 1.09477 24.6459C-0.117576 24.018 -0.374686 22.3951 0.584298 21.4232C1.36298 20.6341 1.36298 19.3657 0.584298 18.5765C-0.374686 17.6046 -0.117654 15.9817 1.09477 15.3537C2.07914 14.8439 2.47109 13.6376 1.97445 12.6465C1.36274 11.4258 2.10868 9.9618 3.45578 9.7392C4.54961 9.55846 5.29507 8.53234 5.12899 7.43626C4.92445 6.08625 6.08625 4.92445 7.43626 5.12899C8.53234 5.29507 9.55854 4.54954 9.7392 3.45578C9.9618 2.10868 11.4259 1.36274 12.6465 1.97445C13.6376 2.47118 14.8439 2.07923 15.3537 1.09477C15.9817 -0.117576 17.6046 -0.374686 18.5765 0.584298C19.3656 1.36298 20.6341 1.36298 21.4232 0.584298Z" fill="#E6646E"/>
<path d="M38.095 27.5464C36.7059 28.539 35.1685 29.3334 33.5295 29.9126C35.5681 27.1353 36.7743 23.709 36.7743 19.9998C36.7743 10.7356 29.2642 3.22554 20.0001 3.22554C16.2909 3.22554 12.8646 4.43188 10.0873 6.47023C10.6664 4.8314 11.4609 3.29398 12.4535 1.90492C11.2759 1.45624 9.9504 2.17813 9.73926 3.45554C9.55854 4.54938 8.5324 5.29484 7.43634 5.12874C6.08632 4.92422 4.92454 6.08609 5.12906 7.43603C5.29516 8.53217 4.54961 9.55829 3.45586 9.73909C2.10876 9.96163 1.36274 11.4257 1.97445 12.6463C2.47118 13.6375 2.07923 14.8439 1.09477 15.3538C-0.117654 15.9816 -0.374607 17.6045 0.584298 18.5765C1.36298 19.3656 1.36298 20.634 0.584298 21.4233C-0.374686 22.3951 -0.117654 24.018 1.09477 24.646C2.07914 25.1559 2.47109 26.3621 1.97445 27.3533C1.36274 28.574 2.10868 30.038 3.45578 30.2606C4.5496 30.4414 5.29516 31.4675 5.12906 32.5635C4.92454 33.9135 6.08632 35.0754 7.43634 34.8709C8.5324 34.7048 9.5586 35.4503 9.73926 36.5441C9.96186 37.8911 11.4259 38.6371 12.6465 38.0254C13.6376 37.5288 14.8441 37.9206 15.354 38.9051C15.9819 40.1174 17.6049 40.3744 18.5767 39.4155C19.3659 38.6369 20.6344 38.6369 21.4235 39.4155C22.3955 40.3744 24.0182 40.1174 24.6462 38.9051C25.1562 37.9206 26.3624 37.5288 27.3536 38.0254C28.5744 38.6371 30.0382 37.8911 30.2609 36.5441C30.4417 35.4503 31.4679 34.7048 32.564 34.8709C33.9139 35.0754 35.0757 33.9135 34.8713 32.5635C34.7051 31.4675 35.4506 30.4413 36.5444 30.2606C37.8218 30.0494 38.5436 28.7239 38.095 27.5464Z" fill="#DC4655"/>
<path d="M20.001 35.4838C28.5522 35.4838 35.4845 28.5515 35.4845 20.0003C35.4845 11.4489 28.5522 4.5166 20.001 4.5166C11.4496 4.5166 4.51733 11.4489 4.51733 20.0003C4.51733 28.5515 11.4496 35.4838 20.001 35.4838Z" fill="#FFEDB1"/>
<path d="M27.1539 30.9063C17.5275 30.1531 9.84765 22.4731 9.09437 12.8469C9.06857 12.5161 8.80025 12.2583 8.46857 12.2583C8.24925 12.2583 8.04197 12.3694 7.92657 12.5559C6.35292 15.1003 5.5505 18.1714 5.87996 21.4526C6.54629 28.0885 11.9128 33.4548 18.5487 34.1208C21.8297 34.45 24.9006 33.6475 27.4447 32.074C27.6314 31.9586 27.7424 31.7514 27.7424 31.532C27.7424 31.2004 27.4846 30.9321 27.1539 30.9063Z" fill="#FFE17D"/>
<path d="M14.7084 14.8572C14.3517 14.8572 14.0632 15.1458 14.0632 15.5024V21.8016L10.7694 15.2138C10.6358 14.9461 10.3327 14.8074 10.0442 14.8742C9.75312 14.9436 9.54712 15.2031 9.54712 15.5023V24.5346C9.54712 24.8912 9.83572 25.1798 10.1922 25.1798C10.5489 25.1798 10.8374 24.8912 10.8374 24.5346V18.2354L14.1312 24.8232C14.2421 25.0457 14.4684 25.1798 14.7084 25.1798C14.7575 25.1798 14.8072 25.1741 14.8565 25.1628C15.1475 25.0936 15.3535 24.8339 15.3535 24.5347V15.5026C15.3535 15.1458 15.065 14.8572 14.7084 14.8572Z" fill="#DC4655"/>
<path d="M21.1597 16.1488C21.5163 16.1488 21.8049 15.8601 21.8049 15.5035C21.8049 15.147 21.5163 14.8584 21.1597 14.8584H17.2888C16.9322 14.8584 16.6436 15.147 16.6436 15.5035V24.5358C16.6436 24.8925 16.9322 25.181 17.2888 25.181H21.1597C21.5163 25.181 21.8049 24.8924 21.8049 24.5358C21.8049 24.1793 21.5163 23.8906 21.1597 23.8906H17.9339V20.6649H19.8694C20.2261 20.6649 20.5146 20.3763 20.5146 20.0198C20.5146 19.6633 20.2259 19.3746 19.8694 19.3746H17.9339V16.1488H21.1597Z" fill="#DC4655"/>
<path d="M30.9727 14.8727C30.6211 14.7945 30.2809 15.0201 30.2066 15.368L28.9017 21.4566L27.597 15.368C27.5332 15.0706 27.2706 14.8582 26.9662 14.8582C26.662 14.8582 26.3992 15.0706 26.3355 15.368L25.0306 21.4566L23.7259 15.368C23.6509 15.0195 23.31 14.7945 22.9597 14.8727C22.6112 14.9471 22.3896 15.2904 22.4645 15.6389L24.4 24.6711C24.4636 24.9684 24.7262 25.1807 25.0306 25.1807C25.335 25.1807 25.5977 24.9684 25.6614 24.6711L26.9662 18.5824L28.2711 24.6711C28.3347 24.9684 28.5974 25.1807 28.9017 25.1807C29.2061 25.1807 29.4689 24.9684 29.5325 24.6711L31.468 15.6389C31.5429 15.2904 31.3211 14.9471 30.9727 14.8727Z" fill="#DC4655"/>
</svg>
