<svg width="12" height="12" viewBox="0 0 12 12" fill="none" xmlns="http://www.w3.org/2000/svg">
<path d="M8.40802 0.944702C7.72989 0.457946 6.89786 0.175044 5.99923 0.175044C3.70273 0.175044 1.84307 2.03471 1.84307 4.33121V5.46695C1.84307 6.10766 1.58513 6.72755 1.12749 7.18099C1.0318 7.27669 0.952759 7.40985 0.898674 7.56791C0.786346 7.87994 0.786346 8.19197 0.873715 8.47902L8.40802 0.944702Z" fill="#737373"/>
<path d="M4.19765 10.2353C4.31457 11.131 5.07216 11.8246 5.99993 11.8246C6.92765 11.8246 7.68525 11.131 7.80217 10.2353H4.19765Z" fill="#737373"/>
<path d="M11.8902 0.109832C11.7437 -0.0366107 11.507 -0.0366107 11.361 0.109832L0.109832 11.3606C-0.0366107 11.507 -0.0366107 11.7441 0.109832 11.8902C0.183053 11.9634 0.278741 12 0.374428 12C0.470114 12 0.565804 11.9634 0.639025 11.8902L2.91804 9.61116H9.59034C10.6554 9.61116 11.4666 8.56276 11.1005 7.56843C11.0464 7.41034 10.9674 7.27721 10.8717 7.18156C10.4141 6.72804 10.1561 6.10818 10.1561 5.46747V4.3317C10.1561 3.75384 10.0338 3.20802 9.82126 2.70836L11.8902 0.639441C12.0362 0.493412 12.0362 0.255859 11.8902 0.109832Z" fill="#737373"/>
</svg>
