<svg width="24" height="24" viewBox="0 0 24 24" fill="none" xmlns="http://www.w3.org/2000/svg">
<path d="M12 24C18.6275 24 24 18.6275 24 12C24 5.37258 18.6275 0 12 0C5.37258 0 0 5.37258 0 12C0 18.6275 5.37258 24 12 24Z" fill="#F0F0F0"/>
<path d="M10.9565 12C10.9565 12 3.52168 20.4869 3.51465 20.4853C5.68618 22.6568 8.68624 24 12 24C18.6273 24 24 18.6274 24 12H10.9565Z" fill="#D80027"/>
<path d="M3.51471 3.51471C-1.17157 8.20102 -1.17157 15.799 3.51471 20.4854C5.45125 18.5488 7.31374 16.6863 12 12L3.51471 3.51471Z" fill="#0052B4"/>
</svg>
