<svg width="32" height="32" viewBox="0 0 32 32" fill="none" xmlns="http://www.w3.org/2000/svg">
<path d="M8.28574 4.74427C1.07855 7.9338 -1.10407 16.2174 1.68766 23.5128C1.86973 23.9884 2.40435 24.224 2.87 24.0182L4.96876 23.0897C6.01319 22.6273 7.20822 22.9655 7.93043 23.8499C9.90891 26.2715 13.3302 27.179 16.3277 25.8527C21.5183 23.5559 19.8096 20.5048 19.8488 17.8091C19.851 17.6668 19.8587 17.525 19.8725 17.3848C20.0954 15.1024 21.9818 13.3324 24.2549 13.0295L28.4243 12.4739C28.811 12.4226 29.0229 12.0017 28.843 11.6552C25.2182 4.66041 15.5371 1.53544 8.28574 4.74427Z" fill="#D25627"/>
<path d="M13.4745 23.0705C15.4414 23.0705 17.0359 21.476 17.0359 19.5091C17.0359 17.5422 15.4414 15.9478 13.4745 15.9478C11.5076 15.9478 9.91309 17.5422 9.91309 19.5091C9.91309 21.476 11.5076 23.0705 13.4745 23.0705Z" fill="#546A79" stroke="#ECF0F1" stroke-width="2" stroke-miterlimit="10"/>
<path d="M2.8701 24.018C2.40444 24.2243 1.86982 23.9887 1.68775 23.5126C1.45437 22.9029 1.26899 22.2855 1.10513 21.666L0.9992 21.7123C0.156165 22.0814 -0.228938 23.064 0.140165 23.9071L1.4952 27.0044C1.67175 27.4077 2.18872 27.5236 2.5203 27.234L4.57051 25.4442L3.59341 23.6974L2.8701 24.018Z" fill="#38454F"/>
<path d="M6.43531 20.6963H5.76166C5.15199 20.6963 4.6582 20.2025 4.6582 19.5928V18.9192C4.6582 18.3095 5.15199 17.8157 5.76166 17.8157H6.43531C7.04497 17.8157 7.53876 18.3095 7.53876 18.9192V19.5928C7.53876 20.2019 7.04497 20.6963 6.43531 20.6963Z" fill="#ECF0F1"/>
<path d="M23.4519 19.1004C23.2147 19.0055 22.9653 18.9575 22.7093 18.9575H15.3984C14.8566 18.9575 14.3777 19.2829 14.1791 19.7872C14.0014 20.2385 14.0853 20.739 14.3893 21.1037C15.4585 24.4741 20.7838 28.3092 23.5578 28.3092H29.7929C30.9129 28.3092 31.7906 27.4584 31.7906 26.3731V22.7081L23.4519 19.1004ZM30.6872 24.7797L23.5578 23.438V20.3484L30.6872 23.433V24.7797ZM22.4544 23.0297L16.0935 20.0609H22.4549L22.4544 23.0297ZM15.5402 21.0203L22.4549 24.2474V26.9878C20.1233 26.2198 16.5002 23.5026 15.5402 21.0203ZM29.7929 27.2063H23.5578V24.5453L30.6872 25.902V26.3737C30.6872 26.8482 30.3026 27.2063 29.7929 27.2063Z" fill="#38454F"/>
</svg>
