<svg width="24" height="24" viewBox="0 0 24 24" fill="none" xmlns="http://www.w3.org/2000/svg">
<path d="M12 24C18.6275 24 24 18.6275 24 12C24 5.37258 18.6275 0 12 0C5.37258 0 0 5.37258 0 12C0 18.6275 5.37258 24 12 24Z" fill="#0052B4"/>
<path d="M12.0002 4.69565L12.3888 5.89139H13.646L12.6289 6.63037L13.0174 7.8261L12.0002 7.08708L10.9831 7.8261L11.3716 6.63037L10.3545 5.89139H11.6117L12.0002 4.69565Z" fill="#FFDA44"/>
<path d="M6.83523 6.83503L7.95553 7.40578L8.8445 6.51685L8.64778 7.75853L9.76805 8.32936L8.52628 8.52608L8.32963 9.76786L7.7588 8.64758L6.51709 8.84431L7.40607 7.95533L6.83523 6.83503Z" fill="#FFDA44"/>
<path d="M4.6958 12L5.89153 11.6114V10.3542L6.63047 11.3714L7.82628 10.9828L7.08717 12L7.82628 13.0171L6.63047 12.6286L5.89153 13.6458V12.3885L4.6958 12Z" fill="#FFDA44"/>
<path d="M6.83523 17.1649L7.40603 16.0447L6.51709 15.1556L7.75888 15.3524L8.32955 14.2321L8.52628 15.4739L9.76798 15.6706L8.64785 16.2414L8.8445 17.4832L7.95553 16.5941L6.83523 17.1649Z" fill="#FFDA44"/>
<path d="M12.0002 19.3043L11.6116 18.1086H10.3545L11.3716 17.3696L10.9831 16.174L12.0002 16.913L13.0174 16.174L12.6289 17.3696L13.646 18.1086H12.3887L12.0002 19.3043Z" fill="#FFDA44"/>
<path d="M17.1652 17.1649L16.0449 16.5942L15.1559 17.4832L15.3526 16.2414L14.2324 15.6706L15.4742 15.4739L15.6708 14.2321L16.2416 15.3524L17.4833 15.1556L16.5943 16.0447L17.1652 17.1649Z" fill="#FFDA44"/>
<path d="M19.3042 12L18.1085 12.3885V13.6458L17.3695 12.6286L16.1738 13.0171L16.9128 12L16.1738 10.9828L17.3696 11.3714L18.1085 10.3542V11.6115L19.3042 12Z" fill="#FFDA44"/>
<path d="M17.1652 6.83502L16.5944 7.95532L17.4834 8.84429L16.2416 8.64757L15.6708 9.76777L15.4742 8.52607L14.2324 8.32927L15.3526 7.75852L15.1559 6.51688L16.0449 7.40581L17.1652 6.83502Z" fill="#FFDA44"/>
</svg>
