<svg width="12" height="12" viewBox="0 0 12 12" fill="none" xmlns="http://www.w3.org/2000/svg">
<path d="M2.00013 4.00024C2.13147 4.00024 2.26153 4.02615 2.38287 4.07643C2.5042 4.12672 2.61444 4.2004 2.70728 4.29332C2.80012 4.38624 2.87374 4.49652 2.92394 4.6179C2.97413 4.73928 2.99991 4.86936 2.99982 5.00068V11.0003C2.99982 11.2655 2.89449 11.5197 2.70702 11.7072C2.51954 11.8947 2.26526 12 2.00013 12H0.999689C0.734554 12 0.480282 11.8947 0.292802 11.7072C0.105324 11.5197 2.81329e-07 11.2655 2.81329e-07 11.0003V5.00068C-9.82515e-05 4.86936 0.0256868 4.73928 0.0758819 4.6179C0.126077 4.49652 0.199698 4.38624 0.292537 4.29332C0.385375 4.2004 0.495615 4.12672 0.61695 4.07643C0.738289 4.02615 0.868346 4.00024 0.999689 4.00024H2.00013ZM6.49985 2.00013C6.63121 2.00013 6.76125 2.02601 6.88259 2.07629C7.00394 2.12658 7.11418 2.20028 7.20702 2.2932C7.29983 2.3861 7.37347 2.4964 7.42365 2.61777C7.47386 2.73915 7.49965 2.86922 7.49954 3.00057V11.0003C7.49954 11.2655 7.39421 11.5197 7.20672 11.7072C7.01927 11.8947 6.765 12 6.49985 12H5.49941C5.23427 12 4.98 11.8947 4.79255 11.7072C4.60506 11.5197 4.49973 11.2655 4.49973 11.0003V3.00057C4.49973 2.73543 4.60506 2.48116 4.79255 2.29368C4.98 2.1062 5.23427 2.00088 5.49941 2.00088L6.49985 2.00013ZM10.9996 0C11.1309 -3.74977e-08 11.261 0.0258825 11.3823 0.0761684C11.5037 0.126454 11.6139 0.200158 11.7067 0.293067C11.7996 0.385976 11.8732 0.496268 11.9234 0.617645C11.9736 0.739017 11.9994 0.869093 11.9993 1.00044V11.0003C11.9993 11.2655 11.8939 11.5197 11.7064 11.7072C11.519 11.8947 11.2647 12 10.9996 12H9.99914C9.73399 12 9.47972 11.8947 9.29227 11.7072C9.10478 11.5197 8.99945 11.2655 8.99945 11.0003V1.00044C8.99945 0.735305 9.10478 0.481029 9.29227 0.293552C9.47972 0.106074 9.73399 0.000749952 9.99914 0.000749952L10.9996 0Z" fill="#737373"/>
</svg>
