<svg width="40" height="40" viewBox="0 0 40 40" fill="none" xmlns="http://www.w3.org/2000/svg">
<path d="M23.1693 39.9999H17.1446C16.807 39.9999 16.5296 39.7333 16.5151 39.3959C16.437 37.5744 16.5481 35.9398 16.5481 35.9398H23.7656C23.7656 35.9398 23.8774 37.5746 23.7988 39.3961C23.7843 39.7334 23.5068 39.9999 23.1693 39.9999Z" fill="#F79E60"/>
<path d="M23.1706 39.9999H21.1913C21.3291 37.9526 21.1913 35.9398 21.1913 35.9398H23.7668C23.7668 35.9398 23.8787 37.5746 23.8001 39.3961C23.7853 39.7334 23.5081 39.9999 23.1706 39.9999Z" fill="#D77D41"/>
<path d="M26.573 35.1658C26.5286 35.4427 26.3078 35.6571 26.03 35.6938C25.3175 35.7882 24.6135 35.8617 23.9236 35.9168C19.3027 36.2882 15.34 35.8638 14.0317 35.6942C13.7544 35.6582 13.535 35.4428 13.491 35.1667C13.2207 33.4716 13.3554 31.9817 13.4705 31.1997L24.128 31.1843L26.59 31.1803C26.706 31.9568 26.8456 33.4568 26.573 35.1658Z" fill="#0B687F"/>
<path d="M26.0293 35.6938C25.3168 35.7882 24.6128 35.8617 23.9228 35.9168C24.1772 34.0078 24.1723 32.2656 24.1273 31.1843L26.5893 31.1803C26.705 31.9568 26.8448 33.4568 26.572 35.1658C26.528 35.4427 26.3071 35.6571 26.0293 35.6938Z" fill="#124A6A"/>
<path d="M39.5068 24.9293C39.4824 25.1154 39.3758 25.2805 39.2165 25.3803C38.8325 25.6205 38.0175 26.1154 36.8368 26.7533C33.5839 28.5099 27.5583 31.354 20.1344 32.9584C20.0461 32.9774 19.9538 32.9774 19.8654 32.9584C9.74716 30.772 2.22599 26.2823 0.783428 25.3803C0.624288 25.2808 0.517568 25.1153 0.493193 24.929C-0.51485 17.2391 0.303352 9.62512 0.494678 8.04951C0.517568 7.86076 0.624053 7.69303 0.785225 7.59224C2.23209 6.68748 9.75128 2.19976 19.8654 0.0142968C19.9538 -0.00476561 20.0459 -0.00476561 20.1343 0.0142968C27.6175 1.63093 33.681 4.50859 36.9148 6.26217C38.051 6.87912 38.8383 7.35693 39.2145 7.59224C39.3759 7.69303 39.4823 7.86068 39.505 8.04951C39.6965 9.62521 40.5147 17.2393 39.5068 24.9293Z" fill="#FF6B81"/>
<path d="M39.2156 25.3803C38.8316 25.6205 38.0166 26.1154 36.8358 26.7533C37.6324 17.7723 37.1149 9.01328 36.9137 6.26219C38.0501 6.87915 38.8372 7.35695 39.2136 7.59226C39.3749 7.69305 39.4812 7.8607 39.5042 8.04953C39.6956 9.62523 40.5138 17.2393 39.5056 24.9293C39.4813 25.1154 39.3747 25.2805 39.2156 25.3803Z" fill="#ED2061"/>
<path d="M20.0811 29.2043C20.7477 29.2043 21.2882 28.6638 21.2882 27.997C21.2882 27.3302 20.7477 26.7895 20.0811 26.7895C19.4142 26.7895 18.8737 27.3302 18.8737 27.997C18.8737 28.6638 19.4142 29.2043 20.0811 29.2043Z" fill="#FEFEFE"/>
<path d="M8.92205 23.6511C8.25534 23.6511 7.71482 24.1917 7.71482 24.8585C7.71482 25.5254 8.25528 26.0659 8.92205 26.0659C9.58878 26.0659 10.1293 25.5254 10.1293 24.8585C10.1293 24.1917 9.58878 23.6511 8.92205 23.6511Z" fill="#FEFEFE"/>
<path d="M31.4971 23.6511C30.8305 23.6511 30.2897 24.1917 30.2897 24.8585C30.2897 25.5254 30.8302 26.0659 31.4971 26.0659C32.1637 26.0659 32.7042 25.5254 32.7042 24.8585C32.7042 24.1917 32.1637 23.6511 31.4971 23.6511Z" fill="#FEFEFE"/>
<path d="M20.0811 3.7683C19.4142 3.7683 18.8737 4.30885 18.8737 4.97571C18.8737 5.64259 19.4142 6.18314 20.0811 6.18314C20.7477 6.18314 21.2882 5.64259 21.2882 4.97571C21.2882 4.30885 20.7477 3.7683 20.0811 3.7683Z" fill="#FEFEFE"/>
<path d="M8.92205 6.90794C8.25534 6.90794 7.71482 7.44849 7.71482 8.11535C7.71482 8.78223 8.25528 9.32278 8.92205 9.32278C9.58878 9.32278 10.1293 8.78223 10.1293 8.11535C10.1293 7.44849 9.58878 6.90794 8.92205 6.90794Z" fill="#FEFEFE"/>
<path d="M31.4971 9.32278C32.1637 9.32278 32.7042 8.78223 32.7042 8.11535C32.7042 7.44856 32.1637 6.90794 31.4971 6.90794C30.8305 6.90794 30.2897 7.44849 30.2897 8.11535C30.29 8.78223 30.8305 9.32278 31.4971 9.32278Z" fill="#FEFEFE"/>
<path d="M15.0786 6.41355C15.0786 6.08997 14.8161 5.82762 14.4925 5.82762C14.1687 5.82762 13.9062 6.08997 13.9062 6.41355C13.9062 6.73715 14.1687 6.9995 14.4925 6.9995C14.8162 6.9995 15.0786 6.73715 15.0786 6.41355Z" fill="#FEFEFE"/>
<path d="M26.2504 6.41355C26.2504 6.08997 25.988 5.82762 25.6642 5.82762C25.3405 5.82762 25.078 6.08997 25.078 6.41355C25.078 6.73715 25.3404 6.9995 25.6642 6.9995C25.988 6.9995 26.2504 6.73715 26.2504 6.41355Z" fill="#FEFEFE"/>
<path d="M13.9062 26.7075C13.9062 27.0312 14.1687 27.2935 14.4925 27.2935C14.8162 27.2935 15.0786 27.0312 15.0786 26.7075C15.0786 26.384 14.8161 26.1217 14.4925 26.1217C14.1687 26.1217 13.9062 26.384 13.9062 26.7075Z" fill="#FEFEFE"/>
<path d="M25.078 26.7075C25.078 27.0312 25.3404 27.2935 25.6642 27.2935C25.988 27.2935 26.2504 27.0312 26.2504 26.7075C26.2504 26.384 25.988 26.1217 25.6642 26.1217C25.3405 26.1217 25.078 26.384 25.078 26.7075Z" fill="#FEFEFE"/>
</svg>
