<svg width="32" height="32" viewBox="0 0 32 32" fill="none" xmlns="http://www.w3.org/2000/svg">
<path d="M16.4789 9.63228H15.5187V8.75928C15.5187 8.61459 15.4014 8.4974 15.2568 8.4974H13.0381C12.3631 8.4974 11.8159 7.95022 11.8159 7.27522V7.23153C11.8159 6.55653 12.3631 6.00934 13.0381 6.00934H19.318C19.4447 6.00934 19.561 5.92403 19.5851 5.79965C19.6175 5.63247 19.4898 5.48559 19.3283 5.48559H16.7409C16.0659 5.48559 15.5187 4.9384 15.5187 4.2634V4.13247C15.5187 3.86728 15.7336 3.65234 15.9988 3.65234C16.264 3.65234 16.4789 3.86728 16.4789 4.13247V4.2634C16.4789 4.40809 16.5962 4.52528 16.7408 4.52528H19.2928C19.9501 4.52528 20.5165 5.0294 20.5489 5.6859C20.5835 6.38765 20.0225 6.96965 19.3282 6.96965H13.038C12.8933 6.96965 12.7761 7.0869 12.7761 7.23153V7.27522C12.7761 7.4199 12.8934 7.53709 13.038 7.53709H15.2567C15.9317 7.53709 16.4789 8.08428 16.4789 8.75928V9.63228Z" fill="url(#paint0_linear_1_2018)"/>
<path d="M17.7285 11.1832H14.2705L14.7324 9.51106C14.8133 9.21831 15.0796 9.01562 15.3834 9.01562H16.6155C16.9193 9.01562 17.1856 9.21837 17.2665 9.51106L17.7285 11.1832Z" fill="url(#paint1_linear_1_2018)"/>
<path d="M31.7966 21.9205C31.9293 22.3693 32 22.845 32 23.3374C32 25.1375 31.0502 26.7158 29.6246 27.5984C29.4447 27.711 29.2562 27.8114 29.0616 27.8996C29.0127 27.9223 28.9629 27.9441 28.9123 27.965C28.3204 28.2112 27.6709 28.3474 26.9891 28.3474C25.6098 28.3474 24.3606 27.7905 23.4552 26.8886C23.4526 26.886 23.4492 26.8825 23.4465 26.8799C23.4456 26.879 23.4447 26.8781 23.4439 26.8773C23.4317 26.8651 23.4194 26.8528 23.4072 26.8406C23.374 26.8074 23.3409 26.7751 23.3076 26.7428C23.2745 26.7105 23.2413 26.6781 23.2073 26.6468C23.1776 26.618 23.147 26.59 23.1173 26.563C23.0981 26.5446 23.0781 26.5263 23.0589 26.5088C23.051 26.5018 23.0422 26.4949 23.0344 26.4879C23.0318 26.4853 23.0301 26.4826 23.0274 26.4809C23.0004 26.4565 22.9733 26.4329 22.9463 26.4085C22.8965 26.3648 22.8467 26.3212 22.7961 26.2784C22.7385 26.2286 22.6791 26.1797 22.6207 26.1326C22.6128 26.1256 22.6033 26.1186 22.5945 26.1108C22.5927 26.109 22.5911 26.1081 22.5901 26.1073C22.5901 26.1073 22.5893 26.1065 22.5884 26.1056C22.5875 26.1056 22.5866 26.1047 22.5849 26.103C22.5675 26.089 22.5509 26.0759 22.5343 26.0628C22.53 26.0594 22.5256 26.0558 22.5212 26.0524C22.4854 26.0236 22.4496 25.9956 22.4139 25.9686C22.4095 25.9651 22.4051 25.9616 22.4008 25.959C22.3912 25.9502 22.3808 25.9423 22.3703 25.9345C22.3633 25.9293 22.3563 25.9241 22.3493 25.9188C22.3441 25.9144 22.3397 25.9109 22.3344 25.9075C22.3048 25.8838 22.2742 25.8621 22.2436 25.8394C22.2306 25.829 22.2166 25.8193 22.2026 25.8097C22.179 25.7914 22.1546 25.7739 22.1302 25.7565C22.1232 25.7512 22.1162 25.746 22.1092 25.7416C22.0761 25.7171 22.0438 25.6944 22.0097 25.6708C21.9931 25.6595 21.9774 25.6481 21.9608 25.6376C21.9574 25.6342 21.9538 25.6315 21.9495 25.6298C21.9434 25.6255 21.9382 25.621 21.9321 25.6167C21.8509 25.5608 21.7679 25.5067 21.6859 25.4535C21.6649 25.4395 21.6439 25.4264 21.6221 25.4124C21.6047 25.4011 21.5863 25.3897 21.568 25.3792C21.561 25.374 21.5549 25.3696 21.5479 25.367C21.5479 25.367 21.5479 25.3661 21.5471 25.3661C21.5383 25.36 21.5287 25.354 21.5191 25.3478C21.4991 25.3356 21.479 25.3234 21.4589 25.3111C21.4283 25.292 21.3977 25.2736 21.3663 25.2561C21.3366 25.237 21.307 25.2195 21.2764 25.202C21.2738 25.2003 21.2711 25.1994 21.2685 25.1977C21.2632 25.1951 21.2572 25.1907 21.2502 25.1873C21.2397 25.1811 21.2284 25.1751 21.2179 25.169C21.1516 25.1306 21.0852 25.0939 21.018 25.0572C21.0171 25.0563 21.0154 25.0563 21.0146 25.0546C20.9465 25.0179 20.8766 24.9813 20.8077 24.9463C20.7676 24.9254 20.7274 24.9053 20.6873 24.8852C20.6532 24.8678 20.6192 24.8511 20.5842 24.8346C20.5816 24.8328 20.579 24.8311 20.5764 24.8303C20.5502 24.8172 20.5239 24.805 20.4978 24.7927C20.4961 24.7918 20.4944 24.791 20.4926 24.791C20.4734 24.7813 20.4533 24.7718 20.4333 24.7621C20.3904 24.743 20.3486 24.7238 20.3058 24.7045C20.2866 24.6949 20.2666 24.6862 20.2474 24.6783C20.2308 24.6713 20.2133 24.6635 20.1968 24.6565C20.1941 24.6548 20.1924 24.6539 20.1898 24.6539C20.1889 24.6521 20.1871 24.6521 20.1863 24.6521C20.1767 24.6478 20.1663 24.6434 20.1566 24.6381C20.1392 24.6311 20.1208 24.6233 20.1025 24.6155C20.0938 24.612 20.0851 24.6085 20.0772 24.605C20.0729 24.6033 20.0676 24.6007 20.0641 24.5989C20.0441 24.5901 20.0231 24.5823 20.003 24.5745C19.9917 24.5692 19.9812 24.5648 19.9698 24.5605C19.9549 24.5543 19.9401 24.5483 19.9252 24.543C19.8956 24.5308 19.8659 24.5186 19.8362 24.5072C19.8179 24.5002 19.7986 24.4923 19.7803 24.4854C19.7751 24.4836 19.7699 24.482 19.7646 24.4793C19.7104 24.4592 19.6563 24.4383 19.6013 24.419C19.5926 24.4156 19.583 24.412 19.5734 24.4086C19.5035 24.3833 19.4328 24.3588 19.3621 24.3344C19.3333 24.3248 19.3045 24.3152 19.2757 24.3056C19.2242 24.289 19.1736 24.2733 19.1221 24.2576L19.0199 24.2262C18.9667 24.2105 18.9143 24.1956 18.8611 24.18C18.8489 24.1765 18.8374 24.173 18.8261 24.1703C18.7754 24.1563 18.7249 24.1424 18.6742 24.1302C18.6724 24.1285 18.6699 24.1285 18.6681 24.1285C18.6672 24.1276 18.6664 24.1276 18.6655 24.1276C18.6123 24.1136 18.559 24.0996 18.5049 24.0865C18.4717 24.0786 18.4377 24.0708 18.4045 24.063C18.3574 24.0516 18.3094 24.0411 18.2623 24.0307C18.2169 24.0203 18.1714 24.0106 18.1261 24.0019C18.0929 23.9949 18.0589 23.9879 18.0257 23.981C17.9681 23.9696 17.9104 23.9591 17.8519 23.9487C17.824 23.9443 17.7961 23.9391 17.7681 23.9338C17.6965 23.9216 17.6241 23.9102 17.5525 23.8998C17.4233 23.8806 17.2932 23.864 17.1641 23.85C17.1152 23.8439 17.0662 23.8396 17.0182 23.8343C16.9441 23.8273 16.8699 23.8212 16.7948 23.816C16.7721 23.8133 16.7494 23.8116 16.7267 23.8107C16.6577 23.8055 16.5888 23.8011 16.5189 23.7985C16.4421 23.7942 16.3652 23.7915 16.2893 23.7898C16.2736 23.7889 16.2588 23.7889 16.2439 23.7889C16.1636 23.7863 16.0833 23.7855 16.003 23.7855H15.9969C15.9436 23.7855 15.8912 23.7863 15.8389 23.7872H15.8153C15.7908 23.7872 15.7673 23.7881 15.7428 23.789H15.7262C15.7183 23.789 15.7096 23.7898 15.7017 23.7898C15.6965 23.7898 15.6913 23.7898 15.6869 23.7907C15.6642 23.7907 15.6406 23.7916 15.6179 23.7925C15.5909 23.7933 15.5647 23.7942 15.5376 23.7959C15.5167 23.7968 15.4966 23.7976 15.4765 23.7985C15.4661 23.7985 15.4556 23.7994 15.4451 23.8003C15.439 23.8003 15.4321 23.8003 15.4259 23.802C15.4146 23.802 15.4033 23.802 15.3919 23.8038C15.3849 23.8038 15.377 23.8038 15.3701 23.8046C15.3334 23.8064 15.2968 23.809 15.2601 23.8116C15.2557 23.8116 15.2504 23.8125 15.2461 23.8125C15.2382 23.8134 15.2303 23.8134 15.2224 23.8143C15.2005 23.816 15.1788 23.8177 15.1578 23.8195C15.1141 23.823 15.0714 23.8265 15.0278 23.83C15.0225 23.8308 15.0173 23.8308 15.012 23.8317C14.9919 23.8335 14.9728 23.8351 14.9536 23.8378C14.9134 23.8413 14.8741 23.8457 14.8348 23.85C14.8339 23.8491 14.8339 23.8509 14.8339 23.8509C14.8277 23.8509 14.8209 23.8518 14.8147 23.8526C14.7911 23.8544 14.7676 23.857 14.7449 23.8605C14.6777 23.8684 14.6104 23.8771 14.5441 23.8867C14.5371 23.8876 14.5301 23.8885 14.5231 23.8893C14.5179 23.8893 14.5135 23.8902 14.5083 23.8911C14.4969 23.8928 14.4846 23.8945 14.4733 23.8963C14.4724 23.8963 14.4707 23.8963 14.4699 23.8972C14.4419 23.9006 14.4149 23.9042 14.3869 23.9094C14.3861 23.9094 14.3861 23.9094 14.3852 23.9094C14.3642 23.9128 14.3424 23.9164 14.3214 23.9198C14.2961 23.9233 14.2708 23.9277 14.2455 23.932C14.1801 23.9425 14.1154 23.9547 14.0499 23.967C14.0159 23.9731 13.9819 23.98 13.9487 23.9861C13.9216 23.9914 13.8954 23.9966 13.8693 24.0028C13.8649 24.0028 13.8614 24.0036 13.8579 24.0054C13.8449 24.0071 13.8326 24.0097 13.8196 24.0133C13.8047 24.0159 13.7899 24.0194 13.7759 24.022C13.7628 24.0246 13.7497 24.0281 13.7375 24.0308C13.7245 24.0334 13.7096 24.0369 13.6974 24.0395C13.6912 24.0404 13.6861 24.0413 13.6799 24.043C13.6581 24.0482 13.6371 24.0526 13.6162 24.0578C13.6004 24.0613 13.5856 24.0648 13.5708 24.0683C13.5638 24.07 13.5569 24.0717 13.5499 24.0735C13.5246 24.0796 13.4992 24.0857 13.4739 24.0918C13.4678 24.0936 13.4618 24.0945 13.4556 24.0962C13.4242 24.1041 13.3927 24.112 13.3614 24.1206C13.3535 24.1224 13.3448 24.1241 13.3369 24.1268C13.3335 24.1276 13.3291 24.1285 13.3256 24.1302C13.2357 24.1529 13.1458 24.1782 13.0568 24.2035C13.0463 24.207 13.0358 24.2096 13.0254 24.2131C13.0219 24.214 13.0184 24.2149 13.0149 24.2158C13.0062 24.2184 12.9975 24.221 12.9888 24.2245C12.9791 24.2271 12.9678 24.2298 12.9582 24.2333C12.9102 24.2473 12.8631 24.2621 12.8151 24.2778C12.7898 24.2848 12.7644 24.2936 12.7391 24.3023C12.6859 24.3189 12.6335 24.3363 12.5811 24.3546C12.5654 24.3599 12.5506 24.3651 12.5366 24.3695C12.5244 24.3738 12.5112 24.3783 12.499 24.3826C12.4868 24.3869 12.4746 24.3913 12.4623 24.3966C12.4283 24.4079 12.3934 24.4202 12.3602 24.4333C12.348 24.4376 12.3358 24.442 12.3244 24.4463C12.3139 24.4498 12.3026 24.4542 12.2921 24.4585C12.2694 24.4664 12.2468 24.4751 12.2241 24.4838C12.2092 24.4891 12.1944 24.4951 12.1795 24.5005C12.1542 24.5109 12.1298 24.5205 12.1053 24.531C12.0879 24.5371 12.0712 24.5441 12.0546 24.5511C12.0459 24.5537 12.0372 24.5572 12.0293 24.5607C12.0223 24.5633 12.0163 24.566 12.0101 24.5695C11.9962 24.5747 11.9822 24.5799 11.9682 24.5861C11.935 24.5991 11.9028 24.6131 11.8713 24.6271C11.86 24.6323 11.8477 24.6367 11.8364 24.642C11.8276 24.6463 11.8181 24.6498 11.8093 24.6541C11.8041 24.6559 11.7988 24.6585 11.7936 24.6611C11.7823 24.6655 11.7709 24.6708 11.7595 24.6751C11.7473 24.6804 11.7359 24.6856 11.7237 24.6918C11.7036 24.7005 11.6836 24.7092 11.6644 24.718C11.6068 24.7441 11.5501 24.7703 11.4932 24.7974C11.4775 24.8044 11.4627 24.8123 11.4479 24.8192C11.44 24.8218 11.4321 24.8262 11.4234 24.8305C11.4042 24.8393 11.385 24.8488 11.3658 24.8593C11.3509 24.8663 11.337 24.8733 11.323 24.8803C11.3126 24.8846 11.3021 24.8899 11.2924 24.896C11.289 24.8969 11.2854 24.8986 11.2828 24.9013C11.2689 24.9065 11.2558 24.9135 11.2418 24.9205C11.2182 24.9326 11.1947 24.9449 11.1711 24.9571C11.0514 25.0183 10.9336 25.0829 10.8167 25.1492C10.7757 25.1719 10.7338 25.1963 10.6927 25.2208C10.6806 25.2278 10.6674 25.2357 10.6552 25.2426C10.6325 25.2557 10.6098 25.2697 10.5871 25.2828C10.5775 25.2889 10.5671 25.2958 10.5574 25.302C10.5548 25.3028 10.5531 25.3037 10.5513 25.3054C10.54 25.3115 10.5295 25.3185 10.519 25.3246C10.5094 25.3298 10.5007 25.3359 10.4919 25.3412C10.478 25.3491 10.4649 25.3578 10.4509 25.3674C10.4099 25.3918 10.3698 25.4171 10.3296 25.4433C10.2327 25.5045 10.1376 25.5682 10.0433 25.6345C9.99175 25.6694 9.94031 25.7053 9.88962 25.7419C9.88262 25.7471 9.87562 25.7515 9.86869 25.7568C9.84425 25.7742 9.81981 25.7917 9.79625 25.81C9.74038 25.8501 9.68538 25.8912 9.63037 25.9331C9.6295 25.934 9.62862 25.934 9.62862 25.9348C9.56144 25.9864 9.495 26.0378 9.42869 26.092C9.41737 26.0998 9.40688 26.1094 9.3955 26.1181C9.33088 26.1705 9.26631 26.2238 9.20256 26.2788C9.15187 26.3216 9.10219 26.3643 9.05244 26.4088C9.02538 26.4325 8.99831 26.4568 8.97125 26.4813C8.911 26.5354 8.85081 26.5904 8.79138 26.6471C8.75912 26.6768 8.72675 26.7083 8.69538 26.7388C8.664 26.7694 8.6325 26.8008 8.60112 26.8322C8.5985 26.8348 8.595 26.8383 8.5915 26.841C8.57931 26.8531 8.56706 26.8654 8.55569 26.8768C8.54781 26.8855 8.53994 26.8934 8.533 26.9012C8.51381 26.9204 8.49463 26.9396 8.47538 26.9596C8.48325 26.95 8.49281 26.9404 8.50156 26.9317C7.59975 27.8081 6.36888 28.3477 5.01137 28.3477C2.24356 28.3474 0 26.1038 0 23.3373C0 22.8231 0.0776875 22.3273 0.22175 21.8603C0.234813 21.8166 0.248812 21.773 0.263687 21.7302L2.81281 13.8402C2.82944 13.787 2.846 13.7337 2.8635 13.6805C2.8705 13.6578 2.87838 13.6351 2.88619 13.6124C2.90281 13.5627 2.92025 13.5137 2.93856 13.464C2.942 13.4544 2.94556 13.444 2.94988 13.4335C2.97256 13.3723 2.99613 13.3113 3.0215 13.2502C3.0215 13.2493 3.0215 13.2484 3.02238 13.2475C3.04331 13.1943 3.06606 13.141 3.08956 13.0878C3.09481 13.0747 3.1 13.0616 3.10619 13.0485C3.13238 12.9883 3.16031 12.9281 3.18825 12.8696C3.24669 12.7447 3.30956 12.6217 3.37681 12.5012C3.41 12.441 3.444 12.3816 3.47894 12.3223C4.70113 10.2393 6.96475 8.84082 9.55575 8.84082C10.8426 8.84082 12.0481 9.18563 13.0861 9.78801C13.533 10.0473 14.0062 10.242 14.4942 10.372C15.4789 10.6357 16.5195 10.6357 17.5042 10.372C17.9923 10.242 18.4654 10.0473 18.9124 9.78801C19.9504 9.1857 21.1559 8.84082 22.4427 8.84082C25.0337 8.84082 27.2974 10.2394 28.5195 12.3223C28.5544 12.3816 28.5885 12.441 28.6216 12.5012C28.6888 12.6217 28.7517 12.7448 28.8102 12.8696C28.8381 12.928 28.8661 12.9883 28.8923 13.0485C28.901 13.0668 28.9089 13.0861 28.9159 13.1044C28.9359 13.1481 28.9543 13.1926 28.9718 13.2371C28.9779 13.2502 28.9831 13.2633 28.9875 13.2772C29.0093 13.3288 29.0294 13.3811 29.0486 13.4335C29.0984 13.567 29.1438 13.7032 29.1857 13.8403L29.5384 14.9333L31.7086 21.6491C31.7112 21.657 31.7138 21.664 31.7164 21.6718C31.7173 21.6745 31.7182 21.6761 31.7191 21.6788L31.7915 21.904C31.7931 21.9091 31.7949 21.9144 31.7966 21.9205Z" fill="url(#paint2_linear_1_2018)"/>
<path d="M12.2959 24.4556C12.2715 24.4644 12.2471 24.474 12.2235 24.4836C12.2104 24.4879 12.1973 24.4932 12.1842 24.4993C12.1825 24.4993 12.1808 24.5002 12.179 24.5002C12.1537 24.5106 12.1293 24.5203 12.1048 24.5308C12.0874 24.5369 12.0708 24.5438 12.0541 24.5508C12.0454 24.5535 12.0367 24.557 12.0288 24.5605C12.0079 24.5683 11.9878 24.5771 11.9677 24.5858C11.9345 24.5988 11.9023 24.6128 11.8708 24.6268C11.8595 24.632 11.8481 24.6364 11.8359 24.6416C11.8254 24.6451 11.8158 24.6495 11.8062 24.6538C11.7591 24.6748 11.7111 24.6958 11.6639 24.7176C11.6072 24.7429 11.5496 24.7691 11.4928 24.797C11.4902 24.7979 11.4876 24.7996 11.4849 24.8005C11.4727 24.8057 11.4596 24.8118 11.4474 24.8188C11.4395 24.8214 11.4316 24.8258 11.4229 24.8301C11.3897 24.8458 11.3558 24.8623 11.3225 24.8798C11.3121 24.8841 11.3016 24.8895 11.2911 24.8947C11.2745 24.9026 11.2579 24.9113 11.2414 24.92C11.2177 24.9322 11.1943 24.9445 11.1706 24.9567C11.1654 24.9593 11.1593 24.9628 11.154 24.9655C11.0406 25.0239 10.9279 25.0851 10.8161 25.1488C10.7751 25.1715 10.7332 25.1959 10.6922 25.2204C10.68 25.2274 10.6669 25.2353 10.6546 25.2422C10.6093 25.2684 10.5638 25.2963 10.5184 25.3243C10.5088 25.3295 10.5001 25.3356 10.4914 25.3409C10.4871 25.3435 10.4826 25.3461 10.4792 25.3479C10.4696 25.354 10.46 25.3601 10.4495 25.3662C10.4094 25.3915 10.3692 25.4169 10.3291 25.443C10.2322 25.5041 10.137 25.5679 10.0428 25.6342C9.99119 25.6691 9.93975 25.705 9.88906 25.7416C9.88206 25.7468 9.87506 25.7512 9.86812 25.7565C9.84369 25.7739 9.81925 25.7914 9.79569 25.8097C9.73981 25.8498 9.68481 25.8909 9.62981 25.9328C9.62894 25.9336 9.62806 25.9336 9.62806 25.9345C9.56087 25.9861 9.49444 26.0375 9.42813 26.0916C9.41681 26.0995 9.40631 26.1091 9.39494 26.1178C9.33031 26.1702 9.26575 26.2235 9.202 26.2785C9.15131 26.3213 9.10163 26.364 9.05188 26.4085C9.02481 26.4321 8.99775 26.4565 8.97069 26.481C8.91044 26.5351 8.85025 26.5901 8.79081 26.6468C8.73925 26.6948 8.68781 26.7446 8.63713 26.7935C8.63369 26.7978 8.62925 26.8023 8.62494 26.8066L8.59087 26.8406C8.56206 26.8686 8.53413 26.8974 8.50619 26.9262C8.50444 26.928 8.50275 26.9296 8.50094 26.9315C7.59912 27.8079 6.36825 28.3475 5.01075 28.3475C2.24356 28.3474 0 26.1038 0 23.3373C0 22.8231 0.0776875 22.3273 0.22175 21.8603C0.234813 21.8166 0.248812 21.773 0.263687 21.7302L2.81281 13.8402C2.82944 13.787 2.846 13.7337 2.8635 13.6805C2.8705 13.6578 2.87838 13.6351 2.88619 13.6124C2.90281 13.5627 2.92025 13.5137 2.93856 13.464C2.942 13.4544 2.94556 13.444 2.94988 13.4335C2.97256 13.3723 2.99613 13.3113 3.0215 13.2502C3.0215 13.2493 3.0215 13.2484 3.02238 13.2475C3.04331 13.1943 3.06606 13.141 3.08956 13.0878C3.09481 13.0747 3.1 13.0616 3.10619 13.0485C3.13238 12.9883 3.16031 12.9281 3.18825 12.8696C3.24756 12.7447 3.31044 12.6217 3.37681 12.5012C3.41 12.441 3.444 12.3816 3.47894 12.3223C3.11837 13.1211 2.91762 14.0072 2.91762 14.9403C2.91762 16.2323 3.30262 17.4336 3.96438 18.4366C5.01631 20.0333 6.76925 21.1272 8.785 21.2817C8.85487 21.2869 8.92469 21.2904 8.99537 21.2938C9.08875 21.2982 9.18306 21.3 9.27738 21.3C9.38037 21.3 9.48337 21.2973 9.5855 21.2921C9.71381 21.286 9.84044 21.2763 9.96694 21.2615C10.0717 21.2511 10.1756 21.2371 10.2786 21.2196C10.5074 21.1838 10.7317 21.1349 10.9508 21.0755L12.2959 24.4556Z" fill="url(#paint3_linear_1_2018)"/>
<path d="M29.6243 27.5985C29.4444 27.7111 29.2559 27.8115 29.0612 27.8997C29.0123 27.9224 28.9625 27.9443 28.912 27.9651C28.3201 28.2113 27.6706 28.3475 26.9888 28.3475C25.6095 28.3475 24.3602 27.7906 23.4549 26.8888C23.4523 26.8861 23.4488 26.8826 23.4461 26.88C23.4453 26.8791 23.4444 26.8783 23.4435 26.8774C23.4313 26.8652 23.4191 26.853 23.4068 26.8407C23.3737 26.8075 23.3405 26.7753 23.3073 26.7429C23.2741 26.7097 23.2401 26.6783 23.2069 26.6469C23.1772 26.6181 23.1466 26.5901 23.117 26.5631C23.0978 26.5448 23.0777 26.5264 23.0585 26.509C23.0481 26.4993 23.0376 26.4898 23.0271 26.481C23.0001 26.4566 22.973 26.433 22.946 26.4086C22.8962 26.364 22.8464 26.3213 22.7958 26.2785C22.7382 26.2288 22.6788 26.1798 22.6204 26.1327C22.6125 26.1257 22.603 26.1188 22.5942 26.1109C22.5925 26.1091 22.5908 26.1083 22.5898 26.1075C22.5898 26.1075 22.589 26.1066 22.5881 26.1057C22.5863 26.1048 22.5855 26.104 22.5846 26.1031C22.5672 26.0891 22.5506 26.076 22.534 26.063C22.5297 26.0595 22.5253 26.056 22.521 26.0525C22.4851 26.0237 22.4493 25.9958 22.4136 25.9687C22.3996 25.9565 22.3848 25.946 22.3708 25.9346C22.3638 25.9294 22.356 25.9242 22.349 25.9189C22.3437 25.9145 22.3393 25.911 22.3341 25.9076C22.3044 25.884 22.2738 25.8622 22.2433 25.8395C22.2302 25.8291 22.2162 25.8195 22.2023 25.8098C22.1786 25.7915 22.1543 25.774 22.1298 25.7566C22.1228 25.7513 22.1159 25.7461 22.1089 25.7417C22.0757 25.7181 22.0426 25.6946 22.0093 25.671C21.9927 25.6596 21.9771 25.6483 21.9605 25.6378C21.957 25.6343 21.9535 25.6316 21.9491 25.6299C21.9431 25.6256 21.937 25.6211 21.9308 25.6168C21.8496 25.561 21.7676 25.5068 21.6855 25.4536C21.6646 25.4396 21.6436 25.4265 21.6218 25.4125C21.5973 25.3968 21.5729 25.382 21.5485 25.3663L21.5476 25.3654C21.538 25.3601 21.5284 25.3541 21.5188 25.348C21.4987 25.3358 21.4786 25.3235 21.4585 25.3113C21.3974 25.2737 21.3372 25.238 21.2761 25.2021C21.2735 25.2004 21.2708 25.1995 21.2682 25.1978C21.263 25.1952 21.2569 25.1908 21.2499 25.1874C21.2395 25.1813 21.2281 25.1752 21.2176 25.1691C21.1496 25.1298 21.0823 25.0923 21.0143 25.0548C20.9462 25.0172 20.8763 24.9815 20.8074 24.9465C20.7673 24.9256 20.7271 24.9055 20.687 24.8854C20.6529 24.868 20.618 24.8513 20.584 24.8348C20.5813 24.833 20.5787 24.8313 20.5761 24.8305C20.5499 24.8174 20.5236 24.8051 20.4975 24.7929C20.4757 24.7825 20.4538 24.7728 20.4329 24.7623C20.3901 24.7431 20.3482 24.724 20.3055 24.7047C20.2863 24.6951 20.2662 24.6864 20.247 24.6785C20.2287 24.6698 20.2103 24.6619 20.192 24.6541C20.1798 24.6488 20.1684 24.6436 20.1562 24.6383C20.1388 24.6313 20.1204 24.6235 20.1021 24.6156C20.0933 24.6122 20.0846 24.6086 20.0768 24.6052C20.0725 24.6026 20.0671 24.6009 20.0628 24.5991C20.0428 24.5903 20.0227 24.5825 20.0026 24.5746C19.9913 24.5694 19.9808 24.565 19.9694 24.5606C19.9545 24.5545 19.9397 24.5485 19.9248 24.5432C19.8951 24.531 19.8655 24.5188 19.8358 24.5074C19.8175 24.5004 19.7991 24.4925 19.7799 24.4856C19.7746 24.4838 19.7695 24.4821 19.7641 24.4795C19.7441 24.4716 19.7231 24.4637 19.7021 24.4558L21.0474 21.0756C21.2665 21.135 21.4908 21.1839 21.7196 21.2197C21.7257 21.2215 21.7318 21.2223 21.7379 21.2223C21.8348 21.239 21.9326 21.2511 22.0312 21.2616C22.0966 21.2695 22.1621 21.2756 22.2276 21.2808C22.2896 21.2851 22.3515 21.2895 22.4144 21.2921C22.4284 21.293 22.4415 21.2938 22.4554 21.2938C22.5436 21.2981 22.6317 21.3 22.7208 21.3C22.815 21.3 22.9093 21.2982 23.0028 21.2938C23.1023 21.2895 23.201 21.2825 23.2996 21.2738C25.2786 21.0957 26.9966 20.0097 28.0338 18.4366C28.6955 17.4335 29.0805 16.2323 29.0805 14.9403C29.0805 14.778 29.0744 14.6165 29.0622 14.4576C29.0055 13.7007 28.8169 12.9823 28.5192 12.3223C28.5541 12.3816 28.5882 12.441 28.6213 12.5012C28.6876 12.6216 28.7505 12.7448 28.8099 12.8696C28.8378 12.928 28.8658 12.9883 28.892 13.0485C28.9007 13.0668 28.9086 13.0861 28.9156 13.1044C28.9356 13.1481 28.954 13.1926 28.9715 13.2371C28.9776 13.2501 28.9828 13.2633 28.9872 13.2772C29.009 13.3288 29.0291 13.3811 29.0483 13.4335C29.0981 13.567 29.1435 13.7032 29.1854 13.8403L29.5381 14.9333L31.7083 21.6491C31.7109 21.657 31.7135 21.664 31.7161 21.6718L31.7912 21.904C31.793 21.9093 31.7946 21.9145 31.7964 21.9206C31.9291 22.3694 31.9998 22.8451 31.9998 23.3375C31.9997 25.1376 31.0498 26.7159 29.6243 27.5985Z" fill="url(#paint4_linear_1_2018)"/>
<path d="M31.7965 21.9208C31.9292 22.3696 31.9999 22.8453 31.9999 23.3377C31.9999 25.1378 31.0501 26.7161 29.6245 27.5987C29.4446 27.7113 29.2561 27.8117 29.0615 27.8999C29.0126 27.9226 28.9628 27.9444 28.9122 27.9653L22.3613 21.4145L22.2277 21.2809L20.3132 19.3665L20.3123 19.3656L19.5267 18.5799C19.5249 18.5782 19.5223 18.5765 19.5205 18.5738C19.4577 18.5179 19.3957 18.4612 19.3363 18.4027C19.3058 18.373 19.2761 18.3434 19.2473 18.3136C19.1591 18.2237 19.0753 18.1303 18.995 18.0334C18.9156 17.9383 18.8405 17.8414 18.7689 17.741C18.7672 17.7393 18.7655 17.7367 18.7646 17.734C18.6808 17.6153 18.6022 17.4939 18.5298 17.3682C18.4957 17.3114 18.4644 17.2539 18.4329 17.1953C18.4137 17.1578 18.3945 17.1203 18.3753 17.0819C18.3579 17.0478 18.3412 17.012 18.3247 16.9771C18.3134 16.9527 18.302 16.9283 18.2915 16.9038C18.2793 16.8768 18.2679 16.8506 18.2565 16.8235C18.2435 16.7938 18.2312 16.7633 18.219 16.7327C18.1727 16.6174 18.1308 16.4988 18.0932 16.3791C18.0793 16.3346 18.0662 16.2901 18.054 16.2455C18.0427 16.2036 18.0313 16.1617 18.0208 16.1198C18.0042 16.0517 17.9885 15.9836 17.9745 15.9146C17.9658 15.8754 17.9588 15.8361 17.9519 15.7959C17.9431 15.7505 17.9361 15.7042 17.9292 15.6579C17.9239 15.6257 17.9195 15.5933 17.9161 15.5601C17.889 15.3568 17.876 15.1498 17.876 14.9394C17.876 12.2664 20.0427 10.0996 22.7158 10.0996C22.7734 10.0996 22.8301 10.1005 22.8869 10.1031C22.9201 10.1039 22.9532 10.1048 22.9856 10.1074C23.0275 10.1091 23.0694 10.1118 23.1113 10.1153C23.1855 10.1214 23.2606 10.1292 23.334 10.1389C23.368 10.1432 23.4012 10.1476 23.4343 10.1528C23.4483 10.1546 23.4623 10.1563 23.4754 10.1589C23.4998 10.1624 23.5243 10.1668 23.5478 10.1711C23.629 10.1851 23.7094 10.2008 23.7888 10.2191C23.8246 10.227 23.8612 10.2358 23.897 10.2453C23.9808 10.2663 24.0638 10.289 24.1458 10.3143C24.1485 10.3152 24.152 10.3161 24.1555 10.3169C24.2314 10.3414 24.3065 10.3667 24.3798 10.3938C24.3885 10.3964 24.3972 10.3999 24.4051 10.4034C24.44 10.4164 24.475 10.4296 24.509 10.4435C24.5491 10.4593 24.5884 10.4749 24.6277 10.4924C24.6644 10.5081 24.701 10.5246 24.7377 10.5413C24.7429 10.543 24.7481 10.5456 24.7535 10.5483C24.7884 10.5649 24.8242 10.5814 24.8582 10.5989C24.8992 10.6181 24.9394 10.639 24.9795 10.6609C25.0145 10.6792 25.0485 10.6984 25.0825 10.7176C25.12 10.7386 25.1558 10.7596 25.1925 10.7814C25.2283 10.8023 25.265 10.8251 25.2999 10.8477C25.4421 10.9376 25.5801 11.0345 25.712 11.1393C25.9424 11.3209 26.1563 11.5243 26.3501 11.7443L26.3631 11.7574L29.0624 14.4575L29.5382 14.9333L31.7084 21.6492C31.711 21.6571 31.7136 21.6641 31.7163 21.6719L31.7913 21.9041C31.7929 21.9094 31.7948 21.9147 31.7965 21.9208Z" fill="url(#paint5_linear_1_2018)"/>
<path d="M22.716 19.7796C25.389 19.7796 27.556 17.6127 27.556 14.9396C27.556 12.2666 25.389 10.0996 22.716 10.0996C20.0429 10.0996 17.876 12.2666 17.876 14.9396C17.876 17.6127 20.0429 19.7796 22.716 19.7796Z" fill="url(#paint6_linear_1_2018)"/>
<path d="M23.2203 22.0582L29.0614 27.8993C29.0126 27.922 28.9628 27.9439 28.9122 27.9648C28.3203 28.2109 27.6708 28.3471 26.989 28.3471C25.6097 28.3471 24.3604 27.7902 23.4551 26.8884C23.4769 26.9102 23.4988 26.9329 23.5206 26.9556C23.4961 26.9303 23.4708 26.9049 23.4464 26.8796C23.4455 26.8788 23.4446 26.8779 23.4438 26.877C23.4316 26.8648 23.4193 26.8526 23.4071 26.8403C23.3416 26.7749 23.2744 26.7103 23.2071 26.6465C23.1774 26.6186 23.1478 26.5906 23.1172 26.5627C23.0893 26.5374 23.0622 26.5121 23.0343 26.4876C23.0316 26.485 23.0299 26.4824 23.0273 26.4806C23.0002 26.4562 22.9731 26.4326 22.9461 26.4082C22.8963 26.3645 22.8465 26.3209 22.7959 26.2781C22.7383 26.2284 22.6789 26.1794 22.6205 26.1323C22.6126 26.1253 22.6031 26.1184 22.5943 26.1105C22.5926 26.1088 22.5909 26.1079 22.5899 26.1071C22.5899 26.1071 22.5891 26.1062 22.5882 26.1053C22.5873 26.1053 22.5864 26.1044 22.5848 26.1027C22.5673 26.0887 22.5507 26.0756 22.5341 26.0626C22.5298 26.0591 22.5254 26.0556 22.5211 26.0521C22.4853 26.0233 22.4494 25.9954 22.4137 25.9683C22.3998 25.9561 22.3849 25.9456 22.3709 25.9343C22.3639 25.929 22.3561 25.9238 22.3491 25.9185C22.3438 25.9141 22.3394 25.9106 22.3342 25.9072C22.3045 25.8836 22.2739 25.8618 22.2434 25.8391C22.2303 25.8287 22.2163 25.8191 22.2024 25.8094C22.1788 25.7911 22.1544 25.7736 22.1299 25.7562C22.1229 25.7509 22.116 25.7458 22.109 25.7413C22.0758 25.7177 22.0427 25.6942 22.0094 25.6706C21.9928 25.6593 21.9772 25.6479 21.9606 25.6374C21.9509 25.6295 21.9414 25.6234 21.9318 25.6164C21.8506 25.5606 21.7676 25.5064 21.6856 25.4532C21.6463 25.4279 21.6069 25.4025 21.5677 25.379C21.5607 25.3738 21.5546 25.3694 21.5476 25.3668C21.5476 25.3668 21.5476 25.3659 21.5468 25.3659C21.538 25.3598 21.5284 25.3538 21.5188 25.3476C21.4988 25.3354 21.4787 25.3232 21.4586 25.3109C21.428 25.2918 21.3974 25.2734 21.366 25.2559C21.3363 25.2368 21.3067 25.2193 21.2761 25.2018C21.2734 25.2001 21.2708 25.1992 21.2682 25.1975C21.2629 25.1949 21.2569 25.1905 21.2499 25.1871C21.2394 25.1809 21.2281 25.1749 21.2176 25.1688C21.1513 25.1304 21.0849 25.0937 21.0177 25.057C21.0159 25.0561 21.0151 25.0553 21.0134 25.0544C20.9453 25.0177 20.8763 24.9811 20.8074 24.9461C20.7673 24.9252 20.7271 24.9051 20.6869 24.885C20.6529 24.8676 20.6179 24.8509 20.5839 24.8344C20.5813 24.8326 20.5787 24.8309 20.5761 24.8301C20.5499 24.817 20.5236 24.8048 20.4975 24.7925C20.4958 24.7916 20.4941 24.7908 20.4923 24.7908C20.4303 24.7611 20.3674 24.7323 20.3054 24.7044C20.2688 24.6878 20.233 24.6721 20.1963 24.6564C20.1937 24.6546 20.192 24.6538 20.1893 24.6538C20.1884 24.652 20.1867 24.652 20.1859 24.652C20.1579 24.6389 20.13 24.6276 20.1021 24.6153C20.0933 24.6119 20.0846 24.6083 20.0768 24.6049C20.0724 24.6031 20.068 24.6006 20.0637 24.5988C20.0437 24.59 20.0227 24.5821 20.0026 24.5743C19.9913 24.5691 19.9808 24.5647 19.9694 24.5603C19.9545 24.5542 19.9397 24.5481 19.9248 24.5429C19.8951 24.5307 19.8655 24.5184 19.8358 24.5071C19.8174 24.5001 19.7991 24.4922 19.7799 24.4853C19.7746 24.4835 19.7694 24.4818 19.7641 24.4791C19.71 24.4591 19.6559 24.4381 19.6009 24.4189C19.5921 24.4154 19.5826 24.4119 19.5729 24.4084C19.5031 24.3831 19.4324 24.3587 19.3617 24.3343C19.3329 24.3246 19.3041 24.3151 19.2753 24.3054C19.2238 24.2888 19.1732 24.2732 19.1216 24.2574L19.0195 24.2261C18.9663 24.2103 18.9139 24.1947 18.8606 24.1798C18.8484 24.1764 18.837 24.1728 18.8257 24.1702C18.775 24.1562 18.7244 24.1423 18.6738 24.1301C18.6721 24.1283 18.6695 24.1283 18.6677 24.1283C18.6668 24.1274 18.6659 24.1274 18.6651 24.1274C18.6118 24.1126 18.5586 24.0995 18.5044 24.0864C18.4713 24.0776 18.4373 24.0698 18.4041 24.0628C18.3569 24.0515 18.3089 24.0401 18.2618 24.0306C18.2164 24.0201 18.171 24.0105 18.1256 24.0018C18.0924 23.9939 18.0584 23.9878 18.0253 23.9808C17.9676 23.9695 17.9091 23.959 17.8515 23.9486C17.8236 23.9442 17.7956 23.9389 17.7677 23.9337C17.6961 23.9215 17.6236 23.9101 17.5521 23.8996C17.4229 23.8804 17.2928 23.8638 17.1636 23.8499C17.1148 23.8438 17.0658 23.8394 17.0178 23.8341C16.9436 23.8271 16.8686 23.8211 16.7944 23.8158C16.7717 23.8132 16.749 23.8115 16.7263 23.8106C16.6573 23.8053 16.5875 23.8009 16.5185 23.7984C16.4426 23.7941 16.3657 23.7914 16.2889 23.7896C16.2731 23.7888 16.2583 23.7888 16.2435 23.7888C16.1632 23.7861 16.0829 23.7853 16.0026 23.7853H15.9964C15.9441 23.7853 15.8908 23.7853 15.8384 23.7871H15.8009C15.7756 23.7879 15.7511 23.7879 15.7258 23.7888C15.7179 23.7888 15.7092 23.7897 15.7014 23.7897C15.6961 23.7897 15.6909 23.7897 15.6865 23.7906C15.6368 23.7914 15.5869 23.7932 15.5373 23.7958C15.5163 23.7967 15.4963 23.7976 15.4761 23.7984C15.4587 23.7993 15.4421 23.8002 15.4254 23.8019C15.4141 23.8019 15.4028 23.8019 15.3914 23.8036C15.3477 23.8054 15.3033 23.8079 15.2596 23.8115C15.2552 23.8115 15.2499 23.8124 15.2456 23.8124C15.2377 23.8133 15.2298 23.8133 15.2219 23.8141C15.2009 23.8159 15.1783 23.8176 15.1573 23.8194C15.1084 23.8228 15.0595 23.8273 15.0115 23.8316C14.9914 23.8333 14.9723 23.835 14.9531 23.8377C14.9129 23.8411 14.8736 23.8456 14.8343 23.8508H14.8326C14.8264 23.8508 14.8204 23.8516 14.8143 23.8525C14.7906 23.8543 14.7671 23.8578 14.7444 23.8604C14.6772 23.8683 14.6099 23.877 14.5436 23.8866C14.5366 23.8874 14.5296 23.8883 14.5226 23.8892C14.5174 23.8892 14.513 23.8901 14.5078 23.8909C14.4964 23.8927 14.4841 23.8944 14.4728 23.8962C14.4719 23.8962 14.4702 23.8962 14.4694 23.8971C14.4414 23.9005 14.4135 23.9049 14.3864 23.9093C14.3646 23.9127 14.3428 23.9154 14.321 23.9197C14.2957 23.9231 14.2703 23.9276 14.2451 23.9319C14.1796 23.9423 14.115 23.9546 14.0495 23.9668C14.0154 23.9729 13.9814 23.9799 13.9483 23.986C13.9212 23.9913 13.895 23.9964 13.8688 24.0026C13.8645 24.0026 13.8609 24.0035 13.8575 24.0053C13.8444 24.007 13.8322 24.0096 13.8191 24.0131C13.8043 24.0158 13.7894 24.0193 13.7754 24.0219C13.7624 24.0245 13.7493 24.0271 13.7371 24.0306C13.724 24.0333 13.7091 24.0368 13.6969 24.0394C13.6908 24.0403 13.6848 24.042 13.6795 24.0428C13.6577 24.0481 13.6367 24.0524 13.6158 24.0577C13.6009 24.0611 13.5852 24.0647 13.5704 24.0681C13.5634 24.0699 13.5564 24.0716 13.5494 24.0734C13.5241 24.0795 13.4988 24.0856 13.4735 24.0917C13.4674 24.0934 13.4613 24.0943 13.4552 24.0961C13.4238 24.1039 13.3923 24.1118 13.3609 24.1205C13.3531 24.1223 13.3443 24.1239 13.3365 24.1266C13.3331 24.1275 13.3286 24.1284 13.3252 24.1293C13.3252 24.1293 13.3252 24.1301 13.3243 24.1301C13.2344 24.1528 13.1454 24.1781 13.0563 24.2034C13.0459 24.2069 13.0354 24.2096 13.0249 24.2131C13.0215 24.2139 13.0179 24.2148 13.0145 24.2157C13.0058 24.2183 12.9962 24.2209 12.9874 24.2244C12.9778 24.2271 12.9674 24.2297 12.9578 24.2332C12.9098 24.2472 12.8626 24.262 12.8146 24.2778C12.7893 24.2848 12.7639 24.2935 12.7387 24.3022C12.6863 24.3188 12.6331 24.3363 12.5807 24.3546C12.5649 24.3598 12.5501 24.365 12.5361 24.3694C12.5231 24.3738 12.5108 24.3782 12.4986 24.3825C12.4864 24.3868 12.4741 24.3913 12.4619 24.3965C12.4278 24.4078 12.3938 24.4201 12.3598 24.4332C12.3476 24.4375 12.3361 24.4419 12.3239 24.4463C12.3135 24.4497 12.3021 24.4541 12.2917 24.4584C12.2795 24.4628 12.2673 24.4672 12.255 24.4733C12.2044 24.4916 12.1546 24.5109 12.1049 24.5309C12.0874 24.5371 12.0708 24.544 12.0542 24.551L9.82457 22.3214L9.62375 22.1206L8.9385 21.4353L8.78482 21.2816L6.08294 18.5798C6.08119 18.578 6.07863 18.5763 6.07682 18.5736C6.01482 18.5186 5.95375 18.4628 5.89519 18.4043C5.89431 18.4035 5.89257 18.4035 5.89257 18.4026C5.862 18.3729 5.83232 18.3433 5.8035 18.3135C5.71532 18.2236 5.6315 18.1302 5.55125 18.0333C5.47182 17.9382 5.39669 17.8413 5.32513 17.7409C5.32338 17.7391 5.32169 17.7366 5.32082 17.7339C5.19863 17.5619 5.08863 17.3821 4.98907 17.1953C4.96988 17.1577 4.95069 17.1202 4.93144 17.0818C4.914 17.0478 4.89738 17.012 4.88082 16.9771C4.8695 16.9526 4.85813 16.9282 4.84763 16.9038C4.83544 16.8767 4.824 16.8505 4.81269 16.8235C4.79963 16.7938 4.78738 16.7632 4.77513 16.7326C4.72888 16.6174 4.68694 16.4987 4.64938 16.3791C4.63544 16.3345 4.62232 16.29 4.61013 16.2455C4.59882 16.2035 4.58744 16.1616 4.57694 16.1197C4.56032 16.0516 4.54469 15.9835 4.53069 15.9146C4.52194 15.8753 4.51494 15.836 4.508 15.7958C4.49925 15.7505 4.49225 15.7041 4.48532 15.6579C4.48007 15.6256 4.47569 15.5933 4.47225 15.5601C4.44519 15.3567 4.43213 15.1498 4.43213 14.9394C4.43213 12.2663 6.59888 10.0996 9.27194 10.0996C9.32957 10.0996 9.38625 10.1005 9.44307 10.103C9.47625 10.1039 9.50938 10.1048 9.54175 10.1073C9.58369 10.1091 9.62557 10.1117 9.6675 10.1152C9.74169 10.1213 9.81675 10.1291 9.89013 10.1388C9.92419 10.1431 9.95732 10.1476 9.9905 10.1528C10.0045 10.1545 10.0184 10.1562 10.0315 10.1589C10.0559 10.1623 10.0804 10.1668 10.1039 10.1711C10.1851 10.185 10.2655 10.2008 10.3449 10.2191C10.3807 10.227 10.4173 10.2357 10.4531 10.2453C10.5369 10.2662 10.6199 10.289 10.7019 10.3143C10.7046 10.3151 10.7081 10.316 10.7116 10.3169C10.7875 10.3413 10.8626 10.3666 10.9359 10.3937C10.9446 10.3963 10.9533 10.3998 10.9612 10.4033C10.9961 10.4164 11.0311 10.4295 11.0651 10.4435C11.1052 10.4592 11.1445 10.4748 11.1838 10.4923C11.2205 10.5081 11.2571 10.5246 11.2938 10.5412C11.2991 10.543 11.3043 10.5455 11.3096 10.5482C11.3445 10.5648 11.3803 10.5814 11.4143 10.5988C11.4553 10.618 11.4955 10.639 11.5356 10.6608C11.5706 10.6791 11.6046 10.6984 11.6386 10.7176C11.6762 10.7385 11.7119 10.7595 11.7486 10.7813C11.7844 10.8023 11.8211 10.825 11.856 10.8476C11.9983 10.9376 12.1362 11.0345 12.2681 11.1393C12.4985 11.3209 12.7124 11.5243 12.9062 11.7443L12.9193 11.7573L18.5299 17.368L20.289 19.1271L20.5553 19.3933L22.4269 21.265L22.4558 21.2938L23.2203 22.0582Z" fill="url(#paint7_linear_1_2018)"/>
<path d="M9.27213 19.7796C11.9452 19.7796 14.1121 17.6127 14.1121 14.9396C14.1121 12.2666 11.9452 10.0996 9.27213 10.0996C6.59907 10.0996 4.43213 12.2666 4.43213 14.9396C4.43213 17.6127 6.59907 19.7796 9.27213 19.7796Z" fill="url(#paint8_linear_1_2018)"/>
<path d="M13.9372 16.0882L9.8723 12.0249C9.73793 11.8612 9.53399 11.7568 9.30561 11.7568C8.9008 11.7568 8.57268 12.0849 8.57268 12.4897V14.2406H6.8218C6.41699 14.2406 6.08887 14.5687 6.08887 14.9735C6.08887 15.2018 6.1933 15.4057 6.35699 15.5402L10.4192 19.6054C12.1552 19.1894 13.5209 17.824 13.9372 16.0882Z" fill="url(#paint9_linear_1_2018)"/>
<path d="M11.7899 14.2406H10.039V12.4897C10.039 12.0849 9.71092 11.7568 9.30611 11.7568C8.90129 11.7568 8.57316 12.0849 8.57316 12.4897V14.2406H6.82229C6.41748 14.2406 6.08936 14.5687 6.08936 14.9735C6.08936 15.3783 6.41748 15.7065 6.82229 15.7065H8.57316V17.4573C8.57316 17.8622 8.90129 18.1903 9.30611 18.1903C9.71092 18.1903 10.039 17.8622 10.039 17.4573V15.7065H11.7899C12.1947 15.7065 12.5229 15.3783 12.5229 14.9735C12.5229 14.5687 12.1947 14.2406 11.7899 14.2406Z" fill="url(#paint10_linear_1_2018)"/>
<path d="M29.6249 27.598C29.4451 27.7106 29.2566 27.811 29.0619 27.8992C29.013 27.9219 28.9632 27.9437 28.9126 27.9646C28.3208 28.2108 27.6713 28.347 26.9894 28.347C25.6101 28.347 24.3609 27.7901 23.4556 26.8882C23.4774 26.9101 23.4993 26.9328 23.521 26.9554C23.4966 26.9301 23.4713 26.9048 23.4468 26.8795C23.4459 26.8786 23.4451 26.8777 23.4442 26.8769C23.432 26.8647 23.4198 26.8524 23.4075 26.8402C23.3421 26.7747 23.2748 26.7101 23.2076 26.6464C23.1779 26.6184 23.1482 26.5905 23.1176 26.5626C23.0897 26.5372 23.0626 26.5119 23.0347 26.4875C23.0321 26.4849 23.0303 26.4822 23.0277 26.4805C23.0006 26.4561 22.9736 26.4325 22.9465 26.4081C22.8968 26.3644 22.8469 26.3208 22.7964 26.278C22.7388 26.2282 22.6794 26.1793 22.6209 26.1322C22.6131 26.1252 22.6035 26.1182 22.5948 26.1104C22.593 26.1086 22.5913 26.1077 22.5904 26.1069C22.5904 26.1069 22.5895 26.1061 22.5886 26.1052C22.5878 26.1052 22.5869 26.1043 22.5852 26.1026C22.5678 26.0886 22.5511 26.0755 22.5346 26.0624C22.5303 26.059 22.5258 26.0554 22.5215 26.052C22.4857 26.0232 22.4499 25.9952 22.4141 25.9682C22.4098 25.9647 22.4054 25.9612 22.4011 25.9586C22.3914 25.9498 22.3819 25.9428 22.3714 25.9341C22.3644 25.9289 22.3566 25.9237 22.3496 25.9184C22.3443 25.914 22.3399 25.9105 22.3347 25.9071C22.3041 25.8844 22.2744 25.8617 22.2439 25.839C22.2308 25.8286 22.2168 25.8189 22.2029 25.8093C22.1793 25.791 22.1549 25.7735 22.1304 25.7561C22.1234 25.7508 22.1165 25.7456 22.1095 25.7412C22.0763 25.7176 22.0432 25.6941 22.0099 25.6704C21.9933 25.6591 21.9777 25.6477 21.9611 25.6372C21.9514 25.6294 21.9419 25.6233 21.9323 25.6163C21.8511 25.5604 21.7681 25.5063 21.6861 25.4531C21.6468 25.4277 21.6074 25.4024 21.5682 25.3789C21.5612 25.3736 21.5551 25.3692 21.5481 25.3667C21.5481 25.3667 21.5481 25.3658 21.5473 25.3658C21.5385 25.3597 21.5289 25.3536 21.5193 25.3475C21.4993 25.3353 21.4792 25.3231 21.4591 25.3108C21.4285 25.2916 21.3979 25.2732 21.3665 25.2558C21.3343 25.2357 21.3019 25.2166 21.2687 25.1974C21.2634 25.1947 21.2574 25.1904 21.2504 25.1869C21.2399 25.1808 21.2286 25.1747 21.2181 25.1686C21.1518 25.1302 21.0854 25.0936 21.0182 25.0569C21.0164 25.056 21.0156 25.0551 21.0139 25.0542C20.9458 25.0176 20.8768 24.9809 20.8079 24.946C20.7678 24.9251 20.7276 24.905 20.6874 24.8849C20.6534 24.8674 20.6184 24.8508 20.5844 24.8342C20.5818 24.8325 20.5792 24.8308 20.5766 24.8299C20.5504 24.8169 20.5241 24.8046 20.498 24.7924C20.4963 24.7915 20.4946 24.7906 20.4928 24.7906C20.4308 24.7609 20.3679 24.7322 20.3059 24.7042C20.2693 24.6876 20.2335 24.672 20.1968 24.6562C20.1942 24.6545 20.1925 24.6536 20.1898 24.6536C20.1889 24.6519 20.1872 24.6519 20.1864 24.6519C20.1584 24.6388 20.1305 24.6274 20.1026 24.6152C20.0938 24.6117 20.0851 24.6082 20.0773 24.6047C20.0729 24.603 20.0685 24.6004 20.0642 24.5986C20.0442 24.5899 20.0232 24.582 20.0031 24.5742C19.9918 24.5689 19.9813 24.5646 19.9699 24.5602C19.955 24.5541 19.9402 24.548 19.9253 24.5427C19.8956 24.5306 19.866 24.5183 19.8363 24.5069C19.8179 24.4999 19.7996 24.4921 19.7804 24.4851C19.7751 24.4834 19.7699 24.4817 19.7646 24.479C19.7105 24.4589 19.6564 24.438 19.6014 24.4187C19.5926 24.4153 19.5831 24.4117 19.5734 24.4083C19.5036 24.383 19.4329 24.3586 19.3622 24.3341C19.3334 24.3245 19.3046 24.3149 19.2758 24.3053C19.2243 24.2887 19.1737 24.2731 19.1221 24.2573L19.02 24.2259C18.9554 24.2067 18.8908 24.1884 18.8262 24.1701C18.7755 24.1561 18.7249 24.1421 18.6743 24.1299C18.6726 24.1282 18.67 24.1282 18.6682 24.1282C18.6673 24.1273 18.6664 24.1273 18.6656 24.1273C18.6123 24.1124 18.5591 24.0994 18.5049 24.0862C18.4718 24.0775 18.4378 24.0696 18.4046 24.0627C18.3574 24.0514 18.3094 24.04 18.2623 24.0304C18.2169 24.02 18.1715 24.0104 18.1261 24.0016C18.0929 23.9937 18.0589 23.9876 18.0258 23.9807C17.9681 23.9694 17.9096 23.9589 17.852 23.9484C17.8241 23.9441 17.7961 23.9388 17.7682 23.9336C17.6966 23.9214 17.6241 23.9099 17.5526 23.8995C17.4234 23.8803 17.2933 23.8637 17.1641 23.8497C17.1153 23.8436 17.0663 23.8393 17.0183 23.834C16.9441 23.827 16.8691 23.8209 16.7949 23.8157C16.7722 23.8131 16.7495 23.8114 16.7268 23.8104C16.6578 23.8052 16.588 23.8008 16.519 23.7982C16.4431 23.7939 16.3662 23.7912 16.2894 23.7895C16.2736 23.7886 16.2588 23.7886 16.244 23.7886C16.1637 23.786 16.0834 23.7852 16.0031 23.7852H15.9969C15.9437 23.7852 15.8913 23.7861 15.8389 23.7869H15.8014C15.7822 23.7878 15.7621 23.7878 15.7429 23.7887H15.7263C15.7184 23.7887 15.7097 23.7896 15.7019 23.7896C15.6739 23.7904 15.646 23.7913 15.6181 23.7922C15.591 23.7931 15.5648 23.7939 15.5378 23.7956C15.5168 23.7965 15.4968 23.7974 15.4766 23.7982C15.4662 23.7982 15.4557 23.7991 15.4453 23.8C15.4278 23.8009 15.4094 23.8017 15.392 23.8034C15.385 23.8034 15.3771 23.8034 15.3702 23.8043C15.3335 23.8061 15.2969 23.8086 15.2602 23.8113C15.2558 23.8113 15.2506 23.8122 15.2462 23.8122C15.2383 23.8122 15.2304 23.8131 15.2226 23.8139C15.2008 23.8157 15.1789 23.8174 15.1579 23.8192C15.1143 23.8218 15.0707 23.8262 15.0279 23.8296C15.0226 23.8305 15.0174 23.8305 15.0121 23.8314C14.9921 23.8331 14.9729 23.8348 14.9537 23.8375C14.9136 23.8409 14.8743 23.8454 14.8349 23.8497C14.8341 23.8497 14.8341 23.8506 14.8341 23.8506C14.828 23.8506 14.821 23.8514 14.8149 23.8523C14.7913 23.8541 14.7678 23.8576 14.745 23.8602C14.6778 23.8681 14.6106 23.8768 14.5442 23.8864C14.5372 23.8864 14.5302 23.8881 14.5233 23.889C14.518 23.889 14.5136 23.8899 14.5084 23.8907C14.4971 23.8925 14.4848 23.8942 14.4734 23.896C14.4726 23.896 14.4708 23.896 14.47 23.8969C14.4421 23.9003 14.4141 23.9047 14.3871 23.9091C14.3862 23.9091 14.3862 23.9091 14.3853 23.9091C14.3644 23.9125 14.3425 23.9161 14.3216 23.9195C14.2963 23.9229 14.2709 23.9274 14.2456 23.9317C14.1802 23.9421 14.1156 23.9544 14.0501 23.9666C14.016 23.9727 13.982 23.9797 13.9488 23.9858C13.9218 23.9911 13.8956 23.9962 13.8694 24.0024C13.8651 24.0024 13.8615 24.0033 13.8581 24.0051C13.845 24.0068 13.8319 24.0094 13.8197 24.0129C13.8048 24.0156 13.79 24.0191 13.776 24.0217C13.7629 24.0243 13.7498 24.0278 13.7376 24.0304C13.7245 24.0331 13.7097 24.0366 13.6975 24.0392C13.6914 24.0401 13.6853 24.0418 13.6801 24.0426C13.6583 24.0479 13.6373 24.0522 13.6163 24.0575C13.6006 24.0609 13.5858 24.0645 13.5709 24.0679C13.5639 24.0697 13.557 24.0714 13.55 24.0732C13.5247 24.0793 13.4993 24.0854 13.4741 24.0915C13.4679 24.0932 13.4619 24.0941 13.4558 24.0959C13.4244 24.1037 13.3929 24.1116 13.3615 24.1203C13.3536 24.1221 13.3449 24.1237 13.3371 24.1264C13.3336 24.1273 13.3292 24.1282 13.3258 24.1291L13.3249 24.1299C13.2349 24.1526 13.1459 24.1779 13.0569 24.2032C13.0464 24.2067 13.0359 24.2094 13.0255 24.2129C13.0133 24.2163 13.0011 24.2199 12.9888 24.2242C12.9792 24.2268 12.9679 24.2294 12.9583 24.2329C12.9103 24.2469 12.8631 24.2617 12.8151 24.2775C12.7898 24.2845 12.7644 24.2932 12.7392 24.3019C12.6859 24.3186 12.6336 24.336 12.5812 24.3543C12.5654 24.3596 12.5506 24.3647 12.5366 24.3692C12.5236 24.3735 12.5113 24.3779 12.4991 24.3822C12.4869 24.3866 12.4746 24.391 12.4624 24.3962C12.4283 24.4076 12.3934 24.4199 12.3603 24.4329C12.3481 24.4372 12.3366 24.4417 12.3244 24.446C12.314 24.4494 12.3026 24.4539 12.2922 24.4582C12.28 24.4625 12.2678 24.4669 12.2555 24.4731C12.2319 24.4809 12.2084 24.4897 12.1848 24.4992C12.1577 24.5097 12.1315 24.5202 12.1053 24.5306C12.0879 24.5367 12.0713 24.5437 12.0546 24.5507C12.0398 24.5568 12.0249 24.5629 12.0101 24.569C11.9638 24.5873 11.9175 24.6066 11.8713 24.6266C11.8599 24.6319 11.8476 24.6362 11.8363 24.6415C11.8276 24.6458 11.818 24.6494 11.8093 24.6537C11.804 24.6554 11.7988 24.6581 11.7935 24.6607C11.7699 24.6703 11.7473 24.6807 11.7236 24.6912C11.7036 24.7 11.6835 24.7087 11.6643 24.7174C11.6067 24.7436 11.55 24.7698 11.4932 24.7969C11.4774 24.8039 11.4626 24.8117 11.4478 24.8187C11.4399 24.8221 11.4321 24.8266 11.4242 24.8309C11.4041 24.8396 11.3849 24.8492 11.3658 24.8588C11.3509 24.8658 11.3369 24.8728 11.3229 24.8797C11.3125 24.8841 11.302 24.8894 11.2924 24.8955C11.2889 24.8964 11.2854 24.8981 11.2828 24.9007C11.2452 24.9182 11.2077 24.9374 11.171 24.9566C11.0514 25.0177 10.9336 25.0824 10.8166 25.1487C10.7756 25.1722 10.7337 25.1958 10.6927 25.2203C10.6805 25.2273 10.6674 25.2352 10.6551 25.2421C10.6228 25.2613 10.5897 25.2814 10.5573 25.3014C10.5547 25.3023 10.553 25.3032 10.5512 25.3049C10.5399 25.311 10.5294 25.3179 10.5189 25.3241C10.5093 25.3293 10.5006 25.3354 10.4918 25.3407C10.4875 25.3433 10.4831 25.3459 10.4796 25.3477C10.47 25.3547 10.4604 25.3599 10.4508 25.3669C10.4098 25.3913 10.3696 25.4166 10.3295 25.4428L9.81014 24.9234C9.80839 24.9217 9.8067 24.92 9.80489 24.9182C9.79526 24.9094 9.7857 24.9007 9.77607 24.8911C9.76564 24.8824 9.75514 24.8728 9.7447 24.8623C9.72464 24.844 9.70457 24.8247 9.68539 24.8056C9.6662 24.7864 9.64701 24.7672 9.62776 24.7471C9.6077 24.7271 9.58851 24.7061 9.56932 24.6851C9.5152 24.6249 9.46276 24.5629 9.41307 24.4992C9.36239 24.4346 9.31439 24.3674 9.26901 24.2992C9.25414 24.2756 9.23932 24.253 9.22445 24.2294C9.18076 24.1595 9.13976 24.088 9.10139 24.0146C9.05076 23.9168 9.00451 23.8156 8.96345 23.7126C8.96257 23.7117 8.96257 23.7117 8.96257 23.7117C8.94339 23.6601 8.9242 23.6078 8.9067 23.5554C8.89707 23.5292 8.88926 23.5022 8.88051 23.4751C8.87264 23.4489 8.86476 23.4219 8.85689 23.3948C8.84989 23.3677 8.84201 23.3398 8.83595 23.3127C8.82895 23.2857 8.82201 23.2577 8.81589 23.2298C8.80976 23.2028 8.80457 23.1748 8.79926 23.1469C8.79489 23.1286 8.79226 23.1102 8.78882 23.091C8.78539 23.0736 8.7827 23.0561 8.78007 23.0386C8.77664 23.0186 8.77395 22.9976 8.77132 22.9775C8.76701 22.9496 8.76345 22.9207 8.76089 22.8919C8.75914 22.8789 8.75745 22.8657 8.75657 22.8518C8.75482 22.8309 8.7522 22.809 8.75132 22.7881C8.74701 22.7357 8.74432 22.6833 8.74257 22.6309C8.7417 22.6021 8.7417 22.5725 8.7417 22.5427C8.7417 22.1534 8.81157 21.7797 8.93895 21.4349C8.95726 21.3869 8.97564 21.3398 8.9957 21.2936C9.07864 21.0989 9.17989 20.9147 9.29776 20.7427C9.87214 19.9055 10.8359 19.3564 11.928 19.3564C11.9577 19.3564 11.9873 19.3564 12.0162 19.3573C12.0686 19.3591 12.1218 19.3616 12.1733 19.3661C12.1943 19.3678 12.2161 19.3695 12.2371 19.3713C12.251 19.3722 12.2641 19.3739 12.2772 19.3756C12.306 19.3782 12.3348 19.3817 12.3628 19.3861C12.3828 19.3887 12.4038 19.3913 12.4239 19.3948C12.4413 19.3974 12.4588 19.4001 12.4763 19.4036C12.4954 19.407 12.5138 19.4097 12.5321 19.414C12.5522 19.4174 12.5714 19.4219 12.5914 19.4253C12.6098 19.4296 12.629 19.4341 12.6473 19.4384C12.6648 19.4418 12.6814 19.4462 12.698 19.4506C12.7163 19.4549 12.7347 19.4593 12.7521 19.4645C12.7688 19.4679 12.7844 19.4724 12.8001 19.4776C12.8473 19.4906 12.8944 19.5046 12.9407 19.5212C12.9573 19.5265 12.9739 19.5317 12.9896 19.5379C13.1048 19.578 13.2174 19.6251 13.3266 19.6792C13.351 19.6914 13.3754 19.7037 13.3999 19.7159C13.4732 19.7543 13.5448 19.7954 13.6146 19.8399C13.6383 19.8539 13.6618 19.8687 13.6845 19.8845C13.7142 19.9037 13.7438 19.9237 13.7727 19.9447C13.8103 19.9718 13.8478 19.9997 13.8844 20.0286C13.9089 20.046 13.9316 20.0652 13.9552 20.0844C13.9944 20.1167 14.0329 20.1507 14.0704 20.184L14.0731 20.1866C14.1132 20.2241 14.1525 20.2617 14.1909 20.3001C14.2101 20.3201 14.2293 20.3393 14.2477 20.3594C14.2669 20.3794 14.2853 20.3995 14.3036 20.4196C14.3062 20.4214 14.307 20.4231 14.3088 20.4249L16.8282 22.9442C16.8604 22.9731 16.8911 23.0019 16.9224 23.0324C16.9224 23.0307 16.9216 23.0298 16.9216 23.0281C16.9163 22.9941 16.9119 22.9601 16.9076 22.9251C16.9015 22.8754 16.8972 22.8256 16.8936 22.775C16.891 22.7409 16.8893 22.7069 16.8875 22.6729V22.6641C16.8858 22.624 16.8849 22.5829 16.8849 22.5428C16.8849 20.7829 18.3113 19.3564 20.0713 19.3564C20.1263 19.3564 20.1813 19.3582 20.2354 19.3607C20.2616 19.3616 20.2869 19.3634 20.3131 19.3651C20.3139 19.366 20.3157 19.366 20.3165 19.366C20.3374 19.3677 20.3593 19.3694 20.3803 19.3712C20.3943 19.3721 20.4073 19.3739 20.4204 19.3756C20.4492 19.3782 20.4771 19.3817 20.5059 19.386C20.5226 19.3877 20.5391 19.3903 20.5557 19.393C20.5958 19.3991 20.636 19.4061 20.6753 19.4139C20.6963 19.4174 20.7181 19.4218 20.7391 19.427C20.7731 19.434 20.8071 19.4419 20.8412 19.4506C20.8621 19.4559 20.8831 19.4611 20.9041 19.4672C20.9652 19.483 21.0245 19.5004 21.0839 19.5214C21.1049 19.5284 21.1268 19.5353 21.1477 19.5432C21.1791 19.5536 21.2106 19.5659 21.2411 19.5781C21.2882 19.5973 21.3362 19.6174 21.3824 19.6384C21.3868 19.6401 21.3912 19.6418 21.3946 19.6436C21.4199 19.6558 21.4444 19.6672 21.4688 19.6794C21.4933 19.6916 21.5186 19.7039 21.543 19.7161C21.5937 19.7423 21.6426 19.7694 21.6914 19.7991C21.7141 19.8131 21.7359 19.8261 21.7577 19.8401C21.7813 19.8541 21.8039 19.8689 21.8276 19.8847C21.8573 19.9039 21.8869 19.9239 21.9158 19.9449C21.9533 19.972 21.9908 19.9999 22.0275 20.0287C22.0519 20.0462 22.0746 20.0654 22.0983 20.0846C22.1375 20.1178 22.1759 20.1509 22.2134 20.1842C22.2143 20.1851 22.2152 20.1859 22.2161 20.1868C22.2562 20.2244 22.2955 20.2619 22.3339 20.3002C22.3531 20.3203 22.3723 20.3395 22.3907 20.3596C22.4099 20.3796 22.4283 20.3997 22.4466 20.4198C22.4492 20.4216 22.45 20.4232 22.4518 20.4251L29.6249 27.598Z" fill="url(#paint11_linear_1_2018)"/>
<path d="M11.9276 25.7292C13.6874 25.7292 15.114 24.3026 15.114 22.5428C15.114 20.783 13.6874 19.3564 11.9276 19.3564C10.1678 19.3564 8.74121 20.783 8.74121 22.5428C8.74121 24.3026 10.1678 25.7292 11.9276 25.7292Z" fill="url(#paint12_linear_1_2018)"/>
<path d="M11.9272 24.8856C13.221 24.8856 14.2698 23.8367 14.2698 22.5429C14.2698 21.2491 13.221 20.2002 11.9272 20.2002C10.6333 20.2002 9.58447 21.2491 9.58447 22.5429C9.58447 23.8367 10.6333 24.8856 11.9272 24.8856Z" fill="url(#paint13_linear_1_2018)"/>
<path d="M15.1082 22.735L13.4648 21.0915C13.0794 20.6837 12.5337 20.4287 11.9281 20.4287C10.7602 20.4287 9.81348 21.3755 9.81348 22.5433C9.81348 23.1489 10.0684 23.6945 10.4764 24.0801L12.1197 25.7235C13.7267 25.628 15.0128 24.342 15.1082 22.735Z" fill="url(#paint14_linear_1_2018)"/>
<path d="M11.9271 24.6579C13.095 24.6579 14.0417 23.7112 14.0417 22.5433C14.0417 21.3754 13.095 20.4287 11.9271 20.4287C10.7592 20.4287 9.8125 21.3754 9.8125 22.5433C9.8125 23.7112 10.7592 24.6579 11.9271 24.6579Z" fill="url(#paint15_linear_1_2018)"/>
<path d="M20.0707 25.7292C21.8304 25.7292 23.257 24.3026 23.257 22.5428C23.257 20.783 21.8304 19.3564 20.0707 19.3564C18.3109 19.3564 16.8843 20.783 16.8843 22.5428C16.8843 24.3026 18.3109 25.7292 20.0707 25.7292Z" fill="url(#paint16_linear_1_2018)"/>
<path d="M20.0707 24.8856C21.3645 24.8856 22.4134 23.8367 22.4134 22.5429C22.4134 21.2491 21.3645 20.2002 20.0707 20.2002C18.7769 20.2002 17.728 21.2491 17.728 22.5429C17.728 23.8367 18.7769 24.8856 20.0707 24.8856Z" fill="url(#paint17_linear_1_2018)"/>
<path d="M23.2509 22.735L21.6074 21.0915C21.2219 20.6837 20.6762 20.4287 20.0707 20.4287C18.9028 20.4287 17.9561 21.3755 17.9561 22.5433C17.9561 23.1489 18.211 23.6945 18.6189 24.0801L20.2623 25.7235C21.8694 25.628 23.1554 24.342 23.2509 22.735Z" fill="url(#paint18_linear_1_2018)"/>
<path d="M20.0707 24.6579C21.2386 24.6579 22.1853 23.7112 22.1853 22.5433C22.1853 21.3754 21.2386 20.4287 20.0707 20.4287C18.9028 20.4287 17.9561 21.3754 17.9561 22.5433C17.9561 23.7112 18.9028 24.6579 20.0707 24.6579Z" fill="url(#paint19_linear_1_2018)"/>
<path d="M22.761 10.8809C22.7183 10.8809 22.6744 10.8832 22.6304 10.8879C22.6228 10.8887 22.6154 10.8899 22.608 10.8911L22.5989 10.8925C22.5665 10.8967 22.5342 10.9014 22.5026 10.908C22.4959 10.9094 22.4894 10.9111 22.4829 10.9129L22.4739 10.9152C22.4417 10.9229 22.4099 10.931 22.3787 10.9411C22.3735 10.9428 22.3684 10.9447 22.3572 10.9489C22.3241 10.9603 22.2913 10.9726 22.2592 10.9867L22.2459 10.9932C22.2117 11.0087 22.1782 11.0255 22.1392 11.048C22.1046 11.068 22.0709 11.0897 22.0453 11.1084L22.0376 11.1134C21.9706 11.1613 21.9078 11.2165 21.8529 11.2754C21.3809 11.7472 19.043 14.0842 18.9764 14.1537C18.7598 14.3859 18.6406 14.6868 18.6406 15.0012C18.6406 15.6884 19.1997 16.2475 19.8869 16.2475C20.2349 16.2475 20.5581 16.1066 20.795 15.8529L23.6108 13.0371C23.8664 12.7982 24.0073 12.475 24.0073 12.127C24.0073 11.44 23.4482 10.8809 22.761 10.8809Z" fill="url(#paint20_linear_1_2018)"/>
<path d="M25.5002 18.8987C24.8297 19.3718 24.0353 19.6774 23.1745 19.7577C22.5382 19.1213 21.948 18.5311 21.948 18.5311C21.893 18.4795 21.8432 18.4229 21.7996 18.3618L21.7987 18.3609C21.7778 18.3312 21.7586 18.3016 21.7403 18.2701L21.7369 18.264C21.7202 18.2352 21.7046 18.2047 21.6906 18.174C21.6889 18.1697 21.6872 18.1653 21.6845 18.161C21.6723 18.1322 21.6609 18.1033 21.6504 18.0728C21.6487 18.0667 21.646 18.0597 21.6434 18.0536C21.6347 18.0257 21.6268 17.996 21.6207 17.9672C21.6181 17.9585 21.6155 17.9498 21.6137 17.941C21.6076 17.9131 21.6033 17.8834 21.5998 17.8547C21.598 17.845 21.5964 17.8355 21.5955 17.8259C21.5911 17.7866 21.5894 17.7473 21.5894 17.708C21.5894 17.0847 22.094 16.5801 22.7164 16.5801C23.042 16.5801 23.3344 16.7189 23.5404 16.9389L25.5002 18.8987Z" fill="url(#paint21_linear_1_2018)"/>
<path d="M25.533 13.6523C25.4903 13.6523 25.4463 13.6547 25.4024 13.6593C25.3947 13.6601 25.3873 13.6613 25.38 13.6625L25.3708 13.664C25.3385 13.6682 25.3062 13.6728 25.2746 13.6794C25.2679 13.6808 25.2614 13.6825 25.2548 13.6843L25.2459 13.6867C25.2137 13.6943 25.1818 13.7025 25.1507 13.7125C25.1455 13.7142 25.1404 13.7162 25.1292 13.7203C25.096 13.7317 25.0633 13.744 25.0312 13.7582L25.0179 13.7646C24.9837 13.7802 24.9502 13.797 24.9112 13.8194C24.8766 13.8394 24.8428 13.8611 24.8173 13.8798L24.8095 13.8848C24.7426 13.9327 24.6798 13.9879 24.6248 14.0468C24.1529 14.5186 21.815 16.8557 21.7484 16.9251C21.5318 17.1573 21.4126 17.4582 21.4126 17.7726C21.4126 18.4598 21.9717 19.0189 22.6588 19.0189C23.0068 19.0189 23.3301 18.878 23.567 18.6243L26.3827 15.8085C26.6384 15.5696 26.7793 15.2464 26.7793 14.8985C26.7792 14.2115 26.2202 13.6523 25.533 13.6523Z" fill="url(#paint22_linear_1_2018)"/>
<path d="M27.5367 15.3828C27.459 16.2454 27.1544 17.0424 26.6838 17.7137C25.8624 16.894 24.7327 15.7635 24.7327 15.7635C24.6777 15.7119 24.628 15.6561 24.5843 15.5942L24.5835 15.5933C24.5625 15.5645 24.5433 15.5339 24.525 15.5025C24.5241 15.5007 24.5224 15.499 24.5216 15.4963C24.505 15.4675 24.4893 15.437 24.4753 15.4064C24.4736 15.4021 24.4719 15.3977 24.4692 15.3942C24.457 15.3654 24.4456 15.3358 24.4351 15.3052C24.4334 15.299 24.4308 15.293 24.4281 15.286C24.4194 15.258 24.4115 15.2292 24.4055 15.1996C24.4028 15.1908 24.4002 15.183 24.3985 15.1743C24.3923 15.1455 24.388 15.1167 24.3845 15.087C24.3827 15.0774 24.381 15.0678 24.3801 15.0582C24.3758 15.0198 24.374 14.9805 24.374 14.9403C24.374 14.317 24.8786 13.8125 25.501 13.8125C25.8266 13.8125 26.1191 13.9513 26.3251 14.1713L27.5367 15.3828Z" fill="url(#paint23_linear_1_2018)"/>
<path d="M26.7401 14.5863L26.3254 14.1727C26.1197 13.9518 25.8278 13.8135 25.5022 13.8135C24.8798 13.8135 24.375 14.3183 24.375 14.9415C24.375 14.9815 24.3766 15.0207 24.3814 15.0591C24.3822 15.0695 24.3838 15.0783 24.3854 15.0879C24.3894 15.1175 24.3934 15.1463 24.399 15.1751C24.4014 15.1839 24.4038 15.1919 24.4062 15.2007C24.4126 15.2303 24.4206 15.2591 24.4294 15.2871C24.4317 15.2935 24.4342 15.2999 24.4366 15.3063C24.4469 15.3367 24.4582 15.3663 24.4702 15.3951C24.4726 15.3991 24.4742 15.4031 24.4766 15.4071C24.4902 15.4383 24.5054 15.4687 24.5222 15.4975C24.5238 15.4998 24.5246 15.5015 24.5262 15.5038C24.5438 15.535 24.5638 15.5655 24.5846 15.5942L24.5854 15.5958C24.6294 15.6567 24.679 15.7135 24.7334 15.7647C24.7334 15.7647 25.1174 16.1484 25.5806 16.6116L26.3475 15.845C26.6039 15.6149 26.7793 15.2845 26.7793 14.9477C26.775 14.7499 26.7828 14.7947 26.7401 14.5863Z" fill="url(#paint24_linear_1_2018)"/>
<path d="M22.7204 16.584C22.0981 16.584 21.5933 17.0888 21.5933 17.712C21.5933 17.752 21.5949 17.7912 21.5989 17.8304C21.6005 17.84 21.6021 17.8487 21.6037 17.8584C21.6077 17.888 21.6117 17.9167 21.6173 17.9455C21.6197 17.9544 21.6221 17.9624 21.6245 17.9712C21.6309 18.0008 21.6381 18.0295 21.6477 18.0575C21.6493 18.0639 21.6525 18.0704 21.6549 18.0767C21.6653 18.1071 21.6757 18.1367 21.6885 18.1655C21.6909 18.1695 21.6925 18.1735 21.6949 18.1775C21.7085 18.2087 21.7237 18.2392 21.7405 18.2679C21.7421 18.2703 21.7429 18.2719 21.7445 18.2743C21.7621 18.3055 21.7821 18.3359 21.8029 18.3647L21.8037 18.3663C21.8469 18.4271 21.8973 18.4839 21.9517 18.5351C21.9517 18.5351 22.2154 18.7987 22.4114 18.9947C22.5931 19.0279 22.5417 19.018 22.7002 19.0187C23.0443 19.0055 23.3481 18.8654 23.6089 18.5832L24.3966 17.7955L23.5438 16.943C23.3381 16.7224 23.0461 16.584 22.7204 16.584Z" fill="url(#paint25_linear_1_2018)"/>
<path d="M24.7346 15.78C24.9358 15.9677 25.2044 16.0839 25.5012 16.0839C26.124 16.0839 26.6289 15.5791 26.6289 14.9563C26.6289 14.6311 26.4903 14.3388 26.27 14.133L23.5398 11.4028C23.334 11.1825 23.0417 11.0439 22.7165 11.0439C22.0937 11.0439 21.5889 11.5488 21.5889 12.1716C21.5889 12.2115 21.5911 12.2509 21.5951 12.2898C21.5961 12.2995 21.5982 12.3088 21.5995 12.3184C21.6033 12.3477 21.6074 12.3768 21.6134 12.4053C21.6153 12.4141 21.6181 12.4226 21.6201 12.4313C21.627 12.4603 21.6343 12.4893 21.6434 12.5174C21.6456 12.524 21.6483 12.5303 21.6506 12.5368C21.6608 12.5668 21.6719 12.5964 21.6846 12.6252C21.6865 12.6294 21.6886 12.6333 21.6906 12.6375C21.7046 12.6684 21.7199 12.6986 21.7366 12.7281C21.7377 12.7301 21.7389 12.7319 21.7401 12.7339C21.7582 12.7652 21.7776 12.7955 21.7984 12.8247L21.7993 12.8259C21.8431 12.8871 21.8929 12.9436 21.9477 12.9948C21.9477 12.9948 24.7091 15.7573 24.7346 15.78Z" fill="url(#paint26_linear_1_2018)"/>
<path d="M22.716 18.8354C23.3388 18.8354 23.8436 18.3305 23.8436 17.7077C23.8436 17.085 23.3388 16.5801 22.716 16.5801C22.0932 16.5801 21.5884 17.085 21.5884 17.7077C21.5884 18.3305 22.0932 18.8354 22.716 18.8354Z" fill="url(#paint27_linear_1_2018)"/>
<path d="M21.9665 18.5485C22.1677 18.7362 22.4363 18.8525 22.7332 18.8525C23.3559 18.8525 23.8608 18.3476 23.8608 17.7248C23.8608 17.3996 23.7222 17.1073 23.5019 16.9015L20.7717 14.1713C20.5659 13.951 20.2737 13.8125 19.9484 13.8125C19.3257 13.8125 18.8208 14.3173 18.8208 14.9401C18.8208 14.98 18.823 15.0194 18.8271 15.0583C18.8281 15.068 18.8302 15.0773 18.8314 15.087C18.8352 15.1162 18.8394 15.1453 18.8454 15.1738C18.8472 15.1827 18.85 15.1911 18.8521 15.1998C18.8589 15.2288 18.8662 15.2578 18.8753 15.2859C18.8774 15.2925 18.8802 15.2988 18.8824 15.3053C18.8927 15.3353 18.9038 15.365 18.9165 15.3937C18.9184 15.3979 18.9205 15.4018 18.9224 15.406C18.9365 15.437 18.9517 15.4672 18.9684 15.4966C18.9696 15.4986 18.9708 15.5005 18.972 15.5025C18.9901 15.5337 19.0094 15.564 19.0303 15.5932L19.0312 15.5944C19.075 15.6557 19.1247 15.7121 19.1796 15.7633C19.1796 15.7633 21.941 18.5257 21.9665 18.5485Z" fill="url(#paint28_linear_1_2018)"/>
<path d="M23.9739 11.8371L23.5392 11.4031C23.3336 11.1823 23.0416 11.0439 22.716 11.0439C22.0937 11.0439 21.5889 11.5487 21.5889 12.1719C21.5889 12.2119 21.5905 12.2511 21.5952 12.2895C21.5961 12.2999 21.5976 12.3087 21.5992 12.3183C21.6032 12.3479 21.6072 12.3767 21.6129 12.4055C21.6152 12.4143 21.6177 12.4223 21.6201 12.4311C21.6264 12.4608 21.6344 12.4895 21.6432 12.5175C21.6456 12.5239 21.6481 12.5303 21.6504 12.5367C21.6608 12.5671 21.6721 12.5967 21.6841 12.6255C21.6864 12.6295 21.6881 12.6335 21.6904 12.6375C21.7041 12.6687 21.7192 12.6991 21.7361 12.7279C21.7377 12.7303 21.7384 12.7319 21.7401 12.7343C21.7577 12.7654 21.7777 12.7959 21.7984 12.8246L21.7992 12.8263C21.8432 12.8871 21.8929 12.9439 21.9472 12.9951C21.9472 12.9951 22.337 13.3848 22.8002 13.848L23.5709 13.0749C23.8611 12.8277 23.9987 12.4638 24.0071 12.1846C24.0124 12.011 24.0007 11.9999 23.9739 11.8371Z" fill="url(#paint29_linear_1_2018)"/>
<path d="M19.948 13.8115C19.3256 13.8115 18.8208 14.3163 18.8208 14.9395C18.8208 14.9795 18.8224 15.0187 18.8264 15.0579C18.8281 15.0675 18.8296 15.0763 18.8312 15.0859C18.8352 15.1155 18.8392 15.1443 18.8449 15.1731C18.8472 15.1819 18.8497 15.1899 18.8521 15.1987C18.8584 15.2283 18.8657 15.2571 18.8752 15.2851C18.8769 15.2915 18.8801 15.2979 18.8824 15.3043C18.8928 15.3347 18.9032 15.3643 18.9161 15.3931C18.9184 15.3971 18.9201 15.4011 18.9224 15.4051C18.9361 15.4363 18.9512 15.4667 18.9681 15.4955C18.9697 15.4978 18.9704 15.4995 18.9721 15.5018C18.9897 15.533 19.0097 15.5635 19.0304 15.5922L19.0312 15.5938C19.0744 15.6547 19.1249 15.7115 19.1792 15.7627C19.1792 15.7627 19.4416 16.027 19.6376 16.223C19.7862 16.2563 19.9209 16.2469 20.0741 16.233C20.4139 16.1688 20.6071 16.0528 20.8367 15.8064L21.6223 15.0216L20.7713 14.1706C20.5656 13.95 20.2736 13.8115 19.948 13.8115Z" fill="url(#paint30_linear_1_2018)"/>
<path d="M22.716 13.2991C23.3388 13.2991 23.8436 12.7943 23.8436 12.1715C23.8436 11.5487 23.3388 11.0439 22.716 11.0439C22.0932 11.0439 21.5884 11.5487 21.5884 12.1715C21.5884 12.7943 22.0932 13.2991 22.716 13.2991Z" fill="url(#paint31_linear_1_2018)"/>
<path d="M19.9479 16.0677C20.5707 16.0677 21.0756 15.5629 21.0756 14.9401C21.0756 14.3174 20.5707 13.8125 19.9479 13.8125C19.3252 13.8125 18.8203 14.3174 18.8203 14.9401C18.8203 15.5629 19.3252 16.0677 19.9479 16.0677Z" fill="url(#paint32_linear_1_2018)"/>
<path d="M25.5012 16.0677C26.1239 16.0677 26.6288 15.5629 26.6288 14.9401C26.6288 14.3174 26.1239 13.8125 25.5012 13.8125C24.8784 13.8125 24.3735 14.3174 24.3735 14.9401C24.3735 15.5629 24.8784 16.0677 25.5012 16.0677Z" fill="url(#paint33_linear_1_2018)"/>
<path d="M15.1335 18.418V18.475C15.1335 18.7059 14.9463 18.8931 14.7155 18.8931H14.1954C13.9645 18.8931 13.7773 18.7059 13.7773 18.475V18.418C13.7773 18.1872 13.9645 18 14.1954 18H14.7155C14.9463 18 15.1335 18.1871 15.1335 18.418Z" fill="url(#paint34_linear_1_2018)"/>
<path d="M18.2209 18.418V18.475C18.2209 18.7059 18.0337 18.8931 17.8029 18.8931H17.2828C17.0519 18.8931 16.8647 18.7059 16.8647 18.475V18.418C16.8647 18.1872 17.0519 18 17.2828 18H17.8029C18.0337 18 18.2209 18.1871 18.2209 18.418Z" fill="url(#paint35_linear_1_2018)"/>
<defs>
<linearGradient id="paint0_linear_1_2018" x1="16.1837" y1="13.1234" x2="16.1837" y2="2.3269" gradientUnits="userSpaceOnUse">
<stop stop-color="#97AAAA"/>
<stop offset="1" stop-color="#E8EFEE"/>
</linearGradient>
<linearGradient id="paint1_linear_1_2018" x1="16" y1="11.4301" x2="16" y2="9.3274" gradientUnits="userSpaceOnUse">
<stop stop-color="#97AAAA"/>
<stop offset="1" stop-color="#E8EFEE"/>
</linearGradient>
<linearGradient id="paint2_linear_1_2018" x1="16.0005" y1="1.57115" x2="16.0005" y2="22.2813" gradientUnits="userSpaceOnUse">
<stop stop-color="white"/>
<stop offset="1" stop-color="#E8EFEE"/>
</linearGradient>
<linearGradient id="paint3_linear_1_2018" x1="3.40006" y1="20.5273" x2="14.7918" y2="31.919" gradientUnits="userSpaceOnUse">
<stop stop-color="#C2CECE" stop-opacity="0"/>
<stop offset="0.179" stop-color="#AFBCBC" stop-opacity="0.179"/>
<stop offset="1" stop-color="#5B6A6A"/>
</linearGradient>
<linearGradient id="paint4_linear_1_2018" x1="27.9359" y1="20.8473" x2="19.537" y2="15.8812" gradientUnits="userSpaceOnUse">
<stop stop-color="#C2CECE" stop-opacity="0"/>
<stop offset="0.179" stop-color="#AFBCBC" stop-opacity="0.179"/>
<stop offset="1" stop-color="#5B6A6A"/>
</linearGradient>
<linearGradient id="paint5_linear_1_2018" x1="26.6302" y1="18.8527" x2="15.3879" y2="7.60972" gradientUnits="userSpaceOnUse">
<stop stop-color="#C2CECE" stop-opacity="0"/>
<stop offset="0.179" stop-color="#AFBCBC" stop-opacity="0.179"/>
<stop offset="1" stop-color="#5B6A6A"/>
</linearGradient>
<linearGradient id="paint6_linear_1_2018" x1="22.7167" y1="7.81215" x2="22.7167" y2="20.6772" gradientUnits="userSpaceOnUse">
<stop stop-color="white"/>
<stop offset="1" stop-color="#E8EFEE"/>
</linearGradient>
<linearGradient id="paint7_linear_1_2018" x1="14.8196" y1="20.4859" x2="0.68758" y2="6.35418" gradientUnits="userSpaceOnUse">
<stop stop-color="#C2CECE" stop-opacity="0"/>
<stop offset="0.179" stop-color="#AFBCBC" stop-opacity="0.179"/>
<stop offset="1" stop-color="#5B6A6A"/>
</linearGradient>
<linearGradient id="paint8_linear_1_2018" x1="9.27241" y1="6.37211" x2="9.27241" y2="21.1599" gradientUnits="userSpaceOnUse">
<stop stop-color="white"/>
<stop offset="1" stop-color="#E8EFEE"/>
</linearGradient>
<linearGradient id="paint9_linear_1_2018" x1="11.878" y1="17.545" x2="6.33118" y2="11.9982" gradientUnits="userSpaceOnUse">
<stop stop-color="#C2CECE" stop-opacity="0"/>
<stop offset="0.179" stop-color="#AFBCBC" stop-opacity="0.179"/>
<stop offset="1" stop-color="#5B6A6A"/>
</linearGradient>
<linearGradient id="paint10_linear_1_2018" x1="9.3064" y1="12.6782" x2="9.3064" y2="16.7637" gradientUnits="userSpaceOnUse">
<stop stop-color="#5B6A6A"/>
<stop offset="1" stop-color="#303033"/>
</linearGradient>
<linearGradient id="paint11_linear_1_2018" x1="24.8103" y1="31.3527" x2="3.98277" y2="10.5254" gradientUnits="userSpaceOnUse">
<stop stop-color="#C2CECE" stop-opacity="0"/>
<stop offset="0.179" stop-color="#AFBCBC" stop-opacity="0.179"/>
<stop offset="1" stop-color="#5B6A6A"/>
</linearGradient>
<linearGradient id="paint12_linear_1_2018" x1="11.928" y1="19.9543" x2="11.928" y2="25.4338" gradientUnits="userSpaceOnUse">
<stop stop-color="white"/>
<stop offset="1" stop-color="#E8EFEE"/>
</linearGradient>
<linearGradient id="paint13_linear_1_2018" x1="11.9275" y1="24.0119" x2="11.9275" y2="19.6904" gradientUnits="userSpaceOnUse">
<stop stop-color="#97AAAA"/>
<stop offset="1" stop-color="#E8EFEE"/>
</linearGradient>
<linearGradient id="paint14_linear_1_2018" x1="14.1524" y1="24.7664" x2="10.8449" y2="21.4596" gradientUnits="userSpaceOnUse">
<stop stop-color="#C2CECE" stop-opacity="0"/>
<stop offset="0.179" stop-color="#AFBCBC" stop-opacity="0.179"/>
<stop offset="1" stop-color="#5B6A6A"/>
</linearGradient>
<linearGradient id="paint15_linear_1_2018" x1="11.9275" y1="20.9835" x2="11.9275" y2="24.8843" gradientUnits="userSpaceOnUse">
<stop stop-color="#5B6A6A"/>
<stop offset="1" stop-color="#303033"/>
</linearGradient>
<linearGradient id="paint16_linear_1_2018" x1="20.0713" y1="19.9543" x2="20.0713" y2="25.4338" gradientUnits="userSpaceOnUse">
<stop stop-color="white"/>
<stop offset="1" stop-color="#E8EFEE"/>
</linearGradient>
<linearGradient id="paint17_linear_1_2018" x1="20.0713" y1="24.0119" x2="20.0713" y2="19.6904" gradientUnits="userSpaceOnUse">
<stop stop-color="#97AAAA"/>
<stop offset="1" stop-color="#E8EFEE"/>
</linearGradient>
<linearGradient id="paint18_linear_1_2018" x1="22.2949" y1="24.7665" x2="18.9881" y2="21.4597" gradientUnits="userSpaceOnUse">
<stop stop-color="#C2CECE" stop-opacity="0"/>
<stop offset="0.179" stop-color="#AFBCBC" stop-opacity="0.179"/>
<stop offset="1" stop-color="#5B6A6A"/>
</linearGradient>
<linearGradient id="paint19_linear_1_2018" x1="20.0713" y1="20.9835" x2="20.0713" y2="24.8843" gradientUnits="userSpaceOnUse">
<stop stop-color="#5B6A6A"/>
<stop offset="1" stop-color="#303033"/>
</linearGradient>
<linearGradient id="paint20_linear_1_2018" x1="21.3246" y1="11.9874" x2="21.3246" y2="16.8309" gradientUnits="userSpaceOnUse">
<stop stop-color="#5B6A6A"/>
<stop offset="1" stop-color="#303033"/>
</linearGradient>
<linearGradient id="paint21_linear_1_2018" x1="24.1552" y1="19.1451" x2="21.4165" y2="16.4057" gradientUnits="userSpaceOnUse">
<stop stop-color="#C2CECE" stop-opacity="0"/>
<stop offset="0.179" stop-color="#AFBCBC" stop-opacity="0.179"/>
<stop offset="1" stop-color="#5B6A6A"/>
</linearGradient>
<linearGradient id="paint22_linear_1_2018" x1="24.0967" y1="14.7588" x2="24.0967" y2="19.6023" gradientUnits="userSpaceOnUse">
<stop stop-color="#5B6A6A"/>
<stop offset="1" stop-color="#303033"/>
</linearGradient>
<linearGradient id="paint23_linear_1_2018" x1="27.0219" y1="16.4589" x2="24.2918" y2="13.7288" gradientUnits="userSpaceOnUse">
<stop stop-color="#C2CECE" stop-opacity="0"/>
<stop offset="0.179" stop-color="#AFBCBC" stop-opacity="0.179"/>
<stop offset="1" stop-color="#5B6A6A"/>
</linearGradient>
<linearGradient id="paint24_linear_1_2018" x1="27.148" y1="16.5865" x2="25.9479" y2="15.3858" gradientUnits="userSpaceOnUse">
<stop stop-color="#5B6A6A"/>
<stop offset="1" stop-color="#303033"/>
</linearGradient>
<linearGradient id="paint25_linear_1_2018" x1="24.3738" y1="19.3639" x2="23.1697" y2="18.1599" gradientUnits="userSpaceOnUse">
<stop stop-color="#5B6A6A"/>
<stop offset="1" stop-color="#303033"/>
</linearGradient>
<linearGradient id="paint26_linear_1_2018" x1="24.5199" y1="13.9736" x2="20.2124" y2="9.66552" gradientUnits="userSpaceOnUse">
<stop stop-color="#C2CECE" stop-opacity="0"/>
<stop offset="0.179" stop-color="#AFBCBC" stop-opacity="0.179"/>
<stop offset="1" stop-color="#5B6A6A"/>
</linearGradient>
<linearGradient id="paint27_linear_1_2018" x1="22.171" y1="17.1615" x2="24.0344" y2="19.0249" gradientUnits="userSpaceOnUse">
<stop stop-color="#00A6F9"/>
<stop offset="1" stop-color="#0071E2"/>
</linearGradient>
<linearGradient id="paint28_linear_1_2018" x1="21.7517" y1="16.7422" x2="17.4442" y2="12.4341" gradientUnits="userSpaceOnUse">
<stop stop-color="#C2CECE" stop-opacity="0"/>
<stop offset="0.179" stop-color="#AFBCBC" stop-opacity="0.179"/>
<stop offset="1" stop-color="#5B6A6A"/>
</linearGradient>
<linearGradient id="paint29_linear_1_2018" x1="24.3702" y1="13.8244" x2="23.1662" y2="12.6204" gradientUnits="userSpaceOnUse">
<stop stop-color="#5B6A6A"/>
<stop offset="1" stop-color="#303033"/>
</linearGradient>
<linearGradient id="paint30_linear_1_2018" x1="21.5981" y1="16.5889" x2="20.3954" y2="15.3862" gradientUnits="userSpaceOnUse">
<stop stop-color="#5B6A6A"/>
<stop offset="1" stop-color="#303033"/>
</linearGradient>
<linearGradient id="paint31_linear_1_2018" x1="22.171" y1="11.6251" x2="24.0344" y2="13.4885" gradientUnits="userSpaceOnUse">
<stop stop-color="#7BD101"/>
<stop offset="0.262" stop-color="#5CCD0B"/>
<stop offset="1" stop-color="#08C126"/>
</linearGradient>
<linearGradient id="paint32_linear_1_2018" x1="19.4029" y1="14.3938" x2="21.2663" y2="16.2572" gradientUnits="userSpaceOnUse">
<stop stop-color="#FFCF95"/>
<stop offset="0.427" stop-color="#FFC954"/>
<stop offset="1" stop-color="#FFC200"/>
</linearGradient>
<linearGradient id="paint33_linear_1_2018" x1="24.9562" y1="14.3938" x2="26.8196" y2="16.2572" gradientUnits="userSpaceOnUse">
<stop stop-color="#D63305"/>
<stop offset="1" stop-color="#960000"/>
</linearGradient>
<linearGradient id="paint34_linear_1_2018" x1="14.4558" y1="18.0822" x2="14.4558" y2="19.6836" gradientUnits="userSpaceOnUse">
<stop stop-color="#5B6A6A"/>
<stop offset="1" stop-color="#303033"/>
</linearGradient>
<linearGradient id="paint35_linear_1_2018" x1="17.5434" y1="18.0822" x2="17.5434" y2="19.6836" gradientUnits="userSpaceOnUse">
<stop stop-color="#5B6A6A"/>
<stop offset="1" stop-color="#303033"/>
</linearGradient>
</defs>
</svg>
