<svg width="40" height="40" viewBox="0 0 40 40" fill="none" xmlns="http://www.w3.org/2000/svg">
<path d="M7.91037 29.6006L17.9429 36.9474L19.5195 36.8631L31.8532 28.032L32.2742 4.65204L6.92252 7.87133V27.6525C6.92252 28.4222 7.28944 29.1458 7.91037 29.6006Z" fill="#FFC269"/>
<path d="M33.0779 7.87222V27.6532C33.0779 28.4225 32.7109 29.146 32.0896 29.6015L20.7126 37.933C20.2885 38.2437 19.7107 38.2437 19.2865 37.933L17.9417 36.9481C18.0672 36.9093 18.1879 36.8498 18.2982 36.7686L29.6752 28.437C30.2965 27.9823 30.6635 27.2588 30.6635 26.4894V7.87222H33.0779Z" fill="#FFA95F"/>
<path d="M9.33582 7.87125V27.5092C9.33582 27.6377 9.39716 27.7584 9.50088 27.8342L19.7624 35.3297C19.9038 35.4329 20.0956 35.4329 20.2371 35.3297L30.4986 27.8342C30.6023 27.7583 30.6636 27.6377 30.6636 27.5092V7.87125L19.9998 5.82879L9.33582 7.87125Z" fill="#FFE07D"/>
<path d="M21.139 27.568C21.139 27.568 19.186 28.0013 18.7923 27.9419C14.9201 27.3595 11.9513 24.0183 11.9513 19.9838C11.9513 15.9492 14.9199 12.608 18.7921 12.0254C19.1859 11.9662 21.1297 12.423 21.1297 12.423C25.0421 14.7421 26.9244 15.6261 26.9244 20.0709C26.9245 24.5159 22.8091 27.0882 21.139 27.568Z" fill="#6F6571"/>
<path d="M28.0479 19.984C28.0479 22.2061 27.1473 24.2183 25.6905 25.6749C24.2347 27.1309 22.2226 28.0323 19.9997 28.0323C19.5892 28.0323 19.186 28.0017 18.7925 27.942C20.5325 27.6805 22.089 26.862 23.2761 25.6749C24.7327 24.2183 25.6334 22.2061 25.6334 19.984C25.6334 17.7612 24.7327 15.7491 23.2761 14.2932C22.089 13.1053 20.5325 12.2876 18.7925 12.0261C19.186 11.9666 19.5892 11.9359 19.9997 11.9359C22.2226 11.9359 24.2347 12.8366 25.6905 14.2932C27.1473 15.7491 28.0479 17.7612 28.0479 19.984Z" fill="#5D5360"/>
<path d="M20.3605 15.8906L21.4734 18.1455C21.532 18.2643 21.6454 18.3467 21.7764 18.3658L24.265 18.7273C24.595 18.7753 24.7268 19.1809 24.4879 19.4138L22.6872 21.169C22.5923 21.2615 22.5491 21.3946 22.5715 21.5252L22.9965 24.0037C23.053 24.3325 22.7078 24.5831 22.4127 24.428L20.1869 23.2577C20.0695 23.196 19.9295 23.196 19.8123 23.2577L17.5864 24.428C17.2912 24.5831 16.9462 24.3325 17.0025 24.0037L17.4275 21.5252C17.45 21.3946 17.4068 21.2615 17.3119 21.169L15.5112 19.4138C15.2723 19.1809 15.4042 18.7753 15.7342 18.7273L18.2228 18.3658C18.3539 18.3467 18.4671 18.2643 18.5258 18.1455L19.6386 15.8906C19.7864 15.5916 20.2129 15.5916 20.3605 15.8906Z" fill="white"/>
<path d="M38.3903 5.45646H1.61009L2.41484 3.04196H37.5855L38.3903 5.45646Z" fill="#DCD9DC"/>
<path d="M2.01209 6.66362H0.402418C0.180154 6.66362 0 6.48347 0 6.26122V2.23711C0 2.01485 0.180154 1.83469 0.402418 1.83469H2.01209C2.23435 1.83469 2.41451 2.01485 2.41451 2.23711V6.26122C2.41442 6.48347 2.23427 6.66362 2.01209 6.66362Z" fill="#F4F4F4"/>
<path d="M39.5977 6.66362H37.988C37.7657 6.66362 37.5855 6.48347 37.5855 6.26122V2.23711C37.5855 2.01485 37.7657 1.83469 37.988 1.83469H39.5977C39.82 1.83469 40.0001 2.01485 40.0001 2.23711V6.26122C40.0001 6.48347 39.82 6.66362 39.5977 6.66362Z" fill="#F4F4F4"/>
<path d="M32.1125 7.8709H30.6639H9.33612H5.71445C5.26992 7.8709 4.90961 7.51058 4.90961 7.06604V3.04196H32.9174V7.06604C32.9174 7.51058 32.557 7.8709 32.1125 7.8709Z" fill="#C3AFF0"/>
<path d="M35.17 3.04196V7.06606C35.17 7.51031 34.8095 7.87085 34.3653 7.87085H31.9508C32.395 7.87085 32.7556 7.51031 32.7556 7.06606V3.04196H35.17Z" fill="#B09DF4"/>
</svg>
