<svg width="32" height="32" viewBox="0 0 32 32" fill="none" xmlns="http://www.w3.org/2000/svg">
<path d="M15.9995 31.999C24.8358 31.999 31.999 24.8358 31.999 15.9995C31.999 7.16321 24.8358 0 15.9995 0C7.16321 0 0 7.16321 0 15.9995C0 24.8358 7.16321 31.999 15.9995 31.999Z" fill="#E6E6E6"/>
<path d="M31.9996 15.9996C31.9996 11.9437 30.4876 8.24271 27.9997 5.42281C26.9963 6.56047 26.1552 7.84272 25.5044 9.23239L27.0374 9.74324C27.3363 9.84323 27.4985 10.1667 27.3985 10.4661C27.3191 10.7055 27.0963 10.8569 26.8569 10.8569C26.7975 10.8569 26.7364 10.8472 26.6764 10.8272L25.0529 10.2861C24.8032 10.9381 24.5946 11.61 24.4306 12.3003L26.3661 12.5768C26.6786 12.6214 26.8958 12.9106 26.8512 13.2231C26.8106 13.5083 26.5661 13.714 26.2861 13.714C26.2592 13.714 26.2318 13.7123 26.2044 13.7083L24.2106 13.4237C24.1044 14.0797 24.0369 14.7483 24.0129 15.4287H25.7141C26.0301 15.4287 26.2855 15.6847 26.2855 16.0002C26.2855 16.3156 26.0301 16.5716 25.7141 16.5716H24.0129C24.0369 17.2516 24.1044 17.9207 24.2106 18.5766L26.2044 18.2921C26.5181 18.2452 26.8066 18.4646 26.8512 18.7766C26.8958 19.0892 26.6786 19.3784 26.3661 19.4229L24.4306 19.6995C24.5941 20.3892 24.8032 21.0618 25.0529 21.7137L26.6764 21.1726C26.9781 21.0726 27.2991 21.2349 27.3991 21.5337C27.4991 21.8331 27.3374 22.1565 27.038 22.2565L25.5049 22.7674C26.1558 24.1571 26.9968 25.4399 28.0003 26.577C30.4876 23.7565 31.9996 20.0555 31.9996 15.9996Z" fill="#CCD6DB"/>
<path d="M6.28552 16.571C5.96953 16.571 5.71412 16.315 5.71412 15.9996C5.71412 15.6842 5.96953 15.4282 6.28552 15.4282H7.98662C7.96262 14.7483 7.89519 14.0791 7.7889 13.4231L5.79525 13.7077C5.76782 13.7123 5.74039 13.714 5.71354 13.714C5.43354 13.714 5.18898 13.5083 5.14841 13.2237C5.10384 12.9111 5.32098 12.622 5.63354 12.5774L7.56891 12.3008C7.40548 11.6111 7.19635 10.9387 6.94665 10.2867L5.32327 10.8278C5.26327 10.8478 5.20213 10.8569 5.1427 10.8569C4.90328 10.8569 4.68043 10.7055 4.601 10.4661C4.501 10.1667 4.66272 9.84323 4.96214 9.74324L6.49523 9.23239C5.84439 7.84272 5.00328 6.5599 3.99988 5.42281C1.51195 8.24271 0 11.9437 0 15.9996C0 20.0555 1.51195 23.7565 3.99988 26.5764C5.00328 25.4387 5.84439 24.1565 6.49523 22.7668L4.96214 22.256C4.66329 22.156 4.501 21.8325 4.601 21.5331C4.701 21.2344 5.02156 21.0721 5.32384 21.1721L6.94722 21.7131C7.19692 21.0612 7.40548 20.3892 7.56948 19.6989L5.63297 19.4224C5.32041 19.3778 5.10327 19.0886 5.14784 18.7761C5.19241 18.4641 5.48326 18.2469 5.79468 18.2915L7.78833 18.5761C7.89462 17.9202 7.96205 17.2516 7.98605 16.571H6.28552Z" fill="#CCD6DB"/>
<path d="M7.98608 16.5709H9.71346C10.0295 16.5709 10.2848 16.3149 10.2848 15.9995C10.2848 15.6841 10.0295 15.4281 9.71346 15.4281H7.98608C7.99237 15.6178 7.99923 15.8081 7.99923 15.9995C7.99923 16.1909 7.99237 16.3812 7.98608 16.5709Z" fill="#E64C3C"/>
<path d="M5.71467 15.9995C5.71467 16.3149 5.97008 16.5709 6.28607 16.5709H7.98717C7.99345 16.3812 8.00031 16.1909 8.00031 15.9995C8.00031 15.8081 7.99345 15.6178 7.98717 15.4281H6.28607C5.97008 15.4281 5.71467 15.6841 5.71467 15.9995Z" fill="#C03A2B"/>
<path d="M9.63264 19.9936C9.66006 19.9976 9.68749 19.9993 9.71435 19.9993C9.99434 19.9993 10.2389 19.7936 10.2794 19.509C10.324 19.1964 10.107 18.9073 9.79435 18.8627L7.78812 18.5759C7.72698 18.9542 7.65556 19.3296 7.56813 19.6987L9.63264 19.9936Z" fill="#E64C3C"/>
<path d="M5.14822 18.7753C5.10365 19.0879 5.32079 19.3771 5.63336 19.4216L7.56875 19.6982C7.65617 19.3291 7.72697 18.9536 7.78869 18.5753L5.79509 18.2908C5.48364 18.2468 5.19279 18.4639 5.14822 18.7753Z" fill="#C03A2B"/>
<path d="M9.79533 13.1368C10.1078 13.0922 10.325 12.8031 10.2804 12.4905C10.2358 12.1785 9.94503 11.9591 9.63361 12.0059L7.5691 12.3008C7.65653 12.6699 7.72739 13.0453 7.7891 13.4236L9.79533 13.1368Z" fill="#E64C3C"/>
<path d="M5.14822 13.2238C5.18879 13.5084 5.43336 13.7141 5.71335 13.7141C5.74023 13.7141 5.76766 13.7124 5.79509 13.7084L7.78874 13.4238C7.7276 13.0455 7.65617 12.6701 7.56875 12.3009L5.63278 12.5769C5.32079 12.6215 5.10365 12.9112 5.14822 13.2238Z" fill="#C03A2B"/>
<path d="M8.752 9.68508C9.05084 9.58509 9.21313 9.26167 9.11313 8.96225C9.0137 8.66341 8.692 8.49998 8.39029 8.60112L6.49492 9.23316C6.65663 9.57829 6.8092 9.92908 6.94634 10.2874L8.752 9.68508Z" fill="#E64C3C"/>
<path d="M4.60074 10.4661C4.68016 10.7055 4.90302 10.857 5.14243 10.857C5.20186 10.857 5.26301 10.8472 5.323 10.8272L6.94639 10.2861C6.80925 9.92781 6.65668 9.57696 6.49498 9.23183L4.96186 9.74267C4.66244 9.84324 4.50074 10.1667 4.60074 10.4661Z" fill="#C03A2B"/>
<path d="M8.39126 23.3987C8.45126 23.4187 8.5124 23.4279 8.57183 23.4279C8.81125 23.4279 9.0341 23.2764 9.11353 23.037C9.21352 22.7376 9.05182 22.4141 8.7524 22.3141L6.9473 21.7124C6.81017 22.0707 6.6576 22.4216 6.4959 22.7667L8.39126 23.3987Z" fill="#E64C3C"/>
<path d="M4.60074 21.5328C4.50074 21.8322 4.66244 22.1557 4.96186 22.2557L6.49498 22.7665C6.65668 22.4214 6.80925 22.0705 6.94639 21.7122L5.323 21.1712C5.02129 21.0712 4.70073 21.2335 4.60074 21.5328Z" fill="#C03A2B"/>
<path d="M24.0129 15.4281H22.2856C21.9696 15.4281 21.7142 15.6841 21.7142 15.9995C21.7142 16.3149 21.9696 16.5709 22.2856 16.5709H24.0129C24.0066 16.3812 23.9998 16.1909 23.9998 15.9995C23.9998 15.8081 24.0066 15.6178 24.0129 15.4281Z" fill="#E64C3C"/>
<path d="M26.2849 15.9995C26.2849 15.6841 26.0295 15.4281 25.7135 15.4281H24.0124C24.0062 15.6178 23.9993 15.8081 23.9993 15.9995C23.9993 16.1909 24.0062 16.3812 24.0124 16.5709H25.7135C26.0295 16.5709 26.2849 16.3149 26.2849 15.9995Z" fill="#C03A2B"/>
<path d="M22.3668 12.0053C22.0542 11.9613 21.7645 12.1778 21.72 12.4898C21.6754 12.8024 21.8925 13.0916 22.2051 13.1361L24.2113 13.423C24.2724 13.0447 24.3439 12.6693 24.4313 12.3001L22.3668 12.0053Z" fill="#E64C3C"/>
<path d="M26.2856 13.7141C26.5656 13.7141 26.8101 13.5084 26.8507 13.2238C26.8953 12.9112 26.6781 12.6221 26.3656 12.5775L24.4302 12.3009C24.3428 12.6701 24.272 13.0455 24.2102 13.4238L26.2039 13.7084C26.2313 13.7124 26.2587 13.7141 26.2856 13.7141Z" fill="#C03A2B"/>
<path d="M22.2042 18.8622C21.8916 18.9067 21.6745 19.1959 21.719 19.5084C21.7602 19.7936 22.0047 19.9993 22.2847 19.9993C22.3116 19.9993 22.339 19.9976 22.3665 19.9936L24.4309 19.6987C24.3435 19.3296 24.2726 18.9542 24.2109 18.5759L22.2042 18.8622Z" fill="#E64C3C"/>
<path d="M26.8507 18.7754C26.8061 18.4634 26.5176 18.244 26.2039 18.2909L24.2102 18.5754C24.2714 18.9537 24.3428 19.3291 24.4302 19.6983L26.3656 19.4217C26.6781 19.3777 26.8953 19.088 26.8507 18.7754Z" fill="#C03A2B"/>
<path d="M23.2474 22.3142C22.9486 22.4142 22.7863 22.7377 22.8863 23.0371C22.9657 23.2765 23.1885 23.4279 23.4279 23.4279C23.4874 23.4279 23.5485 23.4182 23.6085 23.3982L25.5039 22.7662C25.3422 22.4211 25.1896 22.0702 25.0525 21.712L23.2474 22.3142Z" fill="#E64C3C"/>
<path d="M27.3982 21.533C27.2982 21.2341 26.9776 21.0718 26.6753 21.1718L25.052 21.713C25.1891 22.0711 25.3417 22.422 25.5034 22.7671L27.0365 22.2563C27.3365 22.1557 27.4982 21.8323 27.3982 21.533Z" fill="#C03A2B"/>
<path d="M23.6081 8.60035C23.307 8.49978 22.9847 8.66264 22.8853 8.96149C22.7853 9.2609 22.947 9.58432 23.2464 9.68432L25.0516 10.286C25.1887 9.92774 25.3413 9.57689 25.503 9.23176L23.6081 8.60035Z" fill="#E64C3C"/>
<path d="M26.8559 10.8569C27.0953 10.8569 27.3182 10.7055 27.3976 10.4661C27.4976 10.1667 27.3359 9.84322 27.0364 9.74322L25.5034 9.23238C25.3417 9.57751 25.1891 9.92836 25.052 10.2867L26.6753 10.8278C26.7353 10.8478 26.7965 10.8569 26.8559 10.8569Z" fill="#C03A2B"/>
</svg>
