<svg width="32" height="32" viewBox="0 0 32 32" fill="none" xmlns="http://www.w3.org/2000/svg">
<path d="M15.9999 31.9998C24.8364 31.9998 31.9998 24.8364 31.9998 15.9999C31.9998 7.16338 24.8364 0 15.9999 0C7.16338 0 0 7.16338 0 15.9999C0 24.8364 7.16338 31.9998 15.9999 31.9998Z" fill="#E6E6E6"/>
<path d="M32.0001 16C32.0001 11.944 30.4881 8.2429 28.0001 5.42293C26.9967 6.56062 26.1555 7.8429 25.5047 9.2326L27.0378 9.74346C27.3367 9.84346 27.4989 10.1669 27.3989 10.4663C27.3195 10.7057 27.0967 10.8571 26.8572 10.8571C26.7978 10.8571 26.7367 10.8474 26.6767 10.8274L25.0532 10.2863C24.8035 10.9383 24.5949 11.6103 24.4309 12.3006L26.3664 12.5771C26.6789 12.6217 26.8961 12.9109 26.8515 13.2234C26.8109 13.5086 26.5664 13.7143 26.2864 13.7143C26.2595 13.7143 26.2321 13.7126 26.2047 13.7086L24.2109 13.424C24.1047 14.08 24.0372 14.7486 24.0132 15.4291H25.7144C26.0304 15.4291 26.2858 15.6851 26.2858 16.0006C26.2858 16.316 26.0304 16.572 25.7144 16.572H24.0132C24.0372 17.252 24.1047 17.9211 24.2109 18.5771L26.2047 18.2926C26.5184 18.2457 26.8069 18.4651 26.8515 18.7771C26.8961 19.0897 26.6789 19.3789 26.3664 19.4234L24.4309 19.7C24.5944 20.3896 24.8035 21.0622 25.0532 21.7142L26.6767 21.173C26.9784 21.073 27.2995 21.2353 27.3995 21.5342C27.4995 21.8336 27.3378 22.157 27.0384 22.257L25.5052 22.7679C26.1561 24.1576 26.9972 25.4405 28.0007 26.5776C30.4881 23.757 32.0001 20.0559 32.0001 16Z" fill="#CCD6DB"/>
<path d="M6.28566 16.5714C5.96966 16.5714 5.71425 16.3154 5.71425 16C5.71425 15.6846 5.96966 15.4286 6.28566 15.4286H7.9868C7.9628 14.7486 7.89537 14.0794 7.78908 13.4234L5.79539 13.708C5.76796 13.7126 5.74053 13.7143 5.71367 13.7143C5.43367 13.7143 5.1891 13.5086 5.14853 13.224C5.10396 12.9114 5.3211 12.6223 5.63367 12.5777L7.56908 12.3011C7.40565 11.6114 7.19652 10.9389 6.94681 10.2869L5.32339 10.828C5.26339 10.848 5.20225 10.8571 5.14282 10.8571C4.90339 10.8571 4.68053 10.7057 4.6011 10.4663C4.50111 10.1669 4.66282 9.84346 4.96225 9.74346L6.49538 9.2326C5.84453 7.8429 5.00339 6.56005 3.99997 5.42293C1.51199 8.2429 0 11.944 0 16C0 20.0559 1.51199 23.757 3.99997 26.577C5.00339 25.4393 5.84453 24.157 6.49538 22.7673L4.96225 22.2565C4.66339 22.1565 4.50111 21.833 4.6011 21.5336C4.7011 21.2348 5.02167 21.0725 5.32396 21.1725L6.94738 21.7136C7.19709 21.0616 7.40565 20.3896 7.56965 19.6994L5.6331 19.4229C5.32053 19.3783 5.10339 19.0891 5.14796 18.7766C5.19253 18.4646 5.48339 18.2474 5.79482 18.292L7.78851 18.5766C7.8948 17.9206 7.96223 17.252 7.98623 16.5714H6.28566Z" fill="#CCD6DB"/>
<path d="M7.98651 16.5713H9.71393C10.0299 16.5713 10.2853 16.3153 10.2853 15.9999C10.2853 15.6845 10.0299 15.4285 9.71393 15.4285H7.98651C7.9928 15.6182 7.99966 15.8085 7.99966 15.9999C7.99966 16.1913 7.9928 16.3816 7.98651 16.5713Z" fill="#E64C3C"/>
<path d="M5.71431 15.9999C5.71431 16.3153 5.96973 16.5713 6.28573 16.5713H7.98686C7.99314 16.3816 8 16.1913 8 15.9999C8 15.8085 7.99314 15.6182 7.98686 15.4285H6.28573C5.96973 15.4285 5.71431 15.6845 5.71431 15.9999Z" fill="#C03A2B"/>
<path d="M9.63311 19.9941C9.66053 19.9981 9.68796 19.9998 9.71482 19.9998C9.99482 19.9998 10.2394 19.7941 10.2799 19.5095C10.3245 19.1969 10.1074 18.9078 9.79482 18.8632L7.78854 18.5764C7.7274 18.9547 7.65598 19.3301 7.56855 19.6992L9.63311 19.9941Z" fill="#E64C3C"/>
<path d="M5.14858 18.7758C5.10401 19.0884 5.32115 19.3776 5.63373 19.4221L7.56916 19.6986C7.65659 19.3296 7.72739 18.9541 7.78911 18.5758L5.79547 18.2913C5.48401 18.2473 5.19315 18.4644 5.14858 18.7758Z" fill="#C03A2B"/>
<path d="M9.79531 13.1371C10.1078 13.0925 10.325 12.8034 10.2804 12.4908C10.2358 12.1788 9.94502 11.9594 9.63359 12.0062L7.56903 12.3011C7.65646 12.6702 7.72732 13.0456 7.78903 13.4239L9.79531 13.1371Z" fill="#E64C3C"/>
<path d="M5.14858 13.2241C5.18915 13.5087 5.43373 13.7144 5.71373 13.7144C5.74061 13.7144 5.76804 13.7127 5.79547 13.7087L7.78916 13.4241C7.72802 13.0458 7.65659 12.6704 7.56916 12.3012L5.63315 12.5772C5.32115 12.6218 5.10401 12.9115 5.14858 13.2241Z" fill="#C03A2B"/>
<path d="M8.75196 9.68531C9.0508 9.58531 9.21309 9.26188 9.11309 8.96245C9.01366 8.6636 8.69196 8.50018 8.39024 8.60132L6.49482 9.23337C6.65654 9.57851 6.80911 9.9293 6.94625 10.2876L8.75196 9.68531Z" fill="#E64C3C"/>
<path d="M4.60109 10.4663C4.68051 10.7057 4.90337 10.8572 5.14279 10.8572C5.20222 10.8572 5.26337 10.8474 5.32337 10.8274L6.9468 10.2863C6.80965 9.92804 6.65708 9.57718 6.49537 9.23205L4.96222 9.74289C4.66279 9.84346 4.50109 10.1669 4.60109 10.4663Z" fill="#C03A2B"/>
<path d="M8.39096 23.3992C8.45096 23.4192 8.51211 23.4284 8.57154 23.4284C8.81096 23.4284 9.03382 23.2769 9.11325 23.0375C9.21325 22.7381 9.05154 22.4146 8.75211 22.3146L6.94697 21.7129C6.80983 22.0712 6.65726 22.4221 6.49556 22.7672L8.39096 23.3992Z" fill="#E64C3C"/>
<path d="M4.60109 21.5333C4.50109 21.8327 4.66279 22.1562 4.96222 22.2562L6.49537 22.767C6.65708 22.4219 6.80965 22.071 6.9468 21.7127L5.32337 21.1716C5.02165 21.0716 4.70108 21.2339 4.60109 21.5333Z" fill="#C03A2B"/>
<path d="M24.013 15.4285H22.2856C21.9696 15.4285 21.7142 15.6845 21.7142 15.9999C21.7142 16.3153 21.9696 16.5713 22.2856 16.5713H24.013C24.0067 16.3816 23.9999 16.1913 23.9999 15.9999C23.9999 15.8085 24.0067 15.6182 24.013 15.4285Z" fill="#E64C3C"/>
<path d="M26.2855 15.9999C26.2855 15.6845 26.0301 15.4285 25.7141 15.4285H24.0129C24.0067 15.6182 23.9998 15.8085 23.9998 15.9999C23.9998 16.1913 24.0067 16.3816 24.0129 16.5713H25.7141C26.0301 16.5713 26.2855 16.3153 26.2855 15.9999Z" fill="#C03A2B"/>
<path d="M22.3668 12.0056C22.0542 11.9616 21.7645 12.1781 21.72 12.4901C21.6754 12.8027 21.8925 13.0919 22.2051 13.1364L24.2114 13.4233C24.2725 13.045 24.344 12.6696 24.4314 12.3004L22.3668 12.0056Z" fill="#E64C3C"/>
<path d="M26.2862 13.7144C26.5662 13.7144 26.8107 13.5087 26.8513 13.2241C26.8959 12.9115 26.6787 12.6224 26.3662 12.5778L24.4308 12.3012C24.3434 12.6704 24.2726 13.0458 24.2108 13.4241L26.2045 13.7087C26.2319 13.7127 26.2593 13.7144 26.2862 13.7144Z" fill="#C03A2B"/>
<path d="M22.2044 18.8627C21.8918 18.9072 21.6747 19.1964 21.7192 19.5089C21.7604 19.7941 22.0049 19.9998 22.2849 19.9998C22.3118 19.9998 22.3392 19.9981 22.3667 19.9941L24.4312 19.6992C24.3438 19.3301 24.2729 18.9547 24.2112 18.5764L22.2044 18.8627Z" fill="#E64C3C"/>
<path d="M26.8513 18.7759C26.8067 18.4639 26.5182 18.2445 26.2045 18.2914L24.2108 18.5759C24.272 18.9542 24.3434 19.3296 24.4308 19.6988L26.3662 19.4222C26.6787 19.3782 26.8959 19.0885 26.8513 18.7759Z" fill="#C03A2B"/>
<path d="M23.2477 22.3147C22.9488 22.4147 22.7865 22.7382 22.8865 23.0376C22.9659 23.277 23.1888 23.4284 23.4282 23.4284C23.4877 23.4284 23.5488 23.4187 23.6088 23.3987L25.5042 22.7667C25.3425 22.4216 25.1899 22.0707 25.0528 21.7125L23.2477 22.3147Z" fill="#E64C3C"/>
<path d="M27.3986 21.5334C27.2986 21.2346 26.978 21.0723 26.6757 21.1723L25.0523 21.7134C25.1894 22.0716 25.342 22.4225 25.5037 22.7676L27.0369 22.2568C27.3369 22.1562 27.4986 21.8328 27.3986 21.5334Z" fill="#C03A2B"/>
<path d="M23.6089 8.60055C23.3078 8.49998 22.9855 8.66284 22.8861 8.96169C22.7861 9.26111 22.9478 9.58454 23.2472 9.68454L25.0524 10.2862C25.1895 9.92797 25.3421 9.57711 25.5038 9.23197L23.6089 8.60055Z" fill="#E64C3C"/>
<path d="M26.8568 10.8571C27.0962 10.8571 27.3191 10.7057 27.3985 10.4663C27.4985 10.1669 27.3368 9.84344 27.0373 9.74344L25.5042 9.2326C25.3425 9.57773 25.1899 9.92859 25.0528 10.2869L26.6762 10.828C26.7362 10.848 26.7974 10.8571 26.8568 10.8571Z" fill="#C03A2B"/>
</svg>
