<svg width="16" height="16" viewBox="0 0 16 16" fill="none" xmlns="http://www.w3.org/2000/svg">
<path fill-rule="evenodd" clip-rule="evenodd" d="M12.0128 0.503826C12.6952 0.471132 13.3712 0.648601 13.9496 1.0123C14.528 1.376 14.9811 1.90843 15.2477 2.53779C15.4935 3.13398 15.5598 3.78907 15.4384 4.42247C15.317 5.0559 15.0133 5.63995 14.5644 6.10285C13.5712 7.1142 12.5641 8.11305 11.5596 9.11255C11.4828 9.1997 11.3888 9.2702 11.2837 9.31965C11.1785 9.36915 11.0644 9.3965 10.9483 9.40015C10.8321 9.40375 10.7165 9.38355 10.6085 9.34075C10.5004 9.29795 10.4023 9.23345 10.3201 9.15125C10.238 9.06905 10.1735 8.97085 10.1307 8.86275C10.088 8.7547 10.0678 8.63895 10.0714 8.52275C10.075 8.40655 10.1024 8.29235 10.1518 8.18715C10.2013 8.08195 10.2717 7.98795 10.3588 7.91105C11.3069 6.9587 12.2568 6.0078 13.2086 5.05835C13.4609 4.84585 13.6425 4.56158 13.7295 4.24331C13.8165 3.92504 13.8047 3.58783 13.6956 3.27645C13.6119 3.03403 13.4708 2.81551 13.2842 2.63966C13.0977 2.46381 12.8712 2.33586 12.6244 2.2668C12.3776 2.19773 12.1177 2.18961 11.867 2.24313C11.6163 2.29665 11.3824 2.41021 11.1852 2.57407C11.0646 2.67352 10.9495 2.77984 10.8383 2.89117C9.92063 3.80808 9.00488 4.72875 8.08408 5.64315C8.00748 5.72935 7.91418 5.79915 7.80988 5.84835C7.70558 5.89755 7.59243 5.9251 7.47718 5.92935C7.36198 5.93365 7.24708 5.9145 7.13943 5.8732C7.03178 5.83185 6.93358 5.76915 6.85078 5.6888C6.76773 5.60835 6.70203 5.5116 6.65783 5.4047C6.61363 5.29775 6.59188 5.1829 6.59388 5.0672C6.59583 4.9515 6.62158 4.83745 6.66943 4.73211C6.71728 4.62676 6.78623 4.53238 6.87203 4.4548C7.88283 3.43532 8.89108 2.41145 9.92063 1.4101C10.4716 0.844206 11.2239 0.519321 12.0134 0.506331L12.0128 0.503826Z" fill="#737373"/>
<path fill-rule="evenodd" clip-rule="evenodd" d="M3.78653 15.4983C3.13322 15.5015 2.49398 15.3085 1.95142 14.9443C1.40885 14.5802 0.987905 14.0616 0.742965 13.4556C0.499395 12.854 0.437261 12.1941 0.564235 11.5576C0.691205 10.921 1.00172 10.3356 1.45744 9.87364C2.43509 8.88479 3.42148 7.90409 4.40537 6.92274C4.48031 6.82834 4.57436 6.75089 4.68133 6.69544C4.7883 6.63999 4.90578 6.60779 5.02605 6.60099C5.14635 6.59414 5.2667 6.61284 5.37925 6.65584C5.4918 6.69884 5.594 6.76519 5.6791 6.85049C5.76425 6.93579 5.8304 7.03814 5.8732 7.15084C5.916 7.26349 5.9345 7.38399 5.9275 7.50434C5.92045 7.62464 5.8881 7.74214 5.8325 7.84909C5.77695 7.95604 5.69935 8.05004 5.6049 8.12484C4.6702 9.06429 3.73257 10.0025 2.79201 10.9394C2.54699 11.1452 2.36749 11.4182 2.27564 11.7249C2.18378 12.0315 2.18358 12.3583 2.27506 12.665C2.34698 12.9191 2.48191 13.1509 2.66731 13.3389C2.85271 13.5269 3.08259 13.665 3.33558 13.7403C3.58857 13.8156 3.85648 13.8257 4.11443 13.7697C4.37238 13.7137 4.61201 13.5934 4.81106 13.4199C5.6118 12.7007 6.35065 11.9145 7.11515 11.1558C7.38955 10.8844 7.65895 10.6054 7.93715 10.3365C8.09265 10.1763 8.30455 10.0834 8.5276 10.0774C8.7507 10.0714 8.96725 10.153 9.13105 10.3046C9.2145 10.3815 9.2814 10.4745 9.3278 10.5781C9.37415 10.6817 9.399 10.7936 9.4008 10.9071C9.4026 11.0206 9.38135 11.1332 9.3383 11.2382C9.2953 11.3433 9.23135 11.4384 9.15045 11.5179C8.1159 12.5687 7.0795 13.6157 6.025 14.6452C5.72695 14.9287 5.3756 15.15 4.99131 15.2965C4.60704 15.4429 4.19752 15.5115 3.78653 15.4983Z" fill="#737373"/>
<path fill-rule="evenodd" clip-rule="evenodd" d="M4.86772 10.2933C4.86352 10.1777 4.88423 10.0626 4.92845 9.9558C4.97268 9.84895 5.03935 9.75285 5.124 9.6741C6.63965 8.15595 8.15675 6.6392 9.6753 5.12395C9.7538 5.04525 9.84705 4.98283 9.9497 4.94019C10.0523 4.89756 10.1623 4.87558 10.2735 4.87549C10.3846 4.8754 10.4947 4.89722 10.5974 4.93969C10.7001 4.98216 10.7934 5.04445 10.872 5.123C10.9507 5.2016 11.0131 5.29485 11.0557 5.39755C11.0983 5.50025 11.1203 5.61035 11.1204 5.72155C11.1204 5.8327 11.0986 5.94285 11.0562 6.0456C11.0137 6.14835 10.9515 6.24175 10.873 6.32045C9.3619 7.84445 7.84585 9.3622 6.3248 10.8737C6.20515 11.0046 6.0466 11.0935 5.8726 11.1272C5.69855 11.161 5.5183 11.1379 5.3584 11.0614C5.20785 11.0002 5.07995 10.8939 4.99218 10.757C4.90444 10.6202 4.86118 10.4595 4.86835 10.2971L4.86772 10.2933Z" fill="#737373"/>
</svg>
