<svg width="40" height="40" viewBox="0 0 40 40" fill="none" xmlns="http://www.w3.org/2000/svg">
<path d="M16.8416 9.42288L19.3142 3.34205C19.7342 2.30908 19.0088 1.17721 17.8912 1.14307C17.0048 1.14307 16.2862 1.86166 16.2862 2.74798V1.64338C16.2862 0.773146 15.6096 0.0319765 14.7398 0.00103912C13.8268 -0.0313827 13.0765 0.699084 13.0765 1.60493V2.74798C13.0765 1.86158 12.3579 1.14307 11.4715 1.14307C10.3527 1.17283 9.62927 2.31079 10.0486 3.34205L12.5212 9.42288C5.83428 11.403 0 20.4532 0 25.9112C0 32.1509 6.5731 32.0078 14.6813 32.0078C22.7897 32.0078 29.3628 32.1509 29.3628 25.9112C29.3628 20.4532 23.5286 11.403 16.8416 9.42288Z" fill="#836DA6"/>
<path d="M16.8431 9.42361L19.3158 3.34278C19.7358 2.30981 19.0103 1.17794 17.8928 1.1438C17.2017 1.1438 16.6142 1.58153 16.3882 2.19427C16.4009 2.35981 16.3709 2.54442 16.2878 2.74872L13.6237 9.42361C20.3108 11.4038 26.1449 20.4539 26.1449 25.9119C26.1449 31.7329 20.4241 31.9989 13.0732 32.0084C13.602 32.0092 14.1388 32.0084 14.6828 32.0084C22.7912 32.0084 29.3642 32.1514 29.3642 25.9119C29.3643 20.4539 23.53 11.4038 16.8431 9.42361Z" fill="#745B9C"/>
<path d="M13.0676 2.57812V2.74983C13.0676 2.71828 13.0705 2.68742 13.0722 2.65632C13.0708 2.63022 13.0703 2.60389 13.0676 2.57812Z" fill="#745B9C"/>
<path d="M18.7233 10.0695H10.6401C9.90592 10.0695 9.31076 9.47431 9.31076 8.74016C9.31076 8.00603 9.90592 7.41087 10.6401 7.41087H18.7233C19.4574 7.41087 20.0526 8.00603 20.0526 8.74016C20.0526 9.47431 19.4574 10.0695 18.7233 10.0695Z" fill="#F683AE"/>
<path d="M18.7227 7.41087H15.5034C16.2375 7.41087 16.8327 8.00603 16.8327 8.74016C16.8327 9.47431 16.2375 10.0695 15.5034 10.0695H18.7227C19.4569 10.0695 20.0521 9.47431 20.0521 8.74016C20.052 8.00603 19.4569 7.41087 18.7227 7.41087Z" fill="#F26D9F"/>
<path d="M32.0397 32.677C36.436 32.677 40 29.1131 40 24.7168C40 20.3205 36.436 16.7565 32.0397 16.7565C27.6434 16.7565 24.0795 20.3205 24.0795 24.7168C24.0795 29.1131 27.6434 32.677 32.0397 32.677Z" fill="#FFC72E"/>
<path d="M32.9449 30.3447C36.0513 29.841 38.1613 26.9144 37.6576 23.8081C37.1541 20.7018 34.2275 18.5917 31.1213 19.0952C28.0149 19.5988 25.9049 22.5253 26.4084 25.6317C26.912 28.738 29.8384 30.848 32.9449 30.3447Z" fill="#FFED75"/>
<path d="M32.0392 19.0173C31.4802 19.0173 30.9403 19.0995 30.4296 19.2503C32.7901 19.9466 34.5185 22.1326 34.5185 24.7159C34.5185 27.2993 32.7901 29.4852 30.4296 30.1816C30.9402 30.3324 31.4802 30.4146 32.0392 30.4146C35.1813 30.4146 37.7378 27.8581 37.7378 24.7159C37.7378 21.5736 35.1813 19.0173 32.0392 19.0173Z" fill="#FCE547"/>
<path d="M32.7012 24.1207C32.4237 24.0224 31.4873 23.8172 31.5681 23.3887C31.6497 22.9544 32.2222 22.9932 32.5187 23.1841C33.1312 23.6132 33.8833 22.8692 33.3367 22.2972C33.1939 22.1653 32.9406 22.0058 32.6121 21.9142V21.8377C32.6121 21.5042 32.3417 21.2341 32.0083 21.2341C31.6751 21.2341 31.4047 21.5042 31.4047 21.8377V21.9513C30.8791 22.1342 30.4894 22.5931 30.3816 23.1649C30.1473 24.4078 31.3423 24.9207 32.2989 25.2588C32.9446 25.4871 32.5817 26.3318 32.0044 26.3358C31.5794 26.3383 31.4696 26.321 31.1556 26.1157C30.5023 25.6884 29.8416 26.6987 30.4947 27.1259C30.8371 27.3499 31.1063 27.4577 31.4047 27.5064V27.5933C31.4047 27.9268 31.6749 28.1969 32.0083 28.1969C32.3416 28.1969 32.6119 27.9268 32.6119 27.5933V27.4407C33.2912 27.206 33.7262 26.5992 33.8271 25.9987C33.9674 25.1629 33.5151 24.4082 32.7012 24.1207Z" fill="#FFC72E"/>
<path d="M21.6211 40C26.0176 40 29.5815 36.436 29.5815 32.0397C29.5815 27.6434 26.0176 24.0795 21.6211 24.0795C17.2248 24.0795 13.6608 27.6434 13.6608 32.0397C13.6608 36.436 17.2248 40 21.6211 40Z" fill="#FFC72E"/>
<path d="M22.6336 37.6332C25.74 37.1298 27.85 34.2033 27.3464 31.0969C26.8429 27.9904 23.9164 25.8804 20.8101 26.384C17.7036 26.8875 15.5936 29.814 16.0972 32.9204C16.6007 36.0269 19.5273 38.1369 22.6336 37.6332Z" fill="#FFED75"/>
<path d="M21.731 26.3097C21.1721 26.3097 20.6324 26.392 20.1215 26.5427C22.482 27.2391 24.2105 29.4251 24.2105 32.0083C24.2105 34.5917 22.4821 36.7777 20.1215 37.4741C20.6321 37.6248 21.1721 37.7071 21.731 37.7071C24.8734 37.7071 27.4297 35.1505 27.4297 32.0083C27.4297 28.8661 24.8734 26.3097 21.731 26.3097Z" fill="#FCE547"/>
<path d="M22.2855 31.4437C22.0078 31.3454 21.0716 31.1403 21.1523 30.7118C21.234 30.2777 21.8065 30.3163 22.103 30.507C22.7155 30.9363 23.4676 30.1922 22.9209 29.6203C22.7781 29.4884 22.5248 29.3288 22.1961 29.2372V29.1608C22.1961 28.8272 21.926 28.557 21.5926 28.557C21.2593 28.557 20.989 28.8273 20.989 29.1608V29.2744C20.4633 29.4572 20.0737 29.9162 19.9658 30.488C19.7316 31.7309 20.9266 32.2438 21.8831 32.5819C22.5287 32.8102 22.166 33.6549 21.5886 33.6588C21.1637 33.6614 21.0538 33.6442 20.7398 33.4388C20.0866 33.0117 19.4258 34.0218 20.079 34.449C20.4211 34.6729 20.6905 34.7808 20.989 34.8296V34.9164C20.989 35.2499 21.2591 35.52 21.5926 35.52C21.9258 35.52 22.1961 35.2498 22.1961 34.9164V34.7638C22.8753 34.5291 23.3103 33.9223 23.4111 33.3218C23.5517 32.486 23.0993 31.7313 22.2855 31.4437Z" fill="#FFC72E"/>
<path d="M30.5283 6.57835C30.195 6.57835 29.9247 6.84859 29.9247 7.18195V13.6207C29.9247 13.9541 30.195 14.2242 30.5283 14.2242C30.8616 14.2242 31.132 13.9541 31.132 13.6207V7.18201C31.1321 6.84859 30.8617 6.57835 30.5283 6.57835Z" fill="#F1F0F7"/>
<path d="M33.5538 2.18505C33.2205 2.18505 32.9503 2.45528 32.9503 2.78864V13.6211C32.9503 13.9546 33.2206 14.2247 33.5538 14.2247C33.8873 14.2247 34.1576 13.9545 34.1576 13.6211V2.78864C34.1576 2.45528 33.8873 2.18505 33.5538 2.18505Z" fill="#F1F0F7"/>
<path d="M22.3351 21.4824C22.0017 21.4824 21.7316 21.212 21.7316 20.8788V18.068C21.7316 17.7347 22.0019 17.4645 22.3351 17.4645C22.6686 17.4645 22.9387 17.7348 22.9387 18.068V20.8788C22.9389 21.212 22.6686 21.4824 22.3351 21.4824Z" fill="#F1F0F7"/>
<path d="M19.1962 21.4831C18.8628 21.4831 18.5925 21.2127 18.5925 20.8794V15.1812C18.5925 14.8477 18.8628 14.5776 19.1962 14.5776C19.5295 14.5776 19.7998 14.8478 19.7998 15.1812V20.8794C19.7998 21.2127 19.5295 21.4831 19.1962 21.4831Z" fill="#F1F0F7"/>
</svg>
