<svg width="230" height="51" viewBox="0 0 230 51" fill="none" xmlns="http://www.w3.org/2000/svg">
<g clip-path="url(#clip0_1_441)">
<path d="M69.8201 34.4192C74.3259 34.4192 76.1563 32.3635 76.1563 29.1813C76.1563 26.5623 74.354 24.8163 70.5804 24.6755V24.3939C74.0161 24.253 75.2833 22.5352 75.2833 20.1134C75.2833 17.1564 73.2557 15.5512 69.1724 15.5512H57.1757V34.4192H69.8201ZM62.4418 20.3105H68.4683C69.5666 20.3105 69.989 20.6484 69.989 21.5214C69.989 22.3944 69.6793 22.7042 68.6091 22.7042H62.4418V20.3105ZM62.4418 27.041H69.1442C70.4396 27.041 70.8057 27.2945 70.8057 28.3364C70.8057 29.4065 70.4115 29.66 69.1442 29.66H62.4418V27.041ZM95.1614 34.4192V29.66H83.6998V27.2945H94.739V22.5634H83.6998V20.3105H95.1614V15.5512H78.4055V34.4192H95.1614ZM109.339 34.4192V20.3105H115.985V15.5512H97.3703V20.3105H104.045V34.4192H109.339ZM131.034 34.4192C135.54 34.4192 137.371 32.3635 137.371 29.1813C137.371 26.5623 135.568 24.8163 131.795 24.6755V24.3939C135.23 24.253 136.498 22.5352 136.498 20.1134C136.498 17.1564 134.47 15.5512 130.387 15.5512H118.39V34.4192H131.034ZM123.656 20.3105H129.683C130.781 20.3105 131.203 20.6484 131.203 21.5214C131.203 22.3944 130.894 22.7042 129.823 22.7042H123.656V20.3105ZM123.656 27.041H130.359C131.654 27.041 132.02 27.2945 132.02 28.3364C132.02 29.4065 131.626 29.66 130.359 29.66H123.656V27.041ZM149.786 34.7009C156.516 34.7009 160.346 30.8709 160.346 24.9852C160.346 19.0995 156.516 15.2696 149.786 15.2696C143.224 15.2696 139.338 19.0995 139.338 24.9852C139.338 30.8709 143.224 34.7009 149.786 34.7009ZM149.786 29.6318C145.956 29.6318 144.97 28.7307 144.97 24.9852C144.97 21.2398 145.956 20.3386 149.786 20.3386C153.616 20.3386 154.714 21.2398 154.714 24.9852C154.714 28.7307 153.616 29.6318 149.786 29.6318ZM167.701 34.4192L169.165 30.9273H178.12L179.556 34.4192H185.639L177.473 15.5512H169.897L161.759 34.4192H167.701ZM172.263 23.5209L173.474 20.3386H173.84L175.079 23.5209L176.177 26.168H171.164L172.263 23.5209ZM192.626 34.4192V27.9985H194.795C196.851 27.9985 197.414 28.3927 198.09 29.8008L200.343 34.4192H206.454L204.116 29.6882C203.412 28.2519 202.793 27.3226 200.849 26.8157V26.5341C204.454 26.0835 205.947 24.3094 205.947 21.3243C205.947 17.6352 203.328 15.5512 198.343 15.5512H187.332V34.4192H192.626ZM192.626 20.3105H198.287C199.836 20.3105 200.399 20.6766 200.399 22.1691C200.399 23.7743 199.836 24.0559 198.287 24.0559H192.626V20.3105ZM218.281 34.4192C224.505 34.4192 228.447 30.9554 228.447 24.9852C228.447 19.0151 224.505 15.5512 218.281 15.5512H208.735V34.4192H218.281ZM218.281 20.3105C221.632 20.3105 222.787 20.7329 222.787 24.9852C222.787 29.2376 221.632 29.66 218.281 29.66H214.029V20.3105H218.281Z" fill="white"/>
<mask id="mask0_1_441" style="mask-type:luminance" maskUnits="userSpaceOnUse" x="0" y="4" width="43" height="45">
<path d="M42.2502 4.69353H0.00842358V48.4998H42.2502V4.69353Z" fill="white"/>
</mask>
<g mask="url(#mask0_1_441)">
<path d="M1.72952 5.53155H32.2553L38.2657 14.9825L32.6053 23.5057L41.2117 35.7567L32.3683 47.6611H1.72952L10.9228 35.8741L1.72952 23.5057L7.85838 14.5186L1.72952 5.53155Z" stroke="white" stroke-width="3.12875" stroke-miterlimit="10"/>
<path d="M7.85847 14.5191H38.2657" stroke="white" stroke-width="3.12875" stroke-miterlimit="10"/>
<path d="M1.72952 23.5058H32.6053" stroke="white" stroke-width="3.12875" stroke-miterlimit="10"/>
<path d="M10.9233 35.8742L41.2122 35.7569" stroke="white" stroke-width="3.12875" stroke-miterlimit="10"/>
</g>
</g>
<defs>
<clipPath id="clip0_1_441">
<rect width="229.963" height="50.06" fill="white" transform="translate(0.00842358)"/>
</clipPath>
</defs>
</svg>
