<svg width="32" height="32" viewBox="0 0 32 32" fill="none" xmlns="http://www.w3.org/2000/svg">
<path d="M16.1966 29.8739C24.2099 29.8739 30.706 23.447 30.706 15.5189C30.706 7.59089 24.2099 1.16394 16.1966 1.16394C8.18331 1.16394 1.68726 7.59089 1.68726 15.5189C1.68726 23.447 8.18331 29.8739 16.1966 29.8739Z" fill="#E6E7E8"/>
<path fill-rule="evenodd" clip-rule="evenodd" d="M1.20239 15.5189C1.20239 7.31826 7.92042 0.679108 16.1965 0.679108C24.4727 0.679108 31.1909 7.31826 31.1909 15.5189C31.1909 23.7197 24.4727 30.3588 16.1965 30.3588C7.92042 30.3588 1.20239 23.7197 1.20239 15.5189ZM16.1965 1.64881C8.44617 1.64881 2.17209 7.86356 2.17209 15.5189C2.17209 23.1744 8.44616 29.3891 16.1965 29.3891C23.947 29.3891 30.2212 23.1744 30.2212 15.5189C30.2212 7.86356 23.947 1.64881 16.1965 1.64881Z" fill="#ECF0F1"/>
<path d="M19.8803 19.974H13.178L10.8745 14.0339L16.378 10.074L21.8815 14.0339L19.8803 19.974Z" fill="#38454F"/>
<path d="M13.5998 19.5309C13.3526 19.4081 13.0519 19.5076 12.9284 19.7522L12.7047 20.1952C12.5811 20.4397 12.6812 20.7373 12.9284 20.8595C13.0004 20.8951 13.0764 20.9114 13.1515 20.9114C13.3352 20.9114 13.5117 20.8115 13.5998 20.6378L13.8234 20.1947C13.9475 19.9507 13.8474 19.6536 13.5998 19.5309Z" fill="#38454F"/>
<path d="M12.7045 21.302C12.4575 21.1793 12.1573 21.2788 12.0332 21.5233L11.8095 21.9664C11.686 22.2108 11.7861 22.5083 12.0332 22.6306C12.1053 22.6663 12.1813 22.6826 12.2564 22.6826C12.4399 22.6826 12.6166 22.5826 12.7045 22.4088L12.9283 21.9659C13.0524 21.7218 12.9523 21.4243 12.7045 21.302Z" fill="#38454F"/>
<path d="M20.5518 20.1952L20.3282 19.7522C20.2041 19.5071 19.9044 19.4081 19.6568 19.5308C19.4096 19.6531 19.3095 19.9507 19.4331 20.1952L19.6568 20.6381C19.7448 20.8119 19.9209 20.912 20.1051 20.912C20.1801 20.912 20.2567 20.8951 20.3282 20.86C20.5754 20.7372 20.6754 20.4396 20.5518 20.1952Z" fill="#38454F"/>
<path d="M21.2231 21.5233C21.0995 21.2783 20.7988 21.1793 20.5516 21.3021C20.3045 21.4243 20.2044 21.7218 20.328 21.9663L20.5516 22.4093C20.6398 22.5831 20.8159 22.6831 20.9999 22.6831C21.075 22.6831 21.1516 22.6662 21.2231 22.6311C21.4702 22.5089 21.5703 22.2114 21.4466 21.9668L21.2231 21.5233Z" fill="#38454F"/>
<path d="M9.86884 13.0692L9.40901 12.8742C9.15434 12.7662 8.86015 12.8825 8.75208 13.134C8.64302 13.3849 8.76109 13.6765 9.01425 13.7839L9.47404 13.9789C9.53858 14.0062 9.60563 14.0195 9.6717 14.0195C9.86582 14.0195 10.0505 13.9067 10.1315 13.7196C10.2406 13.4676 10.1225 13.177 9.86884 13.0692Z" fill="#38454F"/>
<path d="M8.02981 12.2891L7.57002 12.0941C7.31534 11.9871 7.02116 12.103 6.9131 12.354C6.80402 12.6048 6.92209 12.896 7.17526 13.0038L7.63505 13.1988C7.6996 13.2261 7.76663 13.2395 7.83269 13.2395C8.0268 13.2395 8.21142 13.1266 8.29248 12.9396C8.40105 12.6881 8.28297 12.3965 8.02981 12.2891Z" fill="#38454F"/>
<path d="M16.3778 6.11392C16.1012 6.11392 15.8776 6.33568 15.8776 6.60892V7.10392C15.8776 7.37716 16.1012 7.59892 16.3778 7.59892C16.6545 7.59892 16.8782 7.37716 16.8782 7.10392V6.60892C16.8782 6.33568 16.6545 6.11392 16.3778 6.11392Z" fill="#38454F"/>
<path d="M16.3778 8.09396C16.1012 8.09396 15.8776 8.31572 15.8776 8.58896V9.08397C15.8776 9.35717 16.1012 9.57894 16.3778 9.57894C16.6545 9.57894 16.8782 9.35717 16.8782 9.08397V8.58896C16.8782 8.31572 16.6545 8.09396 16.3778 8.09396Z" fill="#38454F"/>
<path d="M23.3472 12.8742L22.8874 13.0692C22.6337 13.177 22.5161 13.4682 22.6252 13.7191C22.7063 13.9067 22.8909 14.0191 23.085 14.0191C23.1511 14.0191 23.2182 14.0062 23.2827 13.9785L23.7425 13.7835C23.9961 13.6761 24.1136 13.3845 24.0046 13.1336C23.8955 12.8821 23.6014 12.7658 23.3472 12.8742Z" fill="#38454F"/>
<path d="M25.8436 12.354C25.7346 12.1019 25.4404 11.9866 25.1867 12.094L24.7268 12.2891C24.4732 12.3965 24.3556 12.6881 24.4647 12.9391C24.5458 13.1266 24.7303 13.2389 24.9246 13.2389C24.9905 13.2389 25.0576 13.2261 25.1221 13.1985L25.5819 13.0034C25.8351 12.896 25.9526 12.6049 25.8436 12.354Z" fill="#38454F"/>
<path d="M12.6166 1.65399L11.3674 3.43104L16.3781 6.60894L20.881 3.20236L19.7473 1.59855C18.6391 1.32284 17.4803 1.17334 16.2875 1.16592C15.0182 1.17384 13.7884 1.34363 12.6166 1.65399Z" fill="#435159"/>
<path d="M26.1995 7.10394L25.3839 12.549L30.3907 15.5571L30.6923 14.9874C30.5878 12.1564 29.6562 9.53538 28.1277 7.35343L26.1995 7.10394Z" fill="#435159"/>
<path d="M26.7862 25.3269L26.8847 22.9459L21.3812 22.9439L18.9832 28.1935L21.0575 29.0458C23.2618 28.2702 25.2192 26.9822 26.7862 25.3269Z" fill="#435159"/>
<path d="M11.8751 22.9439L5.87122 22.9459L5.97828 25.5239C7.53628 27.1089 9.46052 28.3379 11.6169 29.079L13.7728 28.1935L11.8751 22.9439Z" fill="#435159"/>
<path d="M7.37215 12.549L6.55662 7.10394L4.42825 7.37916C2.9673 9.47451 2.05523 11.9718 1.89612 14.67L2.36592 15.5571L7.37215 12.549Z" fill="#435159"/>
</svg>
