<svg width="12" height="12" viewBox="0 0 12 12" fill="none" xmlns="http://www.w3.org/2000/svg">
<path d="M11.6482 11.201C11.7368 11.2132 11.8188 11.2546 11.8813 11.3187C11.9437 11.3828 11.9829 11.4659 11.9927 11.5548C12.0025 11.6437 11.9824 11.7334 11.9354 11.8095C11.8885 11.8857 11.8175 11.944 11.7336 11.9752C11.7168 11.9813 11.6949 11.9785 11.6832 11.9981H0.315874C0.140317 11.9607 0.0296593 11.8543 0.000244141 11.6717V0.339426C0.0221888 0.325417 0.010983 0.300669 0.0170528 0.281524C0.0437222 0.198834 0.0963141 0.126932 0.167039 0.0764707C0.237764 0.0260093 0.32286 -0.000328709 0.409723 0.00135798C0.495313 0.00403391 0.577787 0.0340997 0.645024 0.0871357C0.712258 0.140172 0.760708 0.21338 0.783249 0.296C0.787918 0.314677 0.792122 0.333822 0.79679 0.3525C0.81065 0.389265 0.815608 0.428786 0.811262 0.467835V5.17605C0.811262 5.31097 0.811262 5.44545 0.811262 5.57992C0.812698 5.58619 0.81506 5.59215 0.818267 5.5977C0.84815 5.62009 0.883168 5.60374 0.915384 5.61075C0.956004 5.62057 0.998027 5.61821 1.03865 5.62477C1.08954 5.63456 1.14137 5.63599 1.19226 5.6439C1.25296 5.65324 1.31412 5.66119 1.37482 5.67146C1.39957 5.67754 1.42478 5.67941 1.44953 5.68361C1.51116 5.69527 1.57279 5.70649 1.63629 5.71864C1.6717 5.72899 1.70772 5.73709 1.74415 5.7429C1.82119 5.763 1.89869 5.78167 1.9776 5.8008C2.00551 5.81137 2.03425 5.81966 2.06351 5.82555C2.13635 5.85169 2.21199 5.86852 2.28482 5.89511C2.32871 5.91195 2.37354 5.925 2.41836 5.94184C2.50147 5.97637 2.58738 6.00532 2.67142 6.03847C2.71438 6.06135 2.7606 6.07631 2.80449 6.09686C2.90534 6.14355 3.0076 6.18742 3.10705 6.23692C3.15981 6.26261 3.2079 6.2967 3.26159 6.32006C3.3956 6.3957 3.5296 6.47179 3.6594 6.55354C3.73271 6.6063 3.81022 6.65344 3.88353 6.70714C4.42863 7.0956 4.90518 7.57219 5.29357 8.11732C5.34633 8.19064 5.39489 8.26721 5.44672 8.34146C5.52749 8.47267 5.61059 8.60201 5.68019 8.73881C5.70352 8.793 5.73854 8.84014 5.76329 8.89339C5.81373 8.99284 5.85667 9.09416 5.90335 9.19594C5.92345 9.23985 5.93977 9.2856 5.96174 9.32902C5.99253 9.41404 6.02755 9.49714 6.05883 9.58211C6.07237 9.6288 6.08733 9.67129 6.10319 9.7152C6.12888 9.78802 6.14988 9.86321 6.17275 9.93607C6.17909 9.96521 6.18738 9.99394 6.1975 10.022C6.21573 10.0995 6.23628 10.1765 6.2554 10.2555C6.26163 10.2918 6.26973 10.3278 6.2797 10.3633C6.29137 10.425 6.30397 10.4861 6.31469 10.5478C6.31938 10.5725 6.32077 10.5982 6.32733 10.6225C6.33667 10.6832 6.346 10.7439 6.35485 10.8051C6.36187 10.8559 6.36468 10.9073 6.37353 10.9582C6.38009 10.9993 6.37822 11.0409 6.38755 11.0815C6.39408 11.1137 6.3796 11.1487 6.39967 11.179C6.40518 11.1828 6.41137 11.1855 6.41789 11.187C8.12305 11.1903 9.8263 11.187 11.5324 11.187C11.5716 11.1821 11.6113 11.187 11.6482 11.201Z" fill="white"/>
</svg>
