<svg width="24" height="24" viewBox="0 0 24 24" fill="none" xmlns="http://www.w3.org/2000/svg">
<path d="M11.625 23.25C18.0453 23.25 23.25 18.0453 23.25 11.625C23.25 5.20469 18.0453 0 11.625 0C5.20469 0 0 5.20469 0 11.625C0 18.0453 5.20469 23.25 11.625 23.25Z" fill="#078830"/>
<path fill-rule="evenodd" clip-rule="evenodd" d="M13.1132 19.2747C13.079 19.2747 13.0332 19.2633 12.9989 19.2747C12.9647 19.2747 12.9304 19.2862 12.8846 19.2862C12.8504 19.2862 12.8047 19.2747 12.7704 19.2862C12.7361 19.2976 12.7247 19.3205 12.6904 19.3319C12.6561 19.3547 12.6218 19.3661 12.5647 19.3661C12.5075 19.3661 12.4504 19.3661 12.3932 19.3776C12.3361 19.389 12.2904 19.4233 12.2561 19.4233C12.2104 19.4119 12.1761 19.3661 12.1418 19.3319C12.1075 19.2976 12.0732 19.2633 12.0504 19.229C12.0161 19.1948 11.9818 19.1376 11.9589 19.1033C11.9361 19.0691 11.9132 19.0347 11.9246 19.0233C11.9361 19.0119 11.9933 19.0004 12.0161 18.9662C12.0275 18.9319 12.0047 18.8519 11.9704 18.7833C11.9361 18.7148 11.8904 18.6576 11.8332 18.5776C11.7761 18.4976 11.7418 18.3833 11.6961 18.2919C11.6504 18.2005 11.6161 18.1319 11.5704 18.0747C11.5247 18.0176 11.4561 17.9719 11.4104 17.9033C11.3647 17.8347 11.3189 17.7319 11.2961 17.6519C11.2733 17.5719 11.2733 17.5033 11.2618 17.4461C11.2504 17.3891 11.2504 17.3319 11.2275 17.2748C11.2046 17.2176 11.1818 17.1376 11.1818 17.0576C11.1818 16.9776 11.1932 16.8862 11.159 16.7833C11.1247 16.6805 11.0447 16.5776 10.9989 16.509C10.9532 16.4405 10.9304 16.4062 10.8961 16.349C10.8618 16.2919 10.8275 16.2233 10.7933 16.1547C10.7589 16.0976 10.7361 16.0405 10.7018 16.0061C10.6675 15.9605 10.6447 15.9262 10.6104 15.9033C10.5761 15.8804 10.5647 15.8348 10.5533 15.789C10.5418 15.7433 10.5418 15.6862 10.5533 15.629C10.5647 15.5719 10.5761 15.5147 10.5761 15.4691C10.5761 15.4233 10.5647 15.4004 10.5647 15.3776C10.5647 15.3548 10.5875 15.3433 10.6104 15.3205C10.6218 15.2976 10.6332 15.2633 10.6447 15.2291C10.6561 15.1947 10.6675 15.1719 10.679 15.1262C10.6904 15.0805 10.6904 15.0119 10.7018 14.9547C10.7132 14.8976 10.7246 14.8748 10.7361 14.829C10.7475 14.7833 10.7589 14.7605 10.7704 14.7262C10.7933 14.6919 10.8161 14.6576 10.8504 14.6348C10.8847 14.6119 10.919 14.6119 10.9418 14.589C10.9646 14.5661 10.9761 14.5205 10.9761 14.4519C10.9761 14.3833 10.9761 14.3033 10.9532 14.2347C10.9304 14.1662 10.8847 14.1205 10.8618 14.0633C10.8275 13.9947 10.8047 13.9148 10.8161 13.8576C10.8161 13.8005 10.8504 13.7547 10.8504 13.7204C10.8504 13.6862 10.8275 13.6519 10.8047 13.5947C10.7933 13.5376 10.7933 13.469 10.7704 13.4005C10.7475 13.3319 10.7018 13.2633 10.6675 13.1948C10.6332 13.1261 10.6104 13.0691 10.5989 13.0233C10.5875 12.9776 10.5761 12.9548 10.5189 12.8862C10.4618 12.8176 10.3475 12.7148 10.2561 12.6119C10.1761 12.5204 10.1189 12.429 10.0733 12.3605C10.0275 12.2919 9.98183 12.2348 9.94748 12.189C9.9132 12.1433 9.9018 12.0976 9.9132 12.0404C9.92468 11.9833 9.94748 11.9147 9.97035 11.8462C9.99323 11.7776 9.99323 11.6976 9.99323 11.6405C9.99323 11.5833 9.99323 11.549 10.0161 11.5148C10.0389 11.4805 10.0733 11.4347 10.0961 11.3662C10.1189 11.2976 10.1189 11.2176 10.1075 11.1605C10.0961 11.1033 10.0847 11.0804 10.0618 11.0576C10.0504 11.0348 10.0275 11.0119 10.0046 11.0005C9.98183 10.989 9.93608 10.989 9.9132 10.9776C9.8904 10.9547 9.87893 10.9205 9.86753 10.8862C9.85605 10.8519 9.83325 10.829 9.81038 10.829C9.7875 10.829 9.76463 10.8404 9.73035 10.8519C9.69607 10.8633 9.63893 10.8519 9.60465 10.8519C9.57038 10.8519 9.5475 10.8519 9.52463 10.8519C9.50183 10.8519 9.46748 10.8633 9.44468 10.8747C9.4218 10.8862 9.38753 10.8862 9.35325 10.8976C9.3189 10.8976 9.27323 10.8976 9.23895 10.8862C9.20468 10.8633 9.1704 10.829 9.15893 10.7948C9.14753 10.7605 9.13605 10.7147 9.13605 10.6805C9.13605 10.6462 9.13605 10.6233 9.11325 10.6004C9.10178 10.5776 9.0789 10.5662 9.04463 10.5433C9.01035 10.5205 8.97608 10.4861 8.9418 10.4633C8.90753 10.4405 8.89605 10.4291 8.86177 10.4291C8.8275 10.4291 8.78183 10.4519 8.74748 10.4519C8.7132 10.4519 8.67893 10.4291 8.65605 10.4291C8.63325 10.4291 8.61038 10.4519 8.5875 10.4633C8.56463 10.4747 8.51895 10.4747 8.48467 10.4862C8.4504 10.4976 8.40465 10.4976 8.37038 10.509C8.3361 10.509 8.30183 10.509 8.27895 10.5319C8.25608 10.5433 8.24468 10.5776 8.2104 10.6004C8.18753 10.6119 8.14178 10.6119 8.0961 10.6119C8.05035 10.6119 8.00468 10.6119 7.9704 10.6233C7.93605 10.6347 7.90178 10.6576 7.8561 10.6805C7.82183 10.7033 7.77608 10.749 7.7304 10.7719C7.68465 10.7948 7.6389 10.8062 7.59323 10.8176C7.54748 10.829 7.5018 10.829 7.4675 10.8176C7.43322 10.8062 7.41036 10.7833 7.37608 10.7605C7.3418 10.749 7.29608 10.7376 7.23893 10.7376C7.18179 10.7261 7.12465 10.7261 7.07894 10.7147C7.03322 10.7033 7.02179 10.6919 6.98751 10.6919C6.95322 10.6919 6.90751 10.7033 6.8618 10.7147C6.81608 10.7261 6.78179 10.7261 6.73608 10.7261C6.69037 10.7376 6.65608 10.749 6.61037 10.7719C6.56465 10.7948 6.51893 10.829 6.47322 10.8519C6.42751 10.8747 6.3818 10.8862 6.32465 10.8976C6.27893 10.8976 6.22179 10.8976 6.19894 10.8633C6.16465 10.8404 6.15323 10.7948 6.13037 10.7605C6.10751 10.7261 6.07322 10.7147 6.02751 10.6919C5.98179 10.6691 5.93608 10.6233 5.89037 10.589C5.84465 10.5548 5.82179 10.509 5.79893 10.4862C5.76465 10.4633 5.73037 10.4633 5.68465 10.4405C5.65037 10.4176 5.61608 10.3947 5.58179 10.3604C5.54751 10.3262 5.51322 10.2805 5.46751 10.2462C5.4218 10.2119 5.35322 10.1776 5.30751 10.1433C5.26179 10.109 5.23894 10.0862 5.23894 10.0519C5.23894 10.0176 5.26179 9.97185 5.26179 9.93758C5.26179 9.9033 5.25036 9.88043 5.23894 9.84615C5.23894 9.81188 5.23894 9.76613 5.22751 9.74333C5.21608 9.72045 5.1818 9.70905 5.15894 9.69758C5.13608 9.68618 5.13608 9.6519 5.12465 9.64043C5.11322 9.62903 5.09036 9.61763 5.06751 9.60615C5.04465 9.59475 5.02179 9.57188 4.98751 9.549C4.95323 9.52613 4.91894 9.50333 4.90751 9.46905C4.89608 9.4347 4.89608 9.38903 4.88465 9.35475C4.87322 9.33188 4.85036 9.32048 4.81608 9.309C4.78179 9.2976 4.74751 9.27473 4.72465 9.25185C4.7018 9.22905 4.7018 9.20618 4.67894 9.1947C4.65608 9.1833 4.63322 9.16043 4.62179 9.13763C4.61036 9.11475 4.61036 9.10328 4.58751 9.09188C4.57608 9.08048 4.55322 9.069 4.53037 9.04613C4.51894 9.02333 4.50751 8.98905 4.50751 8.96618C4.50751 8.9319 4.51894 8.90903 4.51894 8.87475C4.51894 8.84048 4.51894 8.8062 4.53037 8.77185C4.54179 8.74905 4.56465 8.73758 4.58751 8.7147C4.59893 8.6919 4.59893 8.65763 4.58751 8.62328C4.56465 8.589 4.53037 8.55473 4.50751 8.53185C4.49608 8.50905 4.49608 8.4747 4.51894 8.4519C4.53036 8.42903 4.55322 8.40615 4.56465 8.38328C4.57608 8.36048 4.58751 8.31473 4.59893 8.29185C4.61036 8.25758 4.63322 8.24618 4.65608 8.2119C4.67894 8.18903 4.69037 8.14328 4.69037 8.109C4.69037 8.07473 4.69037 8.04045 4.7018 8.00618C4.71323 7.9719 4.74751 7.93763 4.77037 7.89188C4.79322 7.84613 4.79322 7.81185 4.80465 7.76618C4.81608 7.72043 4.81608 7.66328 4.81608 7.6176C4.81608 7.56045 4.80465 7.5033 4.80465 7.45759C4.80465 7.41188 4.82751 7.37759 4.85036 7.33188C4.86179 7.29759 4.87322 7.25188 4.87322 7.21759C4.87322 7.18331 4.85036 7.14902 4.82751 7.11473C4.80465 7.08045 4.77036 7.04616 4.75894 7.02331C4.74751 7.00045 4.74751 6.96617 4.75894 6.93188C4.77036 6.88616 4.78179 6.84045 4.81608 6.80616C4.85036 6.77188 4.89608 6.77188 4.91894 6.74902C4.9418 6.72617 4.91894 6.68045 4.9418 6.64616C4.95323 6.61187 4.99894 6.58902 5.02179 6.55473C5.04465 6.52045 5.05608 6.46331 5.10179 6.41759C5.13608 6.37188 5.19322 6.34902 5.23894 6.31473C5.28465 6.28045 5.33036 6.24617 5.34179 6.21188C5.35322 6.17759 5.33036 6.15473 5.33036 6.13188C5.33036 6.10902 5.34179 6.08616 5.35322 6.06331C5.36465 6.04045 5.38751 6.01759 5.39894 5.99474C5.41037 5.97188 5.4218 5.96045 5.43322 5.94902C5.44465 5.93759 5.44465 5.91473 5.45608 5.9033C5.46751 5.89188 5.50179 5.88045 5.53608 5.86902C5.55893 5.85759 5.59322 5.82331 5.61608 5.80045C5.63894 5.77759 5.67322 5.75474 5.68465 5.72045C5.69608 5.68616 5.70751 5.65188 5.73037 5.62902C5.75322 5.59474 5.78751 5.57188 5.82179 5.56045C5.85608 5.54902 5.89037 5.53759 5.92465 5.53759C5.95894 5.53759 5.99322 5.53759 6.03893 5.52617C6.07322 5.51474 6.10751 5.49188 6.1418 5.48045C6.17608 5.45759 6.19894 5.44616 6.21037 5.4233C6.22179 5.40045 6.22179 5.37759 6.24465 5.36616C6.25608 5.35473 6.29036 5.35474 6.31322 5.34331C6.34751 5.33188 6.3818 5.30902 6.40465 5.27474C6.43894 5.24045 6.46179 5.19473 6.48465 5.16045C6.50751 5.13759 6.54179 5.13759 6.55322 5.11473C6.56465 5.09188 6.57608 5.04617 6.57608 5.01188C6.57608 4.97759 6.57608 4.95473 6.57608 4.92045C6.57608 4.88616 6.58751 4.85188 6.61037 4.8176C6.6218 4.78331 6.64465 4.76045 6.66751 4.73759C6.69036 4.71473 6.73608 4.68045 6.75893 4.64616C6.79322 4.61188 6.80465 4.56617 6.83894 4.53188C6.8618 4.49759 6.89608 4.48616 6.91894 4.4633C6.94179 4.44045 6.96465 4.40616 6.99893 4.39473C7.03322 4.38331 7.05608 4.39474 7.1018 4.38331C7.14751 4.37188 7.19322 4.36045 7.22751 4.33759C7.26179 4.31474 7.28465 4.28045 7.31894 4.24616C7.35323 4.21188 7.39894 4.14331 7.43322 4.08617C7.46751 4.02902 7.5018 3.97188 7.53608 3.93759C7.57035 3.90331 7.60463 3.90331 7.6275 3.90331C7.65038 3.91474 7.66178 3.92616 7.68465 3.94902C7.69605 3.97188 7.70753 3.9833 7.71892 4.00616C7.7304 4.02902 7.7304 4.05188 7.7304 4.07474C7.7418 4.09759 7.76468 4.10902 7.79895 4.10902C7.83323 4.10902 7.8789 4.09759 7.92465 4.09759C7.9704 4.09759 8.00468 4.10902 8.05035 4.10902C8.0961 4.12045 8.14178 4.12045 8.17605 4.12045C8.2104 4.13188 8.24468 4.13188 8.26748 4.12045C8.30183 4.10902 8.3361 4.07474 8.3589 4.04045C8.38178 4.01759 8.40465 3.99473 8.42753 3.9833C8.4618 3.97188 8.49608 3.97187 8.54183 3.97187C8.5875 3.97187 8.62178 3.97188 8.64465 3.96045C8.66753 3.94902 8.67893 3.91473 8.7132 3.89188C8.73608 3.86902 8.78183 3.85759 8.8275 3.84617C8.88465 3.83474 8.9418 3.83474 8.99895 3.83474C9.0561 3.83474 9.09038 3.83474 9.13605 3.82331C9.1818 3.81188 9.22748 3.78902 9.27323 3.77759C9.3189 3.76616 9.37605 3.77759 9.4332 3.78902C9.49035 3.80045 9.5361 3.80045 9.5589 3.81188C9.58178 3.82331 9.59325 3.84617 9.61605 3.84617C9.63893 3.84617 9.68468 3.83474 9.73035 3.81188C9.7761 3.80045 9.81038 3.78902 9.85605 3.77759C9.8904 3.77759 9.93608 3.77759 9.97035 3.78902C10.0046 3.80045 10.0275 3.81188 10.0618 3.81188C10.0847 3.81188 10.1189 3.78902 10.1304 3.77759C10.1532 3.77759 10.1532 3.78902 10.199 3.78902C10.2332 3.78902 10.3018 3.77759 10.3589 3.76616C10.4161 3.75473 10.4732 3.7433 10.5075 3.75473C10.5418 3.76616 10.5533 3.78902 10.5875 3.81188C10.6218 3.82331 10.6675 3.83474 10.6904 3.83474C10.7132 3.84617 10.7132 3.85759 10.6904 3.86902C10.6675 3.88045 10.6332 3.89188 10.6218 3.92616C10.5989 3.94902 10.5989 3.9833 10.5989 4.00616C10.5989 4.02902 10.6218 4.05188 10.6332 4.06331C10.6561 4.07474 10.679 4.08617 10.6904 4.10902C10.7018 4.13188 10.7018 4.16616 10.6904 4.18902C10.6332 4.24616 10.6104 4.25759 10.5989 4.28045C10.5875 4.30331 10.5761 4.32617 10.5647 4.34902C10.5418 4.36045 10.5189 4.37188 10.4961 4.39473C10.4732 4.41759 10.4503 4.45188 10.4618 4.48616C10.4732 4.52045 10.5189 4.54331 10.5533 4.55474C10.5875 4.56617 10.6218 4.56617 10.6332 4.57759C10.6447 4.58902 10.6447 4.62331 10.6561 4.63473C10.6675 4.64616 10.6904 4.64616 10.7246 4.65759C10.7475 4.66902 10.7818 4.69188 10.8047 4.71473C10.8389 4.73759 10.8732 4.74902 10.9075 4.74902C10.9532 4.76045 10.9989 4.76045 11.0447 4.76045C11.0904 4.76045 11.1361 4.74902 11.1704 4.76045C11.2046 4.77188 11.2389 4.79474 11.2847 4.80617C11.3189 4.81759 11.3532 4.82902 11.3875 4.84045C11.4218 4.85188 11.4332 4.86331 11.4332 4.88616C11.4332 4.90902 11.4332 4.92045 11.4332 4.95473C11.4332 4.98902 11.4561 5.02331 11.4789 5.04617C11.5133 5.06902 11.5589 5.06902 11.639 5.08045C11.7075 5.09188 11.8104 5.10331 11.8561 5.12616C11.9018 5.14902 11.9132 5.17188 11.9475 5.19473C11.9818 5.21759 12.0618 5.24045 12.1075 5.25188C12.1532 5.27474 12.1646 5.28617 12.1761 5.28617C12.1989 5.28617 12.2218 5.27474 12.2561 5.25188C12.2904 5.22902 12.3247 5.20616 12.3475 5.1833C12.3704 5.16045 12.3818 5.14902 12.3703 5.12616C12.359 5.10331 12.3361 5.06902 12.3247 5.02331C12.3132 4.98902 12.3132 4.9433 12.3361 4.92045C12.359 4.88616 12.3932 4.87473 12.4275 4.84045C12.4618 4.81759 12.4733 4.78331 12.5075 4.76045C12.5304 4.73759 12.5647 4.73759 12.6104 4.72616C12.6561 4.72616 12.7018 4.71473 12.7475 4.71473C12.7932 4.7033 12.8161 4.7033 12.839 4.71473C12.8618 4.72616 12.8732 4.76045 12.8961 4.77188C12.9189 4.78331 12.9532 4.79474 12.9647 4.80617C12.9761 4.81759 12.9761 4.84045 12.9989 4.85188C13.0218 4.86331 13.0447 4.86331 13.079 4.87473C13.1132 4.87473 13.1475 4.88616 13.1704 4.89759C13.1932 4.90902 13.2161 4.93187 13.2389 4.93187C13.2618 4.9433 13.2961 4.93188 13.3075 4.9433C13.3303 4.95473 13.3304 4.98902 13.3646 5.00045C13.3875 5.02331 13.4447 5.02331 13.5018 5.02331C13.559 5.02331 13.6275 5.01188 13.6847 5.02331C13.7418 5.02331 13.7875 5.03474 13.8218 5.04617C13.8561 5.05759 13.8904 5.06902 13.9133 5.08045C13.9475 5.08045 13.9818 5.06902 14.0161 5.08045C14.0504 5.09188 14.0732 5.11473 14.1075 5.12616C14.1304 5.13759 14.1647 5.12616 14.1989 5.11473C14.2332 5.10331 14.2675 5.08045 14.3018 5.06902C14.3361 5.05759 14.3704 5.05759 14.4047 5.04617C14.4389 5.03474 14.4732 5.00045 14.519 4.98902C14.5646 4.97759 14.6104 4.98902 14.6561 5.01188C14.7018 5.02331 14.7361 5.04617 14.7704 5.05759C14.8046 5.06902 14.8275 5.08045 14.8618 5.08045C14.9075 5.08045 14.9761 5.08045 15.0218 5.06902C15.0675 5.05759 15.1018 5.04617 15.1361 5.06902C15.1704 5.08045 15.2047 5.12616 15.2161 5.17188C15.2275 5.21759 15.2275 5.22902 15.2275 5.26331C15.239 5.29759 15.2618 5.33188 15.2618 5.37759C15.2618 5.4233 15.2503 5.49188 15.2503 5.53759C15.2503 5.59473 15.2846 5.64045 15.2846 5.68616C15.2846 5.73188 15.2618 5.76617 15.2275 5.77759C15.2047 5.78902 15.1704 5.77759 15.1475 5.75474C15.1247 5.73188 15.1018 5.68616 15.0789 5.62902C15.0561 5.57188 15.0218 5.51474 14.999 5.46902C14.9647 5.4233 14.9418 5.41188 14.9075 5.41188C14.8733 5.41188 14.8389 5.43473 14.8275 5.45759C14.8161 5.49188 14.8275 5.52617 14.8504 5.56045C14.8733 5.59473 14.9189 5.61759 14.9418 5.65188C14.9647 5.68616 14.9761 5.73188 14.999 5.76617C15.0218 5.80045 15.0561 5.83473 15.0675 5.86902C15.0789 5.9033 15.0789 5.93759 15.1018 5.98331C15.1133 6.02902 15.1361 6.07473 15.1704 6.10902C15.1932 6.15473 15.2275 6.20045 15.2618 6.24617C15.2961 6.29188 15.3418 6.36045 15.3761 6.40616C15.4104 6.45188 15.4332 6.49759 15.479 6.53188C15.5246 6.56616 15.5818 6.58902 15.5933 6.61188C15.6047 6.63473 15.5704 6.63473 15.5589 6.64616C15.5475 6.65759 15.5475 6.65759 15.5475 6.66902C15.5475 6.69188 15.5361 6.71474 15.5475 6.74902C15.5589 6.78331 15.5818 6.82902 15.6161 6.85188C15.6504 6.87473 15.6847 6.89759 15.7075 6.92045C15.7418 6.93188 15.7646 6.95474 15.7875 6.98902C15.8104 7.02331 15.8447 7.05759 15.8675 7.1033C15.8904 7.14902 15.9018 7.18331 15.9132 7.22902C15.9247 7.27473 15.9247 7.33188 15.9361 7.37759C15.9475 7.42331 15.959 7.46902 15.9704 7.5147C15.9818 7.54905 15.9932 7.59473 16.0046 7.629C16.0161 7.67475 16.0161 7.70903 16.0389 7.7433C16.0618 7.77758 16.1189 7.78905 16.1532 7.81185C16.1875 7.83473 16.2104 7.83473 16.2218 7.8576C16.2446 7.88048 16.2561 7.91475 16.2789 7.92615C16.3018 7.93763 16.3247 7.93763 16.3361 7.96043C16.3589 7.9833 16.3704 8.01758 16.3932 8.05185C16.4047 8.08613 16.4161 8.109 16.4161 8.14328C16.4161 8.17763 16.4161 8.2233 16.439 8.25758C16.4618 8.30333 16.4961 8.3376 16.5189 8.38328C16.5418 8.42903 16.5304 8.4747 16.5647 8.49758C16.5875 8.52045 16.6447 8.53185 16.6903 8.54333C16.7361 8.55473 16.7589 8.5662 16.7933 8.5776C16.8275 8.60048 16.8504 8.62328 16.8847 8.64615C16.9189 8.66903 16.9418 8.7033 16.9761 8.72618C16.9989 8.76045 17.0218 8.78333 17.056 8.8176C17.0904 8.85188 17.1361 8.88615 17.1818 8.92043C17.2275 8.9547 17.2618 8.97758 17.296 9.00045C17.3304 9.02333 17.3532 9.04613 17.3761 9.069C17.399 9.09188 17.4104 9.11475 17.4104 9.13763C17.4104 9.1719 17.3875 9.20618 17.3647 9.21758C17.3304 9.24045 17.2961 9.24045 17.2733 9.25185C17.2504 9.26333 17.2389 9.28613 17.2504 9.309C17.2618 9.33188 17.2846 9.34328 17.3075 9.34328C17.3418 9.34328 17.3647 9.34328 17.399 9.36615C17.4218 9.38903 17.4446 9.4233 17.4789 9.46905C17.5133 9.50333 17.5704 9.5376 17.6161 9.56048C17.6732 9.58328 17.7189 9.58328 17.7646 9.57188C17.8104 9.56048 17.8447 9.51473 17.8904 9.49185C17.9361 9.46905 18.0047 9.46905 18.0504 9.46905C18.0847 9.46905 18.0961 9.48045 18.1189 9.46905C18.1418 9.45758 18.1646 9.4233 18.1989 9.40043C18.2332 9.37763 18.2675 9.36615 18.3018 9.36615C18.3247 9.36615 18.3475 9.37763 18.3589 9.37763C18.3818 9.37763 18.4046 9.36615 18.4275 9.36615C18.4275 9.32048 18.4504 9.32048 18.4733 9.32048C18.4961 9.32048 18.5189 9.33188 18.5532 9.33188C18.5875 9.33188 18.6218 9.309 18.6561 9.2976C18.6904 9.28613 18.7133 9.28613 18.7475 9.27473C18.7704 9.26333 18.7932 9.25185 18.8161 9.24045C18.839 9.22905 18.8618 9.21758 18.8618 9.1947C18.8732 9.1719 18.8618 9.13763 18.8846 9.12615C18.9075 9.11475 18.9532 9.12615 18.9875 9.13763C19.0218 9.14903 19.0332 9.16043 19.0332 9.1833C19.0332 9.1947 19.0104 9.21758 19.0104 9.25185C19.0104 9.28613 19.0104 9.33188 19.0218 9.36615C19.0332 9.4119 19.0447 9.4347 19.0332 9.45758C19.0218 9.46905 18.976 9.46905 18.9646 9.49185C18.9532 9.51473 18.9646 9.56048 18.976 9.61763C18.976 9.6747 18.976 9.73185 18.9646 9.75473C18.9532 9.7776 18.9304 9.7776 18.9189 9.789C18.9075 9.80048 18.9075 9.82328 18.9075 9.84615C18.9075 9.86903 18.8961 9.9033 18.8846 9.92618C18.8732 9.94905 18.8504 9.96045 18.839 9.99473C18.8275 10.029 18.8161 10.0748 18.7932 10.109C18.7704 10.1433 18.7475 10.1547 18.736 10.1891C18.7246 10.2119 18.7132 10.2576 18.7018 10.2805C18.6904 10.3033 18.6789 10.3262 18.6675 10.349C18.6446 10.4176 18.6332 10.4633 18.6218 10.4976C18.6103 10.5319 18.599 10.5662 18.5875 10.6004C18.5647 10.6233 18.5418 10.6576 18.5189 10.6919C18.496 10.7261 18.4846 10.749 18.4618 10.7719C18.4389 10.7833 18.4275 10.7833 18.3932 10.8176C18.3703 10.8404 18.3361 10.8976 18.3247 10.9433C18.3132 10.989 18.3018 11.0348 18.2675 11.069C18.2333 11.1033 18.1646 11.1491 18.1304 11.1719C18.0961 11.2061 18.0847 11.229 18.0847 11.2405C18.0732 11.2633 18.0618 11.2748 18.0389 11.2862C18.0161 11.2976 17.9933 11.309 17.9704 11.3204C17.9475 11.3319 17.9246 11.3547 17.9132 11.3776C17.8904 11.3891 17.8789 11.4005 17.8675 11.4005C17.8561 11.4005 17.8332 11.3891 17.8218 11.4005C17.8104 11.4005 17.7875 11.4233 17.7646 11.4461C17.7418 11.469 17.7075 11.4919 17.6846 11.5148C17.6504 11.5376 17.6275 11.549 17.6047 11.5604C17.5818 11.5719 17.5589 11.5947 17.5475 11.6176C17.536 11.6405 17.536 11.6747 17.5133 11.6976C17.4904 11.7205 17.4561 11.7433 17.4218 11.7776C17.3875 11.8119 17.3418 11.8691 17.3075 11.9147C17.2733 11.9605 17.2389 11.9833 17.2161 12.0062C17.1932 12.029 17.1818 12.0519 17.1589 12.0862C17.1361 12.1205 17.1132 12.1547 17.0789 12.2005C17.0447 12.2462 16.9875 12.3033 16.9418 12.3262C16.9075 12.3491 16.8732 12.3605 16.8618 12.3833C16.8504 12.4061 16.8504 12.4405 16.8275 12.4633C16.8047 12.4862 16.7704 12.4748 16.7475 12.4862C16.7246 12.4976 16.7246 12.5204 16.7246 12.5433C16.7132 12.5662 16.7018 12.6005 16.6903 12.6347C16.6789 12.6576 16.679 12.6919 16.6675 12.7148C16.6675 12.749 16.6561 12.7947 16.6332 12.8291C16.5989 12.8633 16.5533 12.8861 16.5189 12.9205C16.4961 12.9433 16.4961 12.9776 16.4961 13.0119C16.4961 13.0462 16.5075 13.0691 16.4961 13.1033C16.4846 13.1376 16.4618 13.1719 16.439 13.2062C16.4275 13.2404 16.4275 13.2747 16.4504 13.2976C16.4732 13.3205 16.5075 13.3319 16.5189 13.3433C16.5304 13.3661 16.5304 13.389 16.5189 13.4233C16.5189 13.4576 16.5075 13.5147 16.5189 13.5491C16.5304 13.5947 16.5418 13.629 16.5418 13.6633C16.5418 13.6976 16.5304 13.7204 16.5418 13.7662C16.5418 13.8119 16.5532 13.8576 16.5532 13.9033C16.5532 13.949 16.5418 13.9833 16.5647 14.0176C16.5761 14.0519 16.6104 14.0747 16.6332 14.0976C16.6561 14.1205 16.6561 14.1319 16.6903 14.1548C16.7246 14.1662 16.7704 14.189 16.7933 14.2119C16.8161 14.2347 16.8047 14.2576 16.7933 14.2805C16.7818 14.3033 16.7704 14.3261 16.7704 14.3605C16.7589 14.3948 16.7589 14.429 16.7589 14.4633C16.7589 14.4976 16.7704 14.5205 16.7818 14.5433C16.7933 14.5661 16.7933 14.5776 16.7818 14.6005C16.7818 14.6233 16.7704 14.6348 16.7704 14.6576C16.7704 14.6804 16.7818 14.7033 16.7933 14.7262C16.7933 14.7491 16.7818 14.7605 16.7818 14.7833C16.7704 14.8061 16.7704 14.8405 16.7704 14.8748C16.7704 14.909 16.7589 14.9319 16.7589 14.9662C16.7589 15.0005 16.7704 15.0233 16.7818 15.0461C16.7933 15.069 16.8047 15.0805 16.8047 15.1033C16.8161 15.1262 16.8161 15.1719 16.8047 15.1947C16.7933 15.2176 16.7704 15.2405 16.7589 15.2633C16.7475 15.2861 16.7361 15.3205 16.7246 15.3433C16.7132 15.3662 16.6904 15.3776 16.6675 15.4119C16.6447 15.4347 16.6218 15.4805 16.5989 15.5033C16.5761 15.5261 16.5646 15.549 16.5532 15.5605C16.5304 15.5719 16.5075 15.5719 16.4846 15.5833C16.4618 15.5948 16.4503 15.629 16.4275 15.6404C16.4047 15.6519 16.3704 15.6633 16.3361 15.6747C16.3018 15.6862 16.2789 15.6862 16.2446 15.6976C16.2104 15.7091 16.1761 15.7091 16.1532 15.7205C16.1304 15.7319 16.1189 15.7547 16.0961 15.7776C16.0732 15.8005 16.0389 15.8119 16.0046 15.8348C15.9818 15.8462 15.959 15.869 15.9475 15.8919C15.9361 15.9147 15.9247 15.9491 15.9018 15.9719C15.8789 15.9947 15.8447 15.9947 15.8218 16.0061C15.7989 16.0061 15.7761 16.0176 15.7532 16.029C15.7418 16.0519 15.7304 16.0862 15.719 16.109C15.7075 16.1319 15.6847 16.1319 15.6618 16.1433C15.6389 16.1547 15.6047 16.1776 15.5818 16.2005C15.5589 16.2233 15.5475 16.2461 15.5246 16.269C15.5018 16.2919 15.4675 16.3148 15.4447 16.3376C15.4218 16.3604 15.4104 16.3833 15.4104 16.4062C15.4104 16.4291 15.4218 16.4519 15.4447 16.4633C15.4675 16.4747 15.4904 16.4861 15.5018 16.509C15.5132 16.5205 15.5018 16.5433 15.5018 16.5776C15.5018 16.6004 15.5018 16.6347 15.5132 16.6691C15.5246 16.7033 15.5475 16.7261 15.5704 16.749C15.5818 16.7719 15.5933 16.7948 15.5933 16.8176C15.5933 16.8404 15.5704 16.8747 15.5589 16.8976C15.5475 16.9319 15.5361 16.9547 15.5361 16.989C15.5361 17.0119 15.5361 17.0462 15.5361 17.0804C15.5246 17.1147 15.5132 17.1491 15.5018 17.1833C15.4904 17.2176 15.4904 17.229 15.479 17.2519C15.479 17.2748 15.479 17.309 15.479 17.3319C15.4675 17.3547 15.4561 17.3547 15.4332 17.3547C15.4104 17.3662 15.3761 17.3776 15.3304 17.3891C15.2846 17.4005 15.239 17.4119 15.1932 17.4347C15.1475 17.4461 15.1018 17.4576 15.0675 17.4805C15.0446 17.5033 15.0332 17.5376 15.0104 17.549C14.9875 17.5604 14.9532 17.5604 14.9189 17.5719C14.8961 17.5833 14.8847 17.5947 14.8847 17.6291C14.8847 17.6519 14.9075 17.6861 14.9189 17.709C14.9304 17.7433 14.9418 17.7662 14.9418 17.789C14.9418 17.8119 14.9189 17.8233 14.9075 17.8462C14.8961 17.8691 14.9075 17.9147 14.8961 17.949C14.8847 17.9833 14.8504 18.0062 14.8389 18.0404C14.8275 18.0633 14.8389 18.0976 14.8275 18.1319C14.8275 18.1547 14.8046 18.1776 14.7818 18.2005C14.759 18.2233 14.7247 18.2462 14.6904 18.269C14.6447 18.2919 14.5875 18.3262 14.5532 18.3605C14.519 18.3947 14.5075 18.429 14.4961 18.4633C14.4847 18.4976 14.4732 18.5319 14.4618 18.5547C14.4504 18.5776 14.4275 18.6005 14.416 18.6233C14.4046 18.6461 14.3933 18.6919 14.3704 18.7148C14.3475 18.7376 14.3246 18.749 14.2904 18.7604C14.2675 18.7719 14.2332 18.7947 14.2104 18.8291C14.1875 18.8519 14.1646 18.8861 14.1418 18.909C14.1075 18.9319 14.0732 18.9548 14.0389 18.9776C14.0161 19.0004 14.0047 19.0347 13.9818 19.0576C13.9589 19.0805 13.9247 19.1033 13.9018 19.1147C13.8789 19.1261 13.8446 19.1376 13.8104 19.1605C13.7761 19.1833 13.7189 19.2062 13.6733 19.2176C13.6275 19.229 13.5818 19.229 13.5475 19.2404C13.5132 19.2519 13.5018 19.2862 13.4675 19.2976C13.4333 19.3091 13.3989 19.3091 13.3532 19.3091C13.3075 19.3091 13.2618 19.3091 13.2275 19.3091C13.1704 19.2747 13.1475 19.2747 13.1132 19.2747ZM18.7932 15.3776C18.7932 15.3433 18.7818 15.2861 18.7818 15.2405C18.7703 15.1947 18.7589 15.1719 18.7475 15.1148C18.7361 15.0576 18.7475 14.9662 18.736 14.8976C18.736 14.829 18.7133 14.7947 18.6904 14.7491C18.6675 14.7147 18.6446 14.669 18.6332 14.6462C18.6218 14.6119 18.6218 14.589 18.6104 14.589C18.599 14.589 18.5875 14.6233 18.5647 14.6348C18.5418 14.6576 18.5189 14.669 18.5075 14.6919C18.4961 14.7147 18.5075 14.7605 18.5075 14.7947C18.5075 14.829 18.5075 14.8519 18.496 14.8748C18.4846 14.8976 18.4618 14.909 18.4389 14.9204C18.4161 14.9319 18.3932 14.9319 18.3703 14.9204C18.3475 14.909 18.3361 14.8976 18.3247 14.909C18.3132 14.9204 18.3018 14.9433 18.3018 14.9776C18.3018 15.0119 18.3132 15.0461 18.3132 15.069C18.3132 15.0919 18.2904 15.1033 18.2675 15.1148C18.2447 15.1148 18.2332 15.1033 18.2218 15.1148C18.2104 15.1262 18.2218 15.149 18.2218 15.1719C18.2218 15.1947 18.2332 15.2176 18.2218 15.2291C18.2104 15.2405 18.1989 15.2519 18.1875 15.2633C18.1761 15.2747 18.1646 15.2976 18.1532 15.2861C18.1304 15.2861 18.1075 15.2633 18.0847 15.2633C18.0618 15.2633 18.0503 15.2976 18.0275 15.3205C18.016 15.3433 17.9933 15.3776 17.9704 15.389C17.9361 15.4004 17.8904 15.4004 17.879 15.4119C17.8561 15.4233 17.8561 15.4347 17.8447 15.4462C17.8332 15.4576 17.7875 15.4576 17.7646 15.4576C17.7304 15.4576 17.7075 15.4576 17.6961 15.4576C17.6846 15.4691 17.6846 15.4805 17.6618 15.4805C17.6504 15.4805 17.6161 15.4805 17.5932 15.4805C17.5704 15.4805 17.5475 15.4805 17.536 15.4919C17.5246 15.5033 17.5018 15.5147 17.5018 15.5376C17.5018 15.5605 17.5133 15.5719 17.5133 15.5948C17.5133 15.6176 17.4904 15.629 17.4904 15.6404C17.4789 15.6519 17.4904 15.6633 17.4789 15.6862C17.4789 15.7091 17.4561 15.7319 17.4332 15.7547C17.4104 15.7776 17.3875 15.7776 17.3761 15.8005C17.3647 15.8233 17.3761 15.8462 17.3761 15.9033C17.3761 15.9491 17.3647 16.029 17.3761 16.0748C17.3875 16.1204 17.4218 16.1319 17.4446 16.1547C17.4675 16.1776 17.4675 16.2119 17.4561 16.2347C17.4446 16.2576 17.4332 16.2919 17.4218 16.3148C17.4103 16.3376 17.4218 16.349 17.4104 16.3719C17.4104 16.3947 17.3875 16.4176 17.3647 16.4519C17.3418 16.4747 17.3189 16.509 17.296 16.5433C17.2846 16.5776 17.2732 16.6119 17.2618 16.6347C17.2504 16.6576 17.2389 16.6691 17.2161 16.6805C17.1932 16.6919 17.1704 16.7033 17.1475 16.7261C17.1247 16.749 17.1018 16.7948 17.1018 16.8404C17.1018 16.8862 17.1132 16.9433 17.1361 16.9661C17.1475 17.0005 17.1589 17.0119 17.1589 17.0576C17.1589 17.1033 17.1475 17.1719 17.1475 17.2405C17.1475 17.309 17.159 17.3662 17.1704 17.4005C17.1818 17.4461 17.2046 17.469 17.2389 17.4805C17.2733 17.5033 17.3075 17.5033 17.3304 17.5262C17.3532 17.5376 17.3532 17.5604 17.3761 17.5719C17.399 17.5833 17.4446 17.5719 17.4904 17.5719C17.536 17.5604 17.5704 17.549 17.6047 17.549C17.639 17.549 17.6504 17.5604 17.6846 17.5604C17.7189 17.5604 17.7532 17.549 17.7646 17.5376C17.7875 17.5148 17.776 17.4919 17.7989 17.469C17.8218 17.4461 17.8561 17.4119 17.879 17.3776C17.9018 17.3433 17.9018 17.2862 17.9246 17.2519C17.9361 17.2176 17.9704 17.2061 17.9932 17.1719C18.016 17.1376 18.016 17.1033 18.0275 17.0576C18.0389 17.0233 18.0504 16.989 18.0732 16.9547C18.0961 16.9205 18.1189 16.8862 18.1304 16.8519C18.1532 16.8176 18.1646 16.7833 18.1875 16.7376C18.2104 16.6919 18.2447 16.6233 18.2675 16.5776C18.2904 16.5205 18.2789 16.4861 18.3018 16.4291C18.3247 16.3833 18.3589 16.3148 18.3932 16.2576C18.4275 16.2005 18.4389 16.1319 18.4618 16.0976C18.4846 16.0633 18.5075 16.0405 18.5304 16.029C18.5418 16.0061 18.5532 15.9833 18.5647 15.9605C18.5647 15.9376 18.5647 15.8919 18.5647 15.869C18.5647 15.8348 18.5647 15.8119 18.5761 15.789C18.5875 15.7661 18.599 15.7547 18.6104 15.7547C18.6218 15.7547 18.6218 15.7433 18.6218 15.7319C18.6218 15.7205 18.6332 15.6862 18.6104 15.6633C18.599 15.6404 18.5647 15.6176 18.5532 15.5833C18.5304 15.549 18.5304 15.5033 18.5418 15.4576C18.5532 15.4119 18.5875 15.3776 18.5989 15.3776C18.6218 15.389 18.6332 15.4347 18.6446 15.4805C18.6675 15.5261 18.6904 15.549 18.7246 15.549C18.7589 15.549 18.7818 15.5147 18.7932 15.4919C18.8047 15.4462 18.7932 15.4233 18.7932 15.3776Z" fill="white"/>
</svg>
