<svg width="16" height="16" viewBox="0 0 16 16" fill="none" xmlns="http://www.w3.org/2000/svg">
<path d="M8 0C6.41775 0 4.87104 0.469192 3.55544 1.34825C2.23985 2.22729 1.21447 3.47673 0.608965 4.93853C0.00346637 6.40035 -0.15496 8.00885 0.153722 9.5607C0.462403 11.1126 1.22433 12.538 2.34315 13.6568C3.46197 14.7757 4.88743 15.5376 6.4393 15.8463C7.99115 16.1549 9.59965 15.9966 11.0615 15.3911C12.5233 14.7856 13.7727 13.7601 14.6517 12.4445C15.5308 11.1289 16 9.58225 16 8C16 5.87825 15.1572 3.84343 13.6568 2.34314C12.1565 0.842855 10.1217 0 8 0ZM8.484 11.564V12.49C8.4843 12.5235 8.4778 12.5568 8.4649 12.5877C8.452 12.6186 8.43295 12.6465 8.40895 12.6699C8.3849 12.6933 8.3564 12.7116 8.32515 12.7236C8.2939 12.7357 8.2605 12.7412 8.227 12.74H7.61C7.5763 12.7414 7.54265 12.7359 7.5111 12.724C7.47955 12.712 7.45075 12.6938 7.4264 12.6705C7.402 12.6472 7.3826 12.6191 7.3693 12.5881C7.356 12.5571 7.3491 12.5237 7.349 12.49V11.645C6.8112 11.6216 6.2801 11.5164 5.774 11.333C5.66095 11.2893 5.5679 11.2055 5.51255 11.0976C5.45725 10.9898 5.4435 10.8653 5.474 10.748L5.574 10.356C5.59145 10.2884 5.62305 10.2252 5.66665 10.1706C5.7103 10.116 5.765 10.0712 5.82715 10.0393C5.8893 10.0074 5.9575 9.989 6.0273 9.9853C6.09705 9.98165 6.16685 9.9928 6.232 10.018C6.6854 10.1965 7.16775 10.29 7.655 10.294C8.319 10.294 8.773 10.038 8.773 9.572C8.773 9.13 8.4 8.85 7.538 8.559C6.292 8.14 5.438 7.559 5.438 6.428C5.4559 5.9026 5.66525 5.4019 6.0266 5.0201C6.38795 4.63832 6.8764 4.40177 7.4 4.355V3.51C7.401 3.43866 7.42935 3.37043 7.47925 3.31943C7.5291 3.26843 7.5967 3.23856 7.668 3.236H8.285C8.3546 3.23911 8.4201 3.26972 8.4672 3.32108C8.51425 3.37245 8.539 3.4404 8.536 3.51V4.273C8.96405 4.28396 9.3885 4.35465 9.797 4.483C9.91635 4.52241 10.0164 4.60531 10.0774 4.7152C10.1384 4.82509 10.1557 4.9539 10.126 5.076L10.038 5.427C10.0211 5.4931 9.99075 5.555 9.94875 5.60875C9.90675 5.66255 9.8541 5.70705 9.79405 5.73945C9.73405 5.77185 9.66795 5.7915 9.59995 5.7971C9.53195 5.8027 9.46355 5.79415 9.399 5.772C9.0204 5.64135 8.6225 5.5754 8.222 5.577C7.465 5.577 7.222 5.903 7.222 6.229C7.222 6.613 7.63 6.858 8.622 7.229C10 7.721 10.56 8.361 10.56 9.409C10.5425 9.9616 10.3204 10.488 9.93685 10.8862C9.5533 11.2843 9.03555 11.5259 8.484 11.564Z" fill="#737373"/>
</svg>
