<svg width="24" height="24" viewBox="0 0 24 24" fill="none" xmlns="http://www.w3.org/2000/svg">
<path d="M0.75 16.17C1.60243 18.4665 3.13728 20.4472 5.14835 21.8459C7.15943 23.2446 9.55035 23.9942 12 23.9942C14.4496 23.9942 16.8406 23.2446 18.8516 21.8459C20.8627 20.4472 22.3976 18.4665 23.25 16.17L12 15.13L0.75 16.17Z" fill="#FFDA44"/>
<path d="M12 1.00309e-07C9.55087 -0.000316487 7.16028 0.748761 5.14927 2.14664C3.13826 3.54452 1.60311 5.52426 0.75 7.82003L12 8.87003L23.25 7.86998C22.4051 5.56491 20.8734 3.57445 18.8617 2.16716C16.85 0.759863 14.4551 0.00345914 12 1.00309e-07Z" fill="#262626"/>
<path d="M0.75018 7.82001C-0.249409 10.5136 -0.249409 13.4764 0.75018 16.17H23.2502C24.2498 13.4764 24.2498 10.5136 23.2502 7.82001H0.75018Z" fill="#D80027"/>
</svg>
